<?xml version="1.0" encoding="UTF-8" standalone="no"?>
<!-- Created with Inkscape (http://www.inkscape.org/) -->

<svg
   width="23.996853"
   height="24.000389"
   viewBox="0 0 23.996853 24.000389"
   version="1.1"
   id="svg5"
   xml:space="preserve"
   xmlns="http://www.w3.org/2000/svg"
   xmlns:svg="http://www.w3.org/2000/svg"><defs
     id="defs2" /><g
     id="layer1"><path
       style="fill:#000000;stroke:#000000;stroke-dasharray:none;stroke-width:0.0407512"
       d="M 15.6158 23.966 C 15.5778 23.9522 15.5658 23.7001 15.5658 22.8949 L 15.5658 21.842 L 14.1242 21.842 L 12.6825 21.842 L 12.6715 22.888 L 12.6605 23.9341 L 12.5695 23.9473 L 12.4795 23.9605 L 12.4795 22.6604 L 12.4795 21.3603 L 12.3024 21.3513 C 12.1548 21.3433 12.121 21.3563 12.0994 21.4266 C 12.0584 21.5589 11.8919 21.7437 11.7632 21.7988 C 11.6652 21.8404 11.6417 21.8806 11.6191 22.0363 C 11.5981 22.1813 11.5541 22.2634 11.4223 22.3992 C 11.2424 22.5851 11.1209 22.6295 10.7918 22.6295 L 10.5964 22.6295 L 10.5964 23.2923 C 10.5964 23.9275 10.5964 23.9552 10.5164 23.9552 C 10.4384 23.9552 10.4364 23.9276 10.4364 22.9239 C 10.4364 22.1259 10.4244 21.8881 10.3854 21.8724 C 10.3574 21.8613 9.7037 21.8546 8.9331 21.8576 L 7.5319 21.8636 L 7.5209 22.9124 L 7.5099 23.9612 L 7.4199 23.9481 C 7.3329 23.9353 7.3309 23.9219 7.3194 23.288 L 7.3084 22.641 L 7.0292 22.6203 C 6.7301 22.5982 6.5604 22.5118 6.4089 22.3046 C 6.3319 22.1983 6.3289 22.1214 6.3179 19.783 L 6.3069 17.3709 L 6.4069 17.1677 C 6.5366 16.9031 6.7205 16.7165 6.97 16.5963 L 7.1712 16.4995 L 8.9369 16.4995 C 10.9033 16.4995 10.9256 16.5015 11.2348 16.7753 C 11.4155 16.9353 11.5756 17.222 11.6196 17.4646 C 11.6466 17.6157 11.6496 17.6177 11.8388 17.6177 C 12.0277 17.6177 12.0305 17.6157 12.058 17.4646 C 12.102 17.2221 12.2621 16.9353 12.4428 16.7753 C 12.7456 16.5073 12.8051 16.4991 14.4401 16.4995 C 15.8911 16.4995 15.9073 16.5005 16.1057 16.5966 C 16.3883 16.7331 16.5442 16.8821 16.6635 17.1296 L 16.7668 17.3439 L 16.7668 18.9114 C 16.7668 20.6347 16.7668 20.6375 16.5212 20.8775 C 16.3518 21.0433 16.214 21.0976 15.9629 21.0976 L 15.7651 21.0976 L 15.7651 22.5224 C 15.7651 23.9815 15.7651 24.02 15.6149 23.9672 Z M 7.3123 20.8891 L 7.3123 19.3563 L 6.8896 19.3563 L 6.4669 19.3563 L 6.4789 20.6924 C 6.4889 21.8557 6.4999 22.045 6.5589 22.1568 C 6.6489 22.3255 6.8422 22.4199 7.1019 22.421 L 7.3122 22.422 Z M 11.2784 22.2756 C 11.3434 22.208 11.4087 22.093 11.4227 22.02 C 11.4457 21.9028 11.4367 21.8843 11.3477 21.8612 C 11.1903 21.8203 11.1019 21.6863 10.9603 21.2732 C 10.8127 20.8424 10.8165 20.6642 10.9763 20.5059 L 11.0703 20.4128 L 10.9242 19.8535 C 10.7986 19.3722 10.767 19.2942 10.6981 19.2942 C 10.6201 19.2942 10.6181 19.3258 10.6071 20.8629 L 10.5961 22.4315 L 10.8786 22.415 C 11.1275 22.4005 11.1751 22.3839 11.2797 22.2756 Z M 10.4374 20.3713 L 10.4374 19.0663 L 10.5803 19.0663 C 10.6977 19.0663 10.7195 19.0533 10.7024 18.9938 C 10.3631 17.8118 10.4045 17.6532 11.0607 17.6236 C 11.4943 17.604 11.4966 17.6011 11.3448 17.2639 C 11.2328 17.0152 11.0148 16.8064 10.8086 16.7502 C 10.7266 16.7276 10.5045 16.7051 10.3172 16.7002 L 9.9766 16.6912 L 9.5288 17.4748 L 9.081 18.2584 L 9.2484 18.2693 C 9.3404 18.2753 9.4567 18.2897 9.5068 18.3014 L 9.5978 18.3226 L 9.5868 19.1605 L 9.5758 19.9984 L 8.8947 19.9984 L 8.2136 19.9984 L 8.2026 19.1729 C 8.1926 18.5401 8.2026 18.3395 8.2426 18.3139 C 8.2706 18.2955 8.3875 18.2802 8.5021 18.2798 L 8.7107 18.2798 L 8.5068 17.9173 C 8.3947 17.7179 8.1983 17.3684 8.0705 17.1405 L 7.8379 16.7262 L 7.4801 16.7262 C 7.1373 16.7262 7.1137 16.7322 6.9154 16.8712 C 6.7627 16.9782 6.6798 17.076 6.5995 17.2441 C 6.4937 17.4656 6.4903 17.4954 6.4771 18.3108 L 6.4631 19.1498 L 6.8873 19.1498 L 7.3115 19.1498 L 7.3115 18.7399 C 7.3115 18.4035 7.3225 18.3255 7.3745 18.3048 C 7.4095 18.2909 7.4545 18.29 7.475 18.3028 C 7.496 18.3162 7.511 19.04 7.511 20.0015 L 7.511 21.6768 L 8.9734 21.6768 L 10.4358 21.6768 Z M 11.7841 21.5402 C 12.041 21.2968 12.0142 20.8812 11.7281 20.6613 C 11.4991 20.4856 11.0392 20.589 11.0392 20.8161 C 11.0392 20.937 11.2405 21.5213 11.3106 21.6038 C 11.4128 21.7241 11.6201 21.6964 11.7849 21.5402 Z M 15.5657 21.3863 L 15.5657 21.0963 L 14.8476 21.0963 L 14.1295 21.0963 L 14.0093 21.2206 L 13.8891 21.3449 L 13.2851 21.3449 L 12.681 21.3449 L 12.681 21.5106 L 12.681 21.6763 L 14.1234 21.6763 L 15.5657 21.6763 Z M 13.834 21.1147 C 13.883 21.0792 13.923 21.0236 13.923 20.9911 C 13.923 20.8848 13.0771 18.0124 13.0176 17.9167 C 12.9606 17.8238 12.9556 17.8235 11.8817 17.8235 C 10.9551 17.8235 10.7949 17.8325 10.7407 17.8886 C 10.7067 17.9244 10.6777 17.985 10.6767 18.0233 C 10.6759 18.0616 10.8047 18.5985 10.9627 19.2165 L 11.2502 20.3402 L 11.4693 20.3636 C 11.6054 20.3781 11.7456 20.4261 11.8395 20.4904 C 12.0029 20.6022 12.1605 20.8857 12.1605 21.068 L 12.1605 21.1792 L 12.9529 21.1792 C 13.6052 21.1792 13.761 21.1678 13.8343 21.1147 Z M 16.2474 20.8333 C 16.3742 20.7646 16.4536 20.6829 16.5173 20.5552 C 16.5993 20.3892 16.6073 20.3186 16.6073 19.6893 L 16.6073 19.0042 L 16.2065 19.0173 L 15.8058 19.0304 L 15.8058 19.5144 C 15.8058 19.7806 15.7918 20.0211 15.7748 20.0489 C 15.7518 20.0859 15.5015 20.1005 14.8346 20.1036 C 14.3345 20.1056 13.9187 20.1205 13.9107 20.136 C 13.9007 20.1515 13.9477 20.3366 14.0117 20.5474 L 14.1273 20.9306 L 15.0981 20.9306 C 16.039 20.9306 16.0742 20.9276 16.2484 20.8333 Z M 15.6058 19.0663 C 15.6058 18.2404 15.6058 18.1964 15.6808 18.1964 C 15.7788 18.1964 15.8053 18.2741 15.8053 18.5726 L 15.8053 18.8178 L 16.206 18.8178 L 16.6066 18.8178 L 16.6066 18.1857 C 16.6066 17.8381 16.5886 17.4902 16.5676 17.4126 C 16.5106 17.2061 16.3431 16.9765 16.1527 16.8429 C 15.9896 16.7284 15.9709 16.7253 15.3547 16.7117 L 14.7236 16.6977 L 14.7236 17.8664 L 14.7236 19.0352 L 14.5375 19.2061 C 14.2513 19.4689 14.2661 19.4682 14.0011 19.2308 L 13.7621 19.0167 L 13.7621 17.8608 L 13.7621 16.705 L 13.3515 16.706 C 12.8631 16.707 12.6881 16.7721 12.4725 17.0326 C 12.3409 17.1916 12.2003 17.5482 12.2492 17.5988 C 12.2602 17.6106 12.442 17.624 12.6523 17.6287 C 12.9963 17.6367 13.045 17.6473 13.1384 17.7381 C 13.1954 17.7936 13.2612 17.9147 13.2844 18.0074 C 13.3074 18.1 13.3434 18.2317 13.3634 18.3001 C 13.3834 18.3685 13.4916 18.7413 13.6027 19.1286 C 13.7139 19.516 13.8126 19.8562 13.822 19.8847 C 13.835 19.924 14.0516 19.9365 14.7219 19.9365 L 15.6046 19.9365 Z M 9.3957 19.1492 L 9.3957 18.4864 L 8.8949 18.4864 L 8.3941 18.4864 L 8.3941 19.1492 L 8.3941 19.8121 L 8.8949 19.8121 L 9.3957 19.8121 Z M 14.5211 17.832 L 14.5211 16.7012 L 14.2506 16.7135 L 13.9802 16.7258 L 13.9692 17.8304 L 13.9582 18.9351 L 14.1058 19.0609 L 14.2535 19.1867 L 14.384 19.0748 L 14.5146 18.9629 L 14.5146 17.8321 Z M 9.3314 17.4117 C 9.5419 17.0371 9.7069 16.7229 9.6977 16.7135 C 9.6777 16.6931 8.1033 16.7019 8.0834 16.7225 C 8.0734 16.7305 8.1484 16.8741 8.2462 17.0419 C 8.3432 17.2098 8.5262 17.5309 8.6526 17.7554 C 8.779 17.98 8.8973 18.1478 8.9155 18.1283 C 8.9335 18.1088 9.1208 17.7863 9.3314 17.4117 Z M 8.9029 23.9287 C 8.8879 23.9127 8.8749 23.6598 8.8749 23.3666 C 8.8749 22.9162 8.8849 22.8298 8.9389 22.8082 C 9.0505 22.7639 9.0754 22.8843 9.0651 23.4158 C 9.0551 23.8445 9.0441 23.9352 8.9931 23.9454 C 8.9591 23.9524 8.9191 23.9444 8.9021 23.9286 Z M 14.11 23.9277 C 14.095 23.9125 14.083 23.6628 14.083 23.3728 C 14.083 22.9291 14.093 22.8416 14.146 22.8203 C 14.181 22.8064 14.226 22.8055 14.2465 22.8183 C 14.2665 22.8311 14.2825 23.0922 14.2825 23.3984 C 14.2825 23.9108 14.2725 23.9553 14.2095 23.9553 C 14.1695 23.9553 14.1245 23.9429 14.109 23.9277 Z M 4.9864 21.9587 C 4.2415 21.4053 4.0631 21.2505 4.0748 21.1679 C 4.0848 21.121 4.1048 21.0768 4.1268 21.0697 C 4.1488 21.0627 4.3022 21.1689 4.4674 21.3059 C 4.6326 21.4428 4.8896 21.6394 5.0384 21.7427 C 5.2165 21.8665 5.3088 21.9579 5.3088 22.0108 C 5.3088 22.1297 5.1906 22.1106 4.9861 21.9587 Z M 17.6313 21.8462 C 17.5903 21.7772 17.6523 21.699 17.88 21.5318 C 18.0042 21.4407 18.265 21.229 18.4593 21.0616 C 18.795 20.7725 18.9312 20.7146 18.9312 20.8612 C 18.9312 20.9551 17.8181 21.8839 17.7056 21.8839 C 17.6776 21.8839 17.6436 21.8669 17.6316 21.8462 Z M 3.1255 20.3016 C 3.0815 20.28 2.9913 20.1917 2.9252 20.1054 C 2.8592 20.0191 2.6833 19.7949 2.5345 19.6071 C 2.275 19.2793 2.1896 19.0668 2.3178 19.0668 C 2.3468 19.0668 2.4902 19.2206 2.6356 19.4086 C 2.7809 19.5966 2.9818 19.8436 3.0821 19.9575 C 3.309 20.2153 3.3327 20.403 3.1251 20.3016 Z M 19.7487 19.8379 C 19.7367 19.8057 19.856 19.61 20.0204 19.3923 C 20.1815 19.1789 20.382 18.8971 20.4659 18.7662 C 20.5649 18.612 20.6457 18.5283 20.6962 18.5283 C 20.7402 18.5283 20.7742 18.5565 20.7742 18.5927 C 20.7742 18.7351 19.9314 19.8953 19.8279 19.8953 C 19.7959 19.8953 19.7609 19.8694 19.7489 19.8378 Z M 1.5572 18.1237 C 1.4842 18.0749 0.942 16.9138 0.942 16.8047 C 0.942 16.7375 0.965 16.7054 1.012 16.7054 C 1.063 16.7054 1.1678 16.8858 1.3965 17.3694 C 1.7166 18.0465 1.7619 18.2598 1.5566 18.1237 Z M 21.3071 17.3201 C 21.3441 17.1603 21.8474 15.9106 21.8934 15.863 C 21.9234 15.8318 21.9504 15.8337 21.9844 15.87 C 22.0404 15.9281 21.9194 16.3182 21.6348 16.9959 C 21.5013 17.3137 21.4516 17.3921 21.3766 17.4034 C 21.2976 17.4153 21.2876 17.4034 21.3066 17.3205 Z M 8.5214 16.0056 C 7.9571 15.8003 7.6034 15.2386 7.6397 14.6057 C 7.6817 13.8683 8.1923 13.3524 8.9149 13.3162 C 9.3378 13.295 9.6191 13.4085 9.9232 13.7229 C 10.1167 13.9229 10.1641 14.0034 10.2392 14.2591 C 10.3852 14.7564 10.2972 15.2053 9.9748 15.6126 C 9.6644 16.0043 9.0067 16.1822 8.5214 16.0056 Z M 9.3367 15.8079 C 9.6276 15.7055 9.9703 15.3435 10.0531 15.0512 C 10.1371 14.7517 10.1331 14.5588 10.0351 14.2877 C 9.8492 13.7739 9.4145 13.4851 8.886 13.5243 C 8.5673 13.548 8.3551 13.6486 8.1478 13.8745 C 7.8129 14.2393 7.7286 14.7511 7.9308 15.1916 C 8.1829 15.7406 8.7819 16.0033 9.3364 15.8079 Z M 13.7394 16.0224 C 13.2569 15.8648 12.9453 15.5203 12.817 15.0022 C 12.6682 14.402 12.9422 13.7779 13.489 13.4713 C 13.7274 13.3377 13.7657 13.3291 14.1234 13.3291 C 14.4501 13.3291 14.5318 13.3437 14.7009 13.4327 C 15.4907 13.8482 15.7049 14.8913 15.1424 15.5826 C 14.8083 15.9931 14.2172 16.1784 13.7394 16.0224 Z M 14.6042 15.7586 C 14.8589 15.6228 15.0344 15.4366 15.1561 15.1726 C 15.4298 14.5791 15.1751 13.8989 14.5717 13.6093 C 14.2516 13.4557 13.9469 13.4673 13.6085 13.646 C 13.0389 13.9467 12.8232 14.5793 13.0831 15.1869 C 13.1801 15.413 13.5036 15.7233 13.7338 15.8105 C 13.9778 15.9029 14.378 15.8791 14.6042 15.7585 Z M 0.5052 15.5531 C 0.4582 15.4629 0.3223 14.899 0.2434 14.469 C 0.2054 14.2601 0.1994 14.1427 0.2264 14.109 C 0.3014 14.0151 0.3766 14.103 0.4219 14.3373 C 0.4469 14.4663 0.5129 14.7795 0.5702 15.0332 C 0.6692 15.4728 0.6722 15.6283 0.5842 15.6283 C 0.5622 15.6283 0.5272 15.5944 0.5062 15.5531 Z M 22.2155 14.5201 C 22.2155 14.4802 22.2545 14.1066 22.3025 13.6897 C 22.3855 12.9786 22.3955 12.9326 22.4722 12.944 C 22.5432 12.9547 22.5512 12.9832 22.5432 13.1841 C 22.5322 13.4392 22.4742 13.943 22.4101 14.3337 C 22.3761 14.545 22.3541 14.5926 22.2919 14.5926 C 22.2469 14.5926 22.2159 14.5633 22.2149 14.5201 Z M 0.1106 12.9053 C 0.0336 12.8773 0.0406 11.4886 0.1206 11.3796 C 0.1716 11.3086 0.1846 11.3065 0.232 11.3613 C 0.274 11.4097 0.282 11.5849 0.271 12.1556 C 0.257 12.8871 0.243 12.9521 0.1128 12.9052 Z M 11.4256 12.2036 C 11.3796 12.1558 11.3956 11.6167 11.4446 11.5857 C 11.4696 11.5697 11.5913 11.5582 11.7151 11.56 C 12.0197 11.565 12.0668 11.5448 12.0947 11.4004 C 12.1077 11.3322 12.2521 11.0671 12.4152 10.8113 C 12.5782 10.5555 12.7678 10.2018 12.8367 10.0252 C 12.9047 9.8486 13.0178 9.56058 13.0863 9.38515 C 13.2052 9.08117 13.2086 9.05602 13.1603 8.84969 C 13.1333 8.73063 13.1193 8.5619 13.1313 8.47475 C 13.1503 8.33094 13.5308 7.4255 13.9295 6.57675 C 14.1002 6.21333 14.2907 6.00777 14.5349 5.92363 L 14.6871 5.87113 L 14.5881 5.73332 C 14.158 5.13045 14.5731 4.28027 15.3015 4.27126 C 15.825 4.26526 16.2063 4.66424 16.2063 5.21915 C 16.2063 5.56278 15.9063 5.96908 15.573 6.07701 C 15.4692 6.11061 15.4684 6.10541 15.605 6.31686 C 15.7655 6.56494 15.8442 6.53763 16.3498 6.05859 C 16.5902 5.8308 16.8087 5.64438 16.8354 5.64431 C 16.8974 5.64431 17.0024 5.52808 17.2725 5.15822 C 17.4907 4.85953 17.4915 4.85738 17.5523 4.39181 C 17.5853 4.13502 17.6453 3.79343 17.6857 3.63269 L 17.7577 3.34043 L 17.5267 3.35773 C 17.2462 3.37873 17.0455 3.31543 16.8608 3.14772 C 16.5425 2.85876 16.4619 2.41236 16.6568 2.01686 C 16.7854 1.75561 17.0035 1.59334 17.2915 1.5446 C 17.5881 1.4944 17.8074 1.5574 18.0251 1.75559 C 18.2453 1.95604 18.342 2.19839 18.3229 2.50219 L 18.3089 2.72395 L 19.3248 2.70875 C 20.4204 2.69235 20.4827 2.70175 20.572 2.90416 C 20.659 3.10257 20.8143 4.25195 20.7733 4.40002 C 20.7263 4.56968 20.6088 4.6751 20.4277 4.71022 C 20.3253 4.73012 20.2917 4.75482 20.3079 4.79832 C 20.3529 4.92 20.5711 5.72114 20.7116 6.2814 C 20.8241 6.72967 20.9128 6.97179 21.1139 7.37924 L 21.3719 7.90197 L 21.3719 4.83155 C 21.3719 1.79789 21.3719 1.75983 21.4549 1.65297 C 21.6315 1.42077 22.0598 1.40956 22.6636 1.62137 C 23.0714 1.76443 23.5687 1.85128 23.7799 1.81636 C 23.8933 1.79766 23.9341 1.80736 23.9526 1.85716 C 23.9656 1.89306 23.9766 2.23833 23.9766 2.62439 L 23.9766 3.32629 L 23.874 3.36659 C 23.5289 3.50228 23.0422 3.45139 22.3669 3.20898 C 21.95 3.05935 21.9346 3.05701 21.7659 3.11728 L 21.5928 3.17918 L 21.5828 5.54994 L 21.5728 7.92071 L 21.7034 7.89261 C 21.9523 7.83891 22.0332 7.85331 22.047 7.95381 C 22.057 8.00511 22.047 8.04701 22.029 8.04701 C 21.975 8.04701 18.9247 8.69525 18.3747 8.82372 L 18.0809 8.89242 L 17.7732 9.26722 C 17.6041 9.47336 17.3401 9.80049 17.1867 9.99416 C 16.63 10.6968 16.5617 10.7668 16.3967 10.8025 C 16.1361 10.859 14.9383 11.1555 13.1196 11.6137 C 12.6598 11.7296 12.5166 11.7486 12.1642 11.7405 C 11.6024 11.7277 11.5971 11.7301 11.5971 12.0062 C 11.5971 12.1968 11.5861 12.2313 11.5241 12.2313 C 11.4841 12.2313 11.4391 12.2189 11.4236 12.2037 Z M 12.6385 11.5197 C 12.8375 11.4722 12.8485 11.4614 13.1027 11.0668 C 13.2588 10.8243 13.4404 10.4657 13.5566 10.1708 C 13.8074 9.53354 13.8249 9.46042 13.7338 9.43032 C 13.6948 9.41742 13.5964 9.37082 13.5153 9.32671 C 13.4343 9.28261 13.3582 9.26291 13.3462 9.28301 C 13.3342 9.30301 13.2338 9.55822 13.1229 9.85009 C 12.9487 10.309 12.8297 10.5386 12.472 11.1069 C 12.3235 11.3425 12.2819 11.4415 12.305 11.5037 C 12.334 11.5813 12.372 11.5832 12.6385 11.5198 Z M 13.6674 11.2564 C 13.9072 11.1987 14.2295 11.1219 14.3838 11.0857 L 14.6643 11.0198 L 14.6651 10.7451 C 14.6657 10.5941 14.7081 10.2877 14.7591 10.0642 C 14.8101 9.8407 14.8461 9.65123 14.8381 9.64316 C 14.8171 9.62106 14.0378 9.4877 14.0244 9.50378 C 14.0144 9.51178 13.9103 9.788 13.7849 10.1184 C 13.6596 10.4488 13.4687 10.8636 13.3608 11.0402 C 13.253 11.2167 13.1795 11.3612 13.1977 11.3612 C 13.2157 11.3612 13.4269 11.314 13.6666 11.2564 Z M 15.2331 10.8599 C 15.3281 10.8237 15.3231 10.8425 15.5275 9.96512 C 15.6065 9.62644 15.6454 9.37669 15.629 9.30907 C 15.58 9.10585 15.4411 9.01147 15.1064 8.95332 C 14.6418 8.87262 14.6445 8.87842 14.8528 8.41737 C 14.9508 8.2023 15.1187 7.82435 15.2275 7.57748 L 15.4255 7.12864 L 15.7864 7.15594 L 16.1473 7.18324 L 16.5076 6.84525 C 16.7057 6.65937 16.9124 6.46225 16.967 6.40723 L 17.067 6.3072 L 16.979 6.2431 C 16.93 6.2079 16.8761 6.12192 16.8587 6.05213 L 16.8267 5.92526 L 16.6475 6.0796 C 16.5485 6.1645 16.3631 6.33517 16.2344 6.45888 C 16.0032 6.68127 15.9981 6.68365 15.7771 6.67146 C 15.5622 6.65966 15.5501 6.65276 15.4651 6.49344 C 15.3106 6.20407 14.9521 6.02076 14.6917 6.09798 C 14.3272 6.2061 14.2603 6.30456 13.7264 7.51769 C 13.5687 7.87596 13.4136 8.22084 13.3817 8.2841 C 13.2703 8.50474 13.3217 8.84106 13.4962 9.03482 C 13.6416 9.19632 13.7652 9.23923 14.4007 9.34854 C 14.736 9.40624 15.0283 9.46497 15.0505 9.47911 C 15.0945 9.50761 15.0885 9.54591 14.923 10.2623 C 14.8187 10.7128 14.8136 10.7671 14.869 10.8531 C 14.93 10.95 14.995 10.9512 15.235 10.8601 Z M 15.9815 10.6933 C 16.1825 10.6449 16.3776 10.589 16.4148 10.5688 C 16.4728 10.5373 16.9941 9.91839 17.5433 9.22774 C 17.9343 8.73599 17.9971 8.68997 18.3903 8.60809 C 18.5886 8.56679 18.7648 8.52019 18.7817 8.50464 C 18.7987 8.48904 18.6769 8.14601 18.5113 7.74229 C 18.3456 7.33856 18.21 6.99198 18.21 6.97208 C 18.21 6.95218 18.3381 6.66898 18.4946 6.34273 C 18.8169 5.671 18.8151 5.77858 18.5126 5.27396 L 18.3775 5.04868 L 18.3125 5.21036 C 18.2765 5.29926 18.2345 5.38203 18.2185 5.39423 C 18.2025 5.40643 18.1275 5.50028 18.0521 5.60281 C 17.7959 5.95153 17.4834 6.30709 17.4328 6.30709 C 17.4058 6.30709 17.1859 6.49522 16.9455 6.72516 C 16.7051 6.9551 16.4362 7.19938 16.3481 7.26798 C 16.1926 7.38896 16.1784 7.39194 15.8753 7.36658 L 15.5629 7.34048 L 15.3289 7.84911 C 14.9793 8.60931 14.9547 8.677 15.0151 8.71657 C 15.0431 8.73497 15.1162 8.75027 15.1775 8.75067 C 15.3196 8.75167 15.5607 8.85519 15.672 8.96335 C 15.719 9.00945 15.7802 9.12782 15.8068 9.2264 C 15.8498 9.38426 15.8418 9.4641 15.7478 9.89666 C 15.6888 10.1667 15.6235 10.4418 15.6036 10.5078 C 15.5616 10.6469 15.5566 10.7813 15.5926 10.7813 C 15.6066 10.7813 15.7823 10.7417 15.9833 10.6934 Z M 19.2998 8.415 C 19.4166 8.3895 19.5179 8.3634 19.525 8.3568 C 19.535 8.3508 19.4193 8.05759 19.2746 7.70637 C 19.1298 7.35516 19.0113 7.03615 19.0113 6.99749 C 19.0113 6.95879 19.1184 6.70633 19.2493 6.43639 L 19.4872 5.9456 L 19.6564 5.9176 C 19.7494 5.9022 19.8385 5.9043 19.8542 5.9226 C 19.8702 5.9406 19.9382 6.18827 20.0076 6.47308 C 20.1006 6.8634 20.1974 7.12741 20.3969 7.5451 L 20.6615 8.09926 L 20.8876 8.07176 C 21.0119 8.05666 21.1289 8.02856 21.1476 8.00926 C 21.1656 7.98996 21.0656 7.73434 20.9241 7.44115 C 20.6998 6.97668 20.6347 6.78332 20.4182 5.93835 L 20.1697 4.96861 L 19.7708 4.25152 C 19.5514 3.85713 19.3719 3.50622 19.3719 3.47173 C 19.3719 3.39013 19.504 3.35803 19.7737 3.37393 L 19.9909 3.38673 L 20.0379 3.69744 C 20.0639 3.86833 20.0969 4.09681 20.1109 4.2052 C 20.1319 4.3672 20.1579 4.41326 20.2528 4.46415 C 20.3935 4.53935 20.5548 4.48185 20.5877 4.34472 C 20.6177 4.22083 20.4352 3.05068 20.3744 2.97498 C 20.2944 2.87538 20.1233 2.86428 19.2506 2.90238 C 18.3832 2.94028 18.2833 2.96318 18.1016 3.16528 C 17.968 3.31395 17.8246 3.82512 17.7462 4.43274 C 17.6902 4.86886 17.6562 5.00505 17.5858 5.09558 C 16.9633 5.88755 16.9586 5.89656 17.0875 6.03849 C 17.2093 6.17255 17.3275 6.16911 17.4564 6.02779 C 17.7107 5.74913 18.1285 5.15707 18.1509 5.04389 C 18.2139 4.72406 18.256 4.60889 18.3093 4.60889 C 18.3403 4.60889 18.4685 4.79066 18.5931 5.01281 C 18.7177 5.23497 18.8626 5.48625 18.9149 5.57122 L 19.0109 5.72571 L 18.7105 6.35146 L 18.41 6.97725 L 18.5239 7.25341 C 18.9276 8.23259 19.0285 8.46167 19.0561 8.46167 C 19.0731 8.46167 19.1827 8.44087 19.2994 8.41537 Z M 20.149 8.23367 C 20.3009 8.20037 20.4325 8.16567 20.4413 8.15647 C 20.4513 8.14747 20.3394 7.88344 20.1952 7.57018 C 20.0509 7.25691 19.9328 6.9784 19.9328 6.95124 C 19.9328 6.92404 19.9078 6.81933 19.8768 6.71843 C 19.8458 6.61753 19.7988 6.44643 19.7715 6.3382 C 19.7445 6.22997 19.6995 6.14141 19.6704 6.14141 C 19.6424 6.14141 19.5235 6.3347 19.4073 6.57094 L 19.1961 7.00046 L 19.45 7.617 C 19.5896 7.95608 19.7114 8.2475 19.7206 8.26458 C 19.7446 8.30898 19.8354 8.30238 20.1492 8.23368 Z M 15.6663 5.7884 C 16.2731 5.43113 16.011 4.48427 15.3053 4.48427 C 14.9952 4.48427 14.7333 4.69002 14.6441 5.00374 C 14.5441 5.3525 14.7679 5.75831 15.1192 5.8682 C 15.3344 5.9356 15.4433 5.9197 15.6663 5.7884 Z M 19.8714 3.87321 C 19.8184 3.59465 19.8084 3.57286 19.7317 3.57286 C 19.6327 3.57286 19.6327 3.58746 19.7417 3.78471 C 19.8327 3.95366 19.8967 3.99618 19.8732 3.87321 Z M 23.6763 3.20103 L 23.7791 3.16063 L 23.7791 2.60605 L 23.7791 2.05147 L 23.4802 2.02347 C 23.3158 2.00807 23.131 1.97907 23.0695 1.95887 C 22.3528 1.7246 22.0755 1.65868 21.8858 1.67753 C 21.5921 1.70673 21.5755 1.74533 21.5755 2.40084 L 21.5755 2.95298 L 21.6857 2.92108 C 21.8808 2.86468 22.108 2.89578 22.4886 3.03106 C 23.0578 3.23341 23.4508 3.28962 23.6763 3.20095 Z M 17.8346 3.03904 C 18.0394 2.88257 18.1423 2.65019 18.1215 2.39132 C 18.0905 1.99858 17.813 1.7354 17.4404 1.74407 C 17.108 1.75207 16.8531 1.96058 16.7656 2.29668 C 16.6916 2.5818 16.8822 2.96631 17.1683 3.10798 C 17.3281 3.18708 17.69 3.14968 17.8346 3.03908 Z M 8.6968 11.7019 C 8.6808 11.6854 7.7002 11.672 6.5176 11.672 L 4.3675 11.672 L 4.1071 11.5631 C 3.9639 11.5032 3.7475 11.4069 3.6263 11.3492 C 3.5051 11.2915 3.2347 11.1666 3.0254 11.0716 C 2.3197 10.7515 2.2682 10.7097 1.1122 9.52003 C 0.0239 8.39992 0.0205 8.39585 0.0205 8.21977 C 0.0205 8.08285 0.0435 8.02074 0.1244 7.9435 C 0.3114 7.76436 0.8966 7.74924 1.2053 7.9155 C 1.3493 7.9931 2.9378 9.10824 3.3344 9.41029 L 3.5033 9.53884 L 4.1435 9.51154 L 4.7838 9.48424 L 4.7618 9.37004 C 4.7308 9.21024 4.8088 8.99518 4.9519 8.84349 C 5.0882 8.69941 5.2113 8.66528 5.9502 8.56682 C 6.2037 8.53302 6.8223 8.44807 7.3251 8.37796 C 8.112 8.26826 8.2792 8.25636 8.5271 8.29256 C 9.0021 8.36186 9.0951 8.40456 10.0969 9.01295 C 10.521 9.27051 10.661 9.37613 10.6707 9.44602 C 10.6927 9.60511 10.5616 9.5567 9.954 9.18114 C 9.12 8.66577 8.9712 8.59178 8.6192 8.51774 C 8.3299 8.45684 8.2641 8.45684 7.8379 8.51774 C 7.5819 8.55394 6.8955 8.65088 6.3125 8.73318 C 5.1707 8.89437 5.0866 8.92186 4.9891 9.16518 C 4.9301 9.31329 4.9791 9.47661 5.127 9.62012 C 5.227 9.71682 5.2909 9.72399 7.0113 9.82966 C 7.7684 9.87616 7.8942 9.90806 7.7812 10.0249 C 7.7422 10.0651 7.4884 10.0625 6.5707 10.0125 C 5.1863 9.93714 5.1981 9.93874 5.0027 9.80135 L 4.8484 9.69291 L 4.1432 9.71681 L 3.4381 9.74071 L 2.741 9.25435 C 2.1277 8.8265 1.9594 8.70579 1.6031 8.43835 C 1.1354 8.08721 0.8778 7.98494 0.5486 8.01981 C 0.3186 8.04421 0.2209 8.10081 0.2209 8.20989 C 0.2209 8.24789 0.7128 8.78544 1.314 9.40442 L 2.407 10.5299 L 2.8665 10.7531 C 3.7872 11.2003 4.2688 11.4065 4.496 11.4507 C 4.652 11.481 5.3531 11.4896 6.6313 11.477 C 7.6787 11.4666 8.593 11.475 8.6647 11.4949 C 8.7527 11.5199 8.7948 11.5567 8.7948 11.61 C 8.7948 11.6977 8.7418 11.7484 8.6968 11.7026 Z M 4.9084 8.3391 C 3.5159 8.21671 2.2509 7.31781 1.6407 6.01709 C 1.4682 5.64961 1.3472 5.23372 1.2791 4.77499 C 1.0885 3.49126 1.5287 2.13599 2.4315 1.22686 C 3.3166 0.33571 4.5302 -0.10152 5.6972 0.05037 C 6.8365 0.19865 7.7455 0.72155 8.4252 1.61965 C 9.0528 2.44911 9.3091 3.298 9.2653 4.4026 C 9.2253 5.40633 8.9094 6.20885 8.2509 6.97795 C 7.4218 7.94629 6.1823 8.45107 4.9084 8.3391 Z M 5.9581 8.08424 C 6.3672 7.99624 6.7799 7.83678 7.1148 7.63739 L 7.4525 7.43626 L 7.4425 7.15955 C 7.4315 6.65498 7.1082 6.18607 6.5912 5.92293 L 6.3286 5.78924 L 5.2861 5.78924 L 4.2435 5.78924 L 4.0059 5.90429 C 3.5502 6.12495 3.292 6.4148 3.1376 6.8788 C 3.0256 7.21548 3.0361 7.39053 3.1746 7.49641 C 3.4566 7.71188 4.0417 7.96472 4.5041 8.07085 C 4.7857 8.13545 5.6778 8.14375 5.9544 8.08425 Z M 2.8845 7.02234 C 2.9605 6.49685 3.331 6.00737 3.8552 5.73932 L 4.1627 5.5821 L 5.1777 5.5692 C 6.2489 5.5555 6.4307 5.5782 6.7903 5.76813 C 7.1952 5.98228 7.5648 6.48979 7.642 6.93775 C 7.667 7.0808 7.693 7.20599 7.701 7.21596 C 7.723 7.24486 8.0623 6.88958 8.2752 6.61471 C 9.1972 5.42436 9.3425 3.69788 8.6349 2.34145 C 8.1267 1.36716 7.2956 0.69345 6.1907 0.36006 C 5.8242 0.24946 4.7797 0.24645 4.3477 0.35506 C 3.7349 0.50872 3.0341 0.92345 2.5848 1.39837 C 2.2282 1.77532 2.2546 1.74202 2.0468 2.07721 C 1.7444 2.56511 1.5488 3.13899 1.4624 3.79215 C 1.3481 4.65634 1.6731 5.85082 2.2143 6.55601 C 2.3893 6.78419 2.7927 7.21885 2.8294 7.21885 C 2.8444 7.21885 2.8684 7.13055 2.8844 7.0227 Z M 4.8082 5.1718 C 4.1534 4.95674 3.6648 4.42778 3.5015 3.75716 C 3.4325 3.47293 3.4785 2.85611 3.5885 2.57859 C 3.9103 1.77277 4.7328 1.29303 5.5796 1.4172 C 6.8376 1.6017 7.5404 3.04451 6.9519 4.23446 C 6.8422 4.45619 6.5571 4.7711 6.3302 4.92119 C 5.9116 5.19809 5.2298 5.31033 4.8079 5.1718 Z M 5.725 4.96023 C 6.1942 4.83385 6.5928 4.49013 6.8046 4.02927 C 6.9057 3.8092 6.931 3.69493 6.9448 3.39634 C 6.9598 3.07705 6.9448 2.99373 6.8518 2.723 C 6.655 2.16511 6.1521 1.74443 5.5424 1.62755 C 5.3045 1.58195 5.2412 1.58545 4.9551 1.66025 C 4.5885 1.75615 4.4002 1.8669 4.1316 2.14462 C 3.6587 2.63362 3.5293 3.41723 3.8211 4.0253 C 4.1863 4.78641 4.9593 5.16619 5.7241 4.96022 Z M 5.0851 4.48287 C 5.0171 4.46147 4.9133 4.39797 4.8547 4.34178 C 4.6442 4.13998 4.7717 3.98952 5.0004 4.16991 C 5.1716 4.30494 5.3783 4.30992 5.5898 4.18411 C 5.7163 4.10881 5.7558 4.10111 5.7971 4.14381 C 5.9666 4.31908 5.4087 4.58474 5.0851 4.48288 Z M 14.7444 1.45634 C 14.2889 1.29419 14.1811 1.2407 14.1706 1.17192 C 14.1516 1.04367 14.2811 1.06184 14.8833 1.27162 C 15.4484 1.4685 15.5334 1.51502 15.499 1.60807 C 15.466 1.69667 15.3585 1.67507 14.7444 1.45634 Z M 9.2426 0.95299 C 9.2566 0.85045 9.2846 0.84367 10.1369 0.73754 C 10.51 0.69104 10.5866 0.69144 10.6363 0.73954 C 10.7524 0.85291 10.6023 0.90552 9.9566 0.9778 C 9.1885 1.0638 9.2272 1.0652 9.2426 0.9526 Z M 12.7569 0.98619 C 12.7469 0.97619 12.5153 0.94789 12.2413 0.92329 C 11.7365 0.87799 11.6271 0.83359 11.738 0.71892 C 11.785 0.66972 11.8857 0.67142 12.424 0.73082 C 12.7706 0.76912 13.0695 0.81012 13.088 0.82192 C 13.106 0.83372 13.122 0.87962 13.122 0.92387 C 13.122 0.99107 13.094 1.00427 12.9484 1.00427 C 12.8534 1.00427 12.7669 0.99627 12.7572 0.98607 Z"
       id="path2932357" /></g></svg>
