<?xml version="1.0" encoding="UTF-8" standalone="no"?>
<!-- Created with Inkscape (http://www.inkscape.org/) -->

<svg
   width="23.995293"
   height="24.000273"
   viewBox="0 0 23.995293 24.000273"
   version="1.1"
   id="svg5"
   xml:space="preserve"
   xmlns="http://www.w3.org/2000/svg"
   xmlns:svg="http://www.w3.org/2000/svg"><defs
     id="defs2" /><g
     id="layer1"><path
       style="fill:#000000;stroke-dasharray:none;stroke-width:0.0185489"
       d="M 7.262 23.9867 C 7.213 23.9787 7.15 23.9622 7.1224 23.9505 C 7.0944 23.9388 7.0484 23.9248 7.0194 23.9193 C 6.8633 23.8897 6.5623 23.7006 6.4174 23.5412 C 6.2246 23.329 6.1303 23.1648 6.0366 22.8787 C 5.9876 22.7286 5.9786 22.6733 5.9706 22.4455 C 5.9606 22.2078 5.9606 22.1673 6.0066 21.9924 C 6.0616 21.7638 6.1036 21.6554 6.2083 21.4728 C 6.2513 21.3978 6.2863 21.3312 6.2863 21.3247 C 6.2863 21.3187 6.3453 21.2063 6.4172 21.076 C 6.5385 20.8565 6.7024 20.5506 6.7351 20.483 C 6.7451 20.4671 6.7901 20.3777 6.8415 20.2844 C 6.8925 20.1911 6.9315 20.1131 6.9275 20.1109 C 6.9275 20.1089 6.8765 20.0912 6.8228 20.0718 C 6.4994 19.9561 6.2634 19.7679 6.0881 19.4858 C 6.0391 19.4077 6.0001 19.3322 6.0001 19.3179 C 6.0001 19.3038 5.9891 19.2799 5.9751 19.2649 C 5.9471 19.2343 5.8831 18.9897 5.8599 18.8214 C 5.8359 18.6502 5.8699 18.3756 5.9399 18.1751 C 5.9909 18.0287 5.9919 17.9981 5.9509 17.9586 C 5.9339 17.9421 5.8286 17.8277 5.7173 17.7045 C 5.606 17.5812 5.5074 17.4754 5.4981 17.4692 C 5.4881 17.4632 5.4231 17.4793 5.3516 17.5054 C 5.1657 17.5733 5.1204 17.5809 4.9053 17.5793 C 4.6834 17.5773 4.5572 17.5466 4.3436 17.4409 C 3.9944 17.2681 3.7564 16.9728 3.6298 16.5554 C 3.6028 16.4654 3.5778 16.3886 3.5748 16.3847 C 3.5748 16.3807 3.5428 16.3949 3.5098 16.4159 C 3.4768 16.4369 3.3541 16.5085 3.2361 16.5749 C 3.118 16.6413 2.8667 16.7853 2.6776 16.895 C 2.4886 17.0047 2.3283 17.0944 2.3214 17.0944 C 2.3114 17.0944 2.2724 17.1181 2.2274 17.147 C 1.9968 17.2947 1.6089 17.3834 1.3576 17.3459 C 0.9252 17.2814 0.6405 17.1283 0.3669 16.8131 C 0.2276 16.6525 0.1324 16.47 0.0516 16.2088 C 0.0046 16.0575 0.0006 16.022 -0.0004 15.7372 C -0.0004 15.4637 -0.0004 15.414 0.0396 15.2944 C 0.1076 15.0737 0.1956 14.8937 0.3078 14.7432 C 0.467 14.5296 0.5627 14.4419 0.8534 14.2434 C 1.3217 13.9234 1.5927 13.7368 1.9925 13.4587 C 2.1056 13.38 2.2344 13.2911 2.2787 13.2613 C 2.3227 13.2314 2.3834 13.1891 2.4129 13.1672 C 2.4759 13.1206 2.5218 13.0887 2.7975 12.9014 C 3.0309 12.7429 3.007 12.7593 3.2641 12.5797 C 3.3703 12.5056 3.5277 12.3973 3.614 12.3391 C 3.7 12.2809 3.8195 12.1983 3.879 12.1555 C 3.938 12.1128 4.0555 12.0466 4.1392 12.0083 C 4.5128 11.8375 4.7702 11.7904 5.1361 11.8259 L 5.3371 11.8454 L 5.4581 11.7119 C 5.6936 11.4523 5.8749 11.2817 5.9591 11.2406 C 6.0111 11.2152 6.0951 11.1955 6.1748 11.19 C 6.2924 11.182 6.3168 11.187 6.4218 11.2397 C 6.4988 11.2785 6.5698 11.3344 6.6312 11.4046 C 6.6822 11.463 6.851 11.651 7.006 11.8223 C 7.3558 12.2087 7.385 12.2632 7.3735 12.5076 C 7.3635 12.6275 7.3545 12.6981 7.3285 12.7529 C 7.3085 12.7953 7.1805 12.9486 7.045 13.0936 L 6.7986 13.3572 L 7.207 13.8156 C 7.4316 14.0676 7.7898 14.4645 8.003 14.6974 C 8.2163 14.9304 8.5908 15.3462 8.8353 15.6215 C 9.0797 15.8968 9.4075 16.2624 9.5636 16.4339 L 9.8475 16.7457 L 10.028 16.5591 C 10.127 16.4564 10.232 16.3452 10.2608 16.3119 C 10.4051 16.1451 10.6859 16.0991 10.8932 16.2082 C 10.9842 16.2559 11.0615 16.3323 11.37 16.677 C 11.5727 16.9035 11.7512 17.1154 11.7668 17.1479 C 11.8458 17.3122 11.8618 17.4854 11.8128 17.6463 C 11.7788 17.7573 11.7628 17.7785 11.4727 18.088 L 11.2041 18.3746 L 11.2151 18.6056 C 11.2331 18.9652 11.1821 19.238 11.0303 19.6068 C 10.9753 19.7399 10.8607 19.9526 10.8279 19.9822 C 10.8179 19.9902 10.7529 20.0927 10.4691 20.5405 C 10.4321 20.5987 10.3324 20.7547 10.2474 20.887 C 10.1624 21.0194 10.0653 21.171 10.0317 21.224 C 9.9977 21.2769 9.9083 21.4169 9.8321 21.5349 C 9.7561 21.653 9.6372 21.8393 9.5683 21.9489 C 9.4993 22.0584 9.4344 22.1581 9.4237 22.1704 C 9.4127 22.1827 9.3767 22.239 9.3437 22.2955 C 9.3107 22.3521 9.2787 22.4027 9.2717 22.408 C 9.2617 22.413 9.2287 22.4696 9.1897 22.5331 C 9.1507 22.5966 9.0793 22.7093 9.0314 22.7834 C 8.9834 22.8575 8.8834 23.0147 8.8089 23.1327 C 8.589 23.4812 8.399 23.6762 8.1452 23.814 C 7.8672 23.9649 7.5271 24.0312 7.2603 23.9865 Z M 7.7231 23.7191 C 7.7501 23.7079 7.7941 23.6945 7.8201 23.6895 C 7.9111 23.6718 8.1306 23.5452 8.2533 23.4398 C 8.392 23.3207 8.4822 23.2038 8.6982 22.863 C 8.8507 22.6224 9.0286 22.3439 9.2656 21.975 C 9.3406 21.8585 9.4319 21.7156 9.4689 21.6573 C 9.5059 21.5991 9.5918 21.4648 9.6598 21.3589 C 9.8795 21.0165 9.9912 20.8407 10.0389 20.7621 C 10.0649 20.7198 10.1129 20.6469 10.1455 20.6003 C 10.1785 20.5536 10.2025 20.5129 10.2005 20.5097 C 10.2005 20.5067 10.1105 20.5341 10.008 20.5709 C 9.7411 20.6664 9.4482 20.705 9.2128 20.6757 C 8.753 20.6187 8.3614 20.4116 8.0606 20.0665 L 7.9234 19.909 L 7.8524 19.9552 C 7.7634 20.0131 7.5391 20.0943 7.4326 20.1072 C 7.2297 20.1317 7.1822 20.1413 7.1822 20.158 C 7.1822 20.168 7.1512 20.2299 7.1132 20.2957 C 7.0512 20.4032 6.7762 20.9137 6.6593 21.1376 C 6.5523 21.3423 6.4804 21.4758 6.4672 21.4937 C 6.4182 21.5603 6.3008 21.8298 6.2557 21.9782 C 6.2067 22.1386 6.2027 22.1735 6.2057 22.3915 C 6.2057 22.6575 6.2397 22.7881 6.3466 23.0175 C 6.4066 23.1463 6.549 23.3358 6.6667 23.4443 C 6.8079 23.5745 7.0122 23.6723 7.2621 23.7293 C 7.3814 23.7565 7.6464 23.7507 7.7232 23.7191 Z M 9.5505 20.4231 C 9.6395 20.4114 9.749 20.3889 9.7932 20.3732 C 9.8372 20.3575 9.8932 20.3407 9.9158 20.336 C 9.9788 20.3231 10.1839 20.2078 10.3152 20.111 C 10.4442 20.0159 10.5577 19.9017 10.6523 19.7715 C 10.7213 19.6761 10.7283 19.6638 10.8197 19.4712 C 11.0469 18.9917 11.0444 18.4385 10.8097 17.9404 C 10.6932 17.6901 10.6176 17.5884 10.3809 17.3637 C 10.2939 17.2807 10.0494 17.1411 9.8943 17.0855 C 9.8223 17.0597 9.6835 17.024 9.5859 17.0063 C 9.4361 16.9791 9.3844 16.9776 9.255 16.9963 C 9.041 17.0275 8.8586 17.0841 8.6838 17.1735 C 8.4866 17.2745 8.3836 17.3591 8.1861 17.5825 C 8.0871 17.6949 8.008 17.7682 7.9866 17.7682 C 7.9676 17.7682 7.9086 17.7368 7.8556 17.6983 C 7.5983 17.5104 7.2969 17.4333 7.0354 17.4883 C 6.8563 17.526 6.8111 17.5414 6.6953 17.6046 C 6.3921 17.7698 6.2111 18.0245 6.1136 18.4228 C 5.9949 18.9073 6.2502 19.4972 6.6808 19.7336 C 6.8754 19.8405 6.9436 19.8565 7.2053 19.8568 C 7.4277 19.8568 7.4688 19.8518 7.572 19.81 C 7.6965 19.7596 7.8634 19.6618 7.8731 19.6336 C 7.8731 19.6246 7.9101 19.6164 7.9481 19.6164 C 8.0121 19.6164 8.0241 19.6264 8.12 19.756 C 8.4177 20.1582 8.8661 20.4096 9.3422 20.4414 C 9.3662 20.4434 9.4587 20.4344 9.5479 20.423 Z M 9.9542 19.8537 C 9.7801 19.7883 9.6982 19.6935 9.6503 19.502 C 9.5893 19.257 9.7682 18.9793 10.0071 18.9489 C 10.0931 18.938 10.2762 18.9723 10.2762 18.9992 C 10.2762 19.0072 10.2972 19.0254 10.3232 19.0402 C 10.3492 19.055 10.3942 19.1055 10.4245 19.1526 C 10.4745 19.2314 10.4795 19.2512 10.4805 19.4048 C 10.4814 19.5652 10.4805 19.5751 10.4195 19.664 C 10.3365 19.7874 10.199 19.8675 10.0732 19.8654 C 10.0232 19.8646 9.9697 19.8594 9.9549 19.8538 Z M 10.1649 19.578 C 10.3239 19.4736 10.2529 19.193 10.0679 19.193 C 9.8768 19.193 9.7993 19.4733 9.9611 19.5795 C 10.0331 19.6267 10.0918 19.6263 10.1654 19.5785 Z M 8.7146 19.8198 C 8.5102 19.7413 8.4275 19.6099 8.4284 19.3649 C 8.429 19.2302 8.4384 19.2119 8.4904 19.1243 C 8.5814 18.9852 8.6747 18.9357 8.8472 18.9357 C 8.9694 18.9357 8.9957 18.9427 9.0713 18.9927 C 9.1233 19.0275 9.178 19.0863 9.2109 19.1437 C 9.2589 19.2275 9.2649 19.2535 9.2639 19.3838 C 9.2639 19.5576 9.2369 19.6196 9.1229 19.7276 C 9.0041 19.8402 8.8552 19.8738 8.7146 19.8198 Z M 8.9642 19.549 C 8.9862 19.5333 9.0142 19.4875 9.0252 19.4473 C 9.0842 19.2365 8.8401 19.0831 8.7006 19.243 C 8.6666 19.2818 8.6576 19.3124 8.6586 19.3858 C 8.6586 19.4895 8.6846 19.5328 8.7646 19.5714 C 8.8246 19.6005 8.9037 19.5917 8.9642 19.549 Z M 7.132 19.3843 C 6.9138 19.3381 6.7389 19.1953 6.6502 18.9909 C 6.6052 18.888 6.6002 18.8543 6.6012 18.6828 C 6.6019 18.5114 6.6112 18.4792 6.6512 18.3886 C 6.7492 18.1856 6.915 18.0584 7.1284 18.0229 C 7.3836 17.9804 7.6174 18.0834 7.7553 18.2991 C 7.8113 18.3866 7.8273 18.4349 7.8632 18.6148 C 7.9182 18.8941 7.7155 19.2509 7.45 19.3424 C 7.2992 19.3944 7.2259 19.404 7.1326 19.3843 Z M 7.3633 19.1084 C 7.5571 19.0339 7.6647 18.8172 7.6172 18.5973 C 7.5902 18.4735 7.5522 18.4129 7.457 18.3424 C 7.3081 18.2322 7.1449 18.2331 6.9918 18.3454 C 6.8834 18.4245 6.8324 18.5397 6.8336 18.7026 C 6.8345 18.8144 6.8436 18.8511 6.8816 18.9176 C 6.9897 19.1002 7.1842 19.1775 7.3628 19.1089 Z M 9.9469 18.5274 C 9.8008 18.4698 9.6875 18.3271 9.6605 18.1666 C 9.6325 18.0025 9.7205 17.7814 9.8453 17.7033 C 9.9453 17.6406 10.0731 17.6178 10.1773 17.6442 C 10.3274 17.6822 10.3938 17.7372 10.4574 17.8762 C 10.5094 17.9906 10.5134 18.0103 10.5034 18.1361 C 10.4934 18.2509 10.4834 18.2853 10.4334 18.3552 C 10.3037 18.5374 10.1288 18.5993 9.9466 18.5275 Z M 10.1588 18.2886 C 10.2148 18.2659 10.2761 18.1627 10.2762 18.0917 C 10.2762 17.919 10.1053 17.8203 9.9766 17.919 C 9.8592 18.009 9.8671 18.2006 9.9906 18.2722 C 10.0596 18.3122 10.0929 18.3154 10.1583 18.2886 Z M 8.7418 18.5111 C 8.5908 18.4584 8.4721 18.3202 8.4426 18.163 C 8.4236 18.0588 8.4306 17.9919 8.4726 17.8863 C 8.5186 17.7715 8.5656 17.7181 8.6741 17.6586 C 8.7491 17.6175 8.7809 17.6115 8.8906 17.6174 C 8.9979 17.6234 9.0318 17.6338 9.0959 17.6816 C 9.3632 17.881 9.3505 18.3171 9.0729 18.468 C 8.9568 18.5311 8.8421 18.546 8.7421 18.5111 Z M 8.9674 18.2439 C 9.0194 18.2166 9.0594 18.1353 9.0594 18.0562 C 9.0594 17.9631 8.9604 17.8646 8.8658 17.8646 C 8.7023 17.8646 8.604 18.0667 8.7077 18.1895 C 8.7827 18.2785 8.8668 18.2962 8.967 18.2439 Z M 11.3807 17.8296 C 11.6178 17.5845 11.661 17.4537 11.5624 17.2791 C 11.5064 17.1803 10.8537 16.4661 10.7889 16.4331 C 10.7069 16.3909 10.5941 16.3931 10.5115 16.4381 C 10.4505 16.4714 10.069 16.8585 10.0828 16.8728 C 10.0828 16.8758 10.1508 16.9133 10.2268 16.9556 C 10.3974 17.0505 10.5571 17.1734 10.6923 17.3139 C 10.8422 17.4695 11.0336 17.7916 11.1176 18.0295 L 11.1356 18.0816 L 11.1756 18.0408 C 11.1976 18.0183 11.2897 17.9232 11.3806 17.8293 Z M 6.1886 17.7123 C 6.2908 17.5724 6.5251 17.396 6.7074 17.3217 C 6.8287 17.2723 7.1007 17.2107 7.1994 17.2103 C 7.3802 17.2097 7.699 17.3004 7.8763 17.4032 L 7.9713 17.4585 L 8.0103 17.4134 C 8.0313 17.3886 8.0713 17.3414 8.0983 17.3085 C 8.2161 17.1656 8.6297 16.8904 8.7825 16.8532 C 8.8125 16.8462 8.8805 16.8244 8.9346 16.8051 C 9.0524 16.7631 9.3987 16.7195 9.4672 16.738 C 9.4942 16.745 9.5102 16.744 9.5022 16.735 C 9.4922 16.726 9.4342 16.6584 9.3667 16.5842 C 9.2997 16.5101 9.044 16.2246 8.7987 15.9497 C 8.5534 15.6749 8.2763 15.3667 8.1828 15.2649 C 8.0898 15.163 7.8197 14.8637 7.5836 14.5998 C 6.8611 13.7922 6.8182 13.7456 6.8053 13.7542 C 6.7953 13.7592 6.7913 13.8209 6.7893 13.8921 C 6.7793 14.2703 6.6245 14.6987 6.375 15.0363 C 6.287 15.1553 6.2535 15.1918 6.1311 15.3014 L 6.0741 15.3525 L 6.1251 15.4678 C 6.2761 15.8102 6.3117 16.1466 6.2325 16.4809 C 6.1635 16.772 6.0394 16.9971 5.8373 17.1986 C 5.7148 17.3206 5.7098 17.3288 5.7393 17.36 C 5.7563 17.3781 5.8482 17.4816 5.9431 17.5902 C 6.0381 17.6987 6.1198 17.7871 6.125 17.7866 C 6.135 17.786 6.159 17.7526 6.188 17.7122 Z M 5.2259 17.2863 C 5.5984 17.1625 5.8531 16.9005 5.9831 16.5073 C 6.0211 16.3922 6.0271 16.3388 6.0271 16.1415 C 6.0271 15.9678 6.0171 15.8843 5.9941 15.8046 C 5.9581 15.6893 5.8766 15.5032 5.82 15.4068 C 5.767 15.3166 5.789 15.2607 5.918 15.1555 C 6.1113 14.9978 6.2505 14.8249 6.3425 14.6286 C 6.3745 14.5607 6.4055 14.5007 6.4125 14.4955 C 6.4225 14.4905 6.4515 14.3949 6.4845 14.2837 C 6.6393 13.7628 6.5395 13.1781 6.2182 12.7213 C 6.1682 12.6508 6.0762 12.5458 6.0128 12.4879 C 5.905 12.3895 5.5986 12.1852 5.5589 12.1852 C 5.5489 12.1852 5.4669 12.1588 5.3759 12.1266 C 5.2214 12.0718 5.1948 12.0682 4.9612 12.0708 C 4.7431 12.0728 4.6886 12.0808 4.5291 12.13 C 4.2598 12.2134 4.0428 12.3486 3.8536 12.5508 C 3.7208 12.6928 3.5685 12.9066 3.5685 12.9512 C 3.5685 12.9592 3.5505 12.9958 3.5275 13.0327 C 3.4745 13.1194 3.4098 13.3431 3.3806 13.5396 C 3.3416 13.8001 3.3636 14.0394 3.4576 14.3703 C 3.5296 14.6253 3.7625 14.9618 4.0022 15.1576 C 4.0912 15.2304 4.0932 15.3068 4.0122 15.4452 C 3.867 15.6835 3.8172 15.8585 3.8166 16.1319 C 3.816 16.2897 3.8266 16.3658 3.8576 16.4785 C 3.8806 16.5579 3.9086 16.6359 3.9196 16.6518 C 3.9316 16.6677 3.9496 16.7039 3.9606 16.7323 C 4.0056 16.8471 4.2213 17.0817 4.359 17.1664 C 4.454 17.2249 4.6949 17.3162 4.7879 17.329 C 4.9006 17.3445 5.1173 17.324 5.2294 17.2863 Z M 4.7307 16.7748 C 4.556 16.7245 4.413 16.5987 4.3258 16.4186 C 4.2798 16.3244 4.2758 16.2962 4.2748 16.1126 C 4.2742 15.9266 4.2748 15.9016 4.3268 15.799 C 4.4958 15.4401 4.9284 15.3114 5.2426 15.5265 C 5.3536 15.6026 5.4014 15.6552 5.4514 15.7565 C 5.5214 15.8978 5.5394 15.9672 5.5404 16.103 C 5.5404 16.4067 5.3626 16.6748 5.0907 16.7671 C 4.958 16.8121 4.8666 16.8141 4.7303 16.7751 Z M 5.0835 16.4968 C 5.1715 16.4559 5.2637 16.3281 5.2993 16.1967 C 5.3663 15.95 5.1413 15.6698 4.8764 15.6698 C 4.7964 15.6698 4.6197 15.7757 4.5754 15.85 C 4.4834 16.0052 4.4794 16.2154 4.5654 16.3515 C 4.6284 16.4504 4.6902 16.4974 4.7955 16.5278 C 4.8935 16.5561 4.9732 16.5475 5.0827 16.4968 Z M 5.5185 14.8573 C 5.4012 14.8379 5.368 14.8157 5.2012 14.6459 C 5.1302 14.5738 5.066 14.514 5.0581 14.5131 C 5.0481 14.5122 5.0231 14.5081 4.9991 14.5051 C 4.896 14.49 4.8368 14.5187 4.7163 14.6423 C 4.5791 14.783 4.5255 14.8151 4.3966 14.8335 C 4.1905 14.8629 4.0022 14.7353 3.952 14.5323 C 3.919 14.4003 3.919 14.3713 3.952 14.2465 C 3.975 14.1643 4.006 14.1165 4.1125 14.0007 C 4.2542 13.8467 4.2786 13.7877 4.2554 13.6549 C 4.2454 13.6059 4.2114 13.5486 4.1402 13.4672 C 3.9829 13.2881 3.9556 13.2289 3.9551 13.0651 C 3.9543 12.8397 4.0481 12.6979 4.239 12.6361 C 4.3516 12.5996 4.3873 12.6015 4.5091 12.6505 C 4.5841 12.6805 4.6402 12.7226 4.711 12.8008 C 4.8399 12.943 4.899 12.9811 4.9911 12.9811 C 5.0721 12.9811 5.1294 12.9436 5.2849 12.7879 C 5.4341 12.6386 5.6023 12.6035 5.778 12.6848 C 5.9407 12.7601 6.0059 12.8771 6.0053 13.0924 C 6.0047 13.2114 5.9953 13.25 5.9663 13.2975 C 5.9453 13.3297 5.9273 13.3604 5.9273 13.3657 C 5.9273 13.3707 5.8763 13.4304 5.8137 13.4977 C 5.7167 13.6022 5.6983 13.633 5.6876 13.7096 C 5.6716 13.8274 5.7016 13.9016 5.8152 14.024 C 5.9391 14.1571 5.9878 14.265 5.989 14.409 C 5.989 14.6949 5.775 14.9003 5.5166 14.8575 Z M 5.6646 14.5928 C 5.7276 14.5588 5.7743 14.4536 5.7586 14.3784 C 5.7486 14.3457 5.7006 14.2693 5.6396 14.2012 C 5.4885 14.0326 5.4402 13.9156 5.4486 13.7384 C 5.4586 13.5639 5.4936 13.4892 5.6585 13.3063 C 5.7769 13.1754 5.7846 13.1618 5.7783 13.0924 C 5.7653 12.9498 5.7153 12.8975 5.5894 12.8975 C 5.5234 12.8975 5.5034 12.9106 5.3908 13.0241 C 5.2418 13.1746 5.1348 13.2317 4.9986 13.2333 C 4.8473 13.2353 4.7413 13.1807 4.5863 13.0217 C 4.5123 12.9456 4.433 12.8771 4.4106 12.8694 C 4.2943 12.8297 4.1609 12.9675 4.1838 13.1035 C 4.1938 13.1559 4.2068 13.1756 4.3461 13.3325 C 4.4513 13.4508 4.5003 13.5783 4.5003 13.7335 C 4.5003 13.8905 4.4373 14.0241 4.2919 14.1744 C 4.1919 14.2775 4.1714 14.3103 4.1631 14.3766 C 4.1531 14.4482 4.1631 14.4624 4.2161 14.5238 C 4.2651 14.5766 4.2931 14.5917 4.3443 14.5917 C 4.3993 14.5917 4.4283 14.5728 4.5319 14.4714 C 4.7315 14.2753 4.7659 14.2577 4.9536 14.2565 C 5.1007 14.2555 5.1216 14.2605 5.1951 14.3102 C 5.2391 14.3403 5.3244 14.4163 5.3841 14.479 C 5.4441 14.5417 5.5162 14.6002 5.5451 14.6089 C 5.6041 14.6268 5.5991 14.6275 5.6639 14.5928 Z M 1.7975 17.0547 C 1.9382 17.017 2.0479 16.9673 2.2531 16.848 C 2.5815 16.6571 2.7265 16.574 2.9239 16.4635 C 3.2365 16.2886 3.5382 16.1121 3.5563 16.0936 C 3.5663 16.0846 3.5733 16.0384 3.5763 15.9899 C 3.5863 15.8396 3.6393 15.642 3.7167 15.4749 L 3.7907 15.3148 L 3.6655 15.1789 C 3.5502 15.0537 3.4598 14.9438 3.4598 14.9288 C 3.4598 14.9258 3.4248 14.8614 3.3818 14.7866 C 3.1848 14.4426 3.0868 13.9509 3.1376 13.5608 C 3.1636 13.3623 3.2246 13.1228 3.2882 12.967 C 3.3122 12.9076 3.3282 12.859 3.3232 12.859 C 3.3072 12.859 3.2382 12.9001 3.1465 12.9647 C 3.0975 12.9993 2.9726 13.0861 2.8692 13.1577 C 2.5693 13.3654 2.4689 13.4354 2.4349 13.4609 C 2.4169 13.474 2.3639 13.5107 2.3152 13.5425 C 2.2672 13.5743 2.1463 13.6565 2.0471 13.7254 C 1.9481 13.7942 1.8352 13.8722 1.7965 13.8986 C 1.7335 13.9416 1.3432 14.2118 1.0672 14.4034 C 1.0102 14.4428 0.9158 14.5065 0.8567 14.5451 C 0.7977 14.5837 0.7454 14.621 0.7405 14.6281 C 0.7405 14.6351 0.7025 14.6667 0.6665 14.6982 C 0.5775 14.7764 0.4214 14.9831 0.3905 15.0628 C 0.3765 15.0988 0.3575 15.1335 0.3475 15.1399 C 0.3375 15.1459 0.3085 15.2227 0.2815 15.3096 C 0.2375 15.4524 0.2335 15.4938 0.2345 15.7372 C 0.2355 15.9898 0.2345 16.0167 0.2905 16.1649 C 0.3615 16.3679 0.3991 16.4467 0.4842 16.5687 C 0.6496 16.8055 0.9853 17.0257 1.2557 17.0747 C 1.4193 17.1044 1.6419 17.0961 1.7966 17.0547 Z M 6.8897 12.9023 C 7.1065 12.6766 7.1375 12.6261 7.1441 12.4878 C 7.1541 12.3605 7.1001 12.2765 6.8744 12.0366 C 6.7727 11.9284 6.6306 11.7747 6.5587 11.6949 C 6.3571 11.4715 6.3216 11.4472 6.1974 11.4472 C 6.0633 11.4472 6.0126 11.4822 5.781 11.7348 L 5.6064 11.9253 L 5.7156 11.978 C 5.992 12.1115 6.3249 12.4176 6.4855 12.6857 C 6.5655 12.8193 6.6511 12.9949 6.6709 13.0659 C 6.6809 13.0897 6.6849 13.1092 6.6869 13.1092 C 6.6869 13.1092 6.7799 13.0161 6.8896 12.9023 Z M 12.0562 23.9496 C 11.9752 23.9436 11.8955 23.9262 11.8728 23.9101 C 11.8228 23.8746 11.8198 23.7893 11.8628 23.7397 C 11.8938 23.7063 11.9338 23.7047 12.5471 23.7114 C 12.9053 23.7154 13.2112 23.7228 13.227 23.7279 C 13.243 23.7329 13.265 23.7588 13.276 23.7851 C 13.304 23.8507 13.276 23.9214 13.202 23.9474 C 13.146 23.9684 12.322 23.97 12.0533 23.9494 Z M 14.3214 23.7775 C 14.3004 23.755 14.2834 23.7188 14.2834 23.6972 C 14.2834 23.6454 14.3604 23.564 14.4122 23.5609 C 14.4642 23.5579 14.5127 23.5509 14.5696 23.5385 C 14.5946 23.5335 14.6666 23.5185 14.7306 23.5059 C 14.8556 23.4813 14.9981 23.4466 15.3686 23.3501 C 15.5005 23.3158 15.6232 23.2939 15.6473 23.3005 C 15.7353 23.3244 15.7473 23.4752 15.6643 23.523 C 15.6233 23.5466 15.0064 23.7092 14.8918 23.7266 C 14.8478 23.7336 14.7792 23.7479 14.74 23.7589 C 14.701 23.77 14.645 23.782 14.6148 23.7856 C 14.5848 23.7896 14.5158 23.7981 14.4602 23.8053 C 14.3722 23.8168 14.355 23.8133 14.3216 23.7775 Z M 10.634 23.7735 C 10.6 23.7645 10.5151 23.7431 10.4462 23.727 C 10.0622 23.637 9.7327 23.5465 9.6926 23.52 C 9.6826 23.514 9.6466 23.5045 9.6086 23.4981 C 9.5226 23.4835 9.4428 23.4396 9.4284 23.3991 C 9.4074 23.3407 9.4174 23.289 9.4554 23.253 C 9.5014 23.21 9.5284 23.2086 9.6328 23.244 C 9.7088 23.2699 9.9014 23.3273 10.0877 23.38 C 10.1367 23.3939 10.2335 23.4185 10.3024 23.4347 C 10.7765 23.546 10.8484 23.5752 10.8477 23.656 C 10.8471 23.6983 10.8317 23.722 10.7767 23.7622 C 10.7277 23.7981 10.7237 23.7984 10.6331 23.7736 Z M 16.7023 23.0908 C 16.6413 23.045 16.6483 22.9422 16.7143 22.8911 C 16.7433 22.8692 16.7743 22.8513 16.7833 22.8513 C 16.7933 22.8513 16.8643 22.8205 16.9415 22.7828 C 17.0195 22.7451 17.0988 22.7066 17.1185 22.6972 C 17.3245 22.5986 17.4787 22.5188 17.7929 22.3482 C 17.8779 22.3021 17.9163 22.3029 17.9648 22.3512 C 18.0448 22.4318 18.0038 22.5087 17.8204 22.6174 C 17.5672 22.7678 16.8283 23.1206 16.7664 23.1206 C 16.7524 23.1206 16.7234 23.1071 16.7024 23.0906 Z M 16.7523 22.9187 L 16.7423 22.9087 L 16.7323 22.9187 L 16.7423 22.9287 L 16.7523 22.9187 Z M 13.7019 22.6514 C 13.6019 22.6174 13.536 22.5695 13.4475 22.4673 C 13.3081 22.3062 13.3103 22.3242 13.3039 21.2853 C 13.2939 20.4838 13.3039 20.3506 13.3269 20.2579 C 13.3789 20.0666 13.476 19.9401 13.6307 19.8634 C 13.7167 19.8206 13.7393 19.8188 14.2792 19.8132 L 14.8382 19.8072 L 14.8382 19.4424 C 14.8382 19.2418 14.8282 19.0774 14.8252 19.077 C 14.5527 19.0649 14.1712 18.919 13.9138 18.7285 C 13.6786 18.5543 13.401 18.1885 13.2948 17.9129 C 13.136 17.5009 13.1038 17.0491 13.2038 16.6385 C 13.2818 16.3199 13.431 16.0352 13.6515 15.7858 C 13.8214 15.5937 13.9748 15.4748 14.1875 15.3703 C 14.2655 15.3322 14.3415 15.2938 14.3572 15.285 C 14.4032 15.2594 14.711 15.1925 14.8485 15.1782 C 14.9858 15.164 15.2671 15.1957 15.3784 15.238 C 15.4164 15.2523 15.4464 15.2606 15.4464 15.2566 C 15.4464 15.2417 15.6561 15.329 15.7774 15.3944 C 16.2409 15.644 16.5896 16.1204 16.7168 16.6776 C 16.7368 16.764 16.7548 16.8715 16.7568 16.9165 L 16.7568 16.9982 L 17.602 16.9982 L 18.4473 16.9982 L 18.4473 16.1366 L 18.4473 15.2751 L 17.821 15.2801 C 17.1512 15.2861 17.0714 15.2771 16.9012 15.184 C 16.7429 15.097 16.6048 14.8932 16.5689 14.6933 C 16.5549 14.6165 16.5509 14.233 16.5549 13.4651 C 16.5649 12.3697 16.5649 12.3465 16.5989 12.2463 C 16.6739 12.049 16.7908 11.9208 16.9687 11.8401 L 17.0788 11.7901 L 18.5009 11.7841 C 20.0176 11.7781 20.0584 11.7801 20.2262 11.8713 C 20.3816 11.956 20.4697 12.0651 20.5458 12.2668 C 20.5828 12.3649 20.5838 12.3972 20.5898 13.4992 C 20.5898 14.1941 20.5898 14.6708 20.5778 14.7342 C 20.5378 14.9641 20.4034 15.1511 20.2191 15.2314 C 20.1221 15.2737 20.1048 15.2746 19.3999 15.2746 L 18.6798 15.2746 L 18.6798 16.1361 L 18.6798 16.9977 L 19.5265 16.9977 L 20.3731 16.9977 L 20.3951 16.8389 C 20.4231 16.6392 20.5057 16.371 20.589 16.2083 C 20.7277 15.9373 20.988 15.625 21.1514 15.5335 C 21.1874 15.5132 21.2224 15.4882 21.2274 15.478 C 21.2404 15.4558 21.4635 15.3372 21.5769 15.2924 C 21.6649 15.2575 21.733 15.2399 21.9345 15.1996 C 22.1785 15.1507 22.5251 15.1889 22.8015 15.2951 C 23.0932 15.4071 23.4092 15.6535 23.6167 15.9306 C 23.7167 16.0638 23.8297 16.2869 23.8892 16.4675 C 23.9852 16.7587 24.0216 17.1665 23.9742 17.4213 C 23.9632 17.4795 23.9502 17.5575 23.9442 17.5945 C 23.9212 17.7439 23.809 18.0137 23.6788 18.2299 C 23.5968 18.3655 23.3971 18.5862 23.24 18.714 C 23.0565 18.8633 22.618 19.0562 22.4596 19.0574 C 22.4286 19.0574 22.3786 19.0634 22.3478 19.0698 L 22.2918 19.0818 L 22.2918 19.4451 L 22.2918 19.8085 L 22.824 19.8085 C 23.38 19.8085 23.4587 19.8185 23.5739 19.8984 C 23.6509 19.9521 23.7272 20.0443 23.7766 20.1435 L 23.8216 20.2333 L 23.8216 21.2385 L 23.8216 22.2437 L 23.7776 22.3356 C 23.7186 22.4603 23.626 22.5567 23.5081 22.617 L 23.4101 22.6673 L 22.1848 22.6673 L 20.9594 22.6673 L 20.8594 22.617 C 20.7416 22.5575 20.6447 22.4559 20.5883 22.3328 L 20.5473 22.2437 L 20.5473 21.2136 C 20.5473 20.1962 20.5479 20.1825 20.5863 20.097 C 20.6453 19.9658 20.7439 19.8798 20.8945 19.8288 C 20.9325 19.816 21.165 19.8082 21.5072 19.8082 L 22.0591 19.8082 L 22.0591 19.4446 C 22.0591 19.0357 22.0691 19.0582 21.9146 19.0576 C 21.8316 19.057 21.642 18.9959 21.4554 18.9092 C 20.894 18.6483 20.4851 18.0726 20.395 17.4161 L 20.372 17.2476 L 18.5681 17.2476 C 17.576 17.2476 16.7637 17.2536 16.763 17.2621 C 16.743 17.4995 16.677 17.7587 16.5772 17.9889 C 16.4742 18.2269 16.2308 18.5387 16.0101 18.7155 C 15.8405 18.8515 15.4536 19.0282 15.282 19.0482 C 15.236 19.0532 15.1688 19.0628 15.1319 19.069 L 15.0649 19.0801 L 15.0649 19.4442 L 15.0649 19.8083 L 15.6277 19.8083 C 16.1481 19.8083 16.1978 19.8113 16.2869 19.8471 C 16.4008 19.893 16.504 19.996 16.5565 20.1163 C 16.5935 20.2002 16.5945 20.2329 16.5995 21.1367 C 16.5995 21.7714 16.5986 22.1061 16.5855 22.182 C 16.5505 22.3784 16.4422 22.5325 16.2813 22.6161 L 16.1833 22.6673 L 14.9758 22.6713 C 14.0393 22.6743 13.7522 22.6693 13.6964 22.6506 Z M 16.1928 22.3766 C 16.2668 22.3362 16.2953 22.3069 16.3272 22.237 C 16.3672 22.1494 16.3682 22.1401 16.3732 21.2269 C 16.3732 20.3318 16.3732 20.3028 16.3412 20.2257 C 16.3212 20.182 16.2822 20.129 16.2562 20.1078 C 16.2082 20.0703 16.1752 20.0692 15.0099 20.064 L 13.8126 20.059 L 13.7196 20.1097 C 13.6426 20.1518 13.6184 20.1779 13.5797 20.2631 L 13.5327 20.3657 L 13.5327 21.2284 C 13.5328 21.7605 13.5427 22.1185 13.5507 22.1625 C 13.5717 22.2441 13.7087 22.4019 13.7693 22.4145 C 13.7913 22.4195 14.3245 22.4245 14.954 22.4254 L 16.0987 22.4284 L 16.1927 22.3772 Z M 23.4448 22.3706 C 23.4808 22.3447 23.5288 22.2933 23.5522 22.2565 L 23.5952 22.1895 L 23.5952 21.2337 C 23.5952 20.3491 23.5952 20.2754 23.5642 20.2442 C 23.5472 20.2257 23.5332 20.1991 23.5332 20.1852 C 23.5332 20.1713 23.5192 20.1542 23.5022 20.1473 C 23.4852 20.1403 23.4422 20.1177 23.4082 20.097 C 23.3482 20.0607 23.3036 20.0593 22.1646 20.0593 C 21.0494 20.0593 20.9803 20.0613 20.9219 20.0949 C 20.8879 20.1145 20.8439 20.1541 20.8239 20.1829 C 20.7889 20.234 20.7879 20.2602 20.7879 21.2126 L 20.7879 22.1899 L 20.8369 22.2665 C 20.8639 22.3086 20.9199 22.362 20.9621 22.3852 L 21.0381 22.4272 L 22.2098 22.4222 L 23.3816 22.4172 Z M 15.2228 18.7998 C 15.8518 18.6798 16.3339 18.1881 16.4891 17.5084 C 16.5511 17.236 16.5531 17.0078 16.4891 16.7575 C 16.323 16.0537 15.8605 15.5861 15.2004 15.4547 C 14.9801 15.4108 14.8507 15.4156 14.6101 15.4763 C 14.3511 15.5417 14.1202 15.662 13.9649 15.8125 C 13.9259 15.85 13.8899 15.8809 13.8839 15.8811 C 13.8739 15.8811 13.8189 15.9515 13.7524 16.0371 C 13.612 16.2176 13.4922 16.4505 13.4413 16.6421 C 13.4013 16.7935 13.3603 17.1437 13.3743 17.2128 C 13.3843 17.2377 13.3873 17.3101 13.3923 17.3736 C 13.4023 17.4941 13.4703 17.7418 13.5324 17.8742 C 13.7264 18.2885 14.052 18.592 14.4645 18.743 C 14.5325 18.7679 14.6291 18.7933 14.6793 18.7995 C 14.7293 18.8055 14.7743 18.8144 14.7783 18.819 C 14.7963 18.8378 15.0855 18.825 15.2183 18.7999 Z M 14.6151 17.4458 C 14.4093 17.2353 14.3636 17.1625 14.39 17.0876 C 14.411 17.0267 14.47 16.992 14.5214 17.0092 C 14.5434 17.0162 14.6225 17.0894 14.6976 17.1714 L 14.8343 17.3204 L 15.1538 16.9752 C 15.4607 16.6436 15.4756 16.6304 15.533 16.6399 C 15.614 16.6534 15.6432 16.6837 15.6432 16.7546 C 15.6432 16.8067 15.5942 16.8667 15.2626 17.2239 C 14.9846 17.5232 14.8708 17.6335 14.8403 17.6335 C 14.8123 17.6335 14.7396 17.5732 14.6151 17.4458 Z M 22.4857 18.8012 C 22.5567 18.7912 22.7914 18.7064 22.8754 18.6607 C 23.2765 18.4423 23.5899 18.0409 23.7051 17.5981 C 23.7871 17.2844 23.7801 16.8932 23.6891 16.6035 C 23.4802 15.9413 22.9528 15.5016 22.2789 15.4278 C 22.0733 15.4053 21.7325 15.4835 21.4931 15.6081 C 21.3825 15.6657 21.1544 15.8439 21.062 15.945 C 20.7533 16.2825 20.5689 16.8389 20.6189 17.2819 C 20.6609 17.6485 20.7857 17.9681 20.9859 18.2176 C 21.3233 18.6381 21.7459 18.839 22.2444 18.8158 C 22.3576 18.8108 22.4662 18.804 22.4859 18.8012 Z M 21.7115 17.6613 C 21.6845 17.641 21.6715 17.6115 21.6715 17.5702 C 21.6715 17.5185 21.6985 17.4793 21.8504 17.3159 L 22.0293 17.1227 L 21.8504 16.9309 C 21.6593 16.726 21.636 16.673 21.7067 16.6041 C 21.7787 16.5341 21.8249 16.5576 22.0133 16.7596 L 22.1903 16.9494 L 22.3647 16.764 C 22.4607 16.662 22.5559 16.5732 22.5765 16.5667 C 22.6305 16.5495 22.709 16.6212 22.709 16.6879 C 22.709 16.729 22.67 16.7827 22.5307 16.9319 L 22.3523 17.1234 L 22.5307 17.3162 C 22.6815 17.4793 22.709 17.5185 22.709 17.5702 C 22.709 17.6368 22.657 17.6913 22.5936 17.6913 C 22.5716 17.6913 22.4851 17.6136 22.3748 17.4953 L 22.1921 17.2993 L 22.0078 17.4952 C 21.8178 17.6973 21.784 17.7162 21.7112 17.6613 Z M 23.5412 18.3844 C 23.5512 18.3738 23.5512 18.3651 23.5412 18.3651 L 23.5212 18.3844 C 23.5112 18.395 23.5112 18.4036 23.5212 18.4036 L 23.5412 18.3844 Z M 20.8489 18.3744 L 20.8389 18.3644 L 20.8289 18.3744 L 20.8389 18.3844 L 20.8489 18.3744 Z M 20.0988 15.0048 C 20.1938 14.9698 20.2763 14.8952 20.3229 14.8031 C 20.3549 14.7405 20.3569 14.681 20.3609 13.9619 L 20.3609 13.188 L 19.9871 13.182 C 19.6491 13.177 19.6097 13.173 19.5757 13.1394 C 19.5297 13.0944 19.5267 13.01 19.5657 12.9677 C 19.5927 12.9411 19.6557 12.9354 19.9727 12.931 L 20.3474 12.926 L 20.3467 12.6661 C 20.3461 12.4316 20.3467 12.3978 20.3037 12.3196 C 20.2167 12.1392 20.1518 12.0845 19.9864 12.0503 C 19.9134 12.0352 19.4678 12.0305 18.4956 12.0346 L 17.1092 12.0406 L 17.0242 12.0857 C 16.84 12.1834 16.7783 12.3382 16.7783 12.703 L 16.7783 12.9359 L 17.8203 12.9365 C 18.4211 12.9365 18.8733 12.9445 18.8883 12.9545 C 18.9243 12.9792 18.9213 13.1025 18.8783 13.1435 C 18.8493 13.1743 18.7669 13.1773 17.8103 13.1822 L 16.7734 13.1872 L 16.7734 13.8783 C 16.7734 14.7033 16.7734 14.732 16.9069 14.8716 C 17.0637 15.0405 16.9749 15.032 18.5904 15.0333 C 19.8124 15.0343 20.0157 15.0303 20.0841 15.0052 Z M 18.833 21.7766 C 18.77 21.7235 18.762 21.6478 18.814 21.5953 C 18.9232 21.4849 19.0115 21.4012 19.203 21.2269 C 19.3162 21.1239 19.4852 20.9655 19.5787 20.875 C 19.6717 20.7845 19.7634 20.7017 19.7815 20.6911 C 19.8635 20.6429 19.9765 20.7717 19.9299 20.8607 C 19.9089 20.9008 19.738 21.0699 19.4419 21.3436 C 19.3479 21.4307 19.2221 21.5477 19.1628 21.6035 C 18.9583 21.7963 18.8952 21.8293 18.8329 21.7766 Z M 19.3462 21.397 L 19.3362 21.387 L 19.3262 21.397 L 19.3362 21.407 L 19.3462 21.397 Z M 4.9809 20.4681 C 4.6763 20.136 4.4643 19.8872 4.4031 19.79 C 4.3421 19.6929 4.3851 19.5773 4.4821 19.578 C 4.5381 19.5786 4.5561 19.5914 4.6232 19.6837 C 4.6542 19.726 4.7212 19.8082 4.7732 19.8664 C 5.4114 20.5866 5.4395 20.6233 5.4307 20.7275 C 5.4307 20.7497 5.3397 20.8098 5.3089 20.8099 C 5.2989 20.8099 5.1535 20.6561 4.981 20.4682 Z M 3.6787 18.7208 C 3.6497 18.6943 3.6077 18.637 3.5867 18.5935 C 3.5657 18.55 3.5167 18.4634 3.4784 18.4011 C 3.4404 18.3388 3.3467 18.1643 3.2711 18.0134 C 3.1951 17.8625 3.1106 17.6973 3.0824 17.6463 C 2.9984 17.4946 3.0264 17.3636 3.1414 17.3636 C 3.2024 17.3636 3.2184 17.3869 3.3888 17.7198 C 3.4698 17.8786 3.5783 18.0822 3.6291 18.1722 C 3.6801 18.2622 3.7271 18.3489 3.7347 18.3648 C 3.7557 18.411 3.7877 18.4669 3.8317 18.5318 C 3.8817 18.6067 3.8827 18.6532 3.8317 18.7183 C 3.7857 18.7818 3.7437 18.7824 3.6752 18.7203 Z M 23.1446 14.7501 C 23.0896 14.6976 23.0836 14.6577 23.1106 14.5185 C 23.1246 14.4473 23.1396 14.3502 23.1446 14.3025 C 23.1546 14.2549 23.1656 14.1422 23.1806 14.0522 C 23.1946 13.9622 23.2126 13.8422 23.2196 13.7854 C 23.2296 13.7245 23.2456 13.6673 23.2656 13.6458 C 23.3096 13.5986 23.3927 13.5992 23.433 13.6468 C 23.46 13.6786 23.463 13.7022 23.451 13.7961 C 23.441 13.8574 23.438 13.9137 23.44 13.9213 C 23.44 13.9346 23.404 14.1829 23.342 14.542 C 23.304 14.7649 23.2358 14.8366 23.1448 14.7498 Z M 1.9378 12.629 C 1.8958 12.5922 1.8958 12.5894 1.8998 12.2296 C 1.8998 11.9172 1.9208 11.5634 1.9508 11.2414 C 1.9628 11.115 2.0358 11.0579 2.122 11.1078 C 2.184 11.1432 2.189 11.2014 2.163 11.5314 C 2.149 11.7054 2.134 12.021 2.13 12.2326 C 2.12 12.5687 2.118 12.6204 2.09 12.6417 C 2.046 12.6767 1.9869 12.6718 1.9381 12.6291 Z M 23.3464 12.5018 C 23.3074 12.4603 23.3024 12.405 23.2914 11.9056 C 23.2814 11.6621 23.2724 11.3745 23.2614 11.2666 C 23.2394 11.0495 23.2434 11.0261 23.3054 10.9825 C 23.3604 10.9435 23.4536 10.9735 23.4677 11.0357 C 23.4957 11.1582 23.5097 11.396 23.5267 12.0067 C 23.5377 12.4223 23.5367 12.457 23.5067 12.4928 C 23.4687 12.5385 23.3861 12.5432 23.3477 12.5018 Z M 10.5446 12.4349 C 10.3548 12.3847 10.1881 12.2459 10.1137 12.0761 C 10.0807 12.0009 10.0727 11.9488 10.0717 11.8093 C 10.0711 11.6563 10.0817 11.6242 10.1207 11.5343 C 10.2295 11.3114 10.3814 11.2036 10.6082 11.1884 L 10.7539 11.1784 L 10.8359 10.9547 C 10.8979 10.7852 10.9129 10.7259 10.8969 10.71 C 10.8849 10.6984 10.8039 10.6606 10.7149 10.6259 C 10.4803 10.534 10.395 10.4703 10.3378 10.3444 C 10.2698 10.1942 10.2818 10.0658 10.3898 9.77717 C 10.4358 9.65494 10.4738 9.54231 10.4738 9.52689 C 10.4737 9.51149 10.4438 9.47719 10.4078 9.45069 C 10.3318 9.39549 10.0519 9.13677 10.0032 9.07691 C 9.9852 9.05481 9.9442 9.00641 9.9132 8.96939 C 9.8342 8.87729 9.6944 8.69074 9.6729 8.64953 C 9.6539 8.61293 9.6629 8.60903 9.3156 8.77972 C 9.1605 8.85562 9.0689 8.87512 8.9747 8.85242 C 8.819 8.81482 8.7245 8.71278 8.6329 8.48326 C 8.5999 8.40116 8.5639 8.33425 8.5529 8.33449 C 8.5419 8.33449 8.4525 8.37199 8.3541 8.41739 L 8.1752 8.49979 L 8.1752 8.58989 C 8.1852 8.71362 8.1392 8.89237 8.0842 8.97935 C 7.9635 9.17039 7.7527 9.28536 7.5443 9.27382 C 7.3933 9.26582 7.2884 9.21532 7.1795 9.0995 C 7.0461 8.95749 7.0127 8.87625 7.0026 8.66926 C 6.9926 8.49561 6.9926 8.48272 7.0496 8.36504 C 7.1376 8.17248 7.2888 8.04837 7.4818 8.01001 C 7.5768 7.99111 7.6659 8.00001 7.798 8.04281 C 7.861 8.06311 7.866 8.06651 7.9842 8.17875 C 8.0292 8.22175 8.0752 8.25695 8.0848 8.25695 C 8.1118 8.25695 8.4652 8.08975 8.4652 8.07675 C 8.4652 8.07275 8.4332 7.99095 8.3932 7.89514 C 8.3062 7.68503 8.2834 7.56673 8.3052 7.44423 C 8.3362 7.26478 8.4135 7.18475 8.6642 7.0707 C 8.7462 7.0331 8.8424 6.9887 8.8768 6.972 C 8.9108 6.9553 8.9478 6.9407 8.9578 6.9396 C 8.9778 6.9376 8.9778 6.9244 8.9478 6.5627 C 8.9278 6.32114 8.9348 5.74339 8.9588 5.64812 C 8.9688 5.61552 8.9488 5.60092 8.8466 5.55452 C 8.6691 5.47422 8.6286 5.45632 8.5169 5.40911 C 8.2702 5.30469 8.1742 5.06454 8.27 4.79123 C 8.343 4.58331 8.358 4.53615 8.358 4.52005 C 8.358 4.50385 7.9987 4.31019 7.9686 4.31019 C 7.9586 4.31019 7.9336 4.33279 7.9096 4.36039 C 7.8186 4.46517 7.7264 4.51706 7.5867 4.54132 C 7.4684 4.56182 7.4376 4.56062 7.3458 4.53232 C 7.2061 4.48862 7.1535 4.45772 7.0691 4.36951 C 6.8994 4.19224 6.8481 3.88603 6.9489 3.65156 C 6.9999 3.53216 7.1105 3.4073 7.2186 3.34617 C 7.2556 3.32507 7.3397 3.30087 7.4048 3.29247 C 7.6524 3.26037 7.844 3.35187 7.9809 3.56759 C 8.0519 3.6788 8.0769 3.77784 8.0759 3.93495 L 8.0751 4.07114 L 8.194 4.13504 C 8.4547 4.27512 8.4526 4.27427 8.4679 4.24838 C 8.4779 4.23498 8.4819 4.21408 8.4829 4.20188 C 8.4835 4.15008 8.626 3.85392 8.6732 3.80631 C 8.7452 3.73321 8.8526 3.68966 8.9572 3.69071 C 9.0232 3.69137 9.1117 3.71991 9.2932 3.79898 C 9.4288 3.85808 9.5536 3.90609 9.5705 3.90575 C 9.5875 3.90537 9.6345 3.85145 9.6791 3.78069 C 9.7561 3.65824 10.156 3.20961 10.3398 3.04001 L 10.4338 2.95341 L 10.3428 2.72238 C 10.2037 2.37108 10.1927 2.25312 10.2828 2.08365 C 10.3408 1.97519 10.3843 1.94189 10.5939 1.84555 C 10.6919 1.80025 10.773 1.75635 10.773 1.74795 C 10.773 1.72965 10.75 1.67065 10.674 1.48867 C 10.642 1.41367 10.611 1.33357 10.604 1.31059 C 10.594 1.28759 10.586 1.26859 10.58 1.26829 C 10.57 1.26804 10.503 1.26529 10.4246 1.26229 C 10.256 1.25629 10.1535 1.20949 10.0389 1.08751 C 9.7238 0.75216 9.85 0.1742 10.2705 0.02695 C 10.3983 -0.01785 10.5932 -0.00555 10.7083 0.05445 C 10.9407 0.17554 11.0869 0.47392 11.0411 0.73378 C 11.0181 0.8666 10.9671 0.97463 10.881 1.07806 C 10.802 1.17226 10.802 1.17256 10.8804 1.35534 C 10.9074 1.41884 10.9444 1.50984 10.9624 1.55749 C 10.9804 1.60509 10.9964 1.64639 10.9974 1.64919 C 10.9974 1.65519 11.0979 1.61249 11.2342 1.5459 C 11.3452 1.4916 11.5482 1.4819 11.6281 1.527 C 11.7231 1.5807 11.8065 1.69888 11.8735 1.87513 C 11.9095 1.97043 11.9525 2.08181 11.9675 2.12265 L 11.9965 2.19685 L 12.0955 2.18685 C 12.1505 2.18185 12.2714 2.16655 12.3648 2.15385 C 12.5124 2.13375 12.7856 2.13585 13.15 2.15985 L 13.211 2.16385 L 13.296 1.93585 C 13.394 1.67408 13.4569 1.5791 13.5725 1.51886 C 13.6747 1.46566 13.852 1.47146 13.9749 1.53206 C 14.0559 1.57216 14.255 1.65369 14.2714 1.65369 C 14.2714 1.65369 14.3174 1.57119 14.3624 1.47038 C 14.4474 1.27985 14.4484 1.2568 14.3734 1.20521 C 14.3614 1.19721 14.3254 1.13181 14.2934 1.06082 C 14.2434 0.94984 14.2354 0.91147 14.2354 0.78734 C 14.2354 0.70794 14.2464 0.61154 14.2584 0.57315 C 14.3154 0.39317 14.4954 0.21246 14.6597 0.17004 C 14.789 0.13664 14.9883 0.15544 15.0911 0.21074 C 15.1973 0.26784 15.3062 0.39336 15.3626 0.52372 C 15.4156 0.6471 15.4236 0.8916 15.3776 1.01124 C 15.3216 1.15683 15.2136 1.28328 15.0881 1.34978 C 14.9827 1.40568 14.9556 1.41168 14.8155 1.41078 L 14.6599 1.40978 L 14.5859 1.57056 C 14.5449 1.65896 14.5119 1.73829 14.5119 1.74679 C 14.5119 1.75579 14.5909 1.79589 14.6863 1.83699 C 14.9274 1.94029 14.9996 1.99632 15.0586 2.12605 C 15.1006 2.21825 15.1056 2.24888 15.0976 2.35234 C 15.0876 2.41814 15.0706 2.51532 15.0486 2.56827 C 14.9946 2.70185 14.9676 2.76932 14.9403 2.8456 L 14.9163 2.9112 L 15.0223 3.0093 C 15.172 3.1479 15.6797 3.69368 15.718 3.75715 C 15.736 3.78625 15.757 3.81005 15.765 3.81005 C 15.775 3.81005 15.882 3.76125 16.0068 3.70166 C 16.1905 3.61386 16.2513 3.59343 16.3267 3.59416 C 16.4755 3.59516 16.6105 3.68146 16.6814 3.81968 C 16.7204 3.89488 16.8373 4.22958 16.8373 4.26442 C 16.8373 4.30002 16.8713 4.29842 16.9558 4.25842 C 16.9938 4.24052 17.0288 4.22462 17.0338 4.22312 C 17.0338 4.22112 17.0628 4.21112 17.0878 4.19992 C 17.1128 4.18872 17.1658 4.16512 17.2061 4.14752 L 17.2801 4.11552 L 17.2901 3.9444 C 17.3001 3.80694 17.3081 3.75676 17.3451 3.68925 C 17.4021 3.58469 17.5358 3.45018 17.6209 3.41194 C 17.9228 3.27618 18.2764 3.41694 18.4076 3.72556 C 18.4686 3.86828 18.4706 4.13096 18.4076 4.25398 C 18.3186 4.44273 18.1311 4.59323 17.9467 4.62497 C 17.7662 4.65607 17.4872 4.54117 17.4016 4.40049 C 17.3676 4.34549 17.3666 4.34569 17.2101 4.41919 C 17.1751 4.43549 17.1271 4.45759 17.1025 4.46829 C 17.0775 4.47899 17.0435 4.49549 17.0265 4.50479 C 17.0095 4.51379 16.9835 4.52179 16.9685 4.52179 C 16.9535 4.52179 16.9415 4.52479 16.9415 4.52779 C 16.9415 4.54829 17.0345 4.819 17.0756 4.91621 C 17.1406 5.07093 17.1526 5.20735 17.1116 5.32516 C 17.0536 5.4925 16.9876 5.54219 16.6105 5.70124 L 16.5032 5.74654 L 16.5132 6.21342 C 16.5132 6.57805 16.5124 6.72051 16.4892 6.86394 C 16.4732 6.96494 16.4622 7.04994 16.4652 7.05283 C 16.4652 7.05583 16.5714 7.10343 16.6944 7.15879 C 16.9537 7.27566 16.9919 7.30179 17.062 7.41077 C 17.108 7.48237 17.114 7.50767 17.114 7.63808 C 17.114 7.76233 17.104 7.80552 17.057 7.91961 L 17 8.05437 L 17.084 8.09737 C 17.13 8.12097 17.1884 8.14887 17.213 8.15937 C 17.238 8.16987 17.302 8.19937 17.3549 8.22487 L 17.4519 8.27137 L 17.5289 8.19397 C 17.6325 8.08953 17.6551 8.07391 17.757 8.03676 C 17.9838 7.95396 18.2211 8.02516 18.3909 8.22682 C 18.4899 8.34482 18.5258 8.45432 18.5256 8.64162 C 18.5256 8.8473 18.4806 8.96931 18.3586 9.09156 C 18.217 9.23413 18.1424 9.26661 17.9555 9.26699 C 17.8169 9.26699 17.7808 9.25999 17.6961 9.21569 C 17.5805 9.15509 17.4819 9.05753 17.4185 8.94112 C 17.3825 8.87562 17.3705 8.81902 17.3605 8.6783 L 17.3475 8.49899 L 17.1259 8.39646 C 17.004 8.34006 16.9026 8.29635 16.9005 8.29926 C 16.9005 8.30226 16.8575 8.40661 16.8095 8.53124 C 16.7415 8.70722 16.705 8.7768 16.6438 8.84269 C 16.5186 8.97743 16.338 9.00346 16.1527 8.91349 C 16.0627 8.86989 15.766 8.73782 15.7578 8.73782 C 15.7578 8.73782 15.7248 8.77902 15.6918 8.82932 C 15.5656 9.02081 15.2662 9.34525 15.0796 9.49268 C 15.0136 9.54518 14.9588 9.59336 14.9588 9.59983 C 14.9588 9.60583 14.9988 9.69923 15.0478 9.80637 C 15.1248 9.97574 15.1368 10.0186 15.1408 10.1348 C 15.1408 10.2496 15.1408 10.2807 15.0978 10.3559 C 15.0308 10.4787 14.9966 10.503 14.6784 10.6536 C 14.5904 10.6954 14.5904 10.6957 14.6884 10.9398 C 14.7224 11.0259 14.7544 11.1158 14.7594 11.1396 C 14.7694 11.1784 14.7804 11.1832 14.8782 11.1854 C 15.0334 11.1884 15.0528 11.1924 15.1276 11.2306 C 15.2377 11.2869 15.3658 11.4312 15.4183 11.5584 C 15.6391 12.0926 15.1049 12.6365 14.6085 12.383 C 14.4955 12.3253 14.3646 12.1682 14.3208 12.0377 C 14.2328 11.7769 14.2948 11.5147 14.4882 11.3299 L 14.5542 11.2664 L 14.4672 11.0321 C 14.3692 10.7653 14.3952 10.7782 14.1772 10.8869 C 14.0697 10.9406 14.026 10.9519 13.9258 10.9519 C 13.8222 10.9519 13.7923 10.9439 13.7212 10.8951 C 13.617 10.824 13.5746 10.7516 13.4647 10.4572 L 13.3767 10.2223 L 13.2693 10.2357 C 13.2103 10.2427 12.9425 10.2491 12.6741 10.2491 L 12.1863 10.2491 L 12.1703 10.3069 C 12.1033 10.5429 11.9854 10.8054 11.9162 10.873 C 11.8502 10.9377 11.7271 10.9904 11.6431 10.9903 C 11.5801 10.9903 11.4696 10.9602 11.3914 10.9221 C 11.2994 10.8774 11.1455 10.8155 11.1402 10.8212 C 11.1292 10.8337 10.9889 11.2239 10.9889 11.2432 C 10.9889 11.2547 11.0299 11.3119 11.0789 11.3703 C 11.1289 11.4287 11.1804 11.5057 11.1943 11.5415 C 11.2983 11.8095 11.2373 12.1006 11.0391 12.2877 C 10.9064 12.4126 10.6949 12.4748 10.5412 12.4342 Z M 15.0644 12.1352 C 15.2237 12.0365 15.2835 11.7908 15.1877 11.6276 C 15.1117 11.4981 15.0299 11.4454 14.8939 11.4385 C 14.7511 11.4315 14.6672 11.4753 14.5824 11.6023 C 14.5364 11.6718 14.5274 11.7022 14.5264 11.8045 C 14.5264 11.9444 14.5594 12.0235 14.6623 12.1127 C 14.7783 12.2136 14.9244 12.2218 15.0643 12.1352 Z M 10.8401 12.1352 C 10.9321 12.0677 10.9668 12.0184 10.9998 11.9055 C 11.0328 11.794 11.0168 11.7049 10.9458 11.5891 C 10.7909 11.3372 10.4239 11.3905 10.3229 11.6797 C 10.2759 11.8147 10.2959 11.945 10.3789 12.0521 C 10.4852 12.188 10.7114 12.2289 10.8396 12.1353 Z M 11.7623 10.6892 C 11.7793 10.6699 11.8463 10.5117 11.9114 10.3378 C 11.9764 10.1638 12.0392 10.0139 12.0517 10.0045 C 12.0647 9.99554 12.1629 9.99324 12.2712 10.0005 C 12.5948 10.021 13.0622 10.0105 13.2703 9.97784 C 13.4045 9.95684 13.4763 9.95334 13.5029 9.96644 C 13.5299 9.97994 13.5739 10.0695 13.6531 10.2756 C 13.7151 10.4351 13.7649 10.5739 13.7649 10.584 C 13.7649 10.5941 13.7929 10.6287 13.8269 10.6609 C 13.8739 10.7051 13.9009 10.7172 13.9387 10.7102 C 14.0327 10.6926 14.8287 10.3123 14.8695 10.2654 C 14.9385 10.1867 14.9245 10.0973 14.8025 9.83625 C 14.7435 9.7095 14.6952 9.58804 14.6952 9.56633 C 14.6952 9.49963 14.7452 9.43941 14.8886 9.33366 C 15.0571 9.20938 15.4079 8.83497 15.5271 8.65222 C 15.5751 8.57812 15.6261 8.50489 15.6404 8.48955 C 15.6844 8.44115 15.7709 8.45945 15.9922 8.56375 C 16.1102 8.61945 16.2457 8.67912 16.2932 8.69644 C 16.3752 8.72644 16.3822 8.72624 16.444 8.69044 C 16.499 8.65794 16.521 8.62254 16.5955 8.44081 C 16.7725 8.01 16.8955 7.6788 16.8955 7.63318 C 16.8955 7.55038 16.8235 7.49105 16.6004 7.38983 C 16.4823 7.33623 16.3616 7.2832 16.332 7.2719 C 16.2069 7.224 16.1975 7.188 16.245 6.93913 C 16.269 6.81648 16.274 6.68512 16.272 6.29418 C 16.272 6.02417 16.272 5.75568 16.262 5.69754 C 16.262 5.59406 16.262 5.59115 16.32 5.5591 C 16.405 5.5147 16.511 5.4663 16.5234 5.4663 C 16.5334 5.4663 16.5764 5.446 16.628 5.4212 C 16.68 5.3964 16.7489 5.3649 16.7812 5.3512 C 16.8512 5.3217 16.9103 5.24669 16.9103 5.18823 C 16.9103 5.16523 16.8783 5.06024 16.8403 4.95498 C 16.7473 4.70201 16.5071 4.02424 16.4916 3.96995 C 16.4746 3.91205 16.3891 3.84912 16.3266 3.84912 C 16.2986 3.84912 16.1548 3.91012 16.0073 3.98469 C 15.8376 4.07049 15.7254 4.11658 15.7018 4.11026 C 15.6808 4.10526 15.6248 4.04596 15.5766 3.97951 C 15.4417 3.79404 15.1062 3.42966 14.8787 3.22146 C 14.7596 3.11242 14.6694 3.01476 14.6632 2.98813 C 14.6532 2.95683 14.6882 2.84764 14.7645 2.64355 C 14.8698 2.36228 14.8752 2.34046 14.8555 2.27137 C 14.8445 2.23097 14.8245 2.18897 14.8125 2.17787 C 14.7915 2.15937 14.3477 1.96242 14.3267 1.96242 C 14.3157 1.96242 14.1221 1.87152 14.0797 1.84619 C 14.0627 1.83599 14.0397 1.82769 14.0297 1.82769 C 14.0187 1.82769 13.9747 1.81009 13.9307 1.78869 C 13.8188 1.73379 13.7566 1.72389 13.6845 1.74949 C 13.6155 1.77399 13.6085 1.78729 13.5027 2.07793 C 13.3892 2.39108 13.38 2.40971 13.3274 2.43358 C 13.2884 2.45128 13.2534 2.45038 13.1664 2.42958 C 12.9112 2.36898 12.5075 2.37728 12.074 2.45218 C 11.8996 2.48228 11.8397 2.46938 11.8187 2.39728 C 11.8007 2.33468 11.6526 1.96161 11.6122 1.8764 C 11.5922 1.8345 11.5632 1.7893 11.5462 1.77594 C 11.5112 1.74684 11.3943 1.74294 11.3508 1.76894 C 11.3078 1.79514 10.7306 2.06351 10.6258 2.1061 C 10.5398 2.1413 10.4842 2.2031 10.465 2.28639 C 10.455 2.33089 10.485 2.42201 10.6385 2.80567 C 10.7195 3.00931 10.7205 3.06212 10.6485 3.11957 C 10.364 3.33341 10.027 3.69937 9.8042 4.0363 C 9.6817 4.22154 9.6619 4.228 9.4713 4.14494 C 9.1463 4.00335 8.9937 3.94485 8.9494 3.94485 C 8.8564 3.94485 8.8051 4.02715 8.6761 4.38765 C 8.6101 4.57296 8.5364 4.7711 8.513 4.82797 C 8.456 4.96702 8.458 5.0413 8.523 5.10401 C 8.55 5.13171 8.7104 5.21409 8.8837 5.28968 C 9.055 5.36448 9.2021 5.43682 9.2106 5.45051 C 9.2206 5.46421 9.2216 5.51011 9.2206 5.55242 C 9.2106 5.59482 9.2056 5.67708 9.1976 5.73532 C 9.1716 5.9462 9.1846 6.63804 9.2176 6.80867 C 9.2636 7.04556 9.2586 7.06173 9.1206 7.13555 C 9.0566 7.16975 8.9157 7.23817 8.8075 7.2876 C 8.6993 7.337 8.5966 7.39484 8.5794 7.41607 C 8.5124 7.49877 8.5474 7.62338 8.8322 8.32253 C 8.8502 8.36613 8.8752 8.43022 8.8872 8.46499 C 8.9172 8.54789 8.9862 8.60392 9.0568 8.60392 C 9.0878 8.60392 9.1615 8.57912 9.2198 8.54882 C 9.5001 8.40327 9.6744 8.33013 9.7141 8.34149 C 9.7731 8.35829 9.7791 8.36559 9.8968 8.53524 C 10.045 8.74939 10.4056 9.13396 10.5915 9.27617 C 10.7357 9.3864 10.748 9.40102 10.748 9.46116 C 10.748 9.49706 10.7 9.65571 10.6407 9.81367 C 10.5817 9.97164 10.5334 10.1214 10.5335 10.1466 C 10.5341 10.2539 10.6085 10.318 10.8375 10.4058 C 10.8525 10.4118 11.0294 10.4887 11.231 10.5775 C 11.6216 10.7494 11.7003 10.7658 11.7687 10.6894 Z M 10.853 8.86318 C 10.4615 8.77168 10.2018 8.33638 10.2844 7.91006 C 10.3094 7.77954 10.3774 7.60787 10.4259 7.55348 C 10.4369 7.54068 10.6518 7.30304 10.9027 7.02542 C 11.1535 6.7478 11.3617 6.51235 11.3651 6.50218 C 11.3651 6.49198 11.3551 6.46908 11.3451 6.45108 C 11.2711 6.36088 11.1536 6.14971 11.0928 5.9965 C 10.9861 5.7279 10.9388 5.49056 10.934 5.20137 C 10.924 4.88275 10.945 4.74967 11.019 4.5029 C 11.2476 3.74104 11.7964 3.22827 12.5421 3.07981 C 12.7856 3.03131 13.2584 3.06621 13.4374 3.14601 C 13.5034 3.17561 13.5399 3.23761 13.5254 3.29775 C 13.5154 3.32125 13.2725 3.60196 12.9756 3.92166 L 12.4357 4.50293 L 12.5027 4.77728 C 12.5397 4.92817 12.5807 5.09061 12.5947 5.13826 C 12.6077 5.18596 12.6547 5.37218 12.6989 5.55219 C 12.8024 5.97631 12.8366 6.10887 12.8445 6.11767 C 12.8545 6.12767 13.0377 6.18267 13.3625 6.27322 C 13.5101 6.31432 13.6952 6.36712 13.7739 6.39054 C 13.8529 6.41394 13.9452 6.44004 13.9796 6.44864 C 14.0146 6.45764 14.1018 6.48254 14.1746 6.50484 C 14.2476 6.52714 14.3179 6.54284 14.3314 6.53974 C 14.3444 6.53674 14.5954 6.27633 14.8883 5.96131 C 15.3827 5.42957 15.4252 5.38857 15.4829 5.38885 C 15.5689 5.3893 15.5819 5.40235 15.6154 5.52332 C 15.6824 5.76367 15.7014 6.27303 15.6524 6.52027 C 15.6264 6.65013 15.544 6.92165 15.5192 6.95762 C 15.5092 6.96822 15.4952 7.00722 15.4812 7.04422 C 15.4672 7.08132 15.4502 7.12032 15.4412 7.13082 C 15.4312 7.14142 15.4002 7.19342 15.3692 7.24648 C 15.1357 7.63885 14.7951 7.92024 14.3638 8.077 C 14.053 8.18992 13.6105 8.2079 13.2725 8.1213 C 13.0343 8.0603 12.6314 7.84348 12.5065 7.70903 C 12.4915 7.69273 12.4715 7.67953 12.4625 7.67953 C 12.4525 7.67953 12.3503 7.78548 12.2332 7.91499 C 11.6155 8.5979 11.4748 8.74033 11.3616 8.79736 C 11.2506 8.85326 11.099 8.89376 11.0115 8.89086 C 10.9855 8.89002 10.9145 8.87756 10.8525 8.86306 Z M 11.2425 8.57968 C 11.3015 8.55058 11.4667 8.38392 11.8508 7.96749 C 12.141 7.65278 12.3964 7.38542 12.4183 7.37336 C 12.4643 7.34816 12.5003 7.36436 12.6029 7.45816 C 12.6379 7.48996 12.6939 7.54036 12.7282 7.57014 C 12.8032 7.63564 13.2 7.85283 13.2452 7.85283 C 13.2632 7.85283 13.3122 7.86693 13.3557 7.88413 C 13.4447 7.91983 13.8966 7.93773 14.0332 7.91103 C 14.3065 7.85763 14.5658 7.73035 14.8192 7.52529 C 15.0135 7.36798 15.1993 7.11244 15.2987 6.86557 C 15.4156 6.57511 15.432 6.48927 15.4394 6.12597 C 15.4394 5.8995 15.44 5.79081 15.4264 5.7819 C 15.4154 5.7749 15.2024 5.98876 14.9259 6.28621 C 14.6614 6.57075 14.427 6.8082 14.4051 6.81388 C 14.3681 6.82388 14.2954 6.80588 13.9346 6.69731 C 13.8556 6.67371 13.7472 6.64311 13.6931 6.62941 C 13.6391 6.61571 13.4136 6.55091 13.1922 6.48534 C 12.9709 6.41984 12.7696 6.36167 12.745 6.35614 C 12.72 6.35014 12.686 6.33274 12.669 6.31634 C 12.637 6.28664 12.63 6.26314 12.5402 5.89869 C 12.5142 5.79281 12.4822 5.66719 12.4692 5.61954 C 12.4562 5.57184 12.4332 5.48092 12.4182 5.41739 C 12.4022 5.35389 12.3692 5.21957 12.3432 5.11898 C 12.2255 4.65247 12.1903 4.49853 12.1903 4.45161 C 12.1903 4.41101 12.2883 4.29556 12.6828 3.86955 L 13.1754 3.33813 L 13.0272 3.31213 C 12.8422 3.27973 12.6418 3.30313 12.3691 3.39033 C 11.9091 3.53675 11.5608 3.84976 11.353 4.30369 C 11.2424 4.5454 11.2124 4.64613 11.1779 4.89138 C 11.1049 5.40766 11.2629 5.9731 11.5908 6.3702 C 11.6528 6.4456 11.6658 6.47293 11.6578 6.51764 C 11.6478 6.55684 11.5301 6.7019 11.2342 7.02495 C 10.6133 7.70287 10.6173 7.69804 10.5574 7.83246 C 10.4874 7.98962 10.4834 8.14077 10.5454 8.28598 C 10.6074 8.43177 10.6463 8.48302 10.7367 8.54004 C 10.9071 8.64751 11.0785 8.66094 11.2421 8.57964 Z M 13.7725 5.81158 C 13.5688 5.76808 13.3246 5.57466 13.2178 5.37218 C 13.1528 5.24915 13.103 5.05404 13.103 4.92378 C 13.103 4.70102 13.216 4.42055 13.3669 4.26859 C 13.6033 4.03068 13.9179 3.95349 14.2139 4.0608 C 14.3611 4.1142 14.44 4.16772 14.556 4.29297 C 14.7373 4.48869 14.8289 4.78917 14.7881 5.05422 C 14.7081 5.57604 14.254 5.91439 13.7725 5.81158 Z M 14.0997 5.55878 C 14.3449 5.49228 14.5151 5.28149 14.5605 4.98815 C 14.5755 4.89305 14.5285 4.65306 14.4875 4.61691 C 14.4735 4.60461 14.4625 4.58381 14.4625 4.57081 C 14.4625 4.52141 14.2739 4.35502 14.1707 4.31347 C 13.8238 4.17377 13.467 4.37277 13.361 4.76516 C 13.291 5.02412 13.411 5.33769 13.6338 5.4782 C 13.7894 5.5763 13.9394 5.60226 14.0997 5.5588 Z M 7.7211 8.98975 C 7.9155 8.89725 7.998 8.64665 7.8975 8.45411 C 7.8205 8.30746 7.652 8.22143 7.5141 8.25881 C 7.1874 8.34731 7.1365 8.8268 7.4371 8.98674 C 7.5321 9.03724 7.6198 9.03814 7.7215 8.98974 Z M 18.1153 8.97525 C 18.2353 8.90495 18.2968 8.79291 18.2966 8.64464 C 18.2966 8.52066 18.2636 8.44015 18.179 8.35442 C 18.0149 8.18872 17.7438 8.24486 17.6347 8.46712 C 17.5787 8.58048 17.5797 8.7026 17.6347 8.82643 C 17.6707 8.90333 17.6977 8.9322 17.7733 8.97434 C 17.8977 9.04334 17.9959 9.04364 18.1126 8.97524 Z M 18.0363 4.3317 C 18.1592 4.2642 18.2189 4.15302 18.2189 3.99179 C 18.2189 3.73309 18.0482 3.58564 17.7959 3.62636 C 17.7319 3.63666 17.6941 3.65876 17.6331 3.72086 C 17.4838 3.87272 17.4776 4.09484 17.6181 4.254 C 17.6571 4.2977 17.7051 4.3407 17.7255 4.3496 C 17.7955 4.38 17.9661 4.3702 18.0361 4.3317 Z M 7.6607 4.2547 C 7.7806 4.1888 7.8432 4.0758 7.847 3.91797 C 7.847 3.74336 7.7362 3.5922 7.56 3.54115 C 7.52 3.52945 7.464 3.52555 7.4371 3.53215 C 7.3591 3.55165 7.241 3.63105 7.2016 3.69069 C 7.0954 3.85116 7.1206 4.08153 7.2576 4.20056 C 7.3526 4.28316 7.3641 4.28756 7.4907 4.28936 C 7.5597 4.29036 7.6166 4.27856 7.6606 4.25446 Z M 14.9091 1.15159 C 15.0753 1.11039 15.1767 0.96692 15.1774 0.77197 C 15.178 0.65477 15.1514 0.59123 15.0675 0.50457 C 14.9945 0.42907 14.9312 0.40232 14.8272 0.40232 C 14.7149 0.40232 14.6421 0.44072 14.557 0.54485 C 14.501 0.61385 14.481 0.65615 14.473 0.72557 C 14.449 0.92567 14.562 1.1092 14.736 1.15372 C 14.816 1.17402 14.819 1.17402 14.9096 1.15172 Z M 10.6539 0.94951 C 10.7888 0.8489 10.845 0.69196 10.802 0.5361 C 10.77 0.41884 10.7012 0.33009 10.6079 0.28448 C 10.5299 0.24648 10.3749 0.23598 10.3567 0.26758 C 10.3467 0.27818 10.3317 0.28718 10.3157 0.28758 C 10.2307 0.28958 10.0989 0.49601 10.0981 0.62693 C 10.0972 0.76476 10.224 0.95932 10.3408 0.99946 C 10.4308 1.03036 10.577 1.00746 10.6542 0.94956 Z M 2.1704 9.99676 C 2.1324 9.94776 2.1454 9.83213 2.2244 9.50826 C 2.3714 8.90513 2.4599 8.5959 2.5 8.54551 C 2.53 8.50751 2.6102 8.49531 2.6502 8.52271 C 2.6952 8.55361 2.7102 8.63976 2.6832 8.71495 C 2.6342 8.85134 2.4309 9.63817 2.3889 9.85446 C 2.3779 9.91226 2.3559 9.97508 2.3399 9.99403 C 2.3039 10.0374 2.2038 10.039 2.1712 9.99703 Z M 23.087 9.86741 C 23.054 9.82961 22.992 9.62114 22.9509 9.4124 C 22.9409 9.3589 22.8356 8.98114 22.764 8.73917 C 22.703 8.53234 22.696 8.49238 22.714 8.45039 C 22.731 8.41129 22.751 8.40049 22.812 8.39569 L 22.9324 8.49199 C 22.9564 8.54819 22.9764 8.60403 22.9764 8.61606 C 22.9764 8.62806 23.0054 8.73205 23.0394 8.84709 C 23.1264 9.13369 23.2625 9.7017 23.2625 9.77548 C 23.2625 9.84288 23.2095 9.91297 23.1583 9.91297 C 23.1403 9.91297 23.1073 9.89247 23.0863 9.86747 Z M 2.9799 7.50521 C 2.9259 7.46971 2.9209 7.45881 2.9299 7.39996 C 2.9419 7.32006 3.2671 6.65135 3.419 6.39422 C 3.452 6.33842 3.479 6.28458 3.479 6.27456 C 3.479 6.26456 3.504 6.22576 3.534 6.18826 C 3.598 6.10976 3.6691 6.09826 3.7196 6.15826 C 3.7696 6.21796 3.7446 6.30412 3.6084 6.54648 C 3.5404 6.66675 3.4066 6.92749 3.3106 7.12593 C 3.1609 7.43571 3.0927 7.54512 3.0496 7.54479 C 3.0396 7.54475 3.0126 7.52689 2.9796 7.50519 Z M 22.2666 7.38609 C 22.2566 7.37289 22.1926 7.2494 22.1236 7.11175 C 22.0546 6.97409 21.9763 6.81815 21.9497 6.7652 C 21.9227 6.7123 21.8777 6.62995 21.8496 6.58231 C 21.8216 6.53471 21.7766 6.45279 21.7506 6.40037 C 21.7246 6.34797 21.6826 6.27238 21.6586 6.23243 C 21.6056 6.14633 21.6136 6.07926 21.6816 6.03086 C 21.7236 6.00106 21.7316 6.00096 21.7887 6.03035 C 21.8227 6.04775 21.8507 6.07015 21.8507 6.08015 C 21.8507 6.09015 21.8827 6.15055 21.9227 6.21429 C 21.9617 6.27809 21.9947 6.33583 21.9947 6.34268 C 21.9947 6.34968 22.0377 6.43008 22.0907 6.5217 C 22.2203 6.74754 22.4602 7.24667 22.4602 7.29049 C 22.4602 7.37869 22.3153 7.45095 22.2682 7.38619 Z M 4.2656 5.2539 C 4.2456 5.2327 4.2296 5.1945 4.2296 5.1689 C 4.2296 5.1016 4.4015 4.87146 4.7824 4.42856 C 5.0848 4.077 5.1024 4.0602 5.1689 4.0602 C 5.3006 4.0602 5.3265 4.19155 5.2179 4.30928 C 5.0082 4.53675 4.595 5.02869 4.4921 5.1733 C 4.4061 5.29357 4.3281 5.32142 4.2653 5.2539 Z M 20.8551 5.04948 C 20.7971 4.97828 20.7341 4.90208 20.7144 4.88018 C 20.6944 4.85828 20.6474 4.80128 20.6091 4.75353 C 20.5711 4.70573 20.4381 4.55108 20.3139 4.40978 C 20.1898 4.26847 20.0822 4.14137 20.0748 4.12733 C 20.0588 4.09793 20.0898 4.00058 20.1208 3.97912 C 20.1328 3.97112 20.1658 3.96442 20.1948 3.96432 C 20.2388 3.96407 20.2778 3.99722 20.4239 4.16137 C 20.5209 4.2699 20.6703 4.44534 20.7566 4.55123 C 20.8426 4.65711 20.951 4.78707 20.9969 4.84001 C 21.1126 4.97334 21.1432 5.04592 21.1128 5.11451 C 21.0948 5.15551 21.0748 5.16861 21.0248 5.17311 C 20.9648 5.17811 20.9528 5.17011 20.855 5.04948 Z M 6.0103 3.38706 C 5.9723 3.34236 5.9683 3.26423 6.0003 3.22116 C 6.0603 3.14376 6.7818 2.59071 7.0504 2.41654 C 7.0634 2.40854 7.1004 2.41154 7.1334 2.42354 C 7.1794 2.43974 7.1964 2.45874 7.2044 2.50174 C 7.2144 2.53294 7.2144 2.57184 7.2044 2.58804 C 7.1944 2.60424 7.068 2.70765 6.9142 2.81775 C 6.7604 2.92784 6.5218 3.10931 6.3841 3.22102 C 6.121 3.4344 6.0682 3.45782 6.009 3.38742 Z M 19.0938 3.24781 C 18.9707 3.15481 18.8369 3.04931 18.7735 2.99524 C 18.7585 2.98264 18.6219 2.88636 18.4694 2.78125 C 18.1265 2.54496 18.1295 2.54764 18.1295 2.47032 C 18.1295 2.34794 18.2235 2.31188 18.342 2.38862 C 18.438 2.45062 18.9461 2.81751 19.0597 2.90668 C 19.1137 2.94918 19.1996 3.01451 19.2503 3.05189 C 19.3393 3.11779 19.3631 3.15775 19.3636 3.24572 C 19.3642 3.29072 19.3036 3.34788 19.2553 3.34788 C 19.2393 3.34788 19.1663 3.30288 19.0938 3.24778 Z M 8.1269 2.02474 C 8.1109 2.02074 8.0869 1.99144 8.0749 1.95974 C 8.0369 1.86104 8.0749 1.82238 8.3063 1.70989 C 8.6352 1.55143 8.6444 1.54735 8.8986 1.44644 C 9.323 1.27798 9.3213 1.27849 9.3713 1.30302 C 9.4613 1.34722 9.4453 1.52447 9.3493 1.54395 C 9.2723 1.55945 8.8043 1.75293 8.507 1.89176 C 8.2313 2.02049 8.181 2.03811 8.1271 2.02474 Z M 16.9756 1.91112 C 16.8966 1.87462 16.8164 1.83742 16.7968 1.82832 C 16.6029 1.73872 16.1569 1.55895 15.9981 1.5063 C 15.8923 1.4713 15.8533 1.39458 15.9011 1.31591 C 15.9181 1.28881 15.9431 1.26171 15.9571 1.25571 C 16.0191 1.23011 16.5212 1.42249 17.1668 1.71938 C 17.276 1.76958 17.2997 1.85486 17.2268 1.93376 C 17.1708 1.99376 17.1498 1.99186 16.9755 1.91116 Z"
       id="path2932325" /></g></svg>
