<?xml version="1.0" encoding="UTF-8" standalone="no"?>
<!-- Created with Inkscape (http://www.inkscape.org/) -->

<svg
   width="362.4726"
   height="363.44934"
   viewBox="0 0 362.4726 363.44934"
   version="1.1"
   id="svg5"
   xml:space="preserve"
   inkscape:version="1.2.2 (732a01da63, 2022-12-09)"
   sodipodi:docname="icons-design.svg"
   xmlns:inkscape="http://www.inkscape.org/namespaces/inkscape"
   xmlns:sodipodi="http://sodipodi.sourceforge.net/DTD/sodipodi-0.dtd"
   xmlns="http://www.w3.org/2000/svg"
   xmlns:svg="http://www.w3.org/2000/svg"><sodipodi:namedview
     id="namedview7"
     pagecolor="#505050"
     bordercolor="#eeeeee"
     borderopacity="1"
     inkscape:showpageshadow="0"
     inkscape:pageopacity="0"
     inkscape:pagecheckerboard="0"
     inkscape:deskcolor="#505050"
     inkscape:document-units="px"
     showgrid="false"
     showguides="true"
     inkscape:zoom="1.7824983"
     inkscape:cx="1593.5499"
     inkscape:cy="226.64818"
     inkscape:window-width="2560"
     inkscape:window-height="1057"
     inkscape:window-x="1072"
     inkscape:window-y="496"
     inkscape:window-maximized="1"
     inkscape:current-layer="layer1" /><defs
     id="defs2" /><g
     inkscape:label="Capa 1"
     inkscape:groupmode="layer"
     id="layer1"
     transform="translate(-632.3996,-1059.1638)"><path
       style="fill:#000000;stroke-width:0.621411"
       d="m 764.47363,1422.0902 c -0.9462,-0.5564 -1.0875,-1.6782 -1.0875,-8.6387 v -7.9993 l -2.2281,-0.7354 c -3.2038,-1.0573 -6.2281,-3.9637 -7.4479,-7.1576 l -1.0568,-2.7674 h -14.989 c -15.3456,0 -18.4118,-0.3559 -20.2724,-2.353 -2.5165,-2.7011 -2.4759,-1.4926 -2.4759,-73.76 0,-76.2944 -0.2033,-71.9306 3.4892,-74.8352 1.6374,-1.288 1.9748,-1.2977 45.3548,-1.2977 h 43.705 l 2.1957,2.1957 2.1955,2.1956 v 71.3579 71.3578 l -1.3471,1.7126 c -2.4441,3.1071 -4.2223,3.4263 -19.0901,3.4263 h -13.6416 l -0.4196,1.9104 c -0.5803,2.642 -3.8238,6.147 -6.9808,7.5435 l -2.641,1.1683 v 6.185 6.185 h 47.5379 47.538 v -6.1197 -6.1197 l -2.5161,-1.1347 c -2.9904,-1.3484 -5.7666,-4.3377 -6.8747,-7.402 l -0.8013,-2.2161 h -14.8711 c -14.0147,0 -14.9923,-0.075 -16.9791,-1.3028 -4.2295,-2.6141 -3.9642,2.4409 -3.9474,-75.1878 0.019,-63.8022 0.1088,-70.4566 1.0267,-72.0105 2.3107,-3.9116 0.1981,-3.7448 47.4202,-3.7448 46.55714,0 45.20734,-0.096 47.47434,3.3642 0.9366,1.4293 1.0236,7.6259 1.0153,72.2709 0,54.8806 -0.1807,71.0417 -0.7768,72.201 -0.4222,0.8215 -1.5565,2.0799 -2.5205,2.7964 -1.6518,1.2275 -2.6445,1.3134 -17.20144,1.4882 l -15.4485,0.1854 -0.3868,1.7613 c -0.5659,2.5758 -4.2654,6.5814 -7.1416,7.7322 l -2.4998,1.0002 v 7.6174 c 0,4.1895 -0.2746,8.0367 -0.5986,8.5494 -0.5145,0.8141 -6.9825,0.9502 -51.1015,1.0746 -33.7578,0.095 -50.8733,-0.07 -51.6001,-0.4969 z m 4.3293,-22.122 c 3.1769,-1.5076 4.6541,-4.1794 4.3382,-7.8464 -0.6177,-7.1667 -9.2138,-10.1171 -13.7544,-4.7209 -3.0348,3.6067 -2.8686,7.8058 0.4329,10.9275 3.1269,2.9567 5.3521,3.3629 8.9833,1.6398 z m 101.372,-0.8553 c 3.1327,-2.316 4.0038,-6.3242 2.1977,-10.1116 -1.3167,-2.761 -3.792,-4.1521 -7.3882,-4.1521 -2.4798,0 -3.2298,0.3117 -4.9942,2.0762 -3.3576,3.3576 -3.6283,7.7009 -0.6923,11.1131 2.8212,3.279 7.2973,3.7211 10.877,1.0744 z m -116.8149,-10.5627 c 0.3627,-1.0404 1.271,-2.7506 2.0186,-3.8004 1.5382,-2.1603 6.7965,-4.8567 9.489,-4.8658 5.1225,-0.017 10.1161,3.2278 11.9694,7.7787 l 1.1523,2.8302 13.8008,-0.1808 c 12.9593,-0.1699 13.8576,-0.2566 14.7386,-1.4236 0.8232,-1.0907 0.9406,-9.7396 0.9581,-70.6412 0.019,-62.2779 -0.082,-69.4986 -0.9569,-70.3749 -0.8684,-0.8685 -5.6142,-0.9765 -42.8774,-0.9765 -41.0723,0 -41.9255,0.025 -43.1438,1.2428 -1.2278,1.2278 -1.2428,2.0714 -1.2428,69.9497 0,47.4268 0.2051,69.09 0.662,69.9438 0.3643,0.6804 1.2731,1.4832 2.0196,1.784 0.7466,0.3009 7.9715,0.5647 16.0552,0.5864 l 14.6979,0.039 0.6594,-1.8917 z m 32.011,-7.6671 c -8.6898,-3.9328 -6.0195,-17.1619 3.4645,-17.1619 8.5742,0 12.2637,9.3984 6.0525,15.4185 -2.445,2.3699 -6.4938,3.1115 -9.517,1.7434 z m 6.8756,-5.4933 c 2.0747,-2.9623 0.8264,-6.4031 -2.5647,-7.0691 -3.9288,-0.7715 -6.7408,4.3916 -3.925,7.2073 1.7415,1.7415 5.2251,1.6672 6.4897,-0.1382 z m -62.3927,-19.7019 c -0.3524,-0.6588 -0.4713,-1.6399 -0.264,-2.1801 0.3384,-0.8819 3.9121,-0.966 34.9522,-0.8218 l 34.5752,0.1606 0.2097,1.4832 c 0.1146,0.8158 -0.1651,1.7203 -0.6214,2.0101 -0.4571,0.2897 -15.9915,0.5311 -34.5208,0.5363 -32.637,0.01 -33.7098,-0.028 -34.3309,-1.1883 z m -0.266,-10.9647 c -0.2062,-0.5375 -0.085,-1.5186 0.269,-2.1803 0.6263,-1.1704 1.5669,-1.1987 34.5737,-1.0424 30.4398,0.144 33.9952,0.2638 34.5626,1.1636 0.348,0.5517 0.4571,1.4605 0.2425,2.0196 -0.3546,0.9242 -3.5183,1.0166 -34.8314,1.0166 -30.7465,0 -34.4816,-0.1049 -34.8164,-0.9771 z m -1.8663,-14.2983 c -0.7304,-1.9033 -0.4166,-17.3717 0.3683,-18.1566 0.562,-0.562 9.1994,-0.7457 35.0591,-0.7457 18.8723,0 34.7555,0.1698 35.2962,0.3772 0.8305,0.3188 0.9828,1.7068 0.9828,8.9597 0,4.7203 -0.169,9.0247 -0.3772,9.5654 -0.3379,0.8803 -4.0603,0.9829 -35.6647,0.9829 -31.6042,0 -35.3269,-0.1025 -35.6645,-0.9829 z m 67.2254,-8.8043 -0.1786,-5.4374 h -31.3813 -31.3813 l -0.1787,5.4374 -0.1786,5.4373 h 31.7403 31.7404 z m -66.5153,-18.2261 c -0.9529,-0.5551 -1.0875,-1.6997 -1.0875,-9.2579 0,-7.0119 0.1826,-8.8071 0.9766,-9.601 0.8638,-0.8638 4.8835,-0.9765 34.8398,-0.9765 22.1547,0 34.2791,0.2224 35.0655,0.6433 1.102,0.5898 1.2019,1.3797 1.2019,9.5076 0,6.0659 -0.2353,9.0997 -0.7457,9.61 -0.9741,0.9741 -68.5829,1.0458 -70.2506,0.075 z m 66.6464,-9.5821 c 0,-3.1031 -0.2563,-5.2845 -0.6214,-5.288 -0.3418,0 -14.5333,-0.01 -31.5367,-0.014 l -30.9152,-0.01 -0.1787,5.2954 -0.1786,5.2955 h 31.7163 31.7161 v -5.282 z m -67.3565,-18.6932 c -0.4914,-1.2799 -0.4914,-16.6393 0,-17.9193 0.3376,-0.88 4.0068,-0.9829 35.0588,-0.9829 19.075,0 35.1241,0.1697 35.6648,0.3772 0.8323,0.3194 0.9828,1.7277 0.9828,9.1969 0,6.0312 -0.2358,9.0554 -0.7457,9.5654 -0.5622,0.5623 -9.334,0.7457 -35.6646,0.7457 -31.2684,0 -34.9585,-0.1028 -35.2961,-0.983 z m 67.3565,-8.9653 v -5.5984 l -31.5366,0.161 -31.5367,0.1609 -0.1787,5.4374 -0.1786,5.4373 h 31.7163 31.7161 z m 58.351,122.0501 c 1.3147,-3.6357 5.008,-6.8494 8.8628,-7.7121 6.1153,-1.3685 11.58,1.2059 14.1911,6.6853 l 1.5535,3.2601 14.5038,-0.153 c 14.40794,-0.1521 14.51154,-0.1628 15.69064,-1.6201 1.1523,-1.4243 1.187,-3.4765 1.187,-70.4813 0,-63.3465 -0.083,-69.1076 -1.0285,-70.1507 -0.9769,-1.0796 -3.1325,-1.1364 -43.15284,-1.1364 h -42.1245 l -0.9672,1.3811 c -0.8614,1.2299 -0.9675,8.9415 -0.9675,70.4339 0,64.9895 0.064,69.1086 1.0875,70.0002 1.7985,1.5669 2.4336,1.631 16.6532,1.6819 l 13.7017,0.049 0.8093,-2.238 z m 33.898,-7.3034 c -2.5409,-1.1503 -5.1129,-4.3137 -5.5945,-6.8808 -0.5504,-2.9334 1.5252,-7.4154 4.1848,-9.0369 2.8634,-1.7457 7.1655,-1.6763 9.8929,0.1597 2.6643,1.7935 3.9481,4.3573 3.8958,7.7798 -0.091,5.994 -6.9699,10.4269 -12.379,7.9781 z m 6.831,-5.5108 c 1.484,-2.1189 1.2141,-4.5487 -0.6699,-6.0308 -0.9007,-0.7083 -2.1212,-1.2879 -2.7127,-1.2879 -1.9445,0 -4.3499,2.4303 -4.3499,4.395 0,3.8894 5.5787,5.9987 7.7325,2.9237 z m -62.4598,-19.4883 c -0.5927,-0.7142 -0.6378,-1.2683 -0.1631,-2.0196 0.5943,-0.9426 3.721,-1.0498 34.8747,-1.196 34.0584,-0.1598 34.2239,-0.1546 34.62744,1.1173 0.99,3.1188 1.4002,3.0825 -34.80684,3.0825 -30.0035,0 -33.8046,-0.1084 -34.5315,-0.9842 z m -0.3859,-11.2178 c -0.2145,-0.5591 -0.1048,-1.4679 0.2425,-2.0196 0.5697,-0.9032 4.0214,-1.003 34.6748,-1.003 30.6535,0 34.1052,0.1 34.67504,1.003 0.348,0.5517 0.4571,1.4605 0.2425,2.0196 -0.3545,0.9243 -3.52474,1.0166 -34.91754,1.0166 -31.3928,0 -34.5627,-0.092 -34.9173,-1.0166 z m -1.6422,-13.6902 c -0.7743,-0.7741 -0.4708,-17.9232 0.3313,-18.7252 1.0762,-1.0761 69.5163,-1.0761 70.5923,0 0.78504,0.7849 1.09894,16.2533 0.36864,18.1566 -0.33794,0.8803 -4.05714,0.9829 -35.62774,0.9829 -19.3876,0 -35.4368,-0.1864 -35.6645,-0.4143 z m 67.3194,-9.534 v -5.5984 l -31.5366,0.161 -31.5366,0.161 -0.1787,5.4373 -0.1787,5.4374 h 31.7163 31.7161 z m -66.6464,-18.065 c -0.9564,-0.5571 -1.0874,-1.7173 -1.0874,-9.6284 v -8.9949 l 1.62,-0.616 c 2.2059,-0.8387 67.7268,-0.7743 69.3007,0.068 1.05314,0.5635 1.16304,1.4611 1.16304,9.4867 0,6.0659 -0.2354,9.0998 -0.74574,9.6101 -0.974,0.974 -68.5829,1.0457 -70.2506,0.075 z m 66.6464,-9.5821 v -5.282 h -31.0705 c -17.0889,0 -31.2803,0 -31.5367,0 -0.2563,0 -0.5469,2.3748 -0.6455,5.282 l -0.1787,5.2857 h 31.7163 31.7161 z m -66.9742,-18.2331 c -0.5997,-0.3805 -0.7519,-2.7751 -0.6214,-9.7778 l 0.1729,-9.2738 34.4883,-0.1719 c 18.9686,-0.095 35.1176,-0.019 35.8865,0.1672 1.36884,0.332 1.39824,0.5251 1.39824,9.2134 0,6.0737 -0.2353,9.1097 -0.74574,9.6201 -0.8704,0.8704 -69.2179,1.0861 -70.5784,0.2228 z m 66.9742,-9.4197 v -5.5927 h -31.692 -31.692 v 5.5927 5.5927 h 31.692 31.692 z m 28.08784,114.8369 c -1.2603,-1.2605 -0.8585,-2.1722 2.206,-5.0043 1.6234,-1.5004 5.1043,-4.7353 7.7353,-7.1887 2.631,-2.4535 5.0578,-4.4609 5.393,-4.4609 0.8457,0 2.562,1.7977 2.5639,2.6854 0,0.8268 -8.0723,8.6999 -12.6408,12.3267 -3.212,2.5498 -4.0786,2.8204 -5.2574,1.6418 z m -229.94064,-3.3457 c -3.886,-3.5164 -4.586,-5.0754 -2.9055,-6.47 1.1273,-0.9355 2.818,0.045 7.2894,4.2276 3.2851,3.0729 3.3942,3.3323 1.9907,4.7358 -1.5181,1.518 -2.2647,1.2259 -6.3746,-2.4934 z m -19.4828,-19.6776 c -9.1037,-10.4859 -11.09,-14.4479 -7.2433,-14.4479 1.3316,0 2.4213,0.9829 5.5927,5.0441 2.1662,2.7743 5.0104,6.3266 6.32,7.894 1.7352,2.0767 2.272,3.195 1.9778,4.1218 -0.772,2.4321 -3.0424,1.5399 -6.6472,-2.612 z m 275.39844,-4.5892 c 0,-1.0332 1.4525,-3.613 3.9361,-6.9909 2.1648,-2.9444 4.7514,-6.5447 5.7481,-8.0006 1.419,-2.073 2.1491,-2.6122 3.3654,-2.4857 2.7346,0.2844 2.3176,2.7103 -1.3712,7.9765 -6.4593,9.2216 -8.1295,11.0832 -9.9694,11.1117 -1.4387,0.022 -1.709,-0.2325 -1.709,-1.611 z m -294.18754,-22.3248 c -1.6518,-1.652 -9.1317,-17.1801 -8.9357,-18.551 0.1262,-0.8848 0.7152,-1.3575 1.8549,-1.4891 1.5692,-0.1812 1.9186,0.3052 5.797,8.0736 2.2701,4.5466 4.426,8.6265 4.7911,9.0664 0.472,0.5688 0.4618,1.2432 -0.035,2.335 -0.8016,1.7595 -2.0706,1.966 -3.4716,0.5651 z m 314.40874,-8.2711 c -0.2533,-0.7986 0.6874,-3.6109 2.6629,-7.9591 1.6801,-3.6983 3.4356,-7.7978 3.9013,-9.1102 0.9034,-2.5457 2.3684,-3.737 3.8814,-3.1564 1.7418,0.6684 1.6261,2.1677 -0.5852,7.5847 -4.2781,10.4798 -5.9871,13.4734 -7.8127,13.6845 -1.2074,0.1397 -1.7618,-0.1429 -2.0477,-1.0435 z m -329.60014,-25.7674 c -0.9878,-1.1903 -5.147,-17.7802 -4.928,-19.6568 0.2061,-1.766 2.3589,-2.4852 3.4014,-1.1364 1.04,1.3453 5.4324,19.4252 4.9958,20.563 -0.4851,1.2643 -2.5,1.398 -3.4692,0.2302 z m 343.14944,-8.8282 c -0.2024,-0.5275 -0.2083,-1.8558 -0.02,-2.9517 0.7965,-4.4779 3.6435,-17.523 3.9227,-17.9746 0.622,-1.0064 3.2517,-0.4794 3.635,0.7285 0.6252,1.9695 -2.7979,18.665 -4.1785,20.3804 -0.8711,1.0823 -2.9228,0.9711 -3.3656,-0.1826 z M 633.90233,1260.697 c -0.167,-0.2701 -0.454,-2.5771 -0.6375,-5.1266 -1.1434,-15.8693 -1.1408,-15.277 -0.068,-16.3498 1.2531,-1.2531 1.8324,-1.2819 2.9669,-0.1476 0.6458,0.6461 0.9814,3.5312 1.2737,10.9558 0.2182,5.5434 0.2464,10.322 0.062,10.6192 -0.4173,0.6751 -3.1876,0.7129 -3.5979,0.049 z m 356.74204,-8.5942 c -0.2438,-0.2436 -0.4429,-5.1158 -0.4429,-10.8272 0,-10.9469 0.306,-12.1691 2.922,-11.6678 0.9157,0.1756 1.1977,1.1021 1.5643,5.1412 0.2459,2.7098 0.2459,7.7399 0,11.1779 -0.436,6.0934 -0.4868,6.2555 -2.0238,6.4348 -0.8674,0.1012 -1.776,-0.016 -2.0196,-0.2589 z m -208.30524,-31.183 c -2.3986,-1.5288 -3.7905,-3.117 -4.6019,-5.2511 l -0.6492,-1.7077 h -10.8236 c -9.2965,0 -10.8768,-0.1387 -11.2008,-0.983 -0.2075,-0.5406 -0.3772,-13.8334 -0.3772,-29.5397 v -28.5566 l -9.2898,0.079 c -5.1094,0.043 -9.5835,-0.1029 -9.9426,-0.3248 -0.9125,-0.5638 -0.8146,-2.5292 0.167,-3.3432 0.4857,-0.4032 4.4688,-0.7502 9.7872,-0.8529 l 8.9682,-0.173 0.1612,-27.7897 c 0.1573,-27.0964 0.1923,-27.8064 1.4083,-28.4569 0.746,-0.3993 5.0462,-0.6446 10.7129,-0.611 5.2067,0.031 9.7857,0.043 10.1758,0.027 0.3903,-0.015 0.8818,-0.658 1.0925,-1.427 0.9236,-3.3714 4.943,-6.0588 9.062,-6.0588 9.307,0 13.8584,9.9666 7.6765,16.8093 -4.7697,5.2795 -12.6967,4.2864 -16.5654,-2.0751 -0.6675,-1.0974 -1.245,-2.1072 -1.2834,-2.244 -0.039,-0.1369 -3.985,-0.2356 -8.7699,-0.2196 l -8.6998,0.029 -0.1612,26.1635 -0.1631,26.1634 h 9.0326 9.0326 l 0.6475,-1.7088 c 1.4547,-3.8398 5.3498,-6.4731 9.5749,-6.4731 9.9947,0 13.8548,13.0832 5.5246,18.7236 -4.8232,3.2658 -11.9734,1.3551 -14.3911,-3.8456 l -1.076,-2.3141 -9.1658,-0.016 -9.1659,-0.015 v 27.342 27.3421 h 9.3212 c 8.1196,0 9.3211,-0.1278 9.3211,-0.9915 0,-1.7822 2.4374,-4.4669 5.3236,-5.8642 5.0046,-2.4226 10.8604,-0.398 13.2747,4.5897 1.6542,3.4169 1.6165,6.3145 -0.1204,9.3538 -2.0492,3.5836 -4.1947,4.9111 -8.3706,5.1791 -2.7466,0.1763 -4.0158,-0.047 -5.4457,-0.9582 z m 7.8223,-4.2935 c 2.4955,-1.4742 3.4269,-4.4888 2.1496,-6.9587 -3.2785,-6.3399 -12.9576,-2.1646 -10.2325,4.414 0.7749,1.8707 3.1683,3.5403 5.1362,3.583 0.6307,0.014 1.9569,-0.4536 2.9467,-1.0383 z m 0.3429,-59.4996 c 0.7125,-0.4991 1.6475,-1.7575 2.078,-2.7964 1.9969,-4.8209 -4.4164,-9.657 -8.4614,-6.3804 -3.1527,2.5538 -3.4914,5.6737 -0.8974,8.2677 2.0503,2.0501 5.1068,2.4318 7.2808,0.9091 z m 0,-56.7424 c 2.2423,-1.8164 2.882,-3.6522 2.0991,-6.0245 -1.6532,-5.0093 -7.8908,-5.5343 -10.3042,-0.8672 -2.6667,5.1567 3.7222,10.523 8.2051,6.8917 z m -122.5006,120.3197 c -14.7597,-1.8891 -27.2348,-7.2654 -30.1591,-12.9976 -1.1871,-2.3269 -1.2222,-3.9208 -1.2222,-55.5027 v -53.1072 l 2.0493,-2.6893 c 4.0592,-5.3273 11.6474,-8.6812 26.5356,-11.7285 5.3801,-1.1011 23.8362,-1.491 30.8296,-0.6513 7.5546,0.9071 18.0126,3.4177 22.4961,5.4005 5.1012,2.256 9.1733,5.5281 10.6335,8.5444 1.2729,2.6295 1.289,3.3126 1.289,54.5336 v 51.8706 l -1.3981,2.7678 c -3.2343,6.4028 -15.1749,11.6659 -30.8989,13.6194 -6.2004,0.7703 -23.944,0.7352 -30.1548,-0.06 z m 28.5642,-4.2844 c 14.6623,-1.6797 26.9206,-6.8411 28.955,-12.1918 0.3206,-0.8432 0.5828,-6.9678 0.5828,-13.6102 0,-10.1011 -0.1457,-12.0771 -0.8954,-12.0771 -0.4925,0 -1.0624,0.2703 -1.2668,0.6007 -0.7063,1.1429 -6.6953,3.7724 -12.0429,5.2875 -9.4775,2.6852 -16.3696,3.5666 -28.0509,3.5873 -16.6764,0.03 -29.0341,-2.3641 -38.8382,-7.5228 -1.709,-0.8992 -3.3168,-1.7297 -3.5732,-1.8456 -0.2563,-0.1159 -0.466,5.6753 -0.466,12.8691 v 13.0799 l 1.8458,2.1021 c 3.5655,4.061 15.3428,8.3805 26.4284,9.6931 6.3365,0.7502 20.8855,0.765 27.3214,0.028 z m 7.9973,-34.6918 c 10.6285,-2.29 18.5803,-6.3426 20.5501,-10.4735 1.3991,-2.9342 1.4836,-26.2699 0.095,-26.2699 -0.4925,0 -1.0716,0.2849 -1.2867,0.6332 -0.2154,0.3483 -1.7,1.2944 -3.2991,2.1025 -10.2663,5.1875 -29.8526,8.0037 -46.0361,6.6193 -13.1293,-1.1232 -22.7185,-3.4791 -29.298,-7.1981 -2.0989,-1.1863 -3.9989,-2.1573 -4.2223,-2.1578 -0.562,-9e-4 0.1164,26.1809 0.7093,27.3791 0.8737,1.7653 7.2365,5.4422 12.3846,7.1566 9.6193,3.2036 16.1007,3.9883 30.9306,3.7449 10.6603,-0.175 14.5957,-0.4854 19.4726,-1.5363 z m -13.504,-31.7904 c 12.3459,-0.9857 20.1055,-2.7757 26.9661,-6.2208 4.2619,-2.1402 6.5701,-4.1263 7.42,-6.385 0.6543,-1.7382 0.9698,-25.9035 0.3383,-25.9035 -0.1767,0 -1.8011,0.8358 -3.6111,1.8574 -7.0311,3.9681 -16.7898,6.4179 -30.1029,7.557 -17.6497,1.5102 -38.531,-1.8105 -47.6163,-7.5723 -1.5976,-1.0131 -3.0348,-1.8421 -3.1939,-1.8421 -0.1592,0 -0.2891,5.8627 -0.2891,13.0281 v 13.028 l 1.932,2.2004 c 4.1887,4.7706 17.579,9.1477 31.1531,10.1835 3.8477,0.2936 7.4447,0.5733 7.9933,0.6214 0.5484,0.048 4.6031,-0.2003 9.0105,-0.5521 z m 1.4882,-33.538 c 16.1038,-1.3764 28.8673,-5.92 32.3189,-11.5048 1.6528,-2.6741 1.1723,-4.6562 -1.7505,-7.2224 -14.8709,-13.0568 -65.9863,-12.8334 -79.9643,0.3495 -4.3183,4.0727 -2.4496,8.2692 5.3918,12.1076 11.0414,5.4048 27.1963,7.7067 44.0041,6.2701 z m 151.4692,104.3408 c -1.0208,-0.5884 -1.0875,-3.553 -1.0875,-48.3609 0,-45.2666 -0.058,-47.8105 -1.1349,-49.2159 -1.1469,-1.4976 -9.5899,-13.8539 -17.9361,-26.2496 -2.4984,-3.7107 -4.5427,-7.102 -4.5427,-7.5362 0,-1.2177 1.6778,-2.3274 2.922,-1.9326 0.6147,0.1951 1.8602,1.5465 2.768,3.0031 0.9078,1.4566 3.2978,5.0253 5.3111,7.9304 2.0134,2.9051 6.1287,8.9173 9.1449,13.3604 3.0164,4.443 5.9164,8.5716 6.4444,9.1745 0.8848,1.01 2.4759,1.0833 20.2415,0.9321 l 19.2813,-0.1641 0.033,-5.4871 c 0.041,-6.5966 0.582,-7.2518 5.9948,-7.2518 3.3536,0 3.5835,-0.099 4.1742,-1.7937 0.569,-1.6321 0.4065,-2.0074 -1.8034,-4.1653 -3.8155,-3.7258 -3.4894,-5.0308 2.8088,-11.2446 3.2059,-3.1629 5.74224,-5.1672 6.53854,-5.1672 0.7159,0 2.5438,1.1451 4.0622,2.5447 2.447,2.2557 2.9571,2.4794 4.4912,1.9702 1.6207,-0.5379 1.7427,-0.8252 1.9186,-4.5195 0.254,-5.3332 0.6126,-5.544 9.4806,-5.5684 8.9307,-0.025 9.4,0.2411 9.7832,5.5384 0.2394,3.3098 0.4875,3.956 1.7396,4.5263 1.2836,0.5849 1.7987,0.3534 4.2578,-1.9132 1.5386,-1.4182 3.3969,-2.5785 4.13,-2.5785 0.8294,0 3.2982,1.9185 6.5385,5.0815 6.3065,6.1554 6.6454,7.5534 2.7534,11.3539 -2.3837,2.3276 -2.4271,2.4452 -1.5377,4.1653 0.8373,1.6188 1.2061,1.7701 4.3172,1.7701 5.0756,0 5.8875,1.0709 5.8875,7.7676 v 5.282 h 2.9583 2.9583 l 7.7609,-11.5222 c 4.2686,-6.3372 9.369,-13.7934 11.3342,-16.5692 1.9652,-2.7758 3.5732,-5.262 3.5732,-5.5247 0,-0.7257 2.1781,-1.2619 3.3301,-0.8198 2.2839,0.8763 1.4672,2.4425 -9.8538,18.9006 -1.763,2.5634 -5.3509,7.8222 -7.9729,11.6864 l -4.7672,7.0258 v 47.4811 c 0,46.4491 -0.027,47.4954 -1.2122,48.1302 -1.6515,0.8838 -123.55474,0.8447 -125.08974,-0.04 z m 121.95194,-49.3459 v -45.0523 h -59.3448 -59.34474 v 45.0523 45.0523 h 59.34474 59.3448 z m -66.36674,31.8784 c -0.4101,-0.4101 -0.7457,-2.2224 -0.7457,-4.0273 0,-3.0067 -0.134,-3.3153 -1.5982,-3.6828 -1.2595,-0.3162 -2.0229,0.01 -3.6026,1.5417 -3.0762,2.9816 -4.4078,2.6232 -9.5732,-2.577 -5.2572,-5.2926 -5.5774,-6.6104 -2.3626,-9.7264 1.7787,-1.7238 2.0276,-2.2806 1.5186,-3.3974 -0.5047,-1.1078 -1.0281,-1.2956 -3.0674,-1.1011 -1.5706,0.1497 -3.0173,-0.1313 -4.0043,-0.778 -1.4948,-0.9795 -1.5454,-1.2411 -1.5454,-8.0202 0,-4.6218 0.254,-7.2615 0.7457,-7.7533 0.4102,-0.4101 2.2226,-0.7457 4.0274,-0.7457 3.0216,0 3.314,-0.1289 3.69,-1.6268 0.3288,-1.3102 0.029,-1.9815 -1.5417,-3.4493 -3.0862,-2.8841 -2.6862,-4.4067 2.5397,-9.6677 5.1654,-5.2001 6.6551,-5.6168 9.492,-2.6556 3.0129,3.1446 5.282,2.1759 5.282,-2.2548 0,-4.0951 0.8817,-4.5807 8.31474,-4.5807 7.7042,0 8.6699,0.4957 8.8305,4.534 0.062,1.5459 0.3002,3.1156 0.5305,3.4882 0.7475,1.2094 2.5585,0.7193 4.3844,-1.1867 2.7521,-2.8725 4.1517,-2.4862 9.3874,2.5907 5.2957,5.1348 5.6411,6.4204 2.6874,10.0036 -2.6641,3.232 -2.1143,4.8051 1.679,4.8051 4.9534,0 5.1993,0.3651 5.1993,7.7207 0,7.8776 -0.6811,9.1045 -5.3515,9.6408 -3.8156,0.4381 -4.3153,1.986 -1.509,4.6748 3.0133,2.8869 2.598,4.4234 -2.5856,9.5662 -5.1769,5.1361 -6.6197,5.5126 -9.6756,2.525 -2.8125,-2.7498 -4.0873,-2.2548 -4.5807,1.7789 -0.6079,4.9661 -0.8521,5.1068 -8.8736,5.1068 -4.5738,0 -7.20044,-0.2547 -7.69154,-0.7457 z m 11.68254,-6.039 c 0,-3.5818 0.5083,-4.3964 3.5592,-5.7041 3.8079,-1.6322 5.0707,-1.4939 7.4542,0.8163 l 2.0619,1.9986 2.8459,-2.8457 2.8455,-2.8457 -1.9264,-1.9706 c -1.0638,-1.0883 -1.9263,-2.6336 -1.9263,-3.4513 0,-2.059 2.2716,-7.1562 3.2404,-7.271 0.4393,-0.052 1.0783,-0.1596 1.4201,-0.239 0.3419,-0.08 1.5302,-0.1767 2.641,-0.2161 l 2.0195,-0.072 v -4.0391 -4.0392 h -2.5263 c -3.423,0 -4.6016,-0.7581 -5.7879,-3.7229 -1.4455,-3.6129 -1.2626,-4.9644 0.9859,-7.2842 l 1.9926,-2.0559 -2.9588,-2.9173 -2.9592,-2.9172 -1.8614,1.9918 c -2.1115,2.2594 -3.6876,2.4692 -7.3968,0.9851 -2.9649,-1.1863 -3.7231,-2.3649 -3.7231,-5.7879 v -2.5265 h -4.0391 -4.0392 v 2.5265 c 0,3.423 -0.7581,4.6016 -3.72284,5.7879 -3.6048,1.4423 -4.9643,1.2628 -7.2558,-0.9581 l -2.0271,-1.9649 -2.8576,2.9823 -2.8575,2.9824 1.9035,1.9638 c 2.2776,2.3497 2.3901,4.094 0.5053,7.8317 -1.3617,2.7002 -1.4834,2.7776 -4.6606,2.9605 l -3.2624,0.1878 v 4.0067 4.0067 h 2.5266 c 3.4228,0 4.6015,0.7581 5.7877,3.7229 1.4683,3.6692 1.2634,5.2 -0.99,7.4032 l -1.9971,1.9524 2.9164,2.9163 2.9161,2.9162 2.0622,-1.9985 c 2.4304,-2.3559 4.0391,-2.4729 7.9061,-0.5748 2.73284,1.3413 2.80064,1.4466 2.98434,4.6349 l 0.1884,3.2625 h 4.0067 4.0065 z m -7.5647,-11.8146 c -5.54704,-1.7748 -9.10584,-5.5993 -10.45914,-11.2405 -0.6016,-2.5081 -0.5542,-3.6194 0.2763,-6.4763 2.2903,-7.8783 9.81954,-12.2202 17.37934,-10.0225 6.6181,1.9239 10.4662,7.0017 10.4662,13.8107 0,5.333 -2.4101,9.6655 -6.7275,12.0934 -3.3041,1.8579 -8.263,2.6901 -10.9352,1.8352 z m 9.3049,-6.1688 c 3.2979,-2.3484 4.7682,-7.5421 3.2585,-11.5124 -0.3266,-0.8594 -1.4531,-2.3836 -2.5032,-3.3872 -6.5132,-6.2242 -16.89034,-1.0183 -16.02014,8.037 0.7282,7.5793 9.02204,11.308 15.26484,6.8626 z m -6.09,-59.9832 c 0,-4.6223 1.8225,-9.0735 5.036,-12.3005 3.3072,-3.3212 6.5335,-4.5402 11.7421,-4.4365 8.4942,0.1689 14.7343,6.2302 15.493,15.049 l 0.353,4.1023 7.7333,0.1756 c 4.2532,0.097 8.0282,0.063 8.389,-0.075 0.3993,-0.1525 0.5743,-1.8624 0.4475,-4.37 l -0.2085,-4.1196 -3.2094,-0.01 c -3.9685,-0.012 -4.3914,-0.2769 -5.9604,-3.7362 -1.8197,-4.0112 -1.6379,-5.4755 1.0169,-8.1943 l 2.3051,-2.3606 -3.3712,-3.4137 c -1.8544,-1.8775 -3.5207,-3.4123 -3.7033,-3.4107 -0.1824,0 -1.3961,0.9803 -2.6969,2.1749 -2.7103,2.4893 -3.6399,2.6171 -7.3796,1.0141 -3.5968,-1.5418 -4.1285,-2.3129 -4.3553,-6.3179 l -0.1923,-3.3989 -5.0963,-0.18 -5.0963,-0.18 -0.1865,3.9085 -0.1864,3.9084 -3.4177,1.689 c -1.8798,0.9289 -3.9664,1.6979 -4.6372,1.7088 -0.6704,0.012 -2.358,-1.0976 -3.7497,-2.4636 l -2.5307,-2.4836 -3.70694,3.7632 -3.7072,3.7633 1.7263,1.2705 c 0.9494,0.6988 2.1455,2.081 2.6578,3.0716 0.85564,1.6546 0.82084,2.0665 -0.4263,5.0622 -1.7495,4.2021 -2.5765,4.8145 -6.5021,4.8145 h -3.2391 l -0.2154,2.9517 c -0.4441,6.0886 -0.9494,5.7481 8.5277,5.7481 h 8.34584 z m 27.8409,-0.1639 c 0.4543,-6.2293 -4.9913,-12.0248 -11.299,-12.0248 -3.6515,0 -7.5338,1.7498 -9.532,4.2964 -1.7495,2.2295 -2.9811,6.7682 -2.4311,8.9592 l 0.4232,1.6862 11.3254,-0.1694 11.3254,-0.1693 z m 53.9151,95.3656 c -0.9579,-2.9765 -4.111,-20.0361 -3.8357,-20.7534 0.5571,-1.4518 3.439,-1.0843 4.0451,0.5159 1.0814,2.8551 3.875,17.202 3.6803,18.9011 -0.1611,1.3985 -0.5539,1.8013 -1.914,1.9578 -1.0154,0.1167 -1.8196,-0.1362 -1.9757,-0.6214 z M 735.21563,1080.5647 c -1.655,-1.6549 1.5465,-4.9697 5.4041,-5.5957 2.3858,-0.3872 3.1818,0.3784 2.6394,2.5392 -0.5017,1.999 -6.7332,4.3669 -8.0435,3.0565 z m 146.3797,-3.0486 c -1.8022,-0.8233 -5.7681,-2.3668 -8.813,-3.43 -5.4175,-1.8919 -6.5485,-2.7705 -5.8635,-4.5553 0.8155,-2.1256 2.4203,-1.8044 14.2248,2.8467 7.2924,2.8734 8.1875,3.5488 7.1851,5.4219 -0.8993,1.6804 -2.5904,1.6092 -6.7334,-0.2833 z m -124.3903,-6.1294 c -1.9483,-2.3476 1.4226,-3.9645 15.1916,-7.2868 l 4.9713,-1.1995 1.1036,1.3603 c 1.0056,1.2397 1.017,1.4559 0.1262,2.4395 -0.5374,0.5936 -2.027,1.2473 -3.3107,1.4525 -1.2837,0.2053 -5.2557,1.216 -8.8266,2.246 -7.3992,2.1342 -8.231,2.223 -9.256,0.988 z m 92.4805,-3.7415 c -0.1555,-0.1562 -4.0478,-0.864 -8.648,-1.5729 -4.6002,-0.709 -8.8533,-1.4389 -9.4515,-1.6221 -1.408,-0.4314 -1.4424,-3.2593 -0.046,-3.7952 0.5726,-0.2198 5.2566,0.2372 10.4087,1.0155 10.2886,1.5543 12.2904,2.4565 10.9611,4.9402 -0.6327,1.1821 -2.4831,1.7758 -3.2246,1.0345 z m -55.8403,-3.7433 c -0.4037,-0.4863 -0.6385,-1.3797 -0.5218,-1.9853 0.26,-1.3506 2.4843,-1.7587 12.7061,-2.331 l 7.5337,-0.4218 0.3323,1.7382 c 0.1825,0.956 0.2116,1.9333 0.064,2.1718 -0.3607,0.5836 -4.1278,1.0043 -12.4508,1.3906 -5.5286,0.2566 -7.0781,0.1429 -7.6636,-0.5625 z"
       id="path2932323"
       inkscape:label="database" /></g></svg>
