<?xml version="1.0" encoding="UTF-8" standalone="no"?>
<!-- Created with Inkscape (http://www.inkscape.org/) -->

<svg
   width="50.000008mm"
   height="49.901386mm"
   viewBox="0 0 188.97641 188.60367"
   version="1.1"
   id="svg5"
   xml:space="preserve"
   inkscape:version="1.2.2 (732a01da63, 2022-12-09)"
   sodipodi:docname="social-icons.svg"
   xmlns:inkscape="http://www.inkscape.org/namespaces/inkscape"
   xmlns:sodipodi="http://sodipodi.sourceforge.net/DTD/sodipodi-0.dtd"
   xmlns="http://www.w3.org/2000/svg"
   xmlns:svg="http://www.w3.org/2000/svg"><sodipodi:namedview
     id="namedview7"
     pagecolor="#505050"
     bordercolor="#eeeeee"
     borderopacity="1"
     inkscape:showpageshadow="0"
     inkscape:pageopacity="0"
     inkscape:pagecheckerboard="0"
     inkscape:deskcolor="#505050"
     inkscape:document-units="mm"
     showgrid="false"
     inkscape:zoom="1.0779321"
     inkscape:cx="596.51253"
     inkscape:cy="302.43092"
     inkscape:window-width="2560"
     inkscape:window-height="1057"
     inkscape:window-x="1072"
     inkscape:window-y="496"
     inkscape:window-maximized="1"
     inkscape:current-layer="layer1" /><defs
     id="defs2" /><g
     inkscape:label="Capa 1"
     inkscape:groupmode="layer"
     id="layer1"
     transform="translate(-312.04469,-234.61135)"><path
       style="fill:#00aeff;fill-opacity:1;stroke-width:0.369393"
       d="m 401.00399,423.08112 c -22.03569,-1.08225 -43.31263,-10.32436 -59.69891,-25.93152 -12.69301,-12.0895 -22.24424,-28.39255 -26.32777,-44.93908 -3.9568,-16.03298 -3.90955,-31.76966 0.14164,-47.16907 1.78812,-6.79707 3.39052,-11.03572 6.81565,-18.02878 12.35121,-25.21737 36.31713,-44.1232 63.63317,-50.19787 7.6431,-1.6997 12.43873,-2.20344 20.97711,-2.20344 8.53837,0 13.334,0.50374 20.97709,2.20344 23.2691,5.17469 44.118,19.59761 57.87878,40.03957 3.15207,4.68247 7.92903,14.10215 9.94998,19.62034 5.4219,14.80449 7.06884,32.53227 4.44989,47.89922 -5.611,32.92312 -27.98964,60.39894 -59.13401,72.60291 -12.15192,4.76174 -25.4201,6.80379 -39.66262,6.10428 z m -3.83992,-52.40872 c 18.54033,-1.46798 33.31824,-7.7564 44.68795,-19.01597 5.27077,-5.21972 10.50962,-12.78061 13.31087,-19.21069 l 1.0234,-2.34914 2.79141,-0.23739 c 8.08736,-0.68775 12.82493,-3.55877 16.03956,-9.72018 1.6302,-3.12457 1.7155,-2.93342 -2.16636,-4.85449 -2.85263,-1.41173 -6.49275,-2.01566 -10.56063,-1.75211 l -3.21719,0.20843 -0.43472,-1.72822 c -0.6891,-2.73955 -2.50868,-5.77949 -4.91038,-8.20364 -2.18654,-2.20699 -5.05965,-4.42167 -5.73622,-4.42167 -0.42093,0 -1.87104,2.15047 -3.14382,4.66219 -2.31715,4.57268 -2.79089,10.91158 -1.15611,15.46973 0.51006,1.42216 0.96289,2.81997 1.00629,3.10625 0.0488,0.32202 -0.69576,0.815 -1.95274,1.29287 -2.01205,0.76491 -2.47933,0.77416 -48.38029,0.95707 l -46.34862,0.1847 -0.31174,1.66227 c -0.44868,2.39249 -0.003,9.63007 0.82095,13.33421 1.7314,7.7829 5.02112,14.09961 9.99812,19.19776 8.89445,9.11097 21.33798,12.78797 38.64027,11.41802 z m -26.4503,-54.1083 v -6.09498 h -6.64907 -6.64908 v 6.09498 6.09499 h 6.64908 6.64907 z m 15.88389,0 v -6.09498 h -6.64907 -6.64907 v 6.09498 6.09499 h 6.64907 6.64907 z m 15.8839,0 v -6.09498 h -6.83377 -6.83377 v 6.09498 6.09499 h 6.83377 6.83377 z m 15.5145,0 v -6.09498 h -6.64907 -6.64908 v 6.09498 6.09499 h 6.64908 6.64907 z m 15.88389,0 v -6.09498 h -6.83377 -6.83376 v 6.09498 6.09499 h 6.83376 6.83377 z m -47.28229,-14.40632 v -6.09498 h -6.64907 -6.64907 v 6.09498 6.09498 h 6.64907 6.64907 z m 15.80069,-0.0923 0.10147,-6.00263 h -6.84292 -6.84291 v 6.10331 6.10332 l 6.74142,-0.10066 6.74142,-0.10066 z m 15.59771,0.0923 v -6.09498 h -6.64907 -6.64908 v 6.09498 6.09498 h 6.64908 6.64907 z m 0,-14.59102 v -5.91029 h -6.64907 -6.64908 v 5.91029 5.91029 h 6.64908 6.64907 z"
       id="path338-0"
       inkscape:export-filename="..\..\path338-0.svg"
       inkscape:export-xdpi="96"
       inkscape:export-ydpi="96"
       inkscape:label="docker" /></g></svg>
