<?xml version="1.0" encoding="UTF-8" standalone="no"?>
<!-- Created with Inkscape (http://www.inkscape.org/) -->

<svg
   width="397.57782"
   height="368.44269"
   viewBox="0 0 397.57782 368.44269"
   version="1.1"
   id="svg5"
   xml:space="preserve"
   inkscape:version="1.2.2 (732a01da63, 2022-12-09)"
   sodipodi:docname="icons-design.svg"
   xmlns:inkscape="http://www.inkscape.org/namespaces/inkscape"
   xmlns:sodipodi="http://sodipodi.sourceforge.net/DTD/sodipodi-0.dtd"
   xmlns="http://www.w3.org/2000/svg"
   xmlns:svg="http://www.w3.org/2000/svg"><sodipodi:namedview
     id="namedview7"
     pagecolor="#505050"
     bordercolor="#eeeeee"
     borderopacity="1"
     inkscape:showpageshadow="0"
     inkscape:pageopacity="0"
     inkscape:pagecheckerboard="0"
     inkscape:deskcolor="#505050"
     inkscape:document-units="px"
     showgrid="false"
     showguides="true"
     inkscape:zoom="1.7824983"
     inkscape:cx="1593.5499"
     inkscape:cy="226.64818"
     inkscape:window-width="2560"
     inkscape:window-height="1057"
     inkscape:window-x="1072"
     inkscape:window-y="496"
     inkscape:window-maximized="1"
     inkscape:current-layer="layer1" /><defs
     id="defs2" /><g
     inkscape:label="Capa 1"
     inkscape:groupmode="layer"
     id="layer1"
     transform="translate(-557.14575,-503.99121)"><path
       style="fill:#000000;stroke-width:0.322648"
       d="m 560.56253,871.95772 c -4.4696,-2.0823 -4.562,-6.5207 -0.2307,-11.0927 0.2281,-0.2407 0.9971,-1.257 1.7089,-2.2585 0.7119,-1.0015 2.1224,-2.9198 3.1345,-4.2628 1.0121,-1.343 2.5196,-3.3544 3.3499,-4.4696 0.8303,-1.1152 1.8207,-2.4334 2.2008,-2.9293 0.6556,-0.8554 1.6015,-2.1167 5.3237,-7.0983 0.8873,-1.1875 2.3029,-3.0816 3.1458,-4.2093 l 1.5326,-2.0501 0.01,-63.2551 c 0.01,-69.6764 -0.1087,-65.6842 2.0078,-69.8111 1.848,-3.604 5.0995,-6.3333 9.5247,-7.9951 1.3157,-0.4941 2.9361,-0.5916 11.6118,-0.6988 l 10.0828,-0.1244 v -13.0476 c 0,-12.9867 0,-13.0526 0.7259,-14.1571 0.3993,-0.6104 1.3067,-1.4432 2.0166,-1.8508 l 1.2906,-0.7409 h 85.179 c 83.1349,0 85.2088,0.015 86.4178,0.6151 0.6813,0.3382 1.625,1.1986 2.0972,1.9119 l 0.8585,1.2968 0.091,12.9826 0.091,12.9827 9.911,0.1413 c 8.2446,0.1173 10.1455,0.2316 11.3059,0.6797 4.185,1.6159 6.6734,3.5583 8.8536,6.9112 2.7247,4.1903 2.496,-2.2098 2.496,69.8564 v 64.0861 l 1.8844,2.5123 c 1.0364,1.3817 2.9602,3.9642 4.2751,5.7388 1.3149,1.7746 2.4704,3.2991 2.5678,3.3878 0.098,0.089 3.0448,4.009 6.5497,8.7115 3.505,4.7026 6.7324,8.9855 7.1723,9.5174 1.5187,1.8371 1.7474,4.6187 0.5468,6.6519 -0.2739,0.464 -1.0882,1.2263 -1.8095,1.6939 l -1.3115,0.8503 -141.8198,-0.013 c -120.7525,-0.011 -141.9637,-0.08 -142.7879,-0.4635 z m 110.1886,-6.2187 c 0.3828,-1.0204 1.062,-2.9442 1.5093,-4.2751 1.064,-3.1653 1.501,-3.9727 2.4112,-4.4557 0.5864,-0.3112 6.9929,-0.3802 28.8973,-0.3112 l 28.1438,0.088 0.7745,0.8066 c 0.431,0.4488 1.3185,2.3809 2.0008,4.3557 0.6745,1.9521 1.4202,4.0214 1.6573,4.5987 l 0.4311,1.0495 53.7968,-0.082 c 42.1947,-0.064 53.7968,-0.1667 53.7968,-0.4767 0,-0.2175 -0.538,-1.0886 -1.1957,-1.936 -0.6577,-0.8473 -3.406,-4.517 -6.1076,-8.1549 -2.7017,-3.6378 -5.0044,-6.6869 -5.1173,-6.7755 -0.1129,-0.088 -0.6671,-0.8402 -1.2315,-1.6698 -0.5643,-0.8296 -1.2116,-1.7008 -1.4384,-1.9359 -0.2267,-0.2351 -1.1948,-1.5164 -2.1512,-2.8473 -0.9565,-1.3309 -1.8246,-2.4924 -1.9291,-2.5812 -0.1044,-0.089 -0.6089,-0.7789 -1.1209,-1.5336 -0.5119,-0.7547 -1.2669,-1.7347 -1.6775,-2.1778 l -0.7467,-0.8057 h -118.369 -118.369 l -0.6924,0.7964 c -0.3808,0.438 -1.4588,1.8536 -2.3955,3.1458 -0.9367,1.2922 -1.8827,2.5673 -2.1022,2.8334 -0.2196,0.2662 -1.8594,2.4441 -3.6441,4.8398 -1.7846,2.3956 -3.4208,4.5735 -3.6358,4.8397 -0.215,0.2662 -0.9265,1.2341 -1.5811,2.151 -0.6546,0.9169 -1.4119,1.9332 -1.683,2.2585 -0.271,0.3254 -1.8366,2.4064 -3.4788,4.6246 -1.6422,2.2182 -3.1203,4.1273 -3.2844,4.2425 -0.1642,0.1152 -0.2092,0.4419 -0.1,0.726 0.1807,0.4707 4.972,0.5165 54.0674,0.5165 h 53.8691 z m -86.1514,-14.4445 c 0.018,-1.2154 1.0522,-2.3583 2.0709,-2.5278 0.5469,-0.091 53.152,-0.1801 116.9004,-0.198 102.3315,-0.029 116.0156,0.024 116.8402,0.4504 1.6205,0.838 1.8731,2.9403 0.4845,4.0326 l -0.85,0.6687 h -116.7799 -116.7798 c -1.1489,-0.126 -1.828,-1.1993 -1.8863,-2.4259 z m 5.2385,-6.1741 c -1.7674,-0.8712 -1.832,-3.056 -0.1203,-4.0671 0.8981,-0.5306 7.141,-0.5614 113.5702,-0.5614 83.0136,0 112.8301,0.095 113.4198,0.3645 1.1574,0.5273 1.6644,1.9239 1.1147,3.0704 -0.2378,0.496 -0.7954,1.0855 -1.239,1.3099 -0.6457,0.3266 -23.2428,0.4075 -113.2494,0.4054 -102.6774,0 -112.5343,-0.048 -113.496,-0.5217 z m 141.2437,22.2077 c 0,-0.2542 -1.3395,-4.5774 -1.8989,-5.8475 -0.027,-0.062 -1.6409,-0.017 -25.9831,-0.017 h -25.877 l -0.5718,1.6939 c -0.3144,0.9316 -0.7707,2.3109 -1.014,3.0652 l -0.4425,1.3712 h 27.8937 c 15.3415,0 27.8936,-0.1198 27.8936,-0.2661 z m 89.6286,-97.1735 c 0.068,-44.1786 -0.01,-62.3388 -0.2633,-63.7229 -0.7279,-3.9431 -2.9966,-6.8903 -6.618,-8.5968 -2.9254,-1.3785 -4.7757,-1.587 -13.2412,-1.492 l -7.7191,0.087 v 4.0332 4.033 l 8.5502,0.1613 c 8.3593,0.1577 8.5728,0.1783 9.5639,0.9222 0.5576,0.4184 1.3561,1.2171 1.7746,1.7746 l 0.7608,1.0137 v 56.786 56.7861 l -0.8405,1.2906 c -0.5049,0.7755 -1.4206,1.5804 -2.2938,2.0166 l -1.4534,0.7258 h -105.9192 -105.9191 l -1.4062,-0.7022 c -1.0729,-0.5359 -1.5973,-1.086 -2.2131,-2.3219 l -0.8072,-1.6196 v -55.8354 c 0,-35.6481 0.1167,-56.2488 0.3196,-56.979 0.3603,-1.2973 1.9786,-3.0058 3.3294,-3.515 0.5552,-0.2094 4.1636,-0.3425 9.2857,-0.3425 h 8.3774 l -0.091,-4.1137 -0.091,-4.1138 -8.1533,-0.087 c -8.727,-0.092 -10.9234,0.1597 -13.6886,1.5705 -2.2328,1.139 -4.5358,3.7187 -5.5191,6.182 l -0.8706,2.1813 v 62.9133 62.9135 l 117.5244,-0.082 117.5245,-0.082 z m -206.8296,-4.9204 -0.082,-55.8987 -7.5489,-0.087 c -6.1835,-0.072 -7.679,0 -8.2681,0.3844 l -0.7191,0.4713 0.075,55.1464 c 0.041,30.3306 0.1766,55.3119 0.3016,55.5143 0.1603,0.2594 2.599,0.3678 8.2754,0.3678 h 8.0481 z m 174.3096,8.3082 v -47.5906 h -54.7853 -54.7853 l -0.3812,1.0543 c -0.6889,1.9053 -3.2837,5.5261 -5.3254,7.4311 -8.489,7.921 -21.6591,8.8178 -31.3662,2.136 -3.0717,-2.1144 -6.2946,-5.9728 -7.7264,-9.2501 l -0.5991,-1.3713 h -7.3719 -7.3719 v 47.5906 47.5906 h 84.8564 84.8563 z m -91.0784,36.3288 c -0.5101,-0.8636 -0.5535,-2.8973 -0.5535,-25.9297 0,-24.7958 0.01,-24.9992 0.6686,-25.8427 l 0.6688,-0.8501 h 40.3123 40.3123 l 0.6204,1.0201 c 0.5993,0.9856 0.6182,1.8677 0.5599,26.1006 -0.059,24.165 -0.083,25.1054 -0.6752,25.7597 l -0.6146,0.6792 h -40.3727 -40.3728 z m 77.4488,-25.7621 -0.083,-22.182 h -36.4592 -36.4592 l -0.084,21.7787 c -0.046,11.9783 -0.014,21.9602 0.071,22.182 0.122,0.3194 7.7457,0.4034 36.6257,0.4034 h 36.4715 z m -136.298,23.7386 c -0.8699,-0.4257 -1.5254,-1.9255 -1.2377,-2.832 0.527,-1.6602 0.2645,-1.6401 20.1637,-1.5504 l 18.4893,0.083 0.6415,0.8593 c 0.6873,0.9205 0.6209,1.8774 -0.2092,3.0125 -0.4612,0.6309 -0.8815,0.6468 -18.8082,0.7083 -12.4529,0.043 -18.5619,-0.048 -19.0394,-0.2811 z m 0.2436,-13.5782 c -1.6089,-0.4173 -2.0456,-2.9624 -0.6898,-4.0198 0.3825,-0.2984 5.0206,-0.3955 19.2611,-0.4034 l 18.7571,-0.01 0.4978,0.7598 c 0.6122,0.9344 0.499,2.271 -0.2639,3.1138 -0.5543,0.6125 -1.1575,0.6358 -18.5954,0.719 -9.9123,0.048 -18.4475,-0.024 -18.9669,-0.1591 z m -0.6986,-14.0712 c -1.0326,-0.8361 -1.0255,-2.6764 0.014,-3.5776 0.745,-0.6462 1.1,-0.6584 19.1161,-0.6584 h 18.357 l 0.7912,0.8537 c 1.0063,1.0858 1.0061,2.1873 -7e-4,3.194 l -0.792,0.792 h -18.3698 c -17.4675,0 -18.4065,-0.03 -19.1154,-0.6037 z m 0,-13.8907 c -1.147,-1.1469 -1.1894,-1.961 -0.1644,-3.1526 l 0.7787,-0.9053 h 18.4495 18.4494 l 0.7306,0.9163 c 0.4018,0.504 0.6969,1.2298 0.6557,1.6132 -0.041,0.3834 -0.093,0.8748 -0.1158,1.0921 -0.023,0.2172 -0.4696,0.6165 -0.9931,0.8873 -0.8198,0.4239 -3.4429,0.4922 -18.8998,0.4922 h -17.9478 z m 18.145,-12.9253 -17.8549,-0.1667 -0.6167,-0.7617 c -0.8601,-1.0626 -0.7708,-1.8763 0.3266,-2.9736 l 0.943,-0.9431 h 17.7224 c 11.5222,0 18.0616,0.1183 18.6921,0.3381 1.1868,0.4137 1.8639,1.5768 1.5789,2.7122 -0.2049,0.8168 -1.9621,2.1851 -2.6137,2.0356 -0.1775,-0.041 -8.3574,-0.149 -18.1777,-0.2408 z m 42.9748,-4.1841 c -2.3103,-1.064 -3.5221,-2.3039 -4.5278,-4.6327 -2.1824,-5.0534 0.9147,-10.6163 6.5797,-11.8185 6.8294,-1.4493 12.7269,4.8037 10.5922,11.2308 -1.6709,5.0305 -7.6744,7.5092 -12.6441,5.2204 z m 6.2275,-4.5639 c 2.7424,-1.695 2.6492,-5.2849 -0.1745,-6.7254 -1.6603,-0.8471 -2.7043,-0.8387 -4.2568,0.034 -1.2038,0.6765 -2.2334,2.2139 -2.2334,3.3349 0,1.1353 1.0825,2.7863 2.2216,3.3883 1.5363,0.8119 3.0961,0.8007 4.4431,-0.032 z m 12.8443,3.9185 c -0.8618,-0.3492 -1.3391,-0.9503 -1.6091,-2.0258 -0.1782,-0.7102 -0.034,-1.0634 0.7559,-1.8534 l 0.976,-0.9761 h 8.5999 8.5998 l 0.9761,0.9761 c 1.1508,1.1509 1.0694,2.2821 -0.2493,3.4603 -0.7992,0.7141 -0.9471,0.7256 -9.1027,0.7055 -4.5596,-0.011 -8.5855,-0.1403 -8.9466,-0.2866 z m -0.3553,-9.4271 c -0.7069,-0.3423 -1.4081,-1.5349 -1.4081,-2.395 0,-0.2659 0.3564,-0.8398 0.7919,-1.2754 l 0.792,-0.792 h 25.6036 c 20.0092,0 25.7243,0.089 26.1564,0.4044 0.3042,0.2224 0.6359,0.915 0.7372,1.5391 0.153,0.9431 0.035,1.2834 -0.6967,2.0154 l -0.8808,0.8809 -25.2032,-0.022 c -16.6545,-0.014 -25.437,-0.1351 -25.8923,-0.3556 z m 90.8047,81.62 c 0.298,-0.298 0.3872,-13.04 0.3872,-55.3893 0,-50.7273 -0.041,-55.048 -0.534,-55.5922 -0.4883,-0.5395 -1.1789,-0.59 -8.0662,-0.59 h -7.5322 v 55.9793 55.9795 h 7.679 c 5.5424,0 7.7867,-0.1078 8.0662,-0.3873 z m -147.3855,-85.1723 c 2.365,-0.6482 5.9106,-2.2294 6.2573,-2.7905 0.1442,-0.2334 -2.4154,-0.8903 -5.8533,-1.5023 -1.3174,-0.2344 -2.7149,-1.2779 -3.3386,-2.4928 -1.0809,-2.1052 -0.613,-5.9453 0.7901,-6.4836 0.2533,-0.097 0.8643,-1.0223 1.3578,-2.0557 0.4935,-1.0334 1.0707,-2.0967 1.2825,-2.3629 0.5618,-0.7056 0.8496,-2.1865 0.4704,-2.4208 -0.1797,-0.1111 -0.3021,-1.1726 -0.2719,-2.359 0.1064,-4.2014 -1.9401,-6.2791 -6.232,-6.3273 -1.8903,-0.021 -2.3187,0.093 -3.5491,0.952 -1.7739,1.2374 -2.5275,2.7188 -2.5281,4.9699 -3e-4,0.9634 -0.1717,2.2248 -0.3808,2.8033 -0.3425,0.9471 -0.2943,1.1757 0.484,2.2987 0.4753,0.686 0.8643,1.4266 0.8643,1.646 0,0.6269 1.2695,2.9543 1.6115,2.9543 0.5896,0 1.2923,1.915 1.2923,3.5222 0,0.89 -0.2343,2.1097 -0.5208,2.7102 -0.6243,1.3094 -2.7987,2.8018 -4.0821,2.8018 -0.5085,0 -1.1741,0.1335 -1.4791,0.2968 -0.305,0.1632 -0.9851,0.3459 -1.5114,0.406 -0.5262,0.06 -1.0284,0.2532 -1.1158,0.4292 -0.3679,0.7406 6.1779,3.4065 9.3545,3.8099 1.7648,0.224 4.457,-0.082 7.0983,-0.8054 z m -17.7051,-7.8827 c 1.1157,-0.2859 2.3252,-0.5582 2.6879,-0.6052 1.3414,-0.1739 2.4339,-0.5675 2.4339,-0.8769 0,-0.1751 -0.2714,-0.7039 -0.6032,-1.1749 -0.3318,-0.471 -0.9185,-1.4795 -1.304,-2.2411 -0.3854,-0.7615 -0.9593,-1.6432 -1.2752,-1.959 -0.8346,-0.8347 -1.7168,-5.5052 -1.2995,-6.8791 0.1788,-0.5885 0.4474,-1.8812 0.597,-2.8727 0.552,-3.6599 2.1874,-6.1283 5.11,-7.7132 2.7674,-1.5007 5.4988,-1.8712 8.4817,-1.1504 2.9314,0.7082 3.8531,1.1663 5.4287,2.6982 1.6726,1.6261 2.5808,3.5413 2.8202,5.9477 0.1107,1.1113 0.3055,2.1657 0.4329,2.3431 0.5513,0.7675 0.5529,1.9589 0.01,4.5823 -0.3207,1.5393 -0.7935,2.9529 -1.0506,3.1414 -0.2572,0.1884 -0.7289,0.8507 -1.0481,1.4718 -0.3193,0.6211 -0.9951,1.6343 -1.5015,2.2514 -1.1103,1.3527 -1.1609,1.8877 -0.195,2.0609 0.3992,0.072 2.4247,0.4557 4.501,0.8534 2.0762,0.3978 3.9906,0.6406 4.2542,0.5395 0.2636,-0.1012 0.9933,-1.2527 1.6215,-2.559 2.5074,-5.2131 2.1714,-11.2571 -0.9189,-16.5304 -3.0477,-5.2005 -10.2516,-9.1813 -16.6368,-9.1933 -2.2987,0 -6.6533,1.0464 -8.7591,2.1135 -8.754,4.436 -12.6956,14.2935 -9.116,22.7982 1.5944,3.7883 1.7464,3.8725 5.3324,2.9538 z m -11.4672,-9.7252 c 0.1381,-15.7741 16.348,-26.7107 31.9162,-21.5332 8.1217,2.7009 13.7635,8.8754 15.6773,17.1575 0.5083,2.1995 0.6559,3.6444 0.5392,5.2765 l -0.1609,2.2478 54.0812,-0.082 54.0812,-0.082 0.084,-17.8264 0.084,-17.8263 h -84.8591 -84.8591 v 17.6919 c 0,9.7305 0.097,17.7886 0.2151,17.907 0.1182,0.1183 3.1309,0.2147 6.6949,0.2143 l 6.4799,-7e-4 0.027,-3.1451 z m 156.2954,-43.7723 c 0,-3.4458 -0.088,-6.4948 -0.1958,-6.7756 -0.178,-0.4636 -7.9547,-0.5103 -84.8564,-0.5103 h -84.6606 v 6.7756 6.7756 h 84.8564 84.8564 z m -162.6901,1.7745 c -0.9132,-0.8161 -1.0495,-1.1388 -1.0227,-2.4202 0.037,-1.7656 0.6989,-2.6229 2.4247,-3.1399 3.7056,-1.1103 6.2774,3.849 3.0352,5.8528 -1.5452,0.955 -3.1602,0.8485 -4.4372,-0.2927 z m 13.716,0.2367 c -1.1651,-0.8368 -1.7438,-2.1039 -1.4729,-3.2255 0.2764,-1.1446 1.7003,-2.4921 2.8641,-2.7105 1.3238,-0.2483 2.1838,0.026 3.289,1.0507 1.2298,1.1398 1.2429,3.2737 0.027,4.489 -1.2203,1.2203 -3.3148,1.3967 -4.7078,0.3963 z m 13.1749,0.2547 c -1.8356,-1.0174 -2.1748,-3.468 -0.7073,-5.1104 0.8282,-0.9268 1.1379,-1.0536 2.5739,-1.0536 1.3328,0 1.7881,0.1558 2.4816,0.8493 1.1297,1.1297 1.4228,3.3728 0.5674,4.343 -1.2622,1.4316 -3.3435,1.843 -4.9156,0.9717 z m 197.6299,161.7508 c -0.9401,-0.7394 -1.1623,-2.3635 -0.4468,-3.2657 0.2218,-0.2797 2.3152,-1.7594 4.6518,-3.2882 4.678,-3.0604 5.7284,-3.3673 6.8114,-1.9903 0.4712,0.599 0.5741,1.085 0.4268,2.0165 -0.1837,1.1621 -0.4346,1.3865 -4.7101,4.2119 -2.4839,1.6415 -4.8237,2.9845 -5.1996,2.9845 -0.3759,0 -1.0659,-0.301 -1.5335,-0.6687 z m 23.876,-17.7456 c -0.6294,-0.4951 -0.8502,-0.9623 -0.8502,-1.7991 0,-1.0128 0.3267,-1.4367 3.1458,-4.0811 1.7301,-1.623 5.3238,-5.1716 7.9856,-7.8857 3.9339,-4.0112 5.0059,-4.9338 5.7271,-4.9296 1.2451,0.01 2.1778,1.0498 2.1778,2.434 0,1.0208 -0.471,1.6374 -4.5703,5.9828 -2.5137,2.6644 -4.7594,4.9503 -4.9904,5.0797 -0.2312,0.1293 -1.5503,1.3361 -2.9314,2.6818 -3.5033,3.4132 -4.1765,3.7109 -5.694,2.5172 z m 27.2625,-30.2249 c -0.4134,-0.346 -0.7007,-1.0056 -0.7422,-1.7038 -0.058,-0.9607 0.4673,-1.9501 3.3468,-6.3132 1.878,-2.8456 4.3215,-6.7614 5.4302,-8.7015 2.6024,-4.5546 2.6979,-4.6569 4.3439,-4.6569 1.2102,0 1.4139,0.1165 1.952,1.1158 0.5808,1.0783 0.5815,1.1572 0.02,2.3393 -1.7652,3.7207 -10.4288,17.1893 -11.5716,17.9898 -0.9311,0.6521 -1.9478,0.6268 -2.7796,-0.07 z m 19.566,-35.8138 c -1.0031,-1.1425 -0.9461,-1.8761 0.4241,-5.4522 0.7377,-1.9258 2.3453,-6.5504 3.5723,-10.2769 1.227,-3.7266 2.4712,-6.9572 2.7647,-7.179 0.9431,-0.7128 2.5502,-0.4945 3.2907,0.4469 0.3678,0.4675 0.6688,1.0545 0.6688,1.3045 0,0.7912 -3.4471,11.3699 -5.2868,16.2248 -0.9727,2.5669 -2.0237,4.8536 -2.3356,5.0818 -0.8136,0.5948 -2.5166,0.5123 -3.0982,-0.1499 z m -20.6273,-38.2883 c -0.9479,-0.7842 -2.2468,-1.982 -2.8866,-2.6618 -1.2914,-1.3725 -2.0682,-2.1078 -11.6297,-11.0065 -3.6645,-3.4104 -6.8868,-6.2007 -7.1603,-6.2007 -0.8545,0 -7.8743,-2.2219 -11.1346,-3.5242 -5.1884,-2.0727 -12.3191,-5.6655 -16.3063,-8.216 -1.0023,-0.6412 -1.8814,-1.1657 -1.9537,-1.1657 -0.073,0 -2.1384,-1.3432 -4.5914,-2.9846 l -4.4603,-2.9845 -16.1324,-0.1613 -16.1324,-0.1613 -1.3668,-0.7829 c -0.7518,-0.4306 -1.7681,-1.3616 -2.2585,-2.0688 l -0.8918,-1.286 -0.1613,-10.509 -0.1613,-10.509 -1.6132,-0.1028 c -4.4003,-0.2801 -9.3389,-2.9958 -10.8559,-5.9696 -1.8625,-3.6506 -2.0152,-6.5832 -0.5698,-10.9398 1.1217,-3.3809 1.443,-3.9625 3.3208,-6.0092 1.2653,-1.3791 4.0766,-2.9562 5.2909,-2.968 0.3055,0 -0.6476,-0.4933 -2.1179,-1.0897 -2.7717,-1.124 -3.371,-1.5234 -5.1351,-3.4219 -1.9079,-2.0535 -3.1732,-5.8478 -2.7962,-8.386 0.206,-1.3876 2.0215,-6.8853 3.1216,-9.4531 0.5074,-1.1843 3.0161,-3.8928 4.2782,-4.6189 0.5626,-0.3238 0.4861,-0.4235 -0.8302,-1.0824 -2.8615,-1.4322 -4.9691,-4.0042 -5.7952,-7.0718 -0.7216,-2.6802 -0.4819,-4.645 1.1552,-9.4702 1.433,-4.2234 1.6533,-4.6468 3.3302,-6.4007 1.9051,-1.9925 3.9505,-3.0975 6.4741,-3.4973 l 1.4519,-0.2301 -1.4519,-0.8798 c -2.2327,-1.3528 -9.5517,-5.6338 -12.3142,-7.2027 -3.7089,-2.1066 -5.6976,-3.728 -7.0918,-5.7821 -1.7081,-2.5167 -2.369,-4.83 -2.3425,-8.1981 0.035,-4.452 1.4825,-7.4812 5.0782,-10.6276 2.7022,-2.3647 4.7751,-3.0775 8.9619,-3.0815 l 3.4406,0.4212 3.39,1.2696 c 1.9601,0.7341 3.4918,1.6939 3.5947,1.6939 0.1028,0 0.1901,-5.5535 0.194,-12.3413 0.01,-11.2392 0.06,-12.4567 0.5946,-13.6347 0.7414,-1.6319 2.6155,-3.2961 3.9892,-3.5423 0.5804,-0.104 21.1148,-0.1475 45.6317,-0.096 l 44.5763,0.092 1.2397,0.9887 c 0.6821,0.5438 1.5303,1.5601 1.8853,2.2586 0.6128,1.2062 0.6498,2.006 0.7352,15.9674 l 0.089,14.6976 2.31,-1.1464 c 2.2123,-1.0979 2.4541,-1.1461 5.7176,-1.138 3.2646,0.01 3.4958,0.056 5.5049,1.1293 1.1535,0.6165 2.7003,1.72 3.4373,2.4524 1.2491,1.2411 3.661,5.5939 3.661,6.6069 0,0.2474 0.7859,2.8456 1.7464,5.7738 0.9605,2.9281 2.5724,7.9374 3.5817,11.1316 3.0011,9.4966 4.0632,12.8332 4.5188,14.1965 0.2372,0.7099 1.2501,3.904 2.2509,7.0983 1.0009,3.1942 2.5889,8.2033 3.5291,11.1314 0.9403,2.9279 2.4519,7.6467 3.359,10.486 1.4871,4.6536 2.6906,9.6974 3.1565,13.2285 0.093,0.7099 0.2946,1.7988 0.4464,2.4199 0.1519,0.6211 0.6679,3.4524 1.1466,6.2917 1.1811,7.0039 1.2488,16.9466 0.1416,20.8073 -0.2708,0.9441 -0.1887,1.2121 0.7313,2.3886 0.57,0.7289 1.307,1.6157 1.6377,1.9706 0.3309,0.3549 1.4557,1.7342 2.4996,3.0651 1.0438,1.3309 2.2722,2.8798 2.7294,3.4419 1.602,1.9691 0.8106,4.3075 -1.4799,4.3726 -1.2077,0.035 -1.3678,-0.1205 -5.8077,-5.6204 l -2.5266,-3.1297 -0.9897,1.7536 c -0.5442,0.9644 -0.9896,1.881 -0.9896,2.0369 0,0.156 -0.3828,0.6664 -0.8506,1.1342 -1.1224,1.1224 -3.0691,1.1906 -3.8094,0.1335 -0.7332,-1.0466 -0.6194,-2.0862 0.412,-3.7642 1.9448,-3.1645 3.3562,-6.8609 3.9465,-10.336 1.1854,-6.9794 1.0826,-9.1008 -1.0024,-20.6739 -0.3675,-2.0407 -0.8889,-4.9446 -1.1585,-6.453 -1.0084,-5.642 -2.2677,-10.1403 -5.6007,-20.0041 -0.5096,-1.5084 -1.9679,-6.082 -3.2405,-10.1634 -1.2728,-4.0816 -2.8923,-9.2359 -3.5992,-11.4541 -0.7068,-2.2182 -1.5756,-4.9768 -1.9307,-6.1302 -0.3549,-1.1535 -1.0551,-3.3313 -1.556,-4.8398 -0.5007,-1.5084 -1.7368,-5.3559 -2.747,-8.5502 -4.8535,-15.3495 -4.5112,-14.6485 -8.062,-16.5086 -3.6671,-1.921 -7.9252,-0.4484 -10.1137,3.4978 -1.2571,2.2665 -1.2536,2.6466 0.1227,13.3336 0.2515,1.952 0.5364,4.275 0.6335,5.1623 0.096,0.8872 0.382,3.2104 0.6333,5.1624 0.2512,1.952 0.7652,6.0173 1.1422,9.034 0.3769,3.0169 0.8943,7.0097 1.1495,8.8729 0.2552,1.8633 0.5427,4.259 0.6386,5.3237 0.096,1.0647 0.4004,3.3152 0.6764,5.001 0.7347,4.4893 0.6589,6.1807 -0.3547,7.9103 -0.9708,1.6565 -2.0411,2.315 -4.0693,2.504 l -1.4295,0.1332 -0.1614,30.1368 c -0.1497,27.9823 -0.2019,30.2112 -0.7293,31.1761 -0.7413,1.3562 -1.7464,2.3 -3.1424,2.9512 -1.0024,0.4675 -3.8286,0.5449 -25.152,0.688 l -24.0225,0.1614 2.0825,1.3456 c 3.9389,2.5451 11.3698,6.5238 15.2732,8.1774 2.1503,0.9109 4.3452,1.8477 4.8776,2.0818 0.891,0.3917 2.0181,0.7403 7.421,2.295 1.0646,0.3064 3.4603,0.6131 5.3237,0.6816 3.7601,0.1381 5.3772,0.6863 5.6889,1.9285 0.2938,1.1704 -0.144,2.3515 -1.0194,2.7504 -0.4387,0.1999 -0.7978,0.4671 -0.7978,0.5938 0,0.3144 6.248,6.3846 11.9766,11.6359 2.5942,2.3781 4.8808,4.6574 5.0815,5.065 0.5972,1.2131 0.4304,2.2256 -0.4852,2.9459 -1.2583,0.9898 -2.1255,0.8273 -4.0406,-0.757 z m -3.5625,-44.4548 c 0.2743,-0.2744 0.3871,-2.2012 0.3871,-6.6143 v -6.2271 h -44.5255 -44.5255 v 6.4261 c 0,4.8389 0.1,6.4662 0.4033,6.5887 0.2219,0.089 20.0841,0.1743 44.1384,0.1883 33.6144,0.02 43.8246,-0.064 44.1222,-0.3617 z m -51.2366,-3.8073 c -0.789,-0.789 -0.8432,-2.4289 -0.1048,-3.1688 0.4479,-0.4489 1.4569,-0.5692 5.8884,-0.7029 2.9412,-0.088 5.6584,-0.037 6.0381,0.1162 0.7006,0.2817 1.4068,1.453 1.4068,2.3335 0,0.2658 -0.3564,0.8397 -0.792,1.2754 -0.7788,0.7788 -0.8826,0.7919 -6.2916,0.7919 -5.0694,0 -5.5501,-0.051 -6.1449,-0.6453 z m 51.6237,-78.4034 v -64.5296 h -44.5255 -44.5255 v 23.8327 23.8327 l 1.8759,0.684 c 5.2033,1.8972 9.0278,8.2628 8.1482,13.5623 -0.4064,2.4483 -1.4829,5.689 -2.4219,7.2914 -0.79,1.3478 -3.2203,3.8001 -4.7775,4.8204 l -0.8698,0.5699 1.927,1.2869 c 5.3493,3.5721 7.0675,9.0396 4.9689,15.8113 -1.3527,4.3648 -3.9168,7.4819 -7.3729,8.9634 -0.8312,0.3563 -1.4779,0.8485 -1.4779,1.1249 0,0.2703 0.5445,0.8355 1.21,1.2559 1.9197,1.213 3.5776,3.1087 4.6938,5.3671 0.9676,1.9579 1.0326,2.3057 1.023,5.485 -0.013,4.5141 -0.8622,6.4985 -4.075,9.5293 -1.2202,1.151 -2.361,2.0928 -2.5352,2.0928 -0.1741,0 -0.3166,0.7985 -0.3166,1.7746 v 1.7746 h 44.5255 44.5255 z m -71.9345,43.9035 c -0.5863,-0.4505 -0.7905,-0.915 -0.7905,-1.7979 0,-0.8831 0.2042,-1.3475 0.7905,-1.7981 0.7534,-0.579 1.6767,-0.6075 19.6655,-0.6075 17.9887,0 18.912,0.029 19.6654,0.6075 0.5863,0.4506 0.7905,0.915 0.7905,1.7981 0,0.8829 -0.2042,1.3474 -0.7905,1.7979 -0.7534,0.579 -1.6767,0.6075 -19.6654,0.6075 -17.9888,0 -18.9121,-0.029 -19.6655,-0.6075 z m 51.0186,-0.1248 c -0.932,-0.992 -0.9119,-2.4923 0.046,-3.3915 0.6751,-0.6343 1.0939,-0.7015 4.3703,-0.7015 3.4173,0 3.669,0.045 4.4158,0.7919 0.4356,0.4356 0.792,1.1682 0.792,1.628 0,0.4597 -0.3564,1.1923 -0.792,1.6279 -0.7479,0.7479 -0.9957,0.7919 -4.4609,0.7919 -3.4179,0 -3.7169,-0.052 -4.3705,-0.7467 z m -51.0186,-15.0396 c -0.5863,-0.4506 -0.7905,-0.915 -0.7905,-1.798 0,-0.883 0.2042,-1.3475 0.7905,-1.798 0.7532,-0.5789 1.6847,-0.6078 19.7608,-0.6147 l 18.9703,-0.01 0.8279,0.828 c 0.6707,0.6707 0.7893,1.0232 0.6244,1.8552 -0.4436,2.2362 0.4569,2.1421 -20.5179,2.1421 -17.9888,0 -18.9121,-0.029 -19.6655,-0.6075 z m 51.0186,-0.125 c -0.932,-0.9918 -0.9119,-2.4922 0.046,-3.3913 0.6751,-0.6343 1.0939,-0.7015 4.3703,-0.7015 3.4173,0 3.669,0.045 4.4158,0.7918 0.4356,0.4357 0.792,1.1682 0.792,1.628 0,0.4597 -0.3564,1.1923 -0.792,1.6279 -0.7479,0.748 -0.9957,0.7919 -4.4609,0.7919 -3.4179,0 -3.7169,-0.052 -4.3705,-0.7468 z m -50.74,-14.8312 c -0.8341,-0.6403 -1.2926,-1.7747 -1.0723,-2.6525 0.4567,-1.8195 -0.076,-1.7737 20.5456,-1.7737 h 18.9792 l 0.8279,0.8281 c 0.6707,0.6707 0.7893,1.0231 0.6244,1.8552 -0.4437,2.2365 0.4575,2.1425 -20.5179,2.1391 -14.338,0 -18.998,-0.097 -19.3869,-0.3962 z m 50.8886,-0.2552 c -1.0983,-0.8638 -1.1678,-2.5593 -0.1441,-3.5131 0.6269,-0.5839 1.1283,-0.6579 4.4608,-0.6579 3.5077,0 3.801,0.049 4.4564,0.7468 0.9306,0.9906 0.8943,2.3164 -0.091,3.3011 -0.7439,0.744 -1.0049,0.7919 -4.3122,0.7919 -3.0729,0 -3.6284,-0.084 -4.3705,-0.6688 z m -50.8886,-14.9093 c -0.8341,-0.6403 -1.2926,-1.7747 -1.0723,-2.6524 0.4567,-1.8195 -0.076,-1.7737 20.5456,-1.7737 h 18.9792 l 0.7918,0.792 c 0.4356,0.4355 0.792,1.0095 0.792,1.2754 0,0.9066 -0.7149,2.0552 -1.5026,2.4141 -1.173,0.5344 -37.8342,0.4818 -38.5337,-0.056 z m 50.8886,-0.2551 c -1.0652,-0.8379 -1.1657,-2.565 -0.2048,-3.5256 0.5732,-0.5732 1.0754,-0.6454 4.4936,-0.6454 3.7731,0 3.8615,0.017 4.5172,0.8501 0.9045,1.1499 0.841,2.2475 -0.1851,3.1984 -0.7958,0.7375 -1.0883,0.7912 -4.3123,0.7912 -3.0104,0 -3.5687,-0.087 -4.3086,-0.6687 z m -54.0309,-17.501 c -0.7015,-0.7467 -0.7016,-0.7487 -0.7016,-17.2906 v -16.5439 l 0.726,-0.6056 c 0.6987,-0.5828 1.8774,-0.606 31.402,-0.6163 l 30.676,-0.011 0.7016,0.7468 c 0.7012,0.7464 0.7015,0.7534 0.7015,17.1149 v 16.3683 l -0.7919,0.792 -0.792,0.7919 h -30.61 -30.61 z m 58.6658,-17.3215 v -13.2286 h -27.2638 -27.2638 v 13.2286 13.2285 h 27.2638 27.2638 z m -75.1103,93.1164 c 1.6897,-0.815 2.8078,-2.0202 3.7327,-4.0231 0.665,-1.4403 0.7728,-2.0678 0.6398,-3.7251 -0.1899,-2.3659 -0.8021,-3.663 -2.5114,-5.3219 -1.3816,-1.3409 -4.3805,-2.6119 -6.1555,-2.6091 -3.3513,0.01 -5.456,1.7008 -6.8433,5.5123 -1.4831,4.0748 -1.0564,6.6736 1.4478,8.8172 2.3637,2.0232 6.9652,2.6641 9.6899,1.3497 z m 1.7078,-24.9651 c 2.4934,-1.2646 3.3094,-2.2802 4.6661,-5.808 1.406,-3.6557 0.5236,-7.9452 -2.0359,-9.8975 -1.4805,-1.1293 -5.6216,-2.7415 -7.6624,-2.9832 -3.2101,-0.3802 -6.1534,1.7299 -7.2407,5.1909 -0.2848,0.9067 -0.6458,1.9389 -0.8022,2.2938 -1.4946,3.3913 -1.081,6.8457 1.055,8.8114 1.2204,1.1229 5.2992,2.6967 7.6643,2.9573 2.2914,0.2523 2.9006,0.1733 4.3558,-0.5647 z m 95.8108,-15.2438 c -0.022,-2.036 -0.4713,-6.2043 -0.9555,-8.8661 -0.4006,-2.2022 -0.4117,-2.105 -0.4458,3.8987 -0.019,3.3865 0.067,6.259 0.1914,6.3834 0.1244,0.1245 0.4511,0.1819 0.7259,0.1277 0.3651,-0.072 0.4955,-0.4877 0.484,-1.5437 z m -95.5716,-11.0298 c 2.9855,-1.2801 4.9932,-4.6871 5.3264,-9.0385 0.1451,-1.8948 0.057,-2.3913 -0.7003,-3.9388 -1.1823,-2.4164 -2.8104,-3.6116 -6.7289,-4.9397 -3.7557,-1.2727 -4.6911,-1.2326 -7.1035,0.3051 -1.749,1.1147 -2.0979,1.6851 -3.6433,5.9542 -1.7235,4.7611 -1.3475,7.616 1.2657,9.6092 0.9115,0.6953 4.8008,2.2511 7.1502,2.8603 0.9583,0.2485 2.7086,-0.072 4.4337,-0.8118 z m -4.595,-39.3978 v -10.7487 l -2.1779,-1.2374 c -5.6105,-3.1878 -5.5797,-3.1749 -7.9605,-3.3277 -2.0301,-0.1303 -2.5349,-0.038 -4.399,0.8076 -2.2191,1.0062 -3.5179,2.332 -4.6693,4.7667 -0.9071,1.9178 -0.8367,5.6661 0.1424,7.5822 0.7359,1.4403 2.823,3.8718 3.3235,3.8718 0.1433,0 1.5516,0.7986 3.1294,1.7745 1.5779,0.9761 2.945,1.7746 3.038,1.7746 0.093,0 1.3778,0.7426 2.8548,1.6503 1.477,0.9075 2.9759,1.7842 3.3308,1.9479 0.3549,0.1638 1.2261,0.6529 1.9359,1.087 0.7098,0.434 1.3269,0.7917 1.3712,0.7945 0.044,0 0.081,-4.8315 0.081,-10.7433 z m 93.8264,-38.0872 c 0.082,-2.4632 0.026,-2.7877 -0.5442,-3.0929 -0.96,-0.5139 -87.3612,-0.5099 -87.9804,0 -0.3289,0.2729 -0.458,1.1417 -0.458,3.0808 v 2.7007 l 21.2141,0.082 c 11.6677,0.046 31.6679,0.059 44.4448,0.03 l 23.2307,-0.054 z m 35.507,198.3274 c -0.2951,-0.078 -0.7637,-0.6207 -1.0413,-1.2056 -0.4639,-0.9777 -0.4531,-1.3738 0.1323,-4.9022 0.3504,-2.1112 0.6374,-4.3899 0.6379,-5.0639 0,-0.9099 0.2208,-1.429 0.8547,-2.0165 1.0434,-0.9671 2.014,-1.0049 3.1358,-0.1225 0.9629,0.7573 1.0476,1.5598 0.5361,5.0768 -0.1727,1.1876 -0.456,3.2483 -0.6293,4.5792 -0.2589,1.9861 -0.4661,2.55 -1.1559,3.1458 -0.8122,0.7015 -1.3363,0.8094 -2.4703,0.5089 z m -355.2301,-29.1912 c -0.6705,-0.6705 -0.6869,-0.872 -0.5109,-6.3172 0.1525,-4.7206 0.2719,-5.7243 0.7426,-6.2444 0.7921,-0.8752 2.7178,-0.8309 3.4981,0.081 0.5543,0.6475 0.583,1.1273 0.3799,6.3723 -0.2009,5.1864 -0.2767,5.7206 -0.8862,6.2368 -0.9102,0.771 -2.3832,0.7125 -3.2235,-0.1279 z m 2.9878,-29.3385 c -0.9146,-0.5562 -1.0047,-0.7595 -1.0047,-2.2669 0,-1.6977 1.4607,-9.2891 2.5784,-13.4005 0.3442,-1.2664 0.706,-2.7567 0.8038,-3.3119 0.8224,-4.6687 2.8983,-6.6869 4.86,-4.7251 0.9629,0.9628 0.9773,1.5017 0.1289,4.8323 -0.3647,1.4318 -0.942,3.6921 -1.2829,5.023 -0.3409,1.331 -1.063,4.6704 -1.6046,7.4209 -0.5415,2.7507 -1.1466,5.3208 -1.3445,5.7117 -0.574,1.1335 -1.9366,1.445 -3.1344,0.7165 z m 49.804,-10.0165 c -0.7144,-0.161 -1.6931,-0.6583 -2.175,-1.1051 -1.8868,-1.7496 -1.8748,-1.6539 -1.8892,-15.0794 l -0.013,-12.3333 -2.3129,-0.5776 c -6.0425,-1.509 -10.8114,-5.298 -13.5559,-10.7706 -0.8171,-1.6291 -1.8159,-4.17 -2.2195,-5.6463 l -0.734,-2.6843 v -28.0704 -28.0703 l 0.7587,-2.4199 c 3.0114,-9.6039 10.2346,-16.2825 19.8675,-18.3695 3.0316,-0.6569 3.7723,-0.6666 50.1087,-0.6617 45.4674,0 47.1312,0.026 50.0276,0.6375 9.4627,1.9974 16.8758,8.7671 19.8009,18.0824 l 0.7563,2.4085 v 27.2638 c 0,29.3732 0.042,28.5749 -1.72,32.7487 -1.0522,2.4927 -3.2192,5.889 -4.9688,7.7872 -2.6094,2.8313 -6.7924,5.634 -10.0889,6.76 -4.5045,1.5388 -4.0852,1.5192 -35.3029,1.6493 l -29.4952,0.1229 -3.1334,2.7133 c -1.7234,1.4923 -3.3327,2.9068 -3.5762,3.1433 -0.2435,0.2364 -1.8946,1.6515 -3.6692,3.1445 -1.7746,1.493 -3.5228,3.013 -3.885,3.3775 -0.3622,0.3646 -1.4511,1.3303 -2.4198,2.146 -4.1026,3.4543 -6.6115,5.6009 -6.7624,5.7855 -0.1449,0.1776 -6.5055,5.6351 -8.309,7.1295 -0.6,0.4971 -3.032,1.3067 -3.629,1.208 -0.089,-0.015 -0.7458,-0.1585 -1.4603,-0.3195 z m 2.8656,-5.3201 c 0.558,-0.4633 1.5953,-1.3775 2.3051,-2.0316 0.7099,-0.6542 2.8151,-2.4714 4.6784,-4.0382 1.8633,-1.5669 3.9686,-3.3785 4.6784,-4.0257 0.7098,-0.6472 2.8151,-2.4766 4.6784,-4.0653 1.8633,-1.5888 3.9686,-3.4181 4.6784,-4.0653 0.7098,-0.647 2.8151,-2.4636 4.6784,-4.0366 1.8633,-1.5729 3.896,-3.3481 4.5171,-3.9449 2.1635,-2.0785 -0.01,-1.9507 32.9414,-1.9394 l 30.1445,0.01 2.8103,-0.9621 c 5.7682,-1.9747 10.1318,-5.7936 12.6091,-11.0353 2.4524,-5.1888 2.318,-3.3547 2.318,-31.6195 v -25.3278 l -0.7331,-2.4198 c -2.2024,-7.2709 -7.2141,-12.6788 -13.7861,-14.8763 -3.6804,-1.2305 -4.7484,-1.2563 -51.8114,-1.2492 -44.4078,0.01 -46.0484,0.028 -48.8547,0.6389 -9.0006,1.9586 -14.9606,8.2675 -16.7571,17.7379 -0.7605,4.0086 -0.7509,48.4012 0.011,52.7323 1.4661,8.3312 5.0403,13.3873 10.9888,15.5449 1.2073,0.4379 2.8594,0.7772 3.7877,0.7779 1.0718,6e-4 2.0125,0.2243 2.6951,0.6405 l 1.0486,0.6394 v 13.2545 c 0,12.9153 0.111,14.5026 1.0135,14.5026 0.1899,0 0.8018,-0.379 1.3598,-0.8422 z m 38.9257,-45.3935 c -1.3735,-0.6908 -1.7368,-1.8925 -1.1675,-3.8622 0.2682,-0.9278 0.6347,-2.5581 0.8145,-3.6228 0.1799,-1.0648 0.7008,-3.6782 1.1578,-5.8078 0.4569,-2.1294 1.0363,-4.8881 1.2873,-6.1302 0.2511,-1.2423 0.832,-4.0009 1.2908,-6.1304 0.4589,-2.1294 0.9107,-4.4444 1.004,-5.1445 0.093,-0.6999 0.2327,-1.3746 0.3097,-1.4992 0.1236,-0.2001 1.4861,-6.5734 1.9595,-9.166 0.097,-0.5324 0.609,-3.0006 1.1373,-5.485 0.5283,-2.4845 1.0433,-5.0253 1.1443,-5.6464 0.2247,-1.3811 0.8235,-2.1113 2.0945,-2.5544 0.8637,-0.3011 1.068,-0.2368 1.9045,0.5998 1.0067,1.0067 1.1032,1.56 0.6393,3.667 -0.6405,2.9083 -1.3437,6.2305 -1.4818,6.9991 -0.08,0.4436 -0.3654,1.823 -0.6349,3.0652 -0.2695,1.2422 -1.2919,6.1787 -2.2718,10.9701 -0.98,4.7913 -2.0644,10.0181 -2.4098,11.6152 -0.3453,1.5972 -0.849,3.9928 -1.1191,5.3237 -2.3364,11.5093 -2.413,11.8226 -3.0226,12.3571 -0.8405,0.737 -1.7566,0.894 -2.636,0.4517 z m -18.4136,-7.8814 c -0.7861,-0.6616 -1.5019,-1.2872 -1.5906,-1.3903 -0.089,-0.1029 -1.3955,-1.1926 -2.9038,-2.4212 -1.5084,-1.2287 -2.8151,-2.3194 -2.9039,-2.4236 -0.1704,-0.2004 -7.65,-6.3699 -11.2593,-9.2872 -3.0591,-2.4725 -3.4065,-2.91 -3.4065,-4.2887 0,-0.9487 0.2015,-1.3598 0.9566,-1.9513 0.5261,-0.4122 1.6201,-1.3302 2.4311,-2.04 0.8109,-0.7098 3.281,-2.7643 5.489,-4.5655 2.2081,-1.8012 4.8131,-3.943 5.7891,-4.7595 0.976,-0.8165 2.8491,-2.3826 4.1623,-3.4804 1.3133,-1.0977 2.745,-2.327 3.1818,-2.7317 1.0252,-0.9501 1.8169,-1.1878 3.1341,-0.9407 1.424,0.2672 2.1378,1.7803 1.4327,3.0366 -0.2557,0.4554 -3.2217,3.128 -6.5911,5.9389 -3.3696,2.811 -6.4163,5.3586 -6.7707,5.6614 -0.3543,0.3026 -1.4997,1.2413 -2.5454,2.086 -2.2475,1.8153 -4.3925,3.7309 -4.3925,3.9228 0,0.075 1.5608,1.4129 3.4685,2.9729 1.9076,1.5601 3.904,3.2286 4.4364,3.7078 0.9181,0.8266 6.0852,5.1015 10.1871,8.428 2.8129,2.2813 3.2386,3.515 1.7038,4.9375 -1.2101,1.1213 -2.3228,1.007 -4.0087,-0.4118 z m 43.6035,0.3528 c -0.6902,-0.8774 -0.8215,-1.603 -0.4602,-2.5442 0.1745,-0.4549 8.9095,-7.8774 18.1455,-15.4191 1.2625,-1.0308 2.2854,-1.9745 2.2731,-2.0971 -0.022,-0.2171 -0.7514,-0.8364 -6.9134,-5.8692 -5.0711,-4.1418 -12.0451,-10.0134 -13.1256,-11.0507 -1.3711,-1.3164 -0.1345,-3.7911 1.8944,-3.7911 1.0842,0 1.0902,0.01 11.9375,9.0247 13.4245,11.1631 13.3157,11.0473 12.1308,12.9187 -0.3181,0.5024 -1.9576,2.0288 -3.6432,3.3919 -1.6856,1.3631 -3.7907,3.0996 -4.678,3.8588 -0.8873,0.7593 -2.7302,2.3052 -4.0953,3.4355 -1.3652,1.1302 -3.9583,3.2891 -5.7624,4.7975 -1.8042,1.5084 -3.7321,3.0692 -4.2845,3.4685 -1.3592,0.9827 -2.5829,0.9383 -3.4187,-0.1242 z m -105.7911,28.5852 c -1.3149,-1.225 -1.1814,-1.7288 2.6872,-10.1423 1.1616,-2.5264 2.8713,-3.1959 4.294,-1.6816 1.1631,1.2381 1.023,1.861 -1.7912,7.9647 -0.4501,0.9761 -1.0211,2.2516 -1.2691,2.8347 -0.7092,1.6677 -2.6783,2.1823 -3.9209,1.0245 z m 120.9373,-104.4306 c -0.785,-0.9979 -0.6662,-2.2033 0.2977,-3.023 0.3289,-0.2797 1.7384,-0.7615 3.1321,-1.0705 1.3937,-0.309 3.6604,-0.8499 5.0369,-1.2019 2.1365,-0.5461 2.6314,-0.5783 3.3803,-0.2193 1.0916,0.5232 1.6133,1.869 1.1941,3.0809 -0.3375,0.9758 -1.2554,1.333 -6.7546,2.6292 -4.0422,0.9527 -5.417,0.9099 -6.2865,-0.1954 z m 77.7433,-1.1766 c -0.084,-0.082 -0.9502,-0.2346 -1.9262,-0.3403 -3.428,-0.371 -7.7529,-1.3462 -8.3903,-1.8919 -1.2347,-1.0572 -0.4703,-3.6638 1.1307,-3.8561 0.9058,-0.1088 4.7493,0.3649 7.3686,0.9081 1.2135,0.2517 2.3264,0.3833 2.4732,0.2925 0.1469,-0.09 0.7149,0.2119 1.2622,0.6725 1.1478,0.9657 1.3166,2.2647 0.4307,3.3117 -0.5413,0.6396 -2.0323,1.2133 -2.3489,0.9035 z m -48.8476,-2.8603 c -1.5953,-0.8928 -1.2342,-3.5272 0.5596,-4.0825 1.4525,-0.4495 13.5764,-1.1121 17.7185,-0.9683 3.0415,0.1057 3.5459,0.206 4.1676,0.8283 0.9257,0.9266 0.9266,2.4963 0,3.4209 -0.6306,0.6307 -1.0893,0.7135 -4.3289,0.7816 -12.3846,0.2602 -17.6789,0.2661 -18.1187,0.02 z"
       id="path4382"
       sodipodi:nodetypes="ssssssssccssscssscssscccsssscssssssscsssssscssscssssssssssscccssssssssssscscsscsccccsssssscsssscsscssscsscccssscccsscccssccscscccssscccccscccccssscccsccssssccccccccscccccssscccscsccsssccssscsssssssscsssssssscsccsssscccsccsscssssscsssssssssssssssssssscccssssssscsssscssssssscccssscsssssssssssssssssssssscsssssssssssscsssssssscssccsssscccccccsscccsssscccccsssssssssssssssssssssssssssscsscssssscssssscsccscssssssscssssssscccsscccssssssssssssssscsssssccssccsscssscssssssssssssssssssssscssssssssssssscssssssssssscsssscsssssssssssccsscccssssscsssssscsccccsssscssssssssssccccsssssssssscssssssscssccsssccscssssssscsscssccssssssssssscsssssssssssssccsscsscccccscscccccccsssscsssscssssssscscsscsssssssssssssssssssssscsssssccccsssscssssssssssssssssssssssssssscssscccssccscssssscssssssscsssssssssscssscssccssscscssssssssssssssssssssscsssssssssssssssssscssssssssscssscsssssssssssssssssssssssssssssssssscssss"
       inkscape:label="frontend" /></g></svg>
