<?xml version="1.0" encoding="UTF-8" standalone="no"?>
<!-- Created with Inkscape (http://www.inkscape.org/) -->

<svg
   width="400.00012"
   height="371.67236"
   viewBox="0 0 400.00012 371.67236"
   version="1.1"
   id="svg5"
   xml:space="preserve"
   inkscape:version="1.2.2 (732a01da63, 2022-12-09)"
   sodipodi:docname="icons-design.svg"
   xmlns:inkscape="http://www.inkscape.org/namespaces/inkscape"
   xmlns:sodipodi="http://sodipodi.sourceforge.net/DTD/sodipodi-0.dtd"
   xmlns="http://www.w3.org/2000/svg"
   xmlns:svg="http://www.w3.org/2000/svg"><sodipodi:namedview
     id="namedview7"
     pagecolor="#505050"
     bordercolor="#eeeeee"
     borderopacity="1"
     inkscape:showpageshadow="0"
     inkscape:pageopacity="0"
     inkscape:pagecheckerboard="0"
     inkscape:deskcolor="#505050"
     inkscape:document-units="px"
     showgrid="false"
     showguides="true"
     inkscape:zoom="1.7824983"
     inkscape:cx="1593.5499"
     inkscape:cy="226.64818"
     inkscape:window-width="2560"
     inkscape:window-height="1057"
     inkscape:window-x="1072"
     inkscape:window-y="496"
     inkscape:window-maximized="1"
     inkscape:current-layer="layer1" /><defs
     id="defs2" /><g
     inkscape:label="Capa 1"
     inkscape:groupmode="layer"
     id="layer1"
     transform="translate(-1032.6101,-905.69543)"><path
       style="fill:#000000;stroke-width:0.298;stroke-dasharray:none"
       d="m 1153.641,1277.1553 c -0.8199,-0.1277 -1.8666,-0.3799 -2.326,-0.5606 -0.4594,-0.1807 -1.2317,-0.3984 -1.7162,-0.4838 -2.6022,-0.4584 -7.6196,-3.3866 -10.0331,-5.8553 -3.2135,-3.2869 -4.7861,-5.8288 -6.3478,-10.2607 -0.8191,-2.3244 -0.9594,-3.18 -1.0998,-6.7074 -0.1466,-3.6813 -0.092,-4.3092 0.6071,-7.0174 0.9144,-3.5409 1.6156,-5.2192 3.3619,-8.046 0.7177,-1.1616 1.3048,-2.1943 1.3048,-2.2947 0,-0.1005 0.9816,-1.8334 2.1814,-3.8509 2.0211,-3.3989 4.7538,-8.1362 5.2976,-9.184 0.1277,-0.246 0.9262,-1.6295 1.7744,-3.0746 0.8483,-1.445 1.4947,-2.6542 1.4366,-2.6872 -0.058,-0.033 -0.8437,-0.3053 -1.7456,-0.6052 -5.3902,-1.7925 -9.3227,-4.707 -12.2441,-9.0749 -0.8089,-1.2093 -1.4707,-2.3793 -1.4707,-2.5998 0,-0.2205 -0.1887,-0.5896 -0.4193,-0.8202 -0.4736,-0.4736 -1.5334,-4.2627 -1.9211,-6.8685 -0.3946,-2.6514 0.1716,-6.9047 1.3322,-10.0084 0.8479,-2.2676 0.8745,-2.7412 0.1883,-3.3538 -0.287,-0.2562 -2.0391,-2.0272 -3.8936,-3.9355 -1.8546,-1.9084 -3.4983,-3.5479 -3.6527,-3.6434 -0.1545,-0.095 -1.2534,0.1568 -2.4421,0.5606 -3.0976,1.0523 -3.8533,1.1687 -7.4383,1.1452 -3.6977,-0.024 -5.8022,-0.506 -9.3615,-2.1429 -5.8202,-2.6768 -9.7872,-7.2499 -11.8962,-13.7137 -0.4548,-1.3939 -0.8686,-2.5831 -0.9197,-2.6428 -0.051,-0.06 -0.5359,0.1579 -1.0775,0.4837 -0.5415,0.3257 -2.5946,1.4334 -4.5624,2.4614 -1.9678,1.0281 -6.1561,3.259 -9.3073,4.9575 -3.1512,1.6986 -5.8228,3.0883 -5.9368,3.0883 -0.114,0 -0.8228,0.3664 -1.5751,0.8141 -3.8435,2.2873 -10.3077,3.661 -14.4963,3.0806 -7.208,-0.9987 -11.9519,-3.3695 -16.5114,-8.2517 -2.323,-2.4875 -3.9098,-5.313 -5.2555,-9.3578 -0.7796,-2.3433 -0.8446,-2.8937 -0.8628,-7.3046 -0.018,-4.235 0.058,-5.0046 0.6762,-6.8574 1.1392,-3.4166 2.5988,-6.2038 4.4699,-8.5359 2.6538,-3.3075 4.2485,-4.6649 9.093,-7.74 7.8055,-4.9547 12.3218,-7.8456 18.9848,-12.1523 1.8858,-1.2189 4.0324,-2.5946 4.7704,-3.057 0.7379,-0.4624 1.7441,-1.118 2.2361,-1.4569 1.0484,-0.7222 1.816,-1.215 6.4102,-4.1154 3.8894,-2.4555 3.4914,-2.2006 7.7772,-4.9815 1.769,-1.1478 4.393,-2.8249 5.831,-3.7268 1.438,-0.9019 3.4254,-2.1811 4.4166,-2.8427 0.9911,-0.6615 2.9424,-1.6873 4.3363,-2.2795 6.227,-2.6458 10.5182,-3.3752 16.6164,-2.8248 l 3.3488,0.3024 2.0178,-2.0675 c 3.9245,-4.021 6.9456,-6.662 8.3492,-7.2987 0.8676,-0.3936 2.2671,-0.6985 3.5954,-0.7832 1.9591,-0.125 2.3673,-0.049 4.117,0.7701 1.2844,0.6011 2.4665,1.4659 3.49,2.5535 0.8513,0.9046 3.6621,3.815 6.2462,6.4677 5.8296,5.9843 6.3165,6.828 6.1247,10.6142 -0.094,1.8562 -0.3101,2.9493 -0.7511,3.7987 -0.3405,0.6559 -2.467,3.0298 -4.7255,5.2754 l -4.1064,4.0829 6.8059,7.0977 c 3.7433,3.9037 9.7137,10.0494 13.2677,13.657 3.554,3.6076 9.7958,10.0476 13.8707,14.3111 4.0748,4.2635 9.5377,9.9249 12.1397,12.5809 l 4.7309,4.829 3.0084,-2.8911 c 1.6546,-1.59 3.4007,-3.3124 3.8803,-3.8275 2.4048,-2.5832 7.084,-3.2963 10.5402,-1.6065 1.51,0.7384 2.8053,1.9219 7.9458,7.2603 3.3779,3.508 6.3543,6.7894 6.6142,7.292 1.3163,2.5454 1.582,5.2273 0.7649,7.7199 -0.5632,1.7181 -0.8357,2.0469 -5.6693,6.8399 l -4.4758,4.4383 0.1885,3.5778 c 0.2934,5.5675 -0.5464,9.7936 -3.0805,15.5037 -0.915,2.0617 -2.8262,5.3552 -3.3738,5.8139 -0.156,0.1307 -1.249,1.7112 -5.979,8.6463 -0.6152,0.9019 -2.2782,3.3169 -3.6956,5.3667 -1.4174,2.0498 -3.0353,4.3977 -3.5952,5.2176 -0.5599,0.8199 -2.057,2.9871 -3.3267,4.8159 -1.2698,1.8289 -3.2479,4.7135 -4.3958,6.4102 -1.1478,1.6968 -2.2328,3.2404 -2.4111,3.4304 -0.1782,0.1899 -0.7776,1.062 -1.3319,1.938 -0.5543,0.8759 -1.0901,1.6596 -1.1908,1.7416 -0.1006,0.082 -0.717,0.9541 -1.3696,1.938 -0.6527,0.9839 -1.8398,2.728 -2.6381,3.8759 -0.7982,1.1479 -2.4671,3.5824 -3.7086,5.4099 -3.6661,5.3968 -6.8316,8.4158 -11.0615,10.5497 -4.6345,2.338 -10.3016,3.3648 -14.7495,2.6725 z m 7.6851,-4.1448 c 0.4552,-0.174 1.1801,-0.3803 1.6108,-0.4584 1.5146,-0.2747 5.174,-2.2344 7.2189,-3.8659 2.3125,-1.8452 3.8152,-3.6554 7.4158,-8.9336 2.5413,-3.7253 5.5073,-8.0384 9.4566,-13.7516 1.2469,-1.8038 2.7719,-4.0176 3.3888,-4.9195 0.6169,-0.9019 2.0484,-2.9815 3.1811,-4.6213 3.6624,-5.3022 5.5233,-8.0246 6.3178,-9.2426 0.4279,-0.6559 1.2276,-1.7838 1.7772,-2.5064 0.5496,-0.7227 0.959,-1.3542 0.9097,-1.4034 -0.049,-0.049 -1.4928,0.377 -3.208,0.9472 -4.4474,1.4783 -9.3302,2.0768 -13.254,1.6244 -7.6623,-0.8833 -14.1887,-4.0902 -19.202,-9.4354 l -2.2865,-2.4378 -1.1825,0.7158 c -1.4788,0.8953 -5.2215,2.1537 -6.9964,2.3526 -3.3822,0.3788 -4.1741,0.5281 -4.1741,0.7866 0,0.1526 -0.5163,1.1128 -1.1474,2.1336 -1.0289,1.6646 -5.6169,9.5704 -7.5656,13.0367 -1.7828,3.1713 -2.9822,5.238 -3.2011,5.5158 -0.8134,1.0319 -2.7737,5.2041 -3.5252,7.5027 -0.8124,2.4847 -0.8821,3.0249 -0.8257,6.4008 0.069,4.1192 0.5586,6.141 2.3485,9.6942 1.0048,1.9944 3.3736,4.929 5.3359,6.6103 2.3527,2.0158 5.7574,3.5303 9.9223,4.4136 1.9888,0.4218 6.4055,0.3308 7.6851,-0.1584 z m 30.4577,-51.0423 c 1.4869,-0.1815 3.3073,-0.5294 4.0452,-0.7731 0.7379,-0.2437 1.6569,-0.5028 2.0422,-0.5757 1.0561,-0.1998 4.469,-1.9859 6.657,-3.4839 2.1501,-1.472 4.0418,-3.2426 5.6177,-5.258 1.1549,-1.4768 1.2697,-1.6682 2.7907,-4.6504 3.7874,-7.4259 3.745,-15.9937 -0.1175,-23.7072 -1.9412,-3.8766 -3.2005,-5.4506 -7.1451,-8.9309 -1.4575,-1.286 -5.5265,-3.4476 -8.1105,-4.3086 -1.1999,-0.3998 -3.5131,-0.9515 -5.1403,-1.2259 -2.4958,-0.4209 -3.3585,-0.4448 -5.5157,-0.1527 -3.5656,0.4829 -6.606,1.3597 -9.519,2.745 -3.2864,1.5629 -5.0031,2.8737 -8.2957,6.3341 -1.6564,1.7407 -2.9677,2.8746 -3.3243,2.8746 -0.3239,0 -1.3067,-0.487 -2.1841,-1.0822 -4.2879,-2.909 -9.3109,-4.1036 -13.6703,-3.2512 -2.9844,0.5836 -3.7383,0.823 -5.6675,1.8001 -5.0528,2.5589 -8.0704,6.5026 -9.6957,12.6711 -1.9772,7.5037 2.2771,16.6394 9.4533,20.3005 3.2445,1.6552 4.3803,1.9029 8.7423,1.907 3.7066,0 4.3912,-0.078 6.1121,-0.7255 2.0751,-0.7809 4.8556,-2.2941 5.0188,-2.7313 0.055,-0.1464 0.6139,-0.2662 1.2427,-0.2662 1.0622,0 1.2655,0.1534 2.8651,2.1616 4.9618,6.2292 12.4339,10.1226 20.3699,10.6139 0.3988,0.025 1.9418,-0.1036 3.4287,-0.2851 z m 6.7285,-8.8177 c -2.9018,-1.0131 -4.267,-2.4814 -5.0651,-5.4478 -1.0206,-3.7936 1.9648,-8.0935 5.9468,-8.5651 1.4283,-0.1692 4.485,0.3616 4.485,0.7788 0,0.1199 0.3499,0.4053 0.7776,0.6342 0.4276,0.2289 1.1875,1.012 1.6886,1.7403 0.8394,1.22 0.9123,1.5274 0.9269,3.9062 0.015,2.4833 -0.024,2.6368 -1.0178,4.014 -1.3799,1.9117 -3.6736,3.1515 -5.7707,3.1191 -0.8382,-0.013 -1.7253,-0.094 -1.9713,-0.1797 z m 3.5107,-4.2703 c 2.6506,-1.616 1.4668,-5.9617 -1.6241,-5.9617 -3.1862,0 -4.4781,4.3405 -1.7813,5.985 1.1987,0.7309 2.1795,0.7242 3.4054,-0.023 z m -24.1716,3.7454 c -3.406,-1.215 -4.7845,-3.2511 -4.7698,-7.0453 0.01,-2.0853 0.087,-2.3698 1.0385,-3.7268 1.5098,-2.154 3.0709,-2.9207 5.9467,-2.9207 2.0359,0 2.4743,0.1036 3.7344,0.8827 0.8724,0.5393 1.7779,1.449 2.3278,2.3385 0.8026,1.2982 0.8977,1.7008 0.878,3.719 -0.026,2.6921 -0.4497,3.6511 -2.351,5.3248 -1.9801,1.7429 -4.4614,2.2636 -6.8046,1.4278 z m 4.1603,-4.1945 c 0.3708,-0.2429 0.8269,-0.9518 1.0137,-1.5752 0.9782,-3.2647 -3.0847,-5.6399 -5.4103,-3.163 -0.5645,0.6012 -0.714,1.0753 -0.6972,2.2115 0.024,1.6052 0.4365,2.2763 1.7674,2.8737 1.0042,0.4506 2.3183,0.3136 3.3264,-0.347 z m -30.5365,-2.5497 c -3.6372,-0.7148 -6.5526,-2.9269 -8.0307,-6.0934 -0.7438,-1.5936 -0.8336,-2.1144 -0.8224,-4.7704 0.011,-2.6548 0.1021,-3.1541 0.8301,-4.557 1.631,-3.1432 4.3966,-5.1126 7.9527,-5.6631 4.2537,-0.6586 8.1505,0.9365 10.4489,4.2771 0.9321,1.3548 1.2074,2.1036 1.7974,4.8898 0.9159,4.3244 -2.4618,9.8508 -6.887,11.268 -2.5128,0.8048 -3.7338,0.9546 -5.289,0.649 z m 3.8544,-4.2737 c 3.2295,-1.1535 5.0232,-4.5088 4.2313,-7.9153 -0.4457,-1.9173 -1.0796,-2.8548 -2.6688,-3.9471 -2.4823,-1.706 -5.2017,-1.6924 -7.7538,0.039 -1.8065,1.2254 -2.6563,3.0085 -2.6363,5.5318 0.014,1.731 0.1517,2.2992 0.8086,3.3304 1.801,2.827 5.0433,4.0245 8.019,2.9616 z m 43.0607,-8.9971 c -2.4354,-0.8923 -4.3233,-3.1019 -4.7744,-5.5878 -0.4612,-2.5417 1.0084,-5.9646 3.0806,-7.1747 1.6634,-0.9716 3.797,-1.3248 5.5329,-0.916 2.5021,0.5891 3.6084,1.4408 4.6681,3.5932 0.8717,1.7708 0.9298,2.0759 0.7665,4.0246 -0.1491,1.7785 -0.3309,2.3098 -1.161,3.3938 -2.1607,2.8214 -5.0756,3.7796 -8.1127,2.6669 z m 3.5312,-3.6976 c 0.9301,-0.3537 1.9549,-1.9509 1.9564,-3.0494 0,-2.6753 -2.8481,-4.2032 -4.9936,-2.6755 -1.9563,1.393 -1.8252,4.3618 0.2415,5.4701 1.1544,0.6191 1.7053,0.6693 2.7957,0.2548 z m -23.6171,3.4457 c -2.5157,-0.816 -4.4952,-2.9564 -4.9858,-5.3911 -0.3252,-1.6138 -0.2059,-2.6495 0.4938,-4.2853 0.7608,-1.7786 1.5478,-2.6053 3.3572,-3.5262 1.2502,-0.6362 1.7808,-0.73 3.6085,-0.6377 1.7885,0.09 2.3541,0.2546 3.421,0.994 4.4565,3.0884 4.2449,9.842 -0.3816,12.1789 -1.9345,0.9772 -3.8452,1.2085 -5.5131,0.6674 z m 3.7607,-4.1383 c 0.8728,-0.4228 1.5398,-1.6823 1.5398,-2.9076 0,-1.4413 -1.6591,-2.9665 -3.2269,-2.9665 -2.725,0 -4.3637,3.1296 -2.6349,5.032 1.2528,1.3786 2.6517,1.6511 4.322,0.8421 z m 40.2207,-6.4163 c 3.953,-3.7954 4.6728,-5.8216 3.0287,-8.5252 -0.9309,-1.5308 -11.8118,-12.5901 -12.8906,-13.1021 -1.3762,-0.653 -3.2467,-0.6191 -4.6247,0.084 -1.011,0.5158 -7.3741,6.5117 -7.1451,6.7327 0.052,0.05 1.1319,0.627 2.4,1.282 2.8439,1.4691 5.5058,3.3723 7.7598,5.5481 2.4969,2.4102 5.6871,7.3985 7.0879,11.0829 l 0.3066,0.8064 0.6617,-0.6322 c 0.3639,-0.3477 1.901,-1.8221 3.4157,-3.2764 z m -86.5337,-1.8162 c 1.7032,-2.1674 5.6071,-4.8987 8.6463,-6.0493 2.0215,-0.7653 6.5554,-1.719 8.1991,-1.7246 3.0139,-0.01 8.327,1.3959 11.2822,2.9863 l 1.5925,0.857 0.6437,-0.6988 c 0.354,-0.3842 1.0131,-1.1153 1.4647,-1.6246 1.9619,-2.2123 8.8552,-6.4746 11.403,-7.0507 0.4919,-0.1112 1.6324,-0.4466 2.5343,-0.7453 1.9629,-0.65 7.7354,-1.326 8.877,-1.0395 0.4463,0.1121 0.7115,0.092 0.5892,-0.044 -0.1223,-0.1363 -1.1381,-1.187 -2.2573,-2.3348 -1.1191,-1.1479 -5.3792,-5.5695 -9.4668,-9.8258 -4.0876,-4.2563 -8.7065,-9.0291 -10.2644,-10.6063 -1.5578,-1.5772 -6.0521,-6.2119 -9.9872,-10.2993 -12.041,-12.5067 -12.7562,-13.2287 -12.9722,-13.0952 -0.115,0.071 -0.234,1.0322 -0.2643,2.1357 -0.1612,5.8563 -2.7469,12.4917 -6.9048,17.7186 -1.4665,1.8437 -2.026,2.4087 -4.0655,4.1062 l -0.9504,0.7911 0.8475,1.7856 c 2.5161,5.3017 3.1103,10.5126 1.7888,15.6886 -1.151,4.5083 -3.2172,7.995 -6.5865,11.1144 -2.0411,1.8898 -2.1244,2.0176 -1.6286,2.5001 0.2874,0.2797 1.8163,1.8837 3.3974,3.5645 1.5812,1.6808 2.9453,3.0498 3.0314,3.0422 0.086,-0.01 0.5589,-0.526 1.0509,-1.152 z m -16.0449,-6.5971 c 6.2075,-1.9177 10.4522,-5.9758 12.6188,-12.064 0.6343,-1.7824 0.7427,-2.6092 0.7427,-5.6648 0,-2.6912 -0.1366,-3.9841 -0.5515,-5.2176 -0.6009,-1.7865 -1.9584,-4.6686 -2.9017,-6.1605 -0.8838,-1.3977 -0.5226,-2.2629 1.6245,-3.8912 3.221,-2.4429 5.5419,-5.1197 7.0753,-8.1603 0.5306,-1.0522 1.0531,-1.9801 1.1611,-2.0621 0.108,-0.082 0.6469,-1.5578 1.1976,-3.2796 2.58,-8.0672 0.9188,-17.1211 -4.4397,-24.1961 -0.8264,-1.0912 -2.3668,-2.7172 -3.4231,-3.6133 -1.7968,-1.5243 -6.9023,-4.6888 -7.5648,-4.6888 -0.1637,0 -1.536,-0.4081 -3.0494,-0.9068 -2.5748,-0.8485 -3.0189,-0.9041 -6.9117,-0.8648 -3.6359,0.037 -4.5435,0.1522 -7.2014,0.9169 -4.4895,1.2917 -8.1063,3.3852 -11.2596,6.5173 -2.2129,2.1981 -4.751,5.5102 -4.751,6.1999 0,0.1227 -0.3064,0.6904 -0.6811,1.2614 -0.8809,1.3428 -1.9615,4.8072 -2.4489,7.8512 -0.6457,4.0329 -0.276,7.7402 1.283,12.8647 1.201,3.9477 5.0817,9.16 9.0771,12.1919 1.4848,1.1266 1.5132,2.3102 0.1072,4.4539 -2.4199,3.6895 -3.2514,6.4008 -3.2613,10.6348 -0.01,2.4431 0.144,3.6216 0.6819,5.3667 0.3791,1.2299 0.8465,2.4374 1.0387,2.6833 0.1921,0.246 0.5023,0.8071 0.6895,1.247 0.7563,1.7779 4.3455,5.4119 6.6406,6.7235 1.5851,0.9058 5.5986,2.32 7.1474,2.5183 1.8794,0.2407 5.4912,-0.084 7.3598,-0.6609 z m -8.2542,-7.9211 c -2.9113,-0.7797 -5.294,-2.7277 -6.7485,-5.5174 -0.7609,-1.4593 -0.8387,-1.8947 -0.8461,-4.7375 -0.01,-2.8807 0.062,-3.2685 0.8671,-4.858 2.8161,-5.5578 10.0259,-7.551 15.262,-4.2194 1.8512,1.1779 2.6474,1.9928 3.48,3.5616 1.1615,2.1888 1.4596,3.264 1.4878,5.3667 0.063,4.7032 -2.963,8.8548 -7.4962,10.2847 -2.2107,0.6973 -3.7348,0.7276 -6.0061,0.1193 z m 5.8802,-4.3056 c 1.4712,-0.6332 3.0041,-2.6135 3.597,-4.647 1.114,-3.8205 -2.6344,-8.1597 -7.0487,-8.1597 -1.3311,0 -4.2777,1.6388 -5.0159,2.7897 -1.5419,2.4039 -1.6062,5.6593 -0.1533,7.766 1.0561,1.5314 2.0789,2.26 3.8341,2.731 1.6334,0.4383 2.9626,0.305 4.7868,-0.48 z m 7.2506,-25.3896 c -1.9555,-0.301 -2.5092,-0.6438 -5.2885,-3.2745 -1.1805,-1.1173 -2.254,-2.0427 -2.3855,-2.0564 -0.1316,-0.014 -0.5746,-0.071 -0.9846,-0.1263 -1.718,-0.234 -2.7054,0.2113 -4.7136,2.1255 -2.286,2.179 -3.1798,2.6756 -5.3286,2.9607 -3.4343,0.4555 -6.5738,-1.5205 -7.4105,-4.6644 -0.5442,-2.0448 -0.5409,-2.4933 0.033,-4.4262 0.378,-1.2727 0.8986,-2.0139 2.6748,-3.8074 2.3614,-2.3845 2.7678,-3.2979 2.382,-5.3542 -0.1425,-0.7595 -0.7284,-1.6466 -1.92,-2.907 -2.6224,-2.7735 -3.077,-3.6909 -3.086,-6.2276 -0.013,-3.4897 1.5518,-5.6859 4.7314,-6.6428 1.8772,-0.565 2.4729,-0.5355 4.5016,0.2229 1.2418,0.4642 2.1853,1.1164 3.3654,2.3263 2.1491,2.2034 3.1342,2.7929 4.6679,2.7929 1.3536,0 2.305,-0.5812 4.8979,-2.9919 2.4864,-2.3117 5.2896,-2.8563 8.2178,-1.5966 2.7115,1.1664 3.7983,2.9776 3.788,6.3123 -0.01,1.8426 -0.1287,2.4412 -0.6523,3.1766 -0.3549,0.4984 -0.6452,0.9736 -0.6452,1.0561 0,0.082 -0.852,1.002 -1.8933,2.0433 -1.6179,1.6179 -1.9235,2.0952 -2.1015,3.2821 -0.2735,1.8236 0.2282,2.9726 2.1255,4.8678 2.065,2.0627 2.8768,3.7338 2.8968,5.9629 0.04,4.4274 -3.5663,7.6088 -7.8727,6.9459 z m 2.4339,-4.0961 c 1.0569,-0.5266 1.8293,-2.1568 1.5735,-3.321 -0.1113,-0.5069 -0.9658,-1.6891 -1.9833,-2.7439 -2.5187,-2.6111 -3.323,-4.4224 -3.1824,-7.1666 0.1385,-2.7033 0.7432,-3.86 3.4983,-6.6915 1.973,-2.0277 2.1003,-2.2389 1.9968,-3.3135 -0.2126,-2.2075 -1.0582,-3.0179 -3.1487,-3.0179 -1.0974,0 -1.4397,0.2026 -3.3107,1.9598 -2.4825,2.3315 -4.2663,3.2159 -6.536,3.2402 -2.5223,0.027 -4.2881,-0.8147 -6.872,-3.276 -1.2379,-1.1792 -2.5557,-2.2407 -2.9285,-2.359 -1.9375,-0.615 -4.162,1.5187 -3.7799,3.6256 0.147,0.811 0.3798,1.116 2.7054,3.5462 1.7523,1.8311 2.5694,3.8059 2.5694,6.2098 0,2.4316 -1.0523,4.5005 -3.4729,6.8277 -1.6605,1.5964 -2.0083,2.104 -2.1462,3.1321 -0.1486,1.1084 -0.063,1.3286 0.8873,2.2788 0.8184,0.8184 1.2927,1.0518 2.137,1.0518 0.9146,0 1.406,-0.2928 3.1265,-1.8634 3.3265,-3.0365 3.9005,-3.3083 7.0285,-3.3282 2.4516,-0.016 2.7993,0.056 4.025,0.8315 0.738,0.4667 2.1553,1.6436 3.1497,2.6153 0.9944,0.9717 2.2019,1.8769 2.6833,2.0116 0.991,0.2772 0.8999,0.2887 1.9799,-0.2494 z m -64.4507,38.1253 c 2.3439,-0.5833 4.1725,-1.3544 7.5924,-3.2015 5.474,-2.9565 7.8906,-4.2435 11.1806,-5.954 5.2107,-2.7093 10.239,-5.4422 10.5391,-5.7282 0.1391,-0.1325 0.2916,-0.8553 0.3389,-1.6061 0.1465,-2.328 1.0446,-5.3884 2.3401,-7.9749 l 1.2421,-2.4798 -2.087,-2.1049 c -1.9224,-1.9389 -3.4287,-3.6403 -3.4287,-3.8727 0,-0.053 -0.5845,-1.0435 -1.2989,-2.2021 -3.2845,-5.3274 -4.9173,-12.9416 -4.0707,-18.9836 0.4307,-3.0739 1.4432,-6.7833 2.5098,-9.1952 0.4069,-0.9201 0.6714,-1.673 0.5876,-1.673 -0.2677,0 -1.4119,0.6361 -2.9454,1.6376 -0.82,0.5354 -2.8995,1.8798 -4.6213,2.9876 -4.999,3.2163 -6.6722,4.3015 -7.2397,4.6956 -0.2922,0.203 -1.1898,0.7715 -1.9948,1.2635 -0.805,0.4919 -2.8152,1.7665 -4.4672,2.8324 -1.6519,1.0658 -3.532,2.2733 -4.178,2.6833 -1.0494,0.666 -7.5547,4.8495 -12.1549,7.8166 -0.945,0.6096 -2.5233,1.597 -3.5071,2.1943 -0.9839,0.5974 -1.856,1.1759 -1.938,1.2857 -0.082,0.1098 -0.635,0.5981 -1.2288,1.0853 -1.4761,1.2108 -4.0848,4.4127 -4.6002,5.6462 -0.2327,0.5569 -0.5552,1.0942 -0.7166,1.194 -0.1614,0.1 -0.6578,1.2829 -1.1033,2.6292 -0.7315,2.2111 -0.808,2.8514 -0.791,6.6219 0.018,3.9111 0.077,4.3284 0.9385,6.6236 1.1802,3.1435 1.8103,4.3634 3.2293,6.252 2.7556,3.6673 8.3504,7.0775 12.8581,7.8374 2.7259,0.4595 6.4355,0.3319 9.0151,-0.3102 z m 84.8703,-64.3052 c 3.6133,-3.4963 4.1298,-4.2784 4.2391,-6.4191 0.1006,-1.9711 -0.7365,-3.2724 -4.4947,-6.9877 -1.6948,-1.6753 -4.0627,-4.0565 -5.262,-5.2914 -3.3605,-3.4604 -3.9514,-3.8368 -6.0221,-3.8368 -2.235,0 -3.0786,0.5416 -6.9389,4.4545 l -2.9099,2.9495 1.8194,0.8168 c 4.6068,2.068 10.1554,6.8074 12.8313,10.9601 1.3332,2.0689 2.7607,4.7888 3.0906,5.8884 0.1107,0.3689 0.2313,0.6708 0.268,0.6708 0.037,0 1.5573,-1.4423 3.3792,-3.2051 z m 86.1075,171.0817 c -1.3442,-0.095 -2.678,-0.362 -3.0561,-0.6125 -0.8287,-0.549 -0.8899,-1.8707 -0.1221,-2.6385 0.5169,-0.517 1.1772,-0.5424 11.4042,-0.4385 5.9705,0.061 11.0699,0.1759 11.332,0.2562 0.2621,0.08 0.6282,0.479 0.8135,0.8857 0.4628,1.0159 -0.072,2.1111 -1.2265,2.5137 -0.9326,0.3251 -14.6672,0.3494 -19.145,0.034 z m 37.7536,-2.6645 c -0.3488,-0.3488 -0.6342,-0.9086 -0.6342,-1.244 0,-0.8024 1.2829,-2.0634 2.1481,-2.1115 0.866,-0.048 1.6748,-0.1552 2.6223,-0.347 0.41,-0.083 1.6175,-0.3101 2.6834,-0.5047 2.0843,-0.3804 4.4584,-0.919 10.6341,-2.4122 2.1973,-0.5313 4.2423,-0.8698 4.6447,-0.7688 1.4719,0.3695 1.6613,2.7057 0.2793,3.4453 -0.6824,0.3653 -10.9645,2.8839 -12.8748,3.1537 -0.7379,0.1043 -1.8762,0.3296 -2.5295,0.5007 -0.6533,0.1712 -1.5925,0.3571 -2.087,0.4131 -0.4946,0.056 -1.6537,0.1937 -2.5758,0.3057 -1.4693,0.1786 -1.7549,0.1254 -2.3106,-0.4303 z m -61.4564,-0.067 c -0.574,-0.1464 -1.9827,-0.4706 -3.1306,-0.7206 -6.3991,-1.3932 -11.8916,-2.7952 -12.5604,-3.2059 -0.143,-0.088 -0.7707,-0.2405 -1.3949,-0.3392 -1.4312,-0.2266 -2.7626,-0.906 -3.003,-1.5326 -0.3474,-0.9052 -0.186,-1.7049 0.4567,-2.2623 0.768,-0.6661 1.2205,-0.6878 2.9573,-0.1414 1.273,0.4005 4.4763,1.29 7.5813,2.1053 0.8199,0.2153 2.4299,0.5963 3.5778,0.8467 7.902,1.7238 9.1002,2.1756 9.089,3.4272 -0.01,0.6554 -0.2686,1.0219 -1.1798,1.6455 -0.8118,0.5554 -0.8883,0.5611 -2.3934,0.1773 z m 101.1387,-10.5722 c -1.0133,-0.7097 -0.9086,-2.3016 0.2033,-3.0933 0.4762,-0.3392 0.994,-0.6166 1.1506,-0.6166 0.1566,0 1.3433,-0.4774 2.6373,-1.0608 1.294,-0.5835 2.621,-1.1801 2.9489,-1.3259 3.4335,-1.5264 6.004,-2.7624 11.2407,-5.4046 1.4146,-0.7138 2.0565,-0.7023 2.8651,0.051 1.3402,1.2485 0.6455,2.4383 -2.4072,4.123 -4.2192,2.3285 -16.5352,7.7913 -17.5656,7.7913 -0.2257,0 -0.7087,-0.2089 -1.0731,-0.4641 z m 0.8281,-2.6664 c 0,-0.082 -0.067,-0.1491 -0.1491,-0.1491 -0.082,0 -0.1491,0.067 -0.1491,0.1491 0,0.082 0.067,0.1491 0.1491,0.1491 0.082,0 0.1491,-0.067 0.1491,-0.1491 z m -50.8406,-4.1383 c -1.6622,-0.5266 -2.7645,-1.2682 -4.2394,-2.8522 -2.3234,-2.4953 -2.2869,-2.2164 -2.3945,-18.3037 -0.083,-12.4127 -0.033,-14.4766 0.3841,-15.9118 0.861,-2.9618 2.485,-4.9212 5.0634,-6.1091 1.4397,-0.6633 1.8097,-0.6899 10.8079,-0.777 l 9.3172,-0.09 v -5.6491 c 0,-3.1071 -0.1006,-5.6533 -0.2236,-5.6584 -4.5414,-0.1869 -10.9006,-2.4468 -15.1901,-5.398 -3.9193,-2.6966 -8.5465,-8.3616 -10.317,-12.6308 -2.6457,-6.3798 -3.1826,-13.3767 -1.5141,-19.7357 1.2942,-4.9328 3.7856,-9.3418 7.4617,-13.2047 2.8315,-2.9755 5.3881,-4.817 8.932,-6.434 1.2946,-0.5906 2.5679,-1.1852 2.8296,-1.3212 0.7632,-0.3968 5.8965,-1.4338 8.1873,-1.654 2.2897,-0.22 6.9772,0.2714 8.8329,0.9261 0.6261,0.2209 1.1383,0.3507 1.1383,0.2884 0,-0.2301 3.4936,1.1209 5.5158,2.133 7.7245,3.8662 13.5371,11.244 15.6565,19.8724 0.3287,1.3384 0.6301,3.0029 0.6697,3.699 l 0.072,1.2656 h 14.0875 14.0874 l 10e-5,-13.3421 2e-4,-13.3422 -10.4379,0.082 c -11.1638,0.088 -12.4935,-0.041 -15.3296,-1.4883 -2.6397,-1.3466 -4.9408,-4.5037 -5.5382,-7.5982 -0.2295,-1.189 -0.3049,-7.1285 -0.2414,-19.0215 0.091,-16.9633 0.1046,-17.3227 0.7405,-18.8738 1.2524,-3.055 3.1979,-5.041 6.1629,-6.2912 l 1.8351,-0.7738 23.7027,-0.092 c 25.2775,-0.098 25.9583,-0.066 28.7539,1.3509 2.5897,1.3123 4.0584,3.0009 5.328,6.1254 0.6171,1.5189 0.6363,2.0191 0.731,19.0855 0.06,10.7616 -0.017,18.1432 -0.1986,19.1259 -0.6581,3.5602 -2.906,6.4555 -5.9778,7.6992 -1.6194,0.6556 -1.9054,0.6696 -13.6543,0.6696 h -12.0003 l -2e-4,13.3422 -2e-4,13.3421 h 14.1105 14.1105 l 0.3729,-2.4597 c 0.4687,-3.0915 1.8433,-7.2448 3.2317,-9.7644 2.3127,-4.197 6.6503,-9.0335 9.3732,-10.4513 0.6038,-0.3144 1.178,-0.7014 1.276,-0.8599 0.2128,-0.3442 3.9347,-2.1807 5.8253,-2.8743 1.473,-0.5404 2.6008,-0.8125 5.9588,-1.4375 4.0679,-0.7572 9.8444,-0.1662 14.4511,1.4785 4.8614,1.7357 10.1274,5.5505 13.5865,9.8425 1.6619,2.062 3.5493,5.5175 4.5412,8.3142 1.5994,4.5093 2.2075,10.8243 1.4224,14.7712 -0.1794,0.9019 -0.4022,2.1086 -0.4952,2.6816 -0.3755,2.3133 -2.2539,6.4922 -4.4235,9.8406 -1.3599,2.099 -4.6954,5.518 -7.3135,7.497 -3.0577,2.3114 -10.3672,5.2994 -13.0067,5.3171 -0.5125,0 -1.351,0.09 -1.8635,0.1926 l -0.9317,0.1864 v 5.6275 5.6276 h 8.8699 c 9.2669,0 10.578,0.1495 12.4986,1.3924 1.2842,0.8312 2.5551,2.259 3.3779,3.795 l 0.7454,1.3914 v 15.5669 15.5668 l -0.7269,1.4226 c -0.9864,1.9306 -2.5256,3.4242 -4.4908,4.3577 l -1.6398,0.779 h -20.4232 -20.4231 l -1.6597,-0.7784 c -1.9632,-0.9207 -3.5784,-2.4942 -4.518,-4.4012 l -0.6798,-1.3797 v -15.9521 c 0,-15.7556 0.01,-15.9674 0.6469,-17.2926 0.9791,-2.0307 2.6269,-3.3629 5.137,-4.1531 0.6285,-0.1979 4.5076,-0.3191 10.2116,-0.3191 h 9.1981 v -5.6301 c 0,-6.3333 0.1405,-5.9839 -2.4095,-5.9936 -1.3779,-0.01 -4.5433,-0.9561 -7.6531,-2.2988 -9.3555,-4.0395 -16.171,-12.9561 -17.6737,-23.1225 l -0.3857,-2.6088 h -30.065 c -16.5356,0 -30.0739,0.1007 -30.085,0.2237 -0.3308,3.6768 -1.4351,7.6908 -3.0964,11.2551 -1.7176,3.6852 -5.7737,8.5144 -9.4515,11.253 -2.8281,2.1059 -9.2748,4.8424 -12.1357,5.1513 -0.7613,0.082 -1.8874,0.2269 -2.5023,0.3215 l -1.1181,0.172 v 5.6386 5.6386 h 9.3805 c 8.674,0 9.5015,0.045 10.9864,0.6008 1.8982,0.7102 3.6192,2.3068 4.4944,4.1696 0.6103,1.2987 0.6334,1.8045 0.7237,15.8018 0.063,9.8299 -0.014,15.0132 -0.241,16.1872 -0.589,3.0418 -2.3884,5.4281 -5.0699,6.7234 l -1.6398,0.7922 -20.125,0.059 c -15.6087,0.046 -20.3941,-0.027 -21.3239,-0.321 z m 41.5152,-4.2566 c 1.2364,-0.6256 1.7075,-1.0801 2.2404,-2.1616 0.6686,-1.3569 0.6756,-1.5001 0.7577,-15.6436 0.081,-13.8614 0.065,-14.3097 -0.526,-15.5037 -0.335,-0.6763 -0.9761,-1.4979 -1.4247,-1.8259 -0.7935,-0.5802 -1.3545,-0.5985 -20.771,-0.679 l -19.9555,-0.083 -1.5532,0.7858 c -1.2883,0.6518 -1.6859,1.0568 -2.3311,2.3746 l -0.778,1.5888 v 13.3609 c 9e-4,8.2406 0.1193,13.7844 0.3086,14.4658 0.3508,1.2633 2.6329,3.7078 3.6434,3.9027 0.3672,0.071 9.2524,0.1471 19.7449,0.1694 l 19.0772,0.041 1.5656,-0.7921 z m 120.8673,-0.087 c 0.5929,-0.4013 1.3979,-1.1965 1.7889,-1.767 l 0.7109,-1.0373 v -14.8016 c 0,-13.6991 -0.039,-14.8403 -0.5218,-15.3233 -0.287,-0.287 -0.5218,-0.6978 -0.5218,-0.913 0,-0.2151 -0.2347,-0.4794 -0.5217,-0.5874 -0.287,-0.1079 -0.9914,-0.4588 -1.5653,-0.7797 -1.0064,-0.5627 -1.7429,-0.5834 -20.726,-0.5839 -18.5871,0 -19.7397,0.03 -20.7117,0.5516 -0.5661,0.3036 -1.3019,0.9172 -1.6351,1.3635 -0.5905,0.7909 -0.6059,1.1966 -0.6059,15.9462 v 15.1347 l 0.822,1.1861 c 0.4521,0.6524 1.3912,1.4791 2.087,1.8373 l 1.265,0.651 19.5288,-0.074 19.5287,-0.074 z M 1286.3171,1196.83 c 10.4825,-1.8586 18.5177,-9.4732 21.1044,-19.9995 1.0365,-4.2179 1.0594,-7.752 0.075,-11.6278 -2.7675,-10.8993 -10.4758,-18.1407 -21.4778,-20.1768 -3.6722,-0.6796 -5.829,-0.6063 -9.8389,0.3344 -4.3159,1.0125 -8.1652,2.8765 -10.7539,5.2075 -0.6446,0.5804 -1.2513,1.0585 -1.3481,1.0623 -0.097,0 -1.083,1.0903 -2.1915,2.4146 -2.3403,2.7959 -4.3356,6.402 -5.184,9.3692 -0.6707,2.3457 -1.3536,7.7685 -1.113,8.8391 0.087,0.3859 0.2206,1.5066 0.2975,2.4905 0.146,1.8655 1.3013,5.702 2.3345,7.7519 3.234,6.4166 8.6602,11.1161 15.5351,13.4544 1.1332,0.3854 2.7442,0.7789 3.58,0.8745 0.8357,0.096 1.577,0.2312 1.6474,0.3016 0.2914,0.2914 5.119,0.097 7.3331,-0.2959 z m -10.1291,-20.9684 c -3.4294,-3.2605 -4.1919,-4.3881 -3.7513,-5.5472 0.3585,-0.9428 1.3275,-1.4803 2.1893,-1.2142 0.3627,0.112 1.6849,1.2422 2.938,2.5116 l 2.2783,2.308 5.3245,-5.3464 c 5.1148,-5.1359 5.3636,-5.3403 6.32,-5.1928 1.3505,0.2082 1.8368,0.6785 1.8368,1.7764 0,0.8065 -0.8112,1.7359 -6.3434,7.2681 -4.6342,4.6343 -6.5308,6.3434 -7.039,6.3434 -0.4722,0 -1.678,-0.9339 -3.7532,-2.9069 z m 131.1773,20.9898 c 1.1748,-0.1543 5.0951,-1.4678 6.4946,-2.1759 6.6843,-3.3819 11.9085,-9.5987 13.828,-16.4552 1.3601,-4.8582 1.2542,-10.9174 -0.269,-15.4027 -3.4828,-10.2551 -12.273,-17.0647 -23.5044,-18.2082 -3.427,-0.3489 -9.1065,0.862 -13.0965,2.7924 -1.843,0.8916 -5.6443,3.6516 -7.1848,5.2166 -5.145,5.2269 -8.2186,13.8447 -7.3844,20.705 0.6904,5.6771 2.7792,10.6255 6.1166,14.4904 5.6228,6.5116 12.6657,9.6222 20.9749,9.2639 1.8857,-0.081 3.697,-0.1832 4.025,-0.2263 z m -12.9032,-17.6526 c -0.4482,-0.3139 -0.6626,-0.7705 -0.6626,-1.4111 0,-0.8013 0.4587,-1.4072 2.9817,-3.9389 l 2.9818,-2.9919 -2.9818,-2.9706 c -3.1847,-3.1727 -3.5733,-3.9937 -2.3953,-5.0598 1.1981,-1.0842 1.97,-0.7206 5.1102,2.4079 l 2.9497,2.9387 2.907,-2.8713 c 1.5988,-1.5792 3.1877,-2.9543 3.5309,-3.0557 0.9012,-0.2663 2.2084,0.8449 2.2084,1.8774 0,0.6357 -0.6551,1.4687 -2.9726,3.7797 l -2.9726,2.9644 2.9726,2.9865 c 2.514,2.5258 2.9726,3.1327 2.9726,3.9336 0,1.0316 -0.8659,1.8752 -1.9246,1.8752 -0.3618,0 -1.8072,-1.2035 -3.6455,-3.0356 l -3.0459,-3.0356 -3.0712,3.0347 c -3.1662,3.1286 -3.7299,3.422 -4.9428,2.5724 z m 30.4939,11.1975 c 0.1014,-0.164 0.1172,-0.2982 0.035,-0.2982 -0.082,0 -0.232,0.1342 -0.3333,0.2982 -0.1013,0.164 -0.1172,0.2981 -0.035,0.2981 0.082,0 0.232,-0.1341 0.3333,-0.2981 z m -44.8713,-0.1491 c 0,-0.082 -0.067,-0.1491 -0.1491,-0.1491 -0.082,0 -0.1491,0.067 -0.1491,0.1491 0,0.082 0.067,0.1491 0.1491,0.1491 0.082,0 0.1491,-0.067 0.1491,-0.1491 z m -12.5008,-52.1827 c 1.5778,-0.5425 2.9584,-1.6974 3.7342,-3.1238 0.5274,-0.9697 0.5727,-1.891 0.6413,-13.0273 l 0.074,-11.9837 -6.2298,-0.091 c -5.6329,-0.082 -6.2899,-0.1457 -6.8567,-0.6593 -0.7691,-0.6968 -0.8126,-2.0039 -0.088,-2.6592 0.4555,-0.4122 1.4993,-0.4996 6.7829,-0.568 l 6.2445,-0.081 -0.011,-4.025 c -0.01,-3.6322 -0.08,-4.1559 -0.7118,-5.3666 -1.4582,-2.7933 -2.5325,-3.6405 -5.2885,-4.1704 -1.2202,-0.2346 -8.644,-0.3074 -24.8467,-0.2437 l -23.1064,0.091 -1.4165,0.6976 c -3.0707,1.5122 -4.0992,3.9108 -4.0992,9.5599 v 3.6064 l 17.3671,0.01 c 10.0126,0 17.5502,0.1204 17.7994,0.2781 0.6055,0.383 0.5501,2.2914 -0.085,2.9267 -0.4772,0.4774 -1.8568,0.5238 -17.7994,0.5991 l -17.2821,0.082 v 10.7035 c 0,12.7758 0.064,13.2195 2.2254,15.382 2.6141,2.6156 1.1306,2.4832 28.058,2.5043 20.3669,0.016 23.7548,-0.043 24.8954,-0.4356 z m -21.0974,104.8713 c -1.0478,-0.8229 -1.1791,-1.9955 -0.3145,-2.8083 1.8197,-1.7105 3.2921,-3.0063 6.483,-5.7058 1.8858,-1.5953 4.7033,-4.0475 6.2611,-5.4494 1.5579,-1.4019 3.0794,-2.6833 3.3813,-2.8476 1.3711,-0.7463 3.2491,1.2485 2.4725,2.6264 -0.35,0.6211 -3.1984,3.2404 -8.1329,7.479 -1.5708,1.3492 -3.6639,3.1604 -4.6514,4.025 -3.4092,2.9847 -4.4599,3.4969 -5.4991,2.6807 z m 8.5537,-5.8793 c 0,-0.082 -0.067,-0.1491 -0.1491,-0.1491 -0.082,0 -0.149,0.067 -0.149,0.1491 0,0.082 0.067,0.1491 0.149,0.1491 0.082,0 0.1491,-0.067 0.1491,-0.1491 z m -239.4214,-14.3851 c -5.0776,-5.1425 -8.6114,-8.9962 -9.6301,-10.5021 -1.0169,-1.5031 -0.3005,-3.2934 1.3137,-3.2832 0.9393,0.01 1.2295,0.2079 2.3529,1.6374 0.5144,0.6547 1.6392,1.9283 2.4994,2.8302 10.6376,11.153 11.1049,11.7217 10.9591,13.3345 -0.031,0.3438 -1.5125,1.2742 -2.0307,1.2753 -0.1311,3e-4 -2.5901,-2.3811 -5.4643,-5.2921 z m -21.7047,-27.0596 c -0.4886,-0.4111 -1.1755,-1.2984 -1.5264,-1.9718 -0.351,-0.6734 -1.1627,-2.0139 -1.8037,-2.979 -0.641,-0.9651 -2.1961,-3.6667 -3.4558,-6.0037 -1.2597,-2.3369 -2.6749,-4.8952 -3.1449,-5.685 -1.3978,-2.3492 -0.9408,-4.3779 0.9863,-4.3779 1.0144,0 1.2841,0.3607 4.1242,5.5158 1.3551,2.4597 3.1573,5.6126 4.0049,7.0065 0.8476,1.3938 1.6398,2.7355 1.7603,2.9814 0.3504,0.715 0.891,1.5823 1.612,2.5865 0.8333,1.1605 0.8464,1.8803 0.053,2.8891 -0.7733,0.9831 -1.4745,0.9934 -2.6098,0.038 z m 324.433,-61.491 c -0.9165,-0.8132 -1.0137,-1.4307 -0.5645,-3.5867 0.2295,-1.102 0.4872,-2.6074 0.5724,-3.3453 0.085,-0.7379 0.3532,-2.4821 0.5953,-3.8759 0.2421,-1.3939 0.533,-3.2532 0.6466,-4.132 0.1219,-0.9434 0.4373,-1.8286 0.7703,-2.1616 0.7316,-0.7316 2.1179,-0.7212 2.7895,0.021 0.4452,0.492 0.4917,0.8587 0.2927,2.3107 -0.1301,0.9492 -0.2149,1.8217 -0.1884,1.9388 0.046,0.2055 -0.6052,4.0527 -1.6282,9.6137 -0.6349,3.4508 -1.7699,4.5622 -3.2857,3.2174 z m -353.4468,-32.848 c -0.6988,-0.5692 -0.7034,-0.6132 -0.6416,-6.1865 0.054,-4.8378 0.3562,-10.3163 0.845,-15.3031 0.1918,-1.9571 1.4108,-2.841 2.8535,-2.0689 1.0249,0.5485 1.1194,1.4493 0.6886,6.5601 -0.2271,2.6953 -0.477,7.5815 -0.5552,10.8583 -0.1242,5.2056 -0.2074,6.0055 -0.6589,6.3356 -0.741,0.5419 -1.7189,0.4664 -2.5314,-0.1955 z m 356.8091,-1.9704 c -0.6428,-0.6429 -0.7283,-1.4983 -0.9227,-9.2331 -0.095,-3.7715 -0.3198,-8.2244 -0.5001,-9.8953 -0.3628,-3.3631 -0.303,-3.7248 0.7279,-4.4002 0.923,-0.6048 2.4699,-0.1335 2.7049,0.8239 0.4654,1.8968 0.7053,5.579 0.9797,15.0365 0.1866,6.4363 0.1624,6.9742 -0.339,7.5283 -0.6411,0.7084 -2.0099,0.7807 -2.6507,0.1399 z m -213.3636,-1.0362 c -3.1624,-0.7774 -5.9402,-2.9266 -7.1811,-5.5561 -0.55,-1.1654 -0.6859,-1.9721 -0.6962,-4.1315 -0.011,-2.3699 0.084,-2.8674 0.8146,-4.2588 1.813,-3.4523 4.3453,-5.122 8.1259,-5.3578 l 2.4281,-0.1515 1.3654,-3.4641 c 1.0343,-2.6242 1.2804,-3.5431 1.0149,-3.7898 -0.1927,-0.1792 -1.5579,-0.7653 -3.0338,-1.3026 -3.9107,-1.4237 -5.3322,-2.4095 -6.286,-4.359 -1.1376,-2.3252 -0.941,-4.3145 0.868,-8.7841 0.7662,-1.893 1.3921,-3.6372 1.391,-3.876 -9e-4,-0.2387 -0.4977,-0.7695 -1.1035,-1.1795 -1.2636,-0.855 -5.9313,-4.8615 -6.744,-5.7886 -0.2997,-0.3418 -0.9767,-1.0912 -1.5045,-1.6651 -1.312,-1.4266 -3.647,-4.3152 -4.0042,-4.9534 -0.3174,-0.5673 -0.142,-0.6266 -5.9551,2.0162 -2.5858,1.1755 -4.1115,1.4779 -5.6819,1.126 -2.5944,-0.5815 -4.1699,-2.1626 -5.6966,-5.717 -0.5458,-1.2709 -1.142,-2.3076 -1.3248,-2.3038 -0.1829,0 -1.6741,0.5813 -3.314,1.2835 l -2.9814,1.2766 0.072,1.3962 c 0.099,1.916 -0.5941,4.6843 -1.5093,6.0312 -2.0104,2.9585 -5.5236,4.7391 -8.9979,4.5603 -2.5173,-0.1295 -4.2653,-0.9057 -6.0795,-2.6996 -2.224,-2.1992 -2.7807,-3.4573 -2.9484,-6.6628 -0.1407,-2.6892 -0.1072,-2.8888 0.79,-4.7113 1.468,-2.982 3.9863,-4.904 7.2039,-5.4981 1.5839,-0.2925 3.0682,-0.1494 5.2687,0.5081 1.053,0.3146 1.1296,0.3665 3.1033,2.1052 0.7563,0.6662 1.5107,1.2112 1.6765,1.2112 0.4575,0 6.3402,-2.5893 6.3402,-2.7907 0,-0.063 -0.5387,-1.3291 -1.1971,-2.8124 -1.4443,-3.2539 -1.8307,-5.0859 -1.4728,-6.983 0.5244,-2.779 1.8062,-4.0184 5.983,-5.7846 1.3754,-0.5817 2.9704,-1.2693 3.5443,-1.528 0.5739,-0.2588 1.1777,-0.4845 1.3417,-0.5015 0.3352,-0.035 0.3298,-0.2354 -0.1585,-5.8368 -0.3262,-3.7409 -0.2125,-12.68809 0.1799,-14.16346 0.1341,-0.50432 -0.1579,-0.7308 -1.8692,-1.44988 -2.9587,-1.24321 -3.6347,-1.52024 -5.4952,-2.25184 -4.1122,-1.61706 -5.7116,-5.33609 -4.1151,-9.56872 1.2144,-3.2199 1.4701,-3.95028 1.4701,-4.19962 0,-0.25124 -5.9894,-3.24988 -6.4912,-3.24988 -0.1443,0 -0.5875,0.34967 -0.9851,0.77704 -1.5094,1.62264 -3.0528,2.42632 -5.3811,2.80191 -1.9715,0.31803 -2.4853,0.29944 -4.0149,-0.14523 -2.3285,-0.6769 -3.2045,-1.15589 -4.6115,-2.52131 -2.8288,-2.74529 -3.6836,-7.48734 -2.004,-11.11833 0.8553,-1.84914 2.6931,-3.78283 4.4949,-4.72947 0.6227,-0.32713 2.0196,-0.70163 3.1042,-0.83221 4.1271,-0.49687 7.3204,0.92006 9.602,4.2606 1.1763,1.7223 1.6051,3.25604 1.5904,5.68903 l -0.013,2.10915 1.9818,0.98936 c 4.3456,2.16941 4.311,2.15612 4.5655,1.75528 0.1318,-0.20762 0.2416,-0.53183 0.2441,-0.72048 0.011,-0.80165 2.3859,-5.38856 3.1722,-6.12592 1.2069,-1.1318 2.9907,-1.80648 4.7333,-1.79025 1.0974,0.0103 2.5752,0.45271 5.6003,1.67679 2.2603,0.91461 4.3398,1.65868 4.6213,1.65348 0.291,-0.006 1.0722,-0.84085 1.8109,-1.93673 1.2781,-1.89629 7.9475,-8.84392 11.0111,-11.4705 l 1.5649,-1.34167 -1.525,-3.57778 c -2.3189,-5.44043 -2.5021,-7.26717 -0.992,-9.89164 0.9664,-1.67961 1.6918,-2.19544 5.1856,-3.68726 1.6418,-0.70104 2.985,-1.38105 2.985,-1.51115 0,-0.28295 -0.3765,-1.19685 -1.6541,-4.01533 -0.5263,-1.161 -1.0493,-2.40204 -1.1622,-2.75788 -0.1129,-0.35583 -0.2969,-0.65022 -0.4089,-0.65421 -0.1119,-0.004 -1.2772,-0.0451 -2.5895,-0.0913 -2.8101,-0.099 -4.5188,-0.81846 -6.4283,-2.70663 -5.2518,-5.19334 -3.1489,-14.14391 3.8588,-16.42421 2.1304,-0.69321 5.3781,-0.50401 7.2974,0.42511 3.8738,1.87526 6.3101,6.49598 5.5469,10.52027 -0.3901,2.05699 -1.2276,3.72996 -2.6691,5.33162 -1.3136,1.45963 -1.3136,1.46322 -0.01,4.29409 0.4536,0.98389 1.0695,2.39264 1.3686,3.13056 0.2991,0.73792 0.5639,1.37698 0.5885,1.42012 0.052,0.0904 1.6748,-0.5676 3.9465,-1.59952 1.8507,-0.84068 5.2338,-0.99136 6.5653,-0.29241 1.5852,0.83222 2.9732,2.66173 4.0902,5.39127 0.604,1.47583 1.3118,3.2007 1.5729,3.83305 l 0.4749,1.14972 1.6567,-0.15353 c 0.9111,-0.0844 2.9312,-0.31453 4.4891,-0.5113 2.4601,-0.31074 7.0124,-0.27855 13.086,0.0925 l 1.0111,0.0618 1.4209,-3.53081 c 1.6314,-4.05387 2.6811,-5.52485 4.608,-6.45768 1.7029,-0.82436 4.6585,-0.73448 6.7073,0.20394 1.3552,0.62075 4.6676,1.88362 4.9406,1.88362 0.081,0 0.7611,-1.27749 1.5107,-2.83884 1.4166,-2.95069 1.4327,-3.30761 0.1851,-4.10648 -0.2035,-0.13031 -0.8048,-1.13656 -1.3361,-2.23611 -0.8306,-1.71866 -0.9648,-2.31288 -0.9569,-4.23526 0,-1.22986 0.1753,-2.72248 0.3781,-3.31692 0.9509,-2.78731 3.9487,-5.58583 6.6873,-6.2428 2.155,-0.51697 5.4771,-0.22602 7.1906,0.62976 1.7708,0.88436 3.5857,2.82812 4.5256,4.84695 0.8896,1.91057 1.0152,5.69699 0.2505,7.54984 -0.9306,2.2547 -2.7326,4.21291 -4.8246,5.24281 -1.7572,0.86506 -2.2086,0.95888 -4.5438,0.94456 l -2.5929,-0.0159 -1.2349,2.48987 c -0.6791,1.36944 -1.2348,2.59756 -1.2348,2.72918 0,0.13162 1.3081,0.76006 2.907,1.39653 4.0186,1.59978 5.2211,2.4674 6.2041,4.47653 0.6985,1.42768 0.7862,1.90209 0.648,3.5044 -0.088,1.01925 -0.4522,2.52402 -0.8098,3.34393 -0.902,2.06863 -1.341,3.11359 -1.8043,4.29489 l -0.3982,1.01526 1.7658,1.51901 c 2.4951,2.14644 10.9578,10.59854 11.596,11.58151 0.2927,0.45095 0.6438,0.81991 0.7802,0.81991 0.1363,0 1.9492,-0.75542 4.0287,-1.6787 3.0624,-1.35974 4.0755,-1.67604 5.3325,-1.66474 2.4796,0.0223 4.7299,1.35174 5.9115,3.49251 0.6428,1.16467 2.5978,6.34778 2.5978,6.88733 0,0.55158 0.571,0.52663 1.9761,-0.0864 0.635,-0.277 1.2216,-0.52304 1.3036,-0.54674 0.082,-0.0237 0.4844,-0.18535 0.8944,-0.35921 0.41,-0.17386 1.2974,-0.53887 1.9721,-0.81112 l 1.2267,-0.49501 0.1511,-2.64994 c 0.1213,-2.12871 0.3011,-2.90593 0.9138,-3.95141 0.9489,-1.61923 3.1778,-3.70221 4.5953,-4.29446 5.0319,-2.10245 10.9251,0.0805 13.1118,4.85679 1.0118,2.21018 1.0513,6.27826 0.079,8.18339 -1.4913,2.92305 -4.6075,5.2536 -7.6821,5.74527 -3.0081,0.481 -7.6581,-1.29829 -9.0853,-3.47638 -0.5579,-0.85148 -0.5873,-0.84881 -3.1913,0.29008 -0.5764,0.25211 -1.3834,0.59451 -1.7934,0.76091 -0.4099,0.16639 -0.9783,0.42105 -1.263,0.56589 -0.2848,0.14486 -0.7208,0.26337 -0.969,0.26337 -0.2482,0 -0.4513,0.0436 -0.4513,0.0969 0,0.31755 1.5577,4.50964 2.2351,6.01519 1.078,2.39594 1.2782,4.50871 0.6003,6.33317 -0.963,2.59146 -2.0663,3.36092 -8.3511,5.82404 l -1.7889,0.7011 0.093,7.23027 c 0.072,5.6468 -0.013,7.853 -0.3918,10.0741 -0.2664,1.5642 -0.4423,2.8805 -0.3908,2.9252 0.052,0.045 1.77,0.7831 3.8191,1.641 4.3228,1.8099 4.9582,2.2145 6.1278,3.9022 0.7683,1.1087 0.8647,1.5001 0.8669,3.5202 0,1.9242 -0.1436,2.593 -0.9493,4.3599 l -0.9517,2.087 1.4043,0.6651 c 0.7723,0.3658 1.7397,0.798 2.1496,0.9604 0.41,0.1625 1.4743,0.6191 2.3651,1.0147 l 1.6197,0.7193 1.2786,-1.1984 c 1.7257,-1.6174 2.1032,-1.8593 3.8008,-2.4347 3.7803,-1.2814 7.7347,-0.1797 10.5648,2.9434 1.6558,1.8274 2.2485,3.5232 2.245,6.4237 0,3.1852 -0.7583,5.0748 -2.7823,6.968 -2.3602,2.2078 -3.6042,2.7108 -6.7185,2.7167 -2.3099,0 -2.9116,-0.1061 -4.3232,-0.7939 -1.9268,-0.939 -3.5704,-2.4494 -4.6268,-4.2521 -0.5949,-1.015 -0.8042,-1.8909 -0.9725,-4.0701 l -0.2146,-2.7769 -3.6933,-1.5878 c -2.0314,-0.8733 -3.7216,-1.5504 -3.756,-1.5047 -0.034,0.046 -0.7142,1.6624 -1.5107,3.5926 -1.1246,2.7253 -1.7416,3.8028 -2.7619,4.8231 -2.0867,2.0867 -5.0955,2.4898 -8.185,1.0964 -1.4971,-0.6752 -6.445,-2.7205 -6.5812,-2.7205 -0.052,0 -0.5469,0.6373 -1.0991,1.4162 -2.1023,2.9654 -7.0925,7.9898 -10.2031,10.273 -1.1069,0.8124 -2.0125,1.5591 -2.0125,1.6593 0,0.1003 0.6646,1.5396 1.4768,3.1986 1.2843,2.623 1.4861,3.2863 1.5476,5.086 0.061,1.7787 -0.041,2.2601 -0.7235,3.4239 -1.1154,1.9021 -1.6864,2.2787 -6.9889,4.6101 -1.4734,0.6478 -1.4733,0.6515 0.1399,4.433 0.5686,1.3327 1.1022,2.7249 1.1859,3.0939 0.1362,0.6007 0.3433,0.6748 1.9808,0.7089 2.5855,0.054 2.9095,0.1083 4.1558,0.6998 1.836,0.8712 3.9698,3.1064 4.8458,5.076 3.679,8.2725 -5.2246,16.6961 -13.4979,12.7702 -1.8827,-0.8934 -4.065,-3.3271 -4.7947,-5.3471 -1.4593,-4.0397 -0.4257,-8.0996 2.791,-10.9619 l 1.1052,-0.9835 -1.4406,-3.6288 c -1.6402,-4.1315 -1.2092,-3.9311 -4.8338,-2.2476 -1.7909,0.8319 -2.5199,1.007 -4.1902,1.007 -1.727,0 -2.2245,-0.1283 -3.409,-0.8795 -1.7373,-1.1018 -2.4435,-2.222 -4.2754,-6.7823 l -1.461,-3.6368 -1.7889,0.2081 c -0.9839,0.1145 -5.4478,0.2081 -9.9199,0.2081 h -8.131 l -0.2734,0.8945 c -1.1175,3.6551 -3.0809,7.719 -4.235,8.7659 -1.1053,1.0025 -3.1511,1.8192 -4.5507,1.8167 -1.0495,0 -2.8913,-0.4658 -4.1955,-1.0567 -1.5293,-0.6929 -4.0984,-1.6511 -4.1865,-1.5614 -0.1903,0.1938 -2.5219,6.2352 -2.5219,6.5344 0,0.1787 0.6759,1.0644 1.5019,1.9682 0.826,0.9038 1.6913,2.0967 1.9229,2.651 1.7342,4.1506 0.7252,8.6594 -2.5861,11.5561 -2.211,1.9341 -5.7374,2.8983 -8.2979,2.2689 z m 75.3306,-4.6416 c 2.6559,-1.5279 3.6511,-5.3333 2.0557,-7.8606 -1.2662,-2.0057 -2.63,-2.8213 -4.8978,-2.9291 -2.3794,-0.1132 -3.7779,0.5706 -5.1916,2.538 -0.7733,1.0762 -0.9132,1.5466 -0.9313,3.1305 -0.025,2.1671 0.5563,3.3916 2.2646,4.7722 1.9346,1.5636 4.3688,1.6904 6.7004,0.349 z m -70.4041,0 c 1.5406,-1.0454 2.1115,-1.8086 2.6611,-3.5574 0.5429,-1.727 0.2905,-3.1065 -0.8961,-4.8996 -2.5818,-3.9014 -8.6985,-3.0751 -10.3816,1.4024 -0.7857,2.0904 -0.4578,4.1091 0.9368,5.7665 1.7716,2.1055 5.5432,2.7381 7.6798,1.2881 z m 15.3689,-22.3928 c 0.2886,-0.2993 1.4068,-2.7485 2.4849,-5.4426 1.0781,-2.6942 2.1305,-5.0163 2.3385,-5.1604 0.2081,-0.144 1.8542,-0.175 3.6579,-0.069 5.3941,0.3179 13.1845,0.1534 16.6527,-0.3514 2.2372,-0.3257 3.4336,-0.3802 3.876,-0.1765 0.4545,0.2092 1.1796,1.5958 2.5033,4.7872 1.0249,2.471 1.8634,4.6205 1.8634,4.7768 0,0.1563 0.4651,0.6925 1.0335,1.1916 0.7801,0.6849 1.2371,0.872 1.8635,0.7631 1.5703,-0.2732 14.834,-6.1625 15.5138,-6.8885 1.1416,-1.2192 0.9088,-2.6027 -1.1181,-6.6461 -0.9839,-1.9628 -1.7889,-3.8438 -1.7889,-4.18 0,-1.0331 0.834,-1.9655 3.2232,-3.6032 2.8078,-1.9247 8.6543,-7.7229 10.6409,-10.553 0.8058,-1.1479 1.6558,-2.2816 1.8888,-2.5193 0.7341,-0.7489 2.1752,-0.4665 5.8629,1.1488 1.9678,0.8619 4.2256,1.7867 5.0173,2.055 1.373,0.4652 1.4893,0.4607 2.5137,-0.098 0.9215,-0.503 1.2799,-1.0517 2.5243,-3.8658 2.9503,-6.6717 5.0012,-11.8007 5.0012,-12.5073 0,-1.2817 -1.2001,-2.201 -4.9195,-3.7686 -1.9678,-0.8294 -3.9803,-1.6512 -4.4722,-1.8263 -2.0855,-0.7422 -2.2417,-1.2996 -1.4443,-5.1533 0.393,-1.8994 0.4841,-3.9337 0.4473,-9.988 -0.025,-4.18149 -0.08,-8.33937 -0.1209,-9.23968 -0.073,-1.60251 -0.053,-1.64759 0.9688,-2.14406 1.413,-0.68668 3.1828,-1.43661 3.3904,-1.43661 0.093,0 0.8781,-0.31448 1.7438,-0.69884 0.8658,-0.38436 2.0147,-0.87211 2.5533,-1.08388 1.1609,-0.45656 2.1514,-1.61852 2.1514,-2.52392 0,-0.35664 -0.5292,-1.98209 -1.176,-3.6121 -1.5546,-3.91758 -5.5531,-14.41376 -5.8112,-15.25455 -0.2751,-0.89601 -1.7086,-1.87117 -2.7506,-1.87117 -0.4676,0 -2.8619,0.94471 -5.3206,2.09936 -2.8291,1.32861 -4.6985,2.04257 -5.0919,1.94465 -0.3419,-0.0851 -1.2807,-0.99629 -2.0861,-2.02484 -2.2493,-2.87222 -7.8404,-8.51506 -11.6317,-11.73942 -1.9855,-1.6886 -3.4892,-3.201 -3.5927,-3.6134 -0.1216,-0.48448 0.4133,-2.17568 1.6879,-5.33635 1.7565,-4.35572 1.846,-4.69375 1.5255,-5.76357 -0.1873,-0.62506 -0.5097,-1.27686 -0.7164,-1.44844 -0.3453,-0.28656 -7.7468,-3.33654 -8.0969,-3.33654 -0.1895,0 -3.4093,-1.40771 -4.1173,-1.80009 -0.2847,-0.15782 -0.661,-0.28695 -0.8362,-0.28695 -0.1752,0 -0.915,-0.27169 -1.6439,-0.60375 -1.8665,-0.85031 -2.9018,-1.00335 -4.1038,-0.60665 -1.1516,0.38006 -1.2739,0.58543 -3.0303,5.08633 -1.8924,4.84959 -2.0455,5.13812 -2.922,5.50781 -0.6487,0.27363 -1.2343,0.26073 -2.6833,-0.0592 -4.2527,-0.93875 -10.9811,-0.8095 -18.2064,0.34975 -2.9058,0.46621 -3.9054,0.26655 -4.2544,-0.84969 -0.3028,-0.96889 -2.7686,-6.74693 -3.4423,-8.06644 -0.3313,-0.64885 -0.8249,-1.34896 -1.0968,-1.55579 -0.592,-0.45028 -2.5319,-0.51162 -3.2563,-0.10295 -0.7182,0.4052 -10.3367,4.56167 -12.0827,5.22135 -1.4411,0.54448 -2.3601,1.50147 -2.6812,2.79204 -0.1713,0.68856 0.3363,2.1002 2.8919,8.04177 1.3565,3.15355 1.3731,3.97141 0.099,4.86113 -4.7416,3.31154 -10.3596,8.97902 -14.0727,14.19676 -2.0415,2.86871 -2.3713,2.96871 -5.5485,1.68247 -5.4164,-2.19268 -7.9593,-3.09868 -8.6974,-3.09868 -1.5585,0 -2.4049,1.27418 -4.5553,6.85741 -1.1053,2.86968 -2.3282,5.93819 -2.7176,6.81891 -0.9521,2.15338 -0.922,3.30372 0.1119,4.27488 0.4559,0.42825 3.1249,1.70474 6.0119,2.87531 2.8556,1.15784 5.308,2.27866 5.4496,2.49072 0.1417,0.21207 0.1876,0.92224 0.102,1.57817 -0.086,0.65592 -0.2538,1.93051 -0.3739,2.83241 -0.4346,3.26573 -0.2189,13.97993 0.3348,16.62233 0.7687,3.6686 0.689,3.919 -1.611,5.0621 -1.0659,0.5297 -3.4138,1.5893 -5.2176,2.3548 -1.8038,0.7655 -3.5144,1.6607 -3.8014,1.9895 -1.1176,1.2803 -0.5385,3.2105 4.2124,14.0378 0.2961,0.6749 0.7119,1.6676 0.924,2.2061 0.5058,1.2844 1.6449,2.1515 2.8265,2.1515 0.5227,0 1.7457,-0.3838 2.7176,-0.8529 4.6709,-2.2541 7.5764,-3.3867 8.2371,-3.2108 0.9749,0.2594 1.0897,0.3725 3.0462,3.0004 2.4692,3.3164 8.4786,9.2721 11.5779,11.4743 2.4025,1.7071 2.6088,1.9336 2.6088,2.8649 0,0.5562 -0.805,3.0128 -1.7889,5.4591 -0.9839,2.4463 -1.788,4.7661 -1.7869,5.155 0.01,1.6627 1.2562,2.6544 5.0665,4.0145 0.246,0.088 3.1977,1.2845 6.5593,2.6593 6.5099,2.6624 7.8203,2.9159 8.9604,1.7332 z m -15.154,-28.2785 c -6.5256,-1.4172 -10.8539,-8.1583 -9.4774,-14.7604 0.4215,-2.0213 1.5568,-4.6798 2.3583,-5.5222 0.1888,-0.1984 3.7646,-3.8784 7.9461,-8.1777 4.1815,-4.2993 7.6501,-7.9456 7.7079,-8.103 0.058,-0.1573 -0.096,-0.5131 -0.3421,-0.7906 -1.2389,-1.3975 -3.1923,-4.6671 -4.2058,-7.03977 -1.7769,-4.15964 -2.5666,-7.83515 -2.6456,-12.31364 -0.087,-4.93436 0.183,-6.99529 1.4174,-10.81685 3.8107,-11.7984 12.9576,-19.73935 25.3853,-22.03849 4.0594,-0.75098 11.9386,-0.20992 14.9214,1.02465 1.1058,0.45764 1.7082,1.41797 1.4743,2.34996 -0.091,0.36314 -4.2148,4.71103 -9.1638,9.66198 l -8.998,9.00173 1.1219,4.2487 c 0.617,2.33679 1.304,4.85245 1.5266,5.59037 0.2226,0.73792 1.0039,3.6225 1.7362,6.41019 1.7253,6.56805 2.2943,8.62097 2.4274,8.75717 0.1456,0.149 3.22,1.0069 8.6323,2.4089 2.4597,0.6372 5.5456,1.4548 6.8574,1.8169 1.3119,0.3622 2.8548,0.7673 3.4287,0.9004 0.574,0.133 2.036,0.5245 3.249,0.87 1.2131,0.3454 2.3889,0.5885 2.6131,0.5401 0.2242,-0.048 4.4012,-4.0794 9.2824,-8.95782 8.2393,-8.23475 8.9489,-8.86959 9.9092,-8.86535 1.4292,0.007 1.6445,0.20933 2.2086,2.08248 1.1208,3.72219 1.4389,11.61029 0.6225,15.43909 -0.4288,2.0111 -1.8076,6.216 -2.2209,6.773 -0.1217,0.1639 -0.4065,0.7677 -0.6329,1.3416 -0.2264,0.574 -0.523,1.1777 -0.659,1.3417 -0.1361,0.164 -0.6777,0.97 -1.2036,1.7911 -3.8918,6.0765 -9.5697,10.4342 -16.7582,12.8617 -5.1785,1.7488 -12.554,2.0273 -18.187,0.6867 -3.9714,-0.945 -10.6853,-4.3024 -12.7674,-6.3846 -0.2517,-0.2517 -0.5805,-0.4576 -0.7308,-0.4576 -0.1502,0 -1.8704,1.6409 -3.8227,3.6464 -10.2949,10.5759 -12.6397,12.7815 -14.5271,13.6647 -1.85,0.8657 -4.3758,1.4929 -5.834,1.4485 -0.4285,-0.013 -1.6209,-0.2065 -2.6497,-0.4299 z m 6.4918,-4.3904 c 0.9765,-0.4509 3.7359,-3.0317 10.1371,-9.4807 4.8374,-4.8736 9.0941,-9.014 9.4593,-9.2009 0.7637,-0.3908 1.3656,-0.1338 3.0766,1.3137 0.5815,0.4919 1.5207,1.2723 2.0871,1.7342 1.2445,1.015 7.8639,4.3778 8.6172,4.3778 0.2952,0 1.1237,0.2183 1.8413,0.4852 1.4856,0.5524 9.015,0.8301 11.2926,0.4165 4.5547,-0.8273 8.8764,-2.7981 13.0992,-5.9737 3.2394,-2.4361 6.3352,-6.3936 7.9919,-10.2166 1.9493,-4.4982 2.2216,-5.8276 2.3458,-11.4538 0.077,-3.50724 0.01,-5.19032 -0.2134,-5.32837 -0.1877,-0.11603 -3.7333,3.20347 -8.3419,7.80997 -4.4085,4.4064 -8.3144,8.0837 -8.6798,8.1717 -0.6212,0.1495 -1.8287,-0.1285 -7.8416,-1.8053 -1.3119,-0.3658 -3.1232,-0.8389 -4.0251,-1.0512 -0.9018,-0.2123 -4.6585,-1.2163 -8.3481,-2.2311 -3.6896,-1.0148 -7.0438,-1.9152 -7.4537,-2.0009 -0.41,-0.086 -0.9833,-0.3632 -1.2741,-0.6166 -0.527,-0.4593 -0.6479,-0.8237 -2.1459,-6.46784 -0.4352,-1.63982 -0.9642,-3.58524 -1.1757,-4.32315 -0.2114,-0.73792 -0.5967,-2.14667 -0.8562,-3.13056 -0.2595,-0.98389 -0.8179,-3.06348 -1.2409,-4.6213 -1.9617,-7.22452 -2.5498,-9.60838 -2.5498,-10.33499 0,-0.62873 1.6285,-2.41672 8.2098,-9.01403 l 8.2098,-8.22972 -2.4704,-0.40208 c -3.0842,-0.50196 -6.4233,-0.13347 -10.9677,1.21037 -7.6681,2.26753 -13.4718,7.11491 -16.9353,14.14473 -1.8441,3.74307 -2.3446,5.30307 -2.9196,9.10103 -1.2105,7.99534 1.4213,16.752 6.883,22.90164 1.0369,1.1675 1.2443,1.5908 1.1184,2.2832 -0.1103,0.607 -2.1294,2.8535 -7.0608,7.8565 -10.3482,10.4984 -10.2808,10.4237 -11.2806,12.5054 -1.169,2.4337 -1.2361,4.7745 -0.2015,7.0233 1.0387,2.2577 1.682,3.0515 3.1887,3.9345 2.8399,1.6643 5.6976,1.8723 8.4243,0.6131 z m 42.1663,-42.86773 c -3.3959,-0.67373 -7.4652,-3.66905 -9.2447,-6.80481 -1.0813,-1.90525 -1.9141,-4.92687 -1.9141,-6.94409 0,-3.44974 1.883,-7.79322 4.3989,-10.1465 3.9389,-3.68438 9.183,-4.87977 14.1165,-3.2178 2.4523,0.82611 3.7679,1.65577 5.7013,3.59541 3.0213,3.03095 4.548,7.68432 3.8678,11.78904 -1.3391,8.08096 -8.9008,13.32089 -16.9257,11.72875 z m 5.4524,-3.91502 c 4.0867,-1.02906 6.9247,-4.29415 7.6809,-8.83698 0.2452,-1.473 -0.54,-5.18926 -1.2147,-5.74922 -0.23,-0.19087 -0.4182,-0.51239 -0.4182,-0.7145 0,-0.76568 -3.1439,-3.34183 -4.8636,-3.98525 -5.7823,-2.16345 -11.7291,0.91891 -13.4955,6.99501 -1.1658,4.01033 0.8337,8.86646 4.5469,11.0425 2.5924,1.51925 5.0923,1.92122 7.7642,1.24844 z m -106.3093,53.13325 c 3.2404,-1.4333 4.6153,-5.3134 2.9394,-8.2952 -1.2764,-2.2711 -4.0911,-3.6034 -6.39,-3.0245 -5.444,1.3708 -6.2933,8.7962 -1.2894,11.2731 1.5796,0.7819 3.0452,0.7963 4.74,0.047 z m 173.2361,-0.224 c 2.0006,-1.0889 3.0249,-2.8238 3.0228,-5.12 0,-1.92 -0.5457,-3.1667 -1.961,-4.4944 -2.7354,-2.5661 -7.2536,-1.6967 -9.0708,1.7453 -0.9268,1.7555 -0.912,3.6468 0.044,5.5644 0.5933,1.1907 1.0446,1.6381 2.3106,2.2906 2.0732,1.0686 3.7098,1.0727 5.6547,0.014 z m -1.3118,-71.91159 c 2.0486,-1.04555 3.0442,-2.7671 3.0442,-5.264 0,-4.00627 -2.8449,-6.28981 -7.05,-5.65919 -1.0609,0.15909 -1.6964,0.50169 -2.7138,1.46293 -2.4889,2.35161 -2.5914,5.7915 -0.2459,8.25637 0.6439,0.67671 1.4489,1.34296 1.7889,1.48052 1.1631,0.4707 4.0106,0.31854 5.1766,-0.27663 z m -172.926,-1.1926 c 1.9986,-1.02008 3.0411,-2.77061 3.1054,-5.21475 0.071,-2.70414 -1.8477,-5.04497 -4.7836,-5.83553 -0.6701,-0.18043 -1.5923,-0.24128 -2.0494,-0.13522 -1.3002,0.30168 -3.2672,1.53226 -3.9244,2.45519 -1.7696,2.4851 -1.3471,6.05264 0.9351,7.89608 1.5831,1.27883 1.7743,1.34649 3.8845,1.37526 1.1448,0.0156 2.0987,-0.16659 2.8324,-0.54103 z m 120.8068,-48.05583 c 2.7692,-0.63805 4.4592,-2.85995 4.4717,-5.87904 0.01,-1.81489 -0.4277,-2.79898 -1.8315,-4.14098 -1.2224,-1.16868 -2.2717,-1.58357 -4.0049,-1.58357 -1.8718,0 -3.085,0.59447 -4.5047,2.20738 -0.9399,1.0677 -1.2698,1.72367 -1.4076,2.79868 -0.3971,3.09882 1.4819,5.941 4.3835,6.6304 1.3259,0.315 1.3868,0.31431 2.8935,-0.0329 z m -70.9199,-3.1296 c 2.2482,-1.55799 3.1854,-3.98851 2.4686,-6.40215 -0.5392,-1.81596 -1.6803,-3.19037 -3.2351,-3.89661 -1.2954,-0.58841 -3.8846,-0.75061 -4.1864,-0.26227 -0.1014,0.16398 -0.4112,0.3036 -0.6885,0.31026 -1.409,0.0339 -3.6141,3.2278 -3.6281,5.25531 -0.015,2.1344 2.0985,5.14742 4.0464,5.76913 1.5004,0.4789 3.9363,0.11809 5.2231,-0.77367 z m -141.3923,140.10892 c -0.63,-0.759 -0.4175,-2.5495 0.8977,-7.565 2.4492,-9.3403 3.9243,-14.1292 4.5925,-14.9096 0.5043,-0.589 1.8368,-0.7773 2.5031,-0.3537 0.753,0.4788 0.9981,1.8127 0.5471,2.9772 -0.8182,2.1121 -4.2049,14.2973 -4.9047,17.6468 -0.187,0.8952 -0.5575,1.8679 -0.8233,2.1615 -0.6082,0.6722 -2.2691,0.6974 -2.8124,0.043 z m 348.6095,-2.0031 c -0.5498,-0.5853 -1.5885,-3.8139 -2.2669,-7.0465 -0.1738,-0.828 -1.9223,-6.6787 -3.1159,-10.4258 -1.0203,-3.2031 -1.1343,-3.8219 -0.8242,-4.4722 0.2885,-0.605 0.6122,-0.773 1.6305,-0.8467 1.2691,-0.092 1.2714,-0.09 2.0074,1.4907 0.4053,0.8705 0.7381,1.7351 0.7397,1.9214 0,0.1863 0.4768,1.7963 1.056,3.5778 1.443,4.4385 3.7173,13.2349 3.7173,14.3775 0,1.0431 -0.886,2.1292 -1.7369,2.1292 -0.2994,0 -0.8425,-0.3174 -1.207,-0.7054 z m -335.118,-36.5819 c -0.9009,-0.5493 -0.988,-0.7182 -0.84,-1.63 0.2007,-1.2368 5.6207,-11.5931 8.1514,-15.5751 0.5491,-0.8641 0.9984,-1.698 0.9984,-1.8531 0,-0.1551 0.4164,-0.7562 0.9253,-1.3359 1.0675,-1.2158 2.2525,-1.3937 3.0936,-0.4643 0.837,0.9249 0.4258,2.2589 -1.8531,6.0121 -1.1308,1.8625 -3.3642,5.9005 -4.963,8.9735 -2.4961,4.7975 -3.6323,6.4918 -4.3502,6.4867 -0.086,-6e-4 -0.6095,-0.2769 -1.1624,-0.6139 z m 321.4452,-1.8447 c -0.1603,-0.205 -1.2326,-2.1169 -2.3829,-4.2486 -1.1503,-2.1318 -2.4545,-4.5468 -2.8983,-5.3667 -0.4438,-0.8199 -1.1948,-2.0945 -1.6689,-2.8324 -0.4742,-0.7379 -1.2177,-2.0058 -1.6524,-2.8175 -0.4346,-0.8118 -1.1252,-1.9821 -1.5347,-2.6008 -0.8829,-1.3342 -0.7529,-2.37206 0.391,-3.12155 0.7051,-0.46199 0.8321,-0.4626 1.7842,-0.008 0.5637,0.26885 1.025,0.61566 1.025,0.77069 0,0.15506 0.5367,1.08986 1.1926,2.07736 0.6559,0.9875 1.1926,1.8822 1.1926,1.9883 0,0.106 0.717,1.3535 1.5933,2.7723 2.1601,3.4974 6.1585,11.2271 6.1585,11.9057 0,1.3666 -2.4152,2.485 -3.2,1.4818 z m -300.0169,-33.01992 c -0.3279,-0.32797 -0.5963,-0.91993 -0.5963,-1.31548 0,-1.04219 2.8643,-4.60636 9.2137,-11.46526 5.04,-5.44439 5.3337,-5.70447 6.4414,-5.70447 2.1948,0 2.626,2.03413 0.8176,3.85736 -3.4939,3.52265 -10.3812,11.14107 -12.0963,13.38042 -1.4266,1.86261 -2.7336,2.29392 -3.7801,1.24743 z m 276.4915,-3.16569 c -0.9613,-1.10281 -2.0161,-2.28261 -2.344,-2.62178 -0.328,-0.33917 -1.1177,-1.22179 -1.755,-1.96137 -0.6373,-0.73958 -2.8511,-3.13516 -4.9195,-5.32352 -2.0684,-2.18835 -3.8621,-4.15668 -3.9859,-4.37407 -0.2598,-0.45586 0.2429,-1.96294 0.7656,-2.29528 0.1947,-0.12381 0.7531,-0.22717 1.2408,-0.22967 0.7379,-0.004 1.3794,0.50892 3.8183,3.05145 1.6123,1.68082 4.1075,4.39769 5.5449,6.03751 1.4374,1.63982 3.2399,3.65232 4.0054,4.47223 1.9279,2.06483 2.4388,3.18884 1.9322,4.251 -0.3028,0.63477 -0.6319,0.83776 -1.4725,0.90806 -1.005,0.084 -1.2077,-0.0531 -2.8303,-1.91456 z m -247.4131,-25.74483 c -0.6261,-0.69187 -0.6908,-1.90216 -0.1373,-2.56909 0.9949,-1.19872 13.0241,-9.76339 17.5014,-12.46072 0.2082,-0.12542 0.8297,-0.0791 1.3812,0.10289 0.759,0.25047 1.0455,0.5448 1.1787,1.21054 0.097,0.48377 0.097,1.08542 3e-4,1.33698 -0.097,0.25156 -2.2731,1.85235 -4.8368,3.55731 -2.5637,1.70496 -6.5396,4.51528 -8.8354,6.24516 -4.3854,3.30446 -5.2655,3.66721 -6.2522,2.57693 z m 218.0588,-2.15643 c -2.0523,-1.44071 -4.2816,-3.074 -5.3388,-3.91144 -0.246,-0.19484 -2.5269,-1.68609 -5.0686,-3.3139 -5.7136,-3.65924 -5.6648,-3.61773 -5.6648,-4.81508 0,-1.89528 1.5642,-2.45373 3.5426,-1.26477 1.5975,0.96003 10.0685,6.64182 11.9611,8.02271 0.9019,0.65803 2.3313,1.67 3.1764,2.24883 1.4906,1.02092 1.8796,1.63938 1.8881,3.00171 0.01,0.69732 -1.0048,1.58219 -1.8044,1.58219 -0.2658,0 -1.477,-0.69761 -2.6916,-1.55025 z m -182.7822,-18.94092 c -0.2707,-0.0624 -0.6588,-0.5154 -0.8623,-1.00667 -0.633,-1.52833 -0.036,-2.12718 3.8555,-3.8692 5.4824,-2.45403 5.6353,-2.51718 9.8723,-4.07987 7.0733,-2.60877 7.0454,-2.60089 7.8791,-2.221 1.5037,0.68514 1.2283,3.42937 -0.3745,3.73111 -1.2738,0.23981 -9.0836,3.23634 -14.0382,5.38631 -4.594,1.99345 -5.4332,2.2664 -6.3319,2.05932 z m 147.4795,-1.75948 c -1.3118,-0.56485 -2.6535,-1.14218 -2.9814,-1.28296 -3.2307,-1.38679 -10.6639,-4.17153 -13.3116,-4.98697 -1.7622,-0.54274 -2.4122,-1.73006 -1.6139,-2.94835 0.275,-0.41974 0.6981,-0.83917 0.9402,-0.93207 1.0345,-0.39697 9.4012,2.5829 20.1611,7.18055 1.8201,0.77773 2.2152,2.09821 0.9933,3.32009 -0.9294,0.92938 -1.2846,0.89968 -4.1877,-0.35029 z"
       id="path2932325"
       inkscape:label="gamedev" /></g></svg>
