<?xml version="1.0" encoding="UTF-8" standalone="no"?>
<!-- Created with Inkscape (http://www.inkscape.org/) -->

<svg
   width="50mm"
   height="49.999874mm"
   viewBox="0 0 188.97638 188.97591"
   version="1.1"
   id="svg5"
   xml:space="preserve"
   inkscape:version="1.2.2 (732a01da63, 2022-12-09)"
   sodipodi:docname="social-icons.svg"
   xmlns:inkscape="http://www.inkscape.org/namespaces/inkscape"
   xmlns:sodipodi="http://sodipodi.sourceforge.net/DTD/sodipodi-0.dtd"
   xmlns="http://www.w3.org/2000/svg"
   xmlns:svg="http://www.w3.org/2000/svg"><sodipodi:namedview
     id="namedview7"
     pagecolor="#505050"
     bordercolor="#eeeeee"
     borderopacity="1"
     inkscape:showpageshadow="0"
     inkscape:pageopacity="0"
     inkscape:pagecheckerboard="0"
     inkscape:deskcolor="#505050"
     inkscape:document-units="mm"
     showgrid="false"
     inkscape:zoom="1.0779321"
     inkscape:cx="596.51253"
     inkscape:cy="302.43092"
     inkscape:window-width="2560"
     inkscape:window-height="1057"
     inkscape:window-x="1072"
     inkscape:window-y="496"
     inkscape:window-maximized="1"
     inkscape:current-layer="layer1" /><defs
     id="defs2" /><g
     inkscape:label="Capa 1"
     inkscape:groupmode="layer"
     id="layer1"
     transform="translate(-515.58553,-233.71528)"><path
       style="fill:#202020;fill-opacity:1;stroke-width:0.374173;stroke-dasharray:none"
       d="m 574.79377,420.43463 c -12.56674,-5.30086 -23.08923,-12.54139 -32.33597,-22.25043 -14.29776,-15.01259 -22.61934,-32.00768 -26.13518,-53.37566 -1.05753,-6.42725 -0.95832,-22.8182 0.17764,-29.34511 3.05126,-17.53194 9.55432,-32.52819 19.85537,-45.7871 4.56958,-5.88169 12.73789,-13.69523 19.25626,-18.4199 12.66887,-9.18272 29.37633,-15.56735 44.9111,-17.16244 4.89345,-0.50245 14.41158,-0.50541 19.35065,-0.006 14.01929,1.41753 28.8231,6.61421 40.81775,14.3285 11.85209,7.62262 22.87264,19.03151 30.27212,31.33887 8.63654,14.36491 13.62332,32.5414 13.59839,49.56515 -0.0597,40.70412 -23.44564,76.12175 -60.02345,90.90431 -3.06934,1.24045 -5.67935,2.06487 -6.53706,2.06487 -1.65611,0 -3.08836,-0.99035 -3.67817,-2.54335 -0.25525,-0.67207 -0.45628,-6.88841 -0.55455,-17.1487 -0.14335,-14.96656 -0.20959,-16.30438 -0.94501,-19.09004 -1.01978,-3.86276 -2.32767,-6.75964 -3.98788,-8.83287 -0.72964,-0.91118 -1.26635,-1.71059 -1.19271,-1.77648 0.0737,-0.0659 1.88254,-0.40882 4.01974,-0.76209 17.49615,-2.89184 27.79163,-9.54523 33.73064,-21.7982 3.23271,-6.66956 4.84968,-14.85375 4.86321,-24.61504 0.009,-6.64755 -0.37294,-9.27097 -2.15384,-14.78569 -1.07972,-3.34342 -3.53165,-7.77463 -5.67708,-10.25979 l -1.51583,-1.75583 0.73626,-2.18981 c 1.23024,-3.65899 1.67119,-8.33799 1.18522,-12.57646 -0.42744,-3.72796 -2.03913,-10.18462 -2.71619,-10.88143 -0.56981,-0.58643 -4.63982,-0.30087 -7.8764,0.55262 -3.67778,0.96984 -9.90953,3.85919 -14.37005,6.6627 l -3.43036,2.15603 -5.18109,-0.99314 c -14.49768,-2.77899 -23.78487,-2.77996 -38.03568,-0.004 l -5.09877,0.99323 -3.04293,-1.90472 c -7.12503,-4.45991 -12.83956,-6.86293 -18.10144,-7.61183 -4.06789,-0.57896 -4.76818,-0.27815 -5.56172,2.38906 -1.47502,4.95777 -1.86737,8.10551 -1.67543,13.44184 0.13524,3.76001 0.39215,5.80319 0.95376,7.58491 l 0.76867,2.43862 -1.79426,2.48439 c -5.26771,7.29385 -7.43104,14.41214 -7.4165,24.40353 0.0221,15.20745 3.98198,26.42043 12.15066,34.40643 6.31907,6.17776 14.55727,9.87372 26.42268,11.85417 2.18808,0.36521 3.97833,0.80947 3.97833,0.98725 0,0.17778 -0.16688,0.32323 -0.37084,0.32323 -0.20396,0 -1.10625,1.02223 -2.00509,2.27164 -1.6271,2.26172 -2.94052,5.58421 -3.39166,8.5797 l -0.23696,1.57338 -2.92267,0.98842 c -4.49708,1.52091 -7.865,1.94627 -11.11168,1.40341 -5.58894,-0.93452 -9.6584,-3.86918 -13.40642,-9.66792 -3.65378,-5.65296 -8.29437,-9.16626 -13.36947,-10.12177 -2.60786,-0.491 -5.12865,0.0247 -5.72858,1.17162 -0.49226,0.94121 0.81119,2.55623 3.66187,4.53715 4.35372,3.02539 8.1567,8.20689 10.87861,14.82191 2.16878,5.27078 7.19082,9.87346 13.03678,11.94816 2.74178,0.97305 3.37077,1.04709 9.05278,1.06566 3.35846,0.0106 6.98059,-0.12383 8.04919,-0.29959 l 1.94291,-0.31956 -7.4e-4,8.84015 c -3.7e-4,7.65961 -0.087,9.01647 -0.64764,10.16032 -1.49708,3.05439 -4.27873,3.06501 -11.44145,0.0437 z"
       id="path340-7"
       inkscape:export-filename="..\..\path340-7.svg"
       inkscape:export-xdpi="96"
       inkscape:export-ydpi="96"
       inkscape:label="github" /></g></svg>
