<?xml version="1.0" encoding="UTF-8" standalone="no"?>
<!-- Created with Inkscape (http://www.inkscape.org/) -->

<svg
   width="50mm"
   height="50mm"
   viewBox="0 0 188.97638 188.97638"
   version="1.1"
   id="svg5"
   xml:space="preserve"
   inkscape:version="1.2.2 (732a01da63, 2022-12-09)"
   sodipodi:docname="social-icons.svg"
   xmlns:inkscape="http://www.inkscape.org/namespaces/inkscape"
   xmlns:sodipodi="http://sodipodi.sourceforge.net/DTD/sodipodi-0.dtd"
   xmlns="http://www.w3.org/2000/svg"
   xmlns:svg="http://www.w3.org/2000/svg"><sodipodi:namedview
     id="namedview7"
     pagecolor="#505050"
     bordercolor="#eeeeee"
     borderopacity="1"
     inkscape:showpageshadow="0"
     inkscape:pageopacity="0"
     inkscape:pagecheckerboard="0"
     inkscape:deskcolor="#505050"
     inkscape:document-units="mm"
     showgrid="false"
     inkscape:zoom="1.0779321"
     inkscape:cx="596.51253"
     inkscape:cy="302.43092"
     inkscape:window-width="2560"
     inkscape:window-height="1057"
     inkscape:window-x="1072"
     inkscape:window-y="496"
     inkscape:window-maximized="1"
     inkscape:current-layer="layer1" /><defs
     id="defs2" /><g
     inkscape:label="Capa 1"
     inkscape:groupmode="layer"
     id="layer1"
     transform="translate(-718.96577,-237.8323)"><path
       style="fill:#0e76a8;fill-opacity:1;stroke-width:0.369194"
       d="m 804.77734,426.39988 c -17.49604,-1.66797 -34.13476,-8.14431 -48.51947,-18.88539 -4.55614,-3.40207 -14.61651,-13.46119 -18.019,-18.01675 -25.69749,-34.4062 -25.69749,-79.97176 0,-114.37795 3.40249,-4.55557 13.46286,-14.61469 18.019,-18.01676 34.41046,-25.6943 79.98167,-25.6943 114.39216,0 4.5561,3.40207 14.6165,13.46119 18.019,18.01676 25.6975,34.40619 25.6975,79.97175 0,114.37795 -3.4025,4.55556 -13.4629,14.61468 -18.019,18.01675 -19.1913,14.33011 -42.76437,21.08841 -65.87269,18.88539 z m 14.6595,-76.10269 0.10917,-17.45194 1.19673,-2.42974 c 2.30754,-4.685 6.71503,-7.67223 11.80156,-7.99862 5.00318,-0.32104 8.07581,1.78289 9.83207,6.73236 0.25685,0.72385 0.47221,7.82 0.60006,19.7722 l 0.19944,18.64311 8.76886,0.099 8.7689,0.099 -10e-4,-18.55751 c -6e-4,-11.26494 -0.161,-19.86318 -0.4082,-21.88005 -0.8792,-7.17329 -3.1554,-12.58878 -6.7,-15.94076 -3.474,-3.28524 -7.0109,-4.54821 -12.73689,-4.54821 -7.40091,0 -13.67956,2.36321 -18.67723,7.02991 l -2.8288,2.64145 v -3.91275 -3.91276 h -8.8612 -8.86119 v 29.53365 29.53366 h 8.84433 8.84434 z m -29.61276,-12.26628 v -29.34907 h -8.67659 -8.67659 v 29.34907 29.34907 h 8.67659 8.67659 z m -6.43142,-35.82409 c 2.66373,-0.5566 5.46828,-3.64727 6.02801,-6.64299 1.39516,-7.46698 -6.90013,-13.01048 -13.21563,-8.8316 -6.30647,4.17291 -4.35719,14.23122 3.0326,15.6482 1.48293,0.28434 2.08348,0.25925 4.15502,-0.17361 z"
       id="path342-1"
       inkscape:export-filename="..\..\path342-1.svg"
       inkscape:export-xdpi="96"
       inkscape:export-ydpi="96"
       inkscape:label="linkedin" /></g></svg>
