<?xml version="1.0" encoding="UTF-8" standalone="no"?>
<!-- Created with Inkscape (http://www.inkscape.org/) -->

<svg
   width="385.66309"
   height="373.00104"
   viewBox="0 0 385.66309 373.00104"
   version="1.1"
   id="svg5"
   xml:space="preserve"
   inkscape:version="1.2.2 (732a01da63, 2022-12-09)"
   sodipodi:docname="icons-design.svg"
   xmlns:inkscape="http://www.inkscape.org/namespaces/inkscape"
   xmlns:sodipodi="http://sodipodi.sourceforge.net/DTD/sodipodi-0.dtd"
   xmlns="http://www.w3.org/2000/svg"
   xmlns:svg="http://www.w3.org/2000/svg"><sodipodi:namedview
     id="namedview7"
     pagecolor="#505050"
     bordercolor="#eeeeee"
     borderopacity="1"
     inkscape:showpageshadow="0"
     inkscape:pageopacity="0"
     inkscape:pagecheckerboard="0"
     inkscape:deskcolor="#505050"
     inkscape:document-units="px"
     showgrid="false"
     showguides="true"
     inkscape:zoom="1.7824983"
     inkscape:cx="1593.5499"
     inkscape:cy="226.64818"
     inkscape:window-width="2560"
     inkscape:window-height="1057"
     inkscape:window-x="1072"
     inkscape:window-y="496"
     inkscape:window-maximized="1"
     inkscape:current-layer="layer1" /><defs
     id="defs2" /><g
     inkscape:label="Capa 1"
     inkscape:groupmode="layer"
     id="layer1"
     transform="translate(-1456.1401,-582.18781)"><path
       style="fill:#000000;stroke:#000000;stroke-width:0.644;stroke-dasharray:none"
       d="m 1707.075,954.65486 c -0.6153,-0.2147 -0.8048,-4.1325 -0.8048,-16.645 v -16.364 h -23.167 -23.167 l -0.172,16.2568 -0.1721,16.2568 -1.4487,0.2059 -1.4486,0.2056 v -20.2052 -20.2054 l -2.8453,-0.1468 c -2.3731,-0.1228 -2.9148,0.07 -3.2636,1.1707 -0.653,2.0575 -3.3343,4.9292 -5.4016,5.7855 -1.5616,0.6469 -1.9529,1.2706 -2.3159,3.691 -0.3378,2.2532 -1.054,3.5298 -3.1628,5.6389 -2.8899,2.8897 -4.8423,3.5795 -10.1323,3.5795 h -3.1387 v 10.3013 c 0,9.8722 -0.054,10.3014 -1.2877,10.3014 -1.2531,0 -1.2877,-0.4292 -1.2877,-16.0271 0,-12.4023 -0.1859,-16.0983 -0.8215,-16.3422 -0.4519,-0.173 -10.9545,-0.2768 -23.339,-0.2299 l -22.5175,0.087 -0.172,16.3 -0.172,16.3003 -1.4375,-0.2043 c -1.4085,-0.1993 -1.441,-0.4069 -1.6144,-10.2594 l -0.1768,-10.0548 -4.4862,-0.3211 c -4.806,-0.344 -7.5328,-1.6861 -9.9683,-4.9071 -1.2484,-1.6511 -1.2932,-2.8472 -1.4685,-39.1887 l -0.1807,-37.4857 1.6005,-3.1584 c 2.0836,-4.1117 5.04,-7.0128 9.049,-8.8797 l 3.2326,-1.5051 h 28.3751 c 31.5992,0 31.9585,0.034 36.925,4.2857 2.9043,2.4859 5.4774,6.9429 6.1846,10.7126 0.4406,2.3483 0.4858,2.379 3.5221,2.379 3.0365,0 3.0816,-0.03 3.5222,-2.3788 0.7072,-3.7697 3.2803,-8.2266 6.1847,-10.7126 4.8661,-4.1652 5.8221,-4.293 32.0962,-4.2859 23.3178,0 23.5775,0.02 26.7654,1.5097 4.5406,2.1205 7.0467,4.4363 8.9638,8.283 l 1.6595,3.3306 v 24.3599 c 0,26.7828 0,26.8262 -3.9472,30.5567 -2.7216,2.5757 -4.9356,3.4195 -8.9714,3.4195 h -3.1774 v 22.1436 c 0,22.6769 -0.064,23.2742 -2.4143,22.4545 z m -133.4348,-47.8173 v -23.8218 h -6.7934 -6.7934 l 0.194,20.7636 c 0.169,18.0804 0.3354,21.0216 1.2873,22.7596 1.4361,2.6216 4.5516,4.0877 8.7253,4.1058 l 3.3801,0.02 z m 63.734,21.547 c 1.0491,-1.0504 2.0924,-2.8377 2.3185,-3.9715 0.3632,-1.8216 0.2221,-2.1089 -1.2118,-2.4688 -2.5318,-0.6355 -3.9503,-2.7177 -6.2257,-9.138 -2.3725,-6.6944 -2.3127,-9.4653 0.2571,-11.9253 l 1.5122,-1.4475 -2.3463,-8.6918 c -2.0194,-7.4805 -2.5258,-8.6917 -3.634,-8.6917 -1.2617,0 -1.2914,0.4905 -1.4715,24.3788 l -0.1839,24.3786 4.5389,-0.2565 c 4.0005,-0.2259 4.7651,-0.4828 6.4464,-2.1663 z m -13.5149,-29.5949 v -20.2809 h 2.2967 c 1.8857,0 2.237,-0.2017 1.9625,-1.1266 -5.4529,-18.3696 -4.7868,-20.8341 5.7567,-21.2953 6.9687,-0.3048 7.0058,-0.3503 4.5661,-5.5895 -1.7998,-3.8648 -5.3028,-7.1099 -8.6182,-7.9839 -1.3325,-0.3513 -4.8854,-0.701 -7.8953,-0.7771 l -5.4727,-0.1388 -7.1964,12.178 -7.1963,12.1781 2.6895,0.169 c 1.4792,0.092 3.3475,0.3176 4.1515,0.4984 l 1.4619,0.3287 -0.1742,13.0222 -0.1742,13.022 h -10.9452 -10.9452 l -0.1751,-12.8301 c -0.134,-9.8339 0.016,-12.9513 0.6438,-13.3497 0.4504,-0.2859 2.3267,-0.5241 4.1697,-0.5295 h 3.3507 l -3.2758,-5.6336 c -1.8016,-3.0984 -4.9571,-8.5308 -7.0119,-12.0719 l -3.736,-6.4384 h -5.7499 c -5.5085,0 -5.8894,0.094 -9.0757,2.2535 -2.454,1.6627 -3.7846,3.1817 -5.0754,5.7945 -1.7006,3.4423 -1.7556,3.9051 -1.9677,16.5787 l -0.2182,13.0377 h 6.8176 6.8175 v -6.3696 c 0,-5.2283 0.1834,-6.4397 1.0238,-6.7622 0.5631,-0.2161 1.2874,-0.23 1.6096,-0.03 0.3361,0.2079 0.5857,11.4574 0.5857,26.3995 v 26.0372 h 23.4999 23.5001 z m 21.6413,18.1662 c 4.1282,-3.7831 3.697,-10.2412 -0.9119,-13.6594 -3.6816,-2.7303 -11.0719,-1.1243 -11.0719,2.406 0,1.8788 3.2348,10.9594 4.3606,12.2413 1.643,1.8706 4.9753,1.4388 7.6232,-0.9879 z m 60.7696,-2.3922 v -4.5069 h -11.5396 -11.5394 l -1.9316,1.9315 -1.9314,1.9315 h -9.7071 -9.7071 v 2.5754 2.5753 h 23.1781 23.1781 z m -27.8282,-4.2214 c 0.787,-0.5512 1.4309,-1.4154 1.4309,-1.9205 0,-1.6516 -13.5948,-46.2923 -14.5506,-47.7793 -0.9277,-1.4435 -0.9946,-1.4487 -18.2538,-1.4487 -14.8895,0 -17.4648,0.1429 -18.3345,1.0119 -0.5564,0.5563 -1.0215,1.4979 -1.0336,2.0924 -0.013,0.5944 2.0565,8.9393 4.5968,18.5443 l 4.6185,17.4638 3.5211,0.3633 c 2.1882,0.226 4.4401,0.9716 5.9486,1.97 2.6269,1.7383 5.1587,6.144 5.1587,8.9767 v 1.7283 h 12.7335 c 10.4827,0 12.9864,-0.1771 14.1644,-1.0022 z m 38.7834,-4.3724 c 2.0382,-1.0672 3.3134,-2.3382 4.3359,-4.3216 1.3305,-2.5804 1.4488,-3.6785 1.45,-13.4573 v -10.6479 l -6.4399,0.2039 -6.4395,0.2036 v 7.5223 c 0,4.1374 -0.234,7.875 -0.508,8.3059 -0.3652,0.5751 -4.3924,0.8015 -15.1098,0.8495 -8.0365,0.036 -14.7171,0.2629 -14.8456,0.504 -0.1285,0.241 0.6022,3.1181 1.6236,6.3937 l 1.8574,5.9554 h 15.5984 c 15.12,0 15.6873,-0.046 18.4859,-1.5115 z m -10.3115,-27.4611 c 0,-12.8366 0.063,-13.5204 1.2189,-13.5204 1.5875,0 2.0004,1.2072 2.0004,5.8472 v 3.8103 h 6.4383 6.4384 v -9.8227 c 0,-5.4026 -0.2831,-10.8096 -0.629,-12.0161 -0.9203,-3.2088 -3.6072,-6.7773 -6.6663,-8.8534 -2.6216,-1.779 -2.9208,-1.8266 -12.8246,-2.039 l -10.1404,-0.2175 v 18.1636 18.1638 l -2.9915,2.6566 c -4.599,4.084 -4.3607,4.0735 -8.6198,0.3837 l -3.8407,-3.3273 v -17.9638 -17.9635 l -6.5993,0.02 c -7.8468,0.02 -10.6587,1.0275 -14.1242,5.076 -2.1149,2.4709 -4.3741,8.0131 -3.5871,8.8002 0.183,0.1831 3.0975,0.392 6.4767,0.4644 5.5273,0.1187 6.3113,0.2889 7.8112,1.6993 0.917,0.8622 1.9731,2.7454 2.3469,4.185 0.3738,1.4394 0.9484,3.4863 1.2767,4.5487 0.3284,1.0623 2.059,6.8567 3.8457,12.8767 1.7867,6.0199 3.3729,11.3073 3.5246,11.75 0.2096,0.6112 3.6893,0.8048 14.4607,0.8048 h 14.1844 z m -99.7943,1.2877 v -10.3013 h -8.0479 -8.0481 v 10.3013 10.3014 h 8.0481 8.0479 z m 82.3644,-20.4711 0.046,-17.5738 -4.3459,0.1911 -4.3459,0.1911 -0.1714,17.1671 -0.1715,17.1672 2.3724,1.9555 2.3724,1.9556 2.0985,-1.7392 2.0983,-1.7391 0.046,-17.5739 z m -83.3979,-6.5319 c 3.384,-5.8221 6.033,-10.7051 5.8867,-10.8515 -0.317,-0.3168 -25.6216,-0.181 -25.9421,0.1389 -0.1218,0.1228 1.0555,2.3561 2.6164,4.9647 1.5609,2.6088 4.4999,7.5988 6.5313,11.0886 2.0312,3.4897 3.9321,6.0972 4.2242,5.7944 0.292,-0.3027 3.2996,-5.314 6.6835,-11.1359 z m -6.8849,101.2809 c -0.2483,-0.2482 -0.4515,-4.1787 -0.4515,-8.7342 0,-7.0005 0.1596,-8.3439 1.0308,-8.6783 1.7923,-0.6876 2.194,1.1821 2.028,9.4419 -0.1337,6.6624 -0.3324,8.0727 -1.1587,8.231 -0.5484,0.1046 -1.2003,-0.02 -1.4486,-0.2604 z m 83.6763,-0.022 c -0.2361,-0.2362 -0.4292,-4.1165 -0.4292,-8.6229 0,-6.8961 0.1622,-8.256 1.0238,-8.5866 0.5631,-0.2161 1.2874,-0.23 1.6096,-0.03 0.3222,0.1991 0.5857,4.2563 0.5857,9.0158 0,7.9623 -0.094,8.6538 -1.1804,8.6538 -0.6491,0 -1.3734,-0.1932 -1.6095,-0.4291 z m -146.6139,-30.6002 c -11.9716,-8.6001 -14.8386,-11.0056 -14.6485,-12.2898 0.108,-0.7296 0.486,-1.4165 0.8401,-1.5263 0.3541,-0.1107 2.8168,1.5418 5.4726,3.6703 2.6558,2.1284 6.7844,5.1837 9.1746,6.7894 2.8642,1.924 4.3459,3.3447 4.3459,4.1665 0,1.8473 -1.8983,1.5507 -5.1847,-0.8101 z m 203.2002,-1.748 c -0.6628,-1.0723 0.3312,-2.288 3.9954,-4.8869 1.9969,-1.4165 6.1868,-4.7045 9.3107,-7.3065 5.3946,-4.4937 7.5825,-5.3926 7.5825,-3.1156 0,1.4599 -17.8857,15.8947 -19.6949,15.8947 -0.4575,0 -0.9948,-0.2636 -1.1937,-0.5857 z m -233.1045,-24.0056 c -0.7081,-0.3352 -2.1568,-1.7071 -3.2191,-3.0484 -1.0624,-1.3414 -3.8871,-4.8265 -6.2774,-7.7447 -4.1723,-5.094 -5.5427,-8.3965 -3.4841,-8.3965 0.474,0 2.7723,2.3903 5.1072,5.3118 2.3349,2.9214 5.5642,6.7602 7.176,8.5307 3.647,4.0061 4.0275,6.9237 0.6974,5.3471 z m 267.1305,-7.2062 c -0.193,-0.5009 1.725,-3.5418 4.366,-6.9246 2.5898,-3.3173 5.8109,-7.6958 7.1577,-9.7299 1.5868,-2.3969 2.8901,-3.6987 3.7021,-3.6987 0.7045,0 1.2532,0.4385 1.2532,1.0012 0,2.2144 -13.5439,20.2454 -15.2073,20.2454 -0.5109,0 -1.0831,-0.402 -1.2717,-0.8934 z m -292.334,-26.6404 c -1.1838,-0.759 -9.8855,-18.803 -9.8855,-20.499 0,-1.0437 0.3668,-1.5425 1.1342,-1.5425 0.826,0 2.5049,2.8039 6.1786,10.3188 5.1448,10.5239 5.8722,13.8381 2.5727,11.7227 z m 317.3756,-12.489 c 0.6012,-2.4832 8.6826,-21.9045 9.4226,-22.6445 0.4855,-0.4855 0.9164,-0.4558 1.4744,0.1026 0.9023,0.9024 -1.0445,6.9655 -5.618,17.4967 -2.1452,4.9394 -2.9438,6.1582 -4.15,6.3332 -1.2764,0.1851 -1.4404,0 -1.129,-1.2877 z m -205.4606,-20.4281 c -9.0685,-3.1914 -14.7537,-11.9213 -14.1694,-21.7574 0.6808,-11.4588 8.8801,-19.4772 20.4921,-20.0402 6.7954,-0.3294 11.3162,1.4344 16.203,6.321 3.1087,3.1088 3.8709,4.3596 5.0777,8.3331 2.3477,7.7288 0.9388,14.705 -4.2482,21.0352 -4.9885,6.0878 -15.5583,8.8523 -23.3552,6.1083 z m 13.1006,-3.0725 c 4.6746,-1.5927 10.1818,-7.2188 11.5126,-11.7612 1.3634,-4.6535 1.2915,-7.6522 -0.2845,-11.8647 -2.9878,-7.9854 -9.9737,-12.4736 -18.4666,-11.8639 -5.1211,0.3676 -8.5308,1.9317 -11.8623,5.4416 -5.3813,5.6696 -6.7361,13.6241 -3.4862,20.4692 4.0514,8.5329 13.6767,12.6151 22.587,9.579 z m 70.7502,3.333 c -7.7547,-2.4487 -12.7605,-7.8029 -14.8234,-15.855 -2.3897,-9.3281 2.0132,-19.0279 10.7995,-23.7915 3.8316,-2.0774 4.4474,-2.211 10.1944,-2.211 5.2514,0 6.5639,0.2277 9.2801,1.6096 12.6932,6.4579 16.135,22.6693 7.0944,33.4135 -5.3678,6.3793 -14.867,9.2589 -22.545,6.8344 z m 13.8965,-4.1004 c 4.0938,-2.1093 6.9132,-5.004 8.8692,-9.1065 4.3987,-9.224 0.3135,-19.7946 -9.3896,-24.2964 -5.1441,-2.3867 -10.0413,-2.206 -15.4796,0.5711 -9.154,4.6747 -12.6201,14.5057 -8.4434,23.9479 1.5543,3.5136 6.7576,8.3363 10.4559,9.6912 3.922,1.4367 10.3527,1.0655 13.9875,-0.8073 z m -226.5667,-3.1935 c -0.7501,-1.4016 -2.9384,-10.165 -4.207,-16.8477 -0.6164,-3.2471 -0.7044,-5.0718 -0.27,-5.5952 1.2111,-1.4594 2.4135,-0.1007 3.1411,3.5481 0.3999,2.0055 1.4731,6.8721 2.385,10.8148 1.5803,6.8329 1.6374,9.2493 0.2181,9.2493 -0.3526,0 -0.9229,-0.5262 -1.2672,-1.1693 z m 348.8796,-16.0533 c 0,-0.6197 0.6265,-6.4271 1.4117,-12.9053 1.3398,-11.0526 1.5077,-11.7669 2.7254,-11.589 1.1439,0.167 1.2791,0.6094 1.1396,3.7306 -0.1772,3.965 -1.1145,11.7946 -2.1388,17.8665 -0.5541,3.2835 -0.9035,4.0239 -1.9003,4.0239 -0.7282,0 -1.2282,-0.4551 -1.2376,-1.1267 z m -355.2202,-25.0971 c -1.2458,-0.4346 -1.1352,-22.0159 0.1214,-23.7112 0.8175,-1.1028 1.028,-1.1362 1.7903,-0.2842 0.6731,0.7527 0.8123,3.4763 0.6307,12.3453 -0.2328,11.3678 -0.4534,12.3788 -2.5425,11.6501 z m 181.8297,-10.904 c -0.7425,-0.7426 -0.4797,-9.1211 0.3013,-9.6038 0.4018,-0.2482 2.3574,-0.4278 4.3459,-0.3988 4.8964,0.07 5.6523,-0.236 6.1011,-2.4797 0.2121,-1.0605 2.5292,-5.1807 5.1491,-9.1555 2.6199,-3.9751 5.6679,-9.4729 6.7733,-12.2172 1.1052,-2.7443 2.9113,-7.2205 4.0132,-9.9469 1.9095,-4.7241 1.9656,-5.115 1.1964,-8.3216 -0.4439,-1.8504 -0.6577,-4.4726 -0.475,-5.8271 0.3015,-2.2349 6.4209,-16.3065 12.8276,-29.49722 2.743,-5.64783 5.805,-8.84257 9.7278,-10.15018 l 2.4471,-0.81564 -1.5802,-2.14177 c -6.9122,-9.36921 -0.2457,-22.58212 11.464,-22.72214 8.4126,-0.10061 14.5394,6.10737 14.5394,14.73134 0,5.34041 -4.8195,11.65482 -10.1758,13.33224 -1.6689,0.52265 -1.6804,0.44056 0.5182,3.7276 2.5789,3.85538 3.8445,3.43089 11.9692,-4.01396 3.8632,-3.54006 7.375,-6.43731 7.8037,-6.43832 1.0061,0 2.6832,-1.80636 7.0247,-7.5544 3.5061,-4.64206 3.5188,-4.67545 4.496,-11.91095 0.539,-3.99077 1.5035,-9.29959 2.1435,-11.79766 l 1.1637,-4.54208 -3.7114,0.26861 c -4.5081,0.32615 -7.7331,-0.65751 -10.7016,-3.26384 -5.1147,-4.49076 -6.4088,-11.42828 -3.2783,-17.57489 2.0677,-4.06017 5.573,-6.582 10.2016,-7.33952 4.7661,-0.78005 8.2889,0.19919 11.787,3.27914 3.5391,3.11516 5.0923,6.88159 4.7853,11.60291 l -0.2243,3.44654 16.3253,-0.23601 c 17.6065,-0.25472 18.6071,-0.10261 20.0422,3.03688 1.409,3.08356 3.8942,20.94638 3.2344,23.24748 -0.7564,2.6367 -2.6434,4.27507 -5.5527,4.82092 -1.6465,0.30883 -2.1858,0.69252 -1.926,1.36957 0.7255,1.89105 4.2307,14.34182 6.4884,23.04891 1.8069,6.96671 3.2324,10.72944 6.4644,17.06174 l 4.1464,8.1238 0.021,-47.71799 c 0.021,-47.14664 0.03,-47.73816 1.3377,-49.39885 2.8386,-3.6087 9.7218,-3.78293 19.4241,-0.49153 6.5533,2.22324 14.5443,3.57308 17.9389,3.03026 1.8223,-0.29132 2.4769,-0.14285 2.7745,0.63397 0.2142,0.55832 0.3896,5.92388 0.3896,11.92362 v 10.90839 l -1.6489,0.62693 c -5.5461,2.10875 -13.3665,1.31764 -24.2193,-2.4494 -6.6991,-2.32544 -6.946,-2.36186 -9.6574,-1.42468 l -2.7826,0.96194 -0.1669,36.84446 -0.1671,36.84458 2.0977,-0.4375 c 4.0004,-0.8343 5.3009,-0.6106 5.5226,0.9505 0.1127,0.7967 -0.021,1.4487 -0.2869,1.4487 -0.8761,0 -49.8865,10.0743 -58.7234,12.0709 l -4.7222,1.0669 -4.9433,5.8249 c -2.7188,3.2037 -6.9607,8.2876 -9.4264,11.2975 -8.9454,10.9197 -10.0441,12.0069 -12.6953,12.563 -4.187,0.878 -23.4364,5.4863 -52.6616,12.6069 -7.3888,1.8004 -9.6902,2.0957 -15.3518,1.9704 -9.0293,-0.1992 -9.1139,-0.161 -9.1139,4.1292 0,2.9624 -0.1807,3.4976 -1.1803,3.4976 -0.6493,0 -1.3736,-0.1932 -1.6096,-0.4292 z m 19.4891,-10.6285 c 3.1988,-0.7384 3.3765,-0.9062 7.4599,-7.0399 2.5088,-3.7686 5.428,-9.3415 7.2936,-13.9238 4.0323,-9.9042 4.3135,-11.0405 2.8474,-11.5083 -0.6284,-0.2012 -2.2078,-0.9252 -3.5098,-1.6102 -1.302,-0.685 -2.5247,-0.9911 -2.717,-0.6796 -0.1924,0.3112 -1.8071,4.277 -3.5881,8.8131 -2.8003,7.1319 -4.7115,10.6997 -10.4621,19.5321 -2.3843,3.6618 -3.0534,5.1998 -2.6824,6.1663 0.4628,1.2062 1.09,1.2356 5.3585,0.2503 z m 16.5358,-4.0924 c 3.8526,-0.8961 9.0328,-2.0901 11.5117,-2.6531 l 4.5068,-1.0235 0.013,-4.2683 c 0.01,-2.3474 0.6903,-7.1098 1.5184,-10.583 0.8282,-3.4731 1.4018,-6.4177 1.275,-6.5432 -0.3464,-0.3429 -12.8609,-2.416 -13.0756,-2.1661 -0.1022,0.1187 -1.8339,4.4171 -3.8484,9.5517 -2.0144,5.1346 -5.0812,11.581 -6.8153,14.3254 -1.734,2.7443 -2.9137,4.9896 -2.6214,4.9896 0.2922,0 3.6835,-0.7333 7.5361,-1.6295 z m 25.1607,-6.1625 c 1.5299,-0.5631 1.4304,-0.2702 4.7304,-13.9056 1.2738,-5.2636 1.8946,-9.145 1.6309,-10.1959 -0.7926,-3.1582 -3.0209,-4.625 -8.3988,-5.5288 -7.4665,-1.2545 -7.4223,-1.1639 -4.0739,-8.3292 1.5622,-3.3425 4.2714,-9.2163 6.0211,-13.053 l 3.1809,-6.9755 5.7996,0.4247 5.7997,0.4248 5.7893,-5.25271 c 3.1842,-2.88879 6.5069,-5.95228 7.3833,-6.80742 l 1.5936,-1.55458 -1.4218,-0.99596 c -0.7818,-0.54768 -1.6517,-1.88325 -1.9327,-2.96797 l -0.5111,-1.9717 -2.88,2.39869 c -1.584,1.31947 -4.5712,3.9719 -6.638,5.89439 -3.7161,3.45631 -3.798,3.49317 -7.3497,3.30384 -3.453,-0.18308 -3.6468,-0.29067 -5.0133,-2.76664 -2.4822,-4.49721 -8.2427,-7.346 -12.4272,-6.1459 -5.8584,1.68027 -6.9343,3.21043 -15.5137,22.06396 -2.5337,5.5679 -5.0263,10.9278 -5.539,11.9109 -1.7887,3.429 -0.9649,8.6558 1.8389,11.6671 2.337,2.5099 4.3248,3.1768 14.5366,4.8756 5.3871,0.8962 10.0858,1.8094 10.4416,2.0291 0.7176,0.4436 0.6176,1.0384 -2.0482,12.1718 -1.6763,7.0005 -1.7573,7.8451 -0.8813,9.182 0.9867,1.5056 2.0252,1.5241 5.8828,0.1046 z m 12.0246,-2.5882 c 3.2309,-0.7514 6.3651,-1.6222 6.9649,-1.9349 0.9408,-0.4901 9.3094,-10.1088 18.1338,-20.8423 6.283,-7.6424 7.2938,-8.3576 13.6112,-9.6302 3.1871,-0.642 6.0174,-1.3656 6.2897,-1.6076 0.2721,-0.242 -1.6834,-5.5736 -4.3459,-11.8479 -2.6627,-6.2745 -4.841,-11.6607 -4.841,-11.97 0,-0.309 2.0582,-4.71048 4.5738,-9.78088 5.1794,-10.4394 5.1503,-8.76744 0.2899,-16.60995 l -2.1698,-3.50107 -1.0502,2.51276 c -0.5774,1.38204 -1.2635,2.6679 -1.5245,2.85743 -0.2609,0.18913 -1.4647,1.64822 -2.6749,3.24172 -4.1161,5.41947 -9.1398,10.94528 -9.9507,10.94528 -0.4446,0 -3.9692,2.92382 -7.8326,6.49727 -3.8631,3.57364 -8.1831,7.36994 -9.5994,8.43604 -2.4977,1.8802 -2.7269,1.9265 -7.5971,1.533 l -5.0215,-0.4059 -3.7596,7.9048 c -5.6191,11.8143 -6.0129,12.8664 -5.0441,13.4813 0.4507,0.286 1.6255,0.5245 2.6108,0.5298 2.2828,0.02 6.158,1.6243 7.9475,3.3053 0.7625,0.7165 1.7374,2.5561 2.1663,4.0881 0.6869,2.4533 0.5728,3.6941 -0.9576,10.4166 -0.9557,4.1972 -1.999,8.4715 -2.3187,9.4981 -0.6728,2.1621 -0.7601,4.2498 -0.177,4.2498 0.2218,0 3.0467,-0.6149 6.2773,-1.3666 z m 53.3255,-35.4081 c 1.8765,-0.3959 3.5047,-0.8028 3.6182,-0.904 0.1128,-0.1006 -1.697,-4.65 -4.0239,-10.1084 -2.3266,-5.4583 -4.2304,-10.416 -4.2304,-11.0169 0,-0.6009 1.7207,-4.52489 3.8235,-8.72004 l 3.8236,-7.62751 2.7192,-0.43481 c 1.4958,-0.23922 2.9265,-0.20662 3.1794,0.0725 0.2534,0.27905 1.3621,4.12881 2.464,8.55512 1.5099,6.06605 3.0508,10.16914 6.2561,16.66044 l 4.2526,8.6123 3.6327,-0.427 c 1.9982,-0.2348 3.8781,-0.672 4.1778,-0.9718 0.2995,-0.2996 -1.3166,-4.2726 -3.5914,-8.8291 -3.6039,-7.2185 -4.65,-10.22345 -8.1294,-23.35531 l -3.9935,-15.07098 -6.4099,-11.14438 c -3.5255,-6.12931 -6.4103,-11.58279 -6.4103,-12.11879 0,-1.26756 2.1228,-1.76713 6.457,-1.52005 l 3.4908,0.19919 0.7628,4.82877 c 0.4198,2.65581 0.9519,6.20675 1.1827,7.89119 0.3451,2.51761 0.7507,3.23347 2.2799,4.02437 2.2615,1.16937 4.8538,0.27544 5.3818,-1.85606 0.477,-1.92546 -2.4502,-20.11098 -3.4265,-21.28739 -1.2852,-1.54863 -4.0373,-1.72046 -18.06,-1.12791 -13.9401,0.5891 -15.5453,0.9444 -18.4645,4.08572 -2.1472,2.31056 -4.4505,10.25469 -5.7113,19.69774 -0.9048,6.77797 -1.4344,8.89438 -2.578,10.30137 -10.0031,12.30811 -10.0795,12.44814 -8.0072,14.65403 1.9575,2.08343 3.8574,2.02991 5.93,-0.1669 4.0848,-4.33083 10.7995,-13.53204 11.1588,-15.29113 1.0153,-4.97041 1.6892,-6.76026 2.546,-6.76026 0.5058,0 2.5581,2.82482 4.5603,6.27738 2.0024,3.45257 4.3298,7.35782 5.1722,8.67831 l 1.5312,2.4009 -4.8284,9.72501 -4.8285,9.72548 1.8297,4.2918 c 6.4879,15.2177 8.1093,18.7779 8.5526,18.7779 0.2741,0 2.0337,-0.3239 3.9103,-0.7199 z m 13.6453,-2.8182 c 2.4417,-0.5173 4.556,-1.0574 4.699,-1.2003 0.1429,-0.1429 -1.6372,-4.2433 -3.956,-9.1117 -2.3189,-4.8686 -4.2162,-9.197 -4.2162,-9.6191 0,-0.4219 -0.4065,-2.05008 -0.903,-3.61815 -0.4968,-1.56799 -1.2587,-4.22722 -1.6933,-5.90926 -0.4346,-1.68196 -1.1655,-3.05826 -1.624,-3.05826 -0.4586,0 -2.3612,3.00397 -4.2278,6.6754 l -3.3939,6.67517 4.08,9.5818 c 2.2439,5.2697 4.2011,9.7987 4.3493,10.0642 0.385,0.69 1.8445,0.5882 6.8859,-0.4798 z m -72.0349,-38.00241 c 9.7516,-5.55228 5.5395,-20.26774 -5.8014,-20.26774 -4.9833,0 -9.1917,3.19765 -10.6251,8.0733 -1.5934,5.42008 1.9901,11.72685 7.6336,13.43463 3.4599,1.04702 5.2093,0.80037 8.7929,-1.24019 z m 67.5744,-29.76431 c -0.8562,-4.32918 -1.019,-4.6678 -2.2442,-4.6678 -1.6016,0 -1.5925,0.22634 0.1309,3.29241 1.4755,2.62566 2.4913,3.28658 2.1133,1.37539 z m 61.1439,-10.44642 1.6516,-0.62795 v -8.61872 -8.61895 l -4.803,-0.4352 c -2.6419,-0.23942 -5.6114,-0.6909 -6.5994,-1.00317 -11.517,-3.64088 -15.974,-4.66539 -19.0222,-4.37243 -4.7198,0.4535 -4.9864,1.05427 -4.9864,11.24115 v 8.58092 l 1.7705,-0.49514 c 3.1367,-0.87723 6.7864,-0.39376 12.903,1.70917 9.1465,3.14473 15.4616,4.01833 19.0859,2.64032 z m -93.8733,-2.51759 c 3.2888,-2.43169 4.9425,-6.0432 4.6089,-10.06636 -0.5063,-6.10355 -4.957,-10.19373 -10.9452,-10.05892 -5.3408,0.12072 -9.4372,3.36484 -10.8438,8.58815 -1.1931,4.4312 1.8744,10.4068 6.4722,12.60851 2.568,1.22952 8.3825,0.64786 10.7079,-1.07138 z M 1595.888,764.04986 c -0.2563,-0.2559 -16.0143,-0.4654 -35.0178,-0.4654 h -34.552 l -4.1849,-1.6931 c -2.3017,-0.9311 -5.7784,-2.4269 -7.726,-3.3236 -1.9477,-0.8969 -6.2934,-2.8382 -9.6575,-4.3143 -11.3407,-4.9758 -12.1677,-5.6244 -30.7432,-24.1134 -17.4894,-17.4079 -17.5445,-17.4712 -17.5445,-20.2076 0,-2.1279 0.3757,-3.0932 1.671,-4.2936 3.0038,-2.784 12.4077,-3.0191 17.3688,-0.4346 2.315,1.2061 27.8395,18.5367 34.2145,23.2309 l 2.7133,1.9978 10.2885,-0.4241 10.2884,-0.4241 -0.3549,-1.7748 c -0.4968,-2.4836 0.7517,-5.8259 3.0565,-8.1833 2.189,-2.2392 4.168,-2.7695 16.0415,-4.2997 4.0723,-0.5248 14.0143,-1.8455 22.0936,-2.9351 12.6457,-1.7049 15.3331,-1.8898 19.3151,-1.3276 7.6348,1.0778 9.1282,1.7406 25.2282,11.1958 6.8155,4.0027 9.064,5.6441 9.2195,6.7304 0.3541,2.4724 -1.7513,1.72 -11.517,-4.1166 -13.4017,-8.0095 -15.7937,-9.1594 -21.4497,-10.31 -4.6482,-0.9458 -5.7061,-0.9466 -12.5547,0 -4.1134,0.5623 -15.144,2.0691 -24.5127,3.3481 -18.3478,2.5051 -19.7011,2.9323 -21.2674,6.7139 -0.9535,2.3018 -0.158,4.8399 2.2161,7.0703 1.5998,1.5029 2.634,1.6142 30.2808,3.2565 12.1659,0.723 14.1874,1.2187 12.3719,3.0349 -0.6243,0.6245 -4.7051,0.5841 -19.4527,-0.1931 -22.2465,-1.172 -22.0561,-1.1472 -25.1973,-3.2821 l -2.4792,-1.6853 -11.3323,0.371 -11.3324,0.3708 -11.2018,-7.5586 c -9.8545,-6.6494 -12.5591,-8.5253 -18.2841,-12.6817 -7.5167,-5.457 -11.6572,-7.0464 -16.9451,-6.5046 -3.6974,0.3789 -5.2672,1.2593 -5.2672,2.9542 0,0.5908 7.9045,8.9447 17.5655,18.5644 l 17.5654,17.4904 7.3832,3.4689 c 14.795,6.9511 22.5348,10.1554 26.1867,10.8415 2.5057,0.4708 13.7721,0.6051 34.3128,0.4086 16.8322,-0.1609 31.523,-0.037 32.6746,0.2787 1.4233,0.3884 2.0925,0.9608 2.0925,1.7903 0,1.3631 -0.8614,2.1504 -1.574,1.4387 z m -60.878,-52.2622 c -22.377,-1.902 -42.7058,-15.872 -52.512,-36.0867 -2.7705,-5.71106 -4.716,-12.17456 -5.8105,-19.30383 -3.0628,-19.95065 4.0113,-41.0131 18.5204,-55.14206 14.2221,-13.8495 33.725,-20.64457 52.4786,-18.28412 18.3074,2.30453 32.9143,10.43093 43.8359,24.38848 10.0871,12.89079 14.2054,26.08357 13.5012,43.25042 -0.6399,15.59913 -5.7195,28.0713 -16.3011,40.02391 -13.3229,15.0492 -33.242,22.8941 -53.7125,21.1539 z m 16.8689,-3.9607 c 6.5728,-1.3671 13.2069,-3.8459 18.5874,-6.9446 l 5.4273,-3.1258 -0.1015,-4.3004 c -0.1851,-7.84171 -5.3717,-15.12917 -13.6783,-19.21857 l -4.2205,-2.07777 h -16.7533 -16.7532 l -3.818,1.78805 c -7.3227,3.42927 -11.473,7.93392 -13.954,15.14502 -1.8002,5.23237 -1.6317,7.95287 0.5943,9.59847 4.5291,3.3486 13.9318,7.278 21.3626,8.9274 4.5265,1.0045 18.8626,1.1327 23.3073,0.2082 z m -49.3935,-16.5032 c 1.2246,-8.16679 7.1761,-15.77392 15.6001,-19.93976 l 4.9409,-2.44336 16.3116,-0.20118 c 17.2132,-0.21249 20.1344,0.1368 25.9129,3.0916 6.507,3.32802 12.4467,11.21542 13.6885,18.1773 0.3966,2.2231 0.8212,4.1687 0.9436,4.3236 0.3543,0.4488 5.8067,-5.0723 9.2279,-9.34413 14.8154,-18.4994 17.1507,-45.33101 5.78,-66.41158 -8.1673,-15.1416 -21.5227,-25.61177 -39.2782,-30.79304 -5.8901,-1.71883 -22.6756,-1.76572 -29.6157,-0.0825 -9.8479,2.38803 -21.1091,8.83343 -28.3295,16.21419 -5.7309,5.85829 -5.3068,5.34081 -8.6457,10.55005 -4.8605,7.58256 -8.003,16.50129 -9.3913,26.65216 -1.8368,13.43059 3.3846,31.99417 12.0816,42.9537 2.8143,3.54621 9.297,10.30135 9.8862,10.30135 0.2365,0 0.6357,-1.3717 0.8871,-3.0484 z m 30.915,-28.7597 c -10.5233,-3.34232 -18.3758,-11.56286 -21,-21.98515 -1.1123,-4.41731 -0.3779,-14.00342 1.4032,-18.31631 5.1719,-12.52341 18.3889,-19.97921 31.9959,-18.04952 20.2174,2.86749 31.5116,25.29044 22.053,43.78361 -1.7624,3.44592 -6.3436,8.34008 -9.9897,10.67257 -6.7273,4.30345 -17.6833,6.04783 -24.4624,3.8948 z m 14.7312,-3.28799 c 7.5411,-1.96409 13.9466,-7.30591 17.349,-14.46818 1.6247,-3.42016 2.0316,-5.19614 2.2535,-9.83659 0.2372,-4.96214 0.054,-6.25707 -1.4806,-10.46453 -3.1622,-8.67025 -11.2426,-15.208 -21.0418,-17.0246 -3.8222,-0.70862 -4.8405,-0.65371 -9.4359,0.50843 -5.8918,1.48987 -8.9188,3.21152 -13.2348,7.52762 -7.5996,7.59969 -9.6789,19.77801 -4.9904,29.22812 5.8689,11.82845 18.2914,17.7308 30.581,14.52973 z m -10.2823,-7.41878 c -1.0944,-0.33299 -2.7602,-1.31985 -3.7022,-2.19267 -3.384,-3.13627 -1.3348,-5.47461 2.3408,-2.67112 2.7515,2.09851 6.0733,2.17597 9.4712,0.22033 2.0345,-1.17077 2.6684,-1.28989 3.3322,-0.62613 2.7239,2.72403 -6.2411,6.85261 -11.442,5.26959 z m 155.2222,-47.03579 c -7.3186,-2.52 -9.0524,-3.35135 -9.2194,-4.42032 -0.3114,-1.99308 1.7752,-1.71079 11.4513,1.54943 9.0811,3.05984 10.4488,3.78273 9.8939,5.22896 -0.5283,1.37659 -2.257,1.04039 -12.1258,-2.35807 z m -88.4111,-7.82279 c 0.2273,-1.59349 0.6797,-1.69892 14.3701,-3.34835 5.9957,-0.72231 7.2268,-0.71666 8.0249,0.0361 1.8657,1.7619 -0.5466,2.57957 -10.9222,3.70287 -12.3445,1.33656 -11.7224,1.35768 -11.4728,-0.39154 z m 56.4732,0.51548 c -0.1556,-0.15492 -3.884,-0.59556 -8.2855,-0.97765 -8.1133,-0.70457 -9.8697,-1.3943 -8.0883,-3.17609 0.7643,-0.76456 2.3745,-0.73739 11.024,0.1851 5.571,0.59474 10.3728,1.23215 10.6707,1.41623 0.2979,0.18308 0.5417,0.89715 0.5417,1.58444 0,1.04462 -0.4575,1.24965 -2.7899,1.24965 -1.5345,0 -2.9172,-0.12677 -3.0727,-0.2827 z"
       id="path2932357"
       inkscape:label="mentorship" /></g></svg>
