<?xml version="1.0" encoding="UTF-8" standalone="no"?>
<!-- Created with Inkscape (http://www.inkscape.org/) -->

<svg
   width="399.99994"
   height="389.71243"
   viewBox="0 0 399.99994 389.71243"
   version="1.1"
   id="svg5"
   xml:space="preserve"
   inkscape:version="1.2.2 (732a01da63, 2022-12-09)"
   sodipodi:docname="icons-design.svg"
   xmlns:inkscape="http://www.inkscape.org/namespaces/inkscape"
   xmlns:sodipodi="http://sodipodi.sourceforge.net/DTD/sodipodi-0.dtd"
   xmlns="http://www.w3.org/2000/svg"
   xmlns:svg="http://www.w3.org/2000/svg"><sodipodi:namedview
     id="namedview7"
     pagecolor="#505050"
     bordercolor="#eeeeee"
     borderopacity="1"
     inkscape:showpageshadow="0"
     inkscape:pageopacity="0"
     inkscape:pagecheckerboard="0"
     inkscape:deskcolor="#505050"
     inkscape:document-units="px"
     showgrid="false"
     showguides="true"
     inkscape:zoom="1.7824983"
     inkscape:cx="1593.5499"
     inkscape:cy="226.64818"
     inkscape:window-width="2560"
     inkscape:window-height="1057"
     inkscape:window-x="1072"
     inkscape:window-y="496"
     inkscape:window-maximized="1"
     inkscape:current-layer="layer1" /><defs
     id="defs2" /><g
     inkscape:label="Capa 1"
     inkscape:groupmode="layer"
     id="layer1"
     transform="translate(-577.84265,-55.481884)"><path
       style="fill:#000000;stroke-width:0.633587"
       d="m 770.82096,444.80309 c -0.3837,-0.3837 -0.6978,-2.3492 -0.6978,-4.3677 v -3.67 l -39.4408,-0.1632 -39.4408,-0.1631 -0.3168,-16.4733 -0.3168,-16.4733 -2.8002,-0.2 c -4.6947,-0.3355 -5.2455,0.045 -7.5599,5.2178 -4.881,10.91 -15.2089,21.0617 -26.6451,26.1908 -9.1544,4.1056 -22.175,5.6148 -31.733,3.678 -13.9596,-2.8285 -25.0422,-9.6245 -33.1275,-20.3141 -4.5179,-5.9729 -7.4489,-11.995 -9.4256,-19.3667 -1.977,-7.3733 -1.9636,-19.5471 0.03,-26.7776 2.5046,-9.0848 6.7136,-16.6633 13.1491,-23.6754 5.9472,-6.4801 16.8866,-12.9538 25.4258,-15.0464 l 4.5761,-1.1214 0.02,-29.552 c 0.02,-27.376 0.101,-29.7385 1.1836,-32.0863 1.3533,-2.932 3.4353,-5.0159 5.9716,-5.9769 1.1939,-0.4524 14.8467,-0.6758 41.2964,-0.6758 35.0758,0 39.6246,-0.1118 40.5082,-0.9956 0.7581,-0.758 0.9957,-2.3602 0.9957,-6.7133 0,-4.2519 0.2772,-6.1868 1.0809,-7.5476 2.1494,-3.6384 2.9731,-3.7511 27.4306,-3.7511 29.2982,0 28.1134,-0.5492 28.7042,13.3054 0.1861,4.3559 0.361,7.9911 0.3893,8.0782 0.028,0.087 3.6896,0.1584 8.1362,0.1584 7.827,0 8.1412,0.053 9.8598,1.646 2.5627,2.3763 2.9638,3.9597 2.9638,11.7006 v 6.9282 h 7.4621 c 7.8482,0 9.0566,0.3584 11.683,3.4652 1.008,1.1924 1.0891,5.0599 1.1088,52.7909 0.02,49.4028 -0.028,51.6001 -1.1847,53.8549 -1.455,2.8376 -3.5603,4.8827 -5.9634,5.7932 -1.2121,0.4593 -18.9292,0.6758 -55.2924,0.6758 h -53.5088 l 0.1703,14.4141 0.1703,14.4142 h 37.0648 37.0649 l 0.3168,-4.0535 c 0.2144,-2.7446 0.6403,-4.2562 1.3186,-4.6812 0.7536,-0.4722 3.6968,0.5902 11.8798,4.288 9.4173,4.2556 10.8779,5.1077 10.8779,6.3459 0,1.9278 -0.2847,2.1085 -10.4542,6.6349 -10.6601,4.7448 -12.0019,5.1876 -12.9244,4.2651 z m 14.4962,-10.6552 c 0,-0.315 -6.5047,-3.4659 -9.9669,-4.8208 -0.5936,-0.2323 -0.792,0.9662 -0.792,4.7855 v 5.0954 l 5.3735,-2.3349 c 2.9554,-1.2842 5.3789,-2.5105 5.3854,-2.7252 z m -146.0406,-0.2591 c 15.7104,-2.7396 29.1002,-12.574 35.9994,-26.4401 4.2173,-8.4759 5.1675,-12.5477 5.1374,-22.0135 -0.036,-11.0988 -2.4268,-19.0884 -8.2802,-27.6637 -13.873,-20.3242 -41.2746,-27.2766 -62.9976,-15.984 -11.9969,6.2367 -20.5474,16.58 -24.791,29.9898 -1.7929,5.6653 -2.1992,16.4723 -0.8722,23.1945 1.998,10.1202 8.7104,21.5556 16.2258,27.6421 7.9099,6.4061 14.6923,9.5636 24.278,11.303 6.1324,1.1126 8.7871,1.1078 15.3004,-0.028 z m -14.0997,-14.0303 c -1.2682,-0.5103 -2.6795,-3.7386 -2.6795,-6.1294 0,-3.0467 -1.4636,-3.403 -4.3173,-1.0507 -3.8047,3.1362 -5.4558,2.7101 -10.7817,-2.7826 -2.4983,-2.5764 -4.5422,-5.1611 -4.5422,-5.7439 0,-1.3494 1.0773,-3.4446 2.6733,-5.1991 0.8291,-0.9113 1.107,-1.8149 0.8285,-2.6927 -0.3398,-1.0706 -0.9385,-1.3211 -3.1575,-1.3211 -1.7521,0 -3.277,-0.4362 -4.2339,-1.2112 -1.403,-1.136 -1.4959,-1.631 -1.4959,-7.9758 0,-6.3448 0.093,-6.8398 1.4959,-7.9758 0.9569,-0.775 2.4818,-1.2112 4.2339,-1.2112 3.5738,0 4.3945,-1.7972 1.98,-4.3362 -2.0127,-2.1166 -2.6534,-4.6157 -1.6749,-6.5342 0.4164,-0.8165 2.4368,-3.124 4.4896,-5.1277 4.5274,-4.4191 6.6192,-4.7771 9.815,-1.6795 2.9217,2.8317 4.4326,2.1769 4.8434,-2.0994 0.4673,-4.863 1.6436,-5.5665 9.3074,-5.5665 5.6148,0 6.2761,0.1287 7.5328,1.4664 0.9577,1.0193 1.3776,2.2681 1.3776,4.096 0,1.9932 0.3111,2.7961 1.2848,3.3172 1.067,0.571 1.682,0.3601 3.6291,-1.2449 3.753,-3.0936 5.4487,-2.7106 10.3803,2.3443 2.295,2.3522 4.3516,4.7916 4.5704,5.4209 0.5324,1.5318 -1.0225,5.1088 -2.7454,6.3156 -1.1625,0.8142 -1.273,1.1891 -0.6782,2.3004 0.5512,1.03 1.3179,1.3276 3.4198,1.3276 1.8509,0 3.1487,0.4093 4.0962,1.2919 1.2525,1.1669 1.3865,1.9208 1.3865,7.8003 0,7.9068 -0.7981,9.2818 -5.3878,9.2818 -2.2033,0 -2.9573,0.2861 -3.5186,1.335 -0.613,1.1453 -0.4212,1.6377 1.3503,3.4654 3.3596,3.4661 2.9446,5.279 -2.4007,10.4885 -5.3091,5.1743 -7.2486,5.6184 -10.47,2.397 -1.6828,-1.6828 -2.1619,-1.8614 -3.4361,-1.2808 -1.2339,0.5622 -1.4806,1.1518 -1.4806,3.5393 0,4.6515 -1.2347,5.4096 -8.7118,5.3491 -3.3976,-0.027 -6.5398,-0.1958 -6.9827,-0.374 z m 11.2594,-7.8079 c 0.3089,-3.3933 0.3879,-3.5147 3.168,-4.8729 3.9591,-1.9342 5.7454,-1.8366 7.9198,0.4331 1.0017,1.0454 2.0635,1.9007 2.3597,1.9007 0.2962,0 1.7842,-1.2814 3.3064,-2.8476 l 2.7675,-2.8477 -2.1575,-2.1577 c -2.5108,-2.5108 -2.6302,-3.5894 -0.8443,-7.627 1.4731,-3.3302 1.6703,-3.4599 5.656,-3.719 l 2.8511,-0.1853 0.1881,-4.2467 0.1881,-4.2468 h -2.2051 c -3.7164,0 -5.2627,-0.9646 -6.679,-4.1664 -1.7556,-3.9691 -1.6778,-4.5916 0.9051,-7.2367 l 2.2159,-2.2695 -3.1612,-3.1137 -3.1612,-3.1137 -2.0946,2.0302 c -2.4222,2.3479 -3.7122,2.488 -7.5925,0.8247 -3.1634,-1.356 -3.6287,-2.1424 -3.6287,-6.1326 v -2.7993 h -4.4351 -4.4351 v 3.0095 c -0.02,3.6849 -0.2564,4.0764 -3.6083,5.7756 -3.6029,1.8265 -5.3306,1.7032 -7.6868,-0.5485 -1.0939,-1.0454 -2.2173,-1.9008 -2.4965,-1.9008 -0.279,0 -1.7529,1.2691 -3.2753,2.8203 l -2.7678,2.8203 2.3192,2.567 c 1.2755,1.4119 2.3191,2.6981 2.3191,2.8583 0,0.1601 -0.5972,1.8873 -1.3272,3.8381 -1.4352,3.8362 -2.6971,4.7372 -6.6338,4.7372 h -2.1764 v 4.3779 4.3779 l 2.8242,-0.043 c 1.5533,-0.024 3.303,0.3546 3.8881,0.8402 1.0141,0.8417 3.4251,5.7484 3.4251,6.9707 0,0.3186 -1.0304,1.7199 -2.2898,3.1139 l -2.2901,2.5347 2.8936,2.8526 c 1.5915,1.569 3.1388,2.8527 3.4386,2.8527 0.2997,0 1.3644,-0.8554 2.366,-1.9008 2.1598,-2.2544 3.8588,-2.3791 7.4698,-0.5485 3.2939,1.6698 3.5962,2.1183 3.6083,5.3532 0,1.4229 0.1663,2.7427 0.3554,2.9329 0.1901,0.1901 2.1148,0.309 4.2767,0.264 l 3.931,-0.082 z m -10.473,-12.5969 c -5.0233,-2.2819 -9.1753,-8.635 -9.1614,-14.0185 0,-1.2196 0.6807,-3.6431 1.5057,-5.3855 3.7954,-8.0143 12.1316,-11.2609 19.7127,-7.677 5.6623,2.6769 8.6336,7.2481 8.6887,13.3668 0.095,10.5463 -11.2336,18.0351 -20.7457,13.7142 z m 11.5911,-5.3827 c 2.2843,-1.4902 4.5842,-5.5847 4.5842,-8.161 0,-5.4289 -4.8006,-10.0842 -10.3991,-10.0842 -7.4882,0 -12.1891,8.1718 -8.4887,14.7559 2.9982,5.3347 9.168,6.8397 14.3036,3.4893 z m 164.8208,3.8682 c 0.8375,-0.4304 2.1205,-1.5875 2.8511,-2.5712 1.3187,-1.7758 1.3294,-2.1455 1.4979,-51.7606 l 0.1703,-49.9721 -1.3979,-1.3023 c -1.3529,-1.2604 -2.0823,-1.3023 -22.6793,-1.3023 -18.236,0 -21.4831,0.1412 -22.6897,0.9863 -1.2812,0.8974 -1.4083,1.5116 -1.4105,6.8111 0,6.4565 -1.2092,9.5992 -3.938,10.2579 -0.7947,0.1919 -19.2648,0.4134 -41.0443,0.4922 -35.7161,0.1293 -39.7448,0.2464 -41.0828,1.194 -3.5055,2.4826 -3.5699,2.8189 -3.7841,19.7487 l -0.199,15.7306 2.7597,2.9602 c 11.7015,12.5521 16.4512,30.2961 12.7915,47.7865 l -0.3647,1.7423 58.4989,-0.01 c 45.167,-0.01 58.8458,-0.1877 60.0217,-0.7919 z m -136.2175,-87.3729 c 0.8399,-1.2244 2.5294,-2.9133 3.7546,-3.753 l 2.2279,-1.5269 40.4648,-0.1764 c 32.383,-0.1412 40.5278,-0.3401 40.7794,-0.9958 0.1723,-0.4507 0.3822,-3.4254 0.4649,-6.6104 0.1228,-4.7113 0.395,-6.1202 1.4622,-7.5575 2.3265,-3.1333 3.3636,-3.3313 17.5045,-3.3413 l 13.1469,-0.01 v -7.264 c 0,-6.5332 -0.1227,-7.3299 -1.2256,-7.9198 -0.7767,-0.4158 -9.2298,-0.6559 -23.0899,-0.6559 h -21.8645 l -0.9864,1.4081 c -0.7223,1.0315 -0.9862,2.9975 -0.9862,7.3489 0,5.8192 -0.04,5.978 -1.9533,7.7652 l -1.9532,1.8246 -40.4852,0.1721 -40.4852,0.172 -2.0711,2.0705 -2.071,2.0706 -0.1822,20.1578 -0.1841,20.1578 3.9848,1.6991 c 2.1917,0.9346 5.6954,2.7822 7.7862,4.1059 l 3.8016,2.4068 0.3168,-14.6613 c 0.3067,-14.198 0.3651,-14.7317 1.8435,-16.8876 z m -22.1183,1.9375 c 0,-20.9883 0.069,-21.4999 3.2661,-24.4085 3.8712,-3.5213 2.2712,-3.4005 45.0451,-3.4005 29.8806,0 39.6891,-0.1853 40.2643,-0.7603 0.4767,-0.4768 0.7603,-2.8511 0.7603,-6.3673 0,-5.7327 0.7167,-8.2062 2.9048,-10.0254 0.8395,-0.6978 4.2109,-0.9765 14.7726,-1.221 l 13.6851,-0.3168 0.1802,-6.8126 c 0.105,-3.987 -0.101,-7.3376 -0.4974,-8.0783 -0.6575,-1.2284 -1.335,-1.2656 -23.1021,-1.2656 -19.5414,0 -22.5528,0.1281 -23.4204,0.9957 -0.7557,0.7556 -0.9957,2.352 -0.9957,6.6228 0,3.095 -0.3247,6.3397 -0.7213,7.2105 -1.6265,3.5695 -1.3192,3.5451 -44.581,3.5451 h -39.7251 l -2.1542,2.1542 -2.1542,2.1542 v 29.5251 29.5252 l 4.9103,0.047 c 2.7007,0.026 6.1933,0.2579 7.7614,0.5158 1.5682,0.2578 3.065,0.3624 3.3264,0.2324 0.2613,-0.1301 0.4752,-9.0722 0.4752,-19.8716 z m 166.025,125.2328 c -1.6198,-1.9518 -0.199,-3.3384 4.5101,-4.4019 5.7722,-1.3035 8.0674,-1.2975 8.574,0.022 0.7002,1.8245 -0.77,3.055 -4.9326,4.1286 -5.1838,1.3369 -7.1986,1.399 -8.1515,0.2508 z m 29.4131,-8.6583 c -0.5817,-1.8323 0.9428,-3.1085 6.3594,-5.3235 2.4393,-0.9976 6.9815,-3.0247 10.0936,-4.5047 6.0868,-2.8944 7.9636,-2.8925 7.9636,0.01 0,1.2257 -1.0115,1.9588 -6.1774,4.4774 -7.613,3.7117 -14.9974,6.6841 -16.6056,6.6841 -0.6737,0 -1.3962,-0.5932 -1.6336,-1.3416 z m 38.77794,-19.3556 c -1.1894,-1.1895 -0.2754,-3.3079 2.1077,-4.8849 1.3913,-0.9209 5.5583,-4.1105 9.26,-7.0882 7.1734,-5.7706 9.2625,-6.5102 9.6238,-3.4072 0.215,1.846 -3.215,5.1117 -12.4975,11.8988 -4.8877,3.5738 -7.3801,4.5954 -8.494,3.4815 z m 32.5493,-29.009 c -1.1341,-1.3665 -0.4258,-2.7829 3.6317,-7.2634 3.3562,-3.7062 3.7857,-3.9852 5.0736,-3.296 2.2204,1.1883 1.678,3.0561 -2.1552,7.4221 -3.5867,4.0853 -5.1441,4.8313 -6.5501,3.1373 z m -69.40294,-26.2951 c -0.697,-0.2883 -1.98,-1.291 -2.8511,-2.2283 l -1.584,-1.7041 -0.1683,-55.0829 c -0.1505,-49.216 -0.061,-55.2893 0.8341,-57.0218 1.8966,-3.6676 2.5391,-3.7401 33.18894,-3.7401 26.9116,0 27.8985,0.042 28.5316,1.2256 0.3717,0.6942 0.656,5.5011 0.656,11.0877 v 9.8623 h 1.9633 c 5.0157,0 9.0007,4.1658 9.0803,9.4919 0.077,5.0961 -3.9949,9.5157 -8.7655,9.5157 h -2.2781 v 7.9199 7.9198 h 7.9198 7.9199 v -2.3759 c 0,-6.6296 7.448,-10.633 13.9912,-7.527 2.6343,1.2505 5.014,5.0141 5.014,7.93 v 1.9729 h 7.6235 c 8.2817,0 11.1135,0.7125 12.8854,3.242 0.9157,1.3076 1.0329,4.5359 1.0329,28.4374 0,23.9014 -0.1168,27.1297 -1.0331,28.4373 -2.317,3.3078 -1.1617,3.2451 -58.9789,3.2019 -29.5444,-0.022 -54.28714,-0.2761 -54.98414,-0.5643 z m 53.68134,-15.0769 0.1742,-10.6125 4.0171,-0.3196 c 3.405,-0.2708 4.2498,-0.59 5.5439,-2.0945 1.7052,-1.9824 1.8703,-3.0432 0.7896,-5.0722 -1.1818,-2.2191 -2.5505,-2.9263 -5.7052,-2.9478 -5.1742,-0.035 -4.9622,0.4154 -4.9622,-10.5421 v -9.7528 l -9.979,-0.01 c -5.4884,-0.01 -10.3922,-0.2712 -10.8973,-0.5907 -0.6397,-0.4047 -0.9328,-1.8335 -0.9654,-4.7071 -0.04,-3.4457 -0.2978,-4.3932 -1.5682,-5.7452 -1.9346,-2.0595 -4.4147,-2.0841 -6.593,-0.065 -1.47374,1.3657 -1.67654,2.0402 -1.67654,5.5755 0,2.2834 -0.3286,4.3506 -0.7603,4.7822 -0.5272,0.5272 -3.8296,0.7603 -10.7709,0.7603 h -10.0107 v 24.9749 c 0,13.7362 0.1722,25.4258 0.3845,25.9771 0.3421,0.8915 3.279,1.0022 26.59544,1.0022 h 26.2107 l 0.1743,-10.6126 z m 56.1194,9.8523 c 1.0921,-1.0921 1.0921,-50.6086 0,-51.7007 -0.5208,-0.5207 -3.6653,-0.7634 -9.979,-0.77 -5.0703,-0.01 -9.6207,-0.2641 -10.1117,-0.575 -0.5368,-0.3398 -0.9379,-1.7891 -1.0056,-3.6334 -0.1624,-4.4083 -0.1802,-4.474 -1.7056,-5.8946 -1.889,-1.7598 -4.6497,-1.6491 -6.5619,0.2633 -1.2635,1.2632 -1.5553,2.1909 -1.5553,4.942 0,1.8627 -0.3421,3.7289 -0.7603,4.1471 -0.5253,0.5252 -3.7633,0.7603 -10.4726,0.7603 h -9.7123 l 0.1762,8.395 0.1762,8.3951 1.9008,0.1736 c 3.5669,0.326 4.5842,0.759 6.5796,2.7999 2.6062,2.6657 3.5318,6.0462 2.5514,9.3185 -1.3345,4.4541 -4.6973,7.0323 -9.1722,7.0323 h -2.1764 v 8.5534 8.5535 h 25.5336 c 19.0147,0 25.7276,-0.1941 26.2939,-0.7604 z m -92.77274,-59.2721 c 0.7825,-5.8689 4.2368,-9.1342 9.66284,-9.1342 5.3541,0 9.7405,4.227 9.7405,9.3863 v 2.7575 h 8.5534 8.5534 v -10.0107 c 0,-6.9413 0.2331,-10.2438 0.7603,-10.771 0.4182,-0.4181 2.2298,-0.7603 4.0259,-0.7603 5.2178,0 7.7741,-3.106 5.9149,-7.1866 -0.9213,-2.022 -3.081,-2.9508 -6.8615,-2.9508 -2.2154,0 -3.1775,-0.2791 -3.4551,-1.0022 -0.2114,-0.5512 -0.3845,-5.3981 -0.3845,-10.771 v -9.7688 h -26.2715 c -25.32574,0 -26.29524,0.044 -26.92744,1.2256 -0.421,0.7863 -0.656,10.3236 -0.656,26.6106 v 25.3852 h 8.4719 8.4716 z m -254.8016,14.8893 c -0.3578,-0.4355 -1.1514,-3.1311 -1.7634,-5.99 -0.9107,-4.255 -0.9652,-5.3758 -0.2999,-6.1775 1.0499,-1.2652 2.1839,-1.2429 3.2728,0.064 1.2264,1.4722 2.9508,9.9487 2.3526,11.5656 -0.5435,1.4694 -2.5484,1.772 -3.5621,0.5376 z m -4.2385,-29.2117 c -1.0633,-0.7775 -1.1797,-1.924 -1.23,-12.1209 -0.049,-10.0712 0.061,-11.3368 1.0534,-11.9682 0.75,-0.4776 1.4309,-0.5021 2.1043,-0.076 0.8288,0.5248 1.0367,2.5354 1.2402,12.0027 0.2758,12.8372 -0.1267,14.3854 -3.1679,12.1621 z m 316.82074,-2.6713 c -0.8327,-0.8326 -0.9957,-2.8948 -0.9957,-12.5941 0,-13.3248 0,-13.3339 5.1261,-13.1002 2.7407,0.1251 3.3856,-0.098 5.0279,-1.7407 2.0406,-2.0405 2.2901,-3.2037 1.147,-5.3495 -1.2046,-2.2618 -2.5638,-2.9265 -6.0286,-2.9478 -5.2096,-0.032 -5.2724,-0.1881 -5.2724,-13.0956 0,-6.4289 0.2754,-11.5988 0.656,-12.3096 0.6326,-1.1824 1.6103,-1.2255 27.7194,-1.2246 29.8158,0.001 29.7794,0 32.7208,4.0046 1.2696,1.73 1.3179,2.6347 1.4913,27.855 0.1248,18.2462 -0.036,26.5833 -0.5338,27.7877 -1.2462,3.0088 -3.8708,3.7105 -13.8801,3.7105 -4.9746,0 -9.5206,-0.2924 -10.1999,-0.6559 -0.9764,-0.5225 -1.2256,-1.3426 -1.2256,-4.0329 0,-4.3951 -1.6581,-6.7158 -4.7979,-6.7158 -3.1695,0 -4.7059,1.8157 -4.7059,5.5613 0,1.7142 -0.4277,3.6376 -0.9863,4.4351 -0.9585,1.3683 -1.3162,1.4082 -12.6266,1.4082 -9.7372,0 -11.8029,-0.1628 -12.6357,-0.9957 z m 21.1799,-5.9326 c 0,-4.6007 3.4164,-8.586 7.9422,-9.2647 5.9994,-0.8997 11.0654,3.1636 11.0654,8.8752 v 2.2491 h 8.2245 c 8.0878,0 8.2307,-0.024 8.5956,-1.4783 0.2042,-0.8131 0.2808,-12.1881 0.1703,-25.2778 -0.1881,-22.3577 -0.2736,-23.8803 -1.4075,-25.1324 -1.1884,-1.3123 -1.5973,-1.3329 -26.4523,-1.3329 h -25.2453 v 8.2367 8.2366 h 1.7008 c 2.7391,0 6.999,2.4256 8.4863,4.8323 1.9004,3.075 1.5258,8.9685 -0.7231,11.3757 -2.1286,2.2785 -4.5553,3.4332 -7.215,3.4332 h -2.249 v 8.5534 8.5535 h 8.5534 8.5535 z m -336.99444,-32.5818 c -0.7734,-0.9319 0.085,-6.5646 2.5753,-16.8792 1.4258,-5.9081 1.9956,-6.9695 3.7418,-6.9695 2.0813,0 2.3963,1.894 1.1594,6.9695 -0.6367,2.6135 -1.634,7.3179 -2.2159,10.4542 -0.5822,3.1362 -1.3425,6.0586 -1.6901,6.4942 -0.8334,1.0447 -2.6758,1.0089 -3.5705,-0.069 z m 193.0847,-18.5931 c -0.9181,-0.1414 -2.8392,-1.2585 -4.2694,-2.4827 -2.5129,-2.151 -2.9145,-2.266 -11.953,-3.4238 -5.1439,-0.659 -16.1953,-2.0779 -24.5586,-3.1531 -8.3634,-1.0751 -17.8739,-2.2567 -21.1345,-2.6256 l -5.9284,-0.6708 -2.625,2.5396 c -6.3171,6.1113 -13.5863,8.9959 -22.6698,8.9959 -15.5619,0 -28.1374,-10.8003 -30.2397,-25.971 -1.8772,-13.54599 4.7121,-26.06779 16.9017,-32.11849 2.6793,-1.3299 4.9135,-2.418 4.9652,-2.418 0.051,0 0.6981,-6.2726 1.4366,-13.939 0.7385,-7.6664 1.6157,-16.6475 1.9491,-19.958 0.3334,-3.3105 0.7906,-8.7362 1.0159,-12.0571 l 0.4095,-6.0381 -3.1056,-0.7959 c -8.856,-2.269703 -16.0903,-12.862106 -15.2453,-22.321806 0.5696,-6.3773 2.2619,-9.9984 6.7932,-14.5366 5.1075,-5.1152 8.7334,-6.6046 16.1565,-6.6368 4.253,-0.018 5.6805,0.2636 8.8702,1.7525 4.3441,2.0278 8.7129,5.9753 10.551,9.5337 l 1.2595,2.4379 4.8657,-0.3727 c 2.6762,-0.205 12.4213,-0.6724 21.6559,-1.0385 9.2345,-0.3661 21.9011,-0.9391 28.1481,-1.2732 6.2467,-0.3341 13.6954,-0.6075 16.5524,-0.6075 7.4328,0 9.1544,-0.4367 9.1544,-2.322 0,-4.4056 5.3791,-9.9386 10.3932,-10.6905 11.4117,-1.7113 18.9046,11.8886 11.2873,20.487 l -1.2893,1.4555 5.7336,14.0674 c 3.1532,7.737103 6.9124,17.054506 8.3534,20.705406 l 2.6199,6.638 2.6278,0.4486 c 5.6397,0.9628 9.2674,4.3795 10.2534,9.6574 1.4115,7.5554 -3.1626,13.859 -10.7048,14.7523 -2.9696,0.3517 -3.4093,0.6204 -4.8856,2.9849 -0.8922,1.4291 -2.5476,4.0239 -3.6788,5.7663 -1.1311,1.7424 -7.6313,11.936 -14.4447,22.6525 l -12.3885,19.48449 1.5387,2.691 c 2.7814,4.8648 1.7485,11.665 -2.353,15.4909 -3.0024,2.8007 -6.7818,3.7157 -12.0182,2.9099 z m 7.3853,-5.6213 c 5.7882,-2.7467 4.7946,-11.9755 -1.4943,-13.879 -5.3774,-1.6275 -11.3278,4.2796 -9.5961,9.5264 1.5444,4.6795 6.3921,6.5821 11.0904,4.3526 z m -94.6437,-0.5485 c 5.2148,-1.1053 8.7255,-2.8615 12.2918,-6.1487 6.2018,-5.7168 8.8872,-12.5885 8.3681,-21.4135 -0.5681,-9.65549 -5.5134,-17.07869 -14.2569,-21.40039 -4.5818,-2.2647 -5.1711,-2.3941 -10.8961,-2.3941 -6.3472,0 -9.9341,0.9417 -14.6058,3.8348 -9.8812,6.1193 -14.9899,19.52879 -11.4325,30.00959 3.0945,9.1174 9.6852,15.2905 18.7188,17.5325 4.2295,1.0497 6.7853,1.0454 11.8126,-0.02 z m 78.4813,-6.2136 c 0,-1.6446 0.5803,-3.6942 1.479,-5.2656 l 1.4715,-2.5728 -4.172,-5.1386 c -2.2944,-2.8262 -8.1172,-10.0093 -12.9394,-15.96249 -4.8222,-5.9531 -8.9993,-10.6807 -9.2825,-10.5057 -0.5924,0.3661 -25.2641,8.9825 -28.3627,9.9055 -2.017,0.6007 -2.0514,0.6718 -1.584,3.2763 0.8892,4.95499 0.4188,12.17529 -1.1014,16.90319 -0.794,2.4692 -1.3337,4.5865 -1.1993,4.7051 0.1347,0.1186 12.5041,1.79 27.4884,3.7143 14.9843,1.9243 27.4581,3.529 27.7194,3.5661 0.2614,0.037 0.4786,-1.1443 0.483,-2.6253 z m 28.9353,-29.30259 c 6.2093,-9.7567 12.4302,-19.5268 13.8241,-21.7112 1.3939,-2.1844 3.3687,-5.2926 4.3884,-6.907 l 1.8538,-2.9354 -1.7414,-1.4979 c -0.9577,-0.8239 -1.9863,-1.3467 -2.2854,-1.1617 -0.7566,0.4675 -60.0289,21.2216 -60.6419,21.2335 -0.2734,0.01 -0.8915,0.2595 -1.3735,0.5648 -0.6862,0.4346 -0.2049,1.3725 2.2176,4.3213 1.7016,2.0714 7.1413,8.7385 12.0884,14.81569 l 8.9944,11.0494 5.693,-0.016 5.693,-0.016 11.2895,-17.73959 z m -71.438,-8.5543 c 6.9745,-2.4393 12.9195,-4.4351 13.2111,-4.4351 0.2917,0 1.0508,-0.3806 1.6872,-0.8459 1.0683,-0.7813 0.3492,-1.8349 -9.4041,-13.7805 -5.8084,-7.1141 -12.6183,-15.4668 -15.133,-18.5616 -18.7403,-23.0634 -22.1793,-27.0309 -23.1738,-26.7354 -0.5719,0.1699 -2.4653,0.649 -4.2077,1.0646 -1.7423,0.4157 -3.2421,0.8117 -3.333,0.8802 -0.1743,0.1316 -0.4719,3.1464 -2.9989,30.4176 -0.8718,9.4087 -1.5857,17.7483 -1.5865,18.5324 0,1.346 0.255,1.4264 4.5921,1.4411 5.633,0.02 9.0744,0.7763 13.7079,3.0165 4.0316,1.9492 10.7842,8.3381 12.0548,11.4054 0.4639,1.1197 1.0818,2.0358 1.3735,2.0358 0.2914,0 6.2362,-1.9958 13.2104,-4.4351 z m 48.0632,-16.8498 c 14.5353,-5.0857 28.9226,-10.117 31.9718,-11.1808 l 5.5439,-1.934 v -2.9165 -2.9166 l -5.2248,-2.0233 c -10.3403,-4.0045 -31.5296,-12.2475 -48.625,-18.916 -9.583,-3.7381 -19.9897,-7.7789 -23.1259,-8.979503 -3.1363,-1.2006 -10.7675,-4.155 -16.958,-6.565203 -6.1907,-2.4103 -11.4838,-4.3823 -11.7625,-4.3823 -0.2786,0 -0.9766,0.9853 -1.5507,2.1896 -0.5744,1.2043 -2.0869,3.3437 -3.3612,4.754203 -1.64,1.8154 -2.1364,2.7951 -1.6992,3.3542 0.7126,0.911503 12.2652,15.170703 20.9163,25.816403 7.0209,8.64 14.813,18.1542 17.9,21.8563 1.2197,1.4627 3.7681,4.5564 5.6633,6.8749 1.8952,2.3185 3.5455,4.2154 3.6675,4.2154 0.1227,0 12.1143,-4.1611 26.6496,-9.2468 z m 54.4873,-10.8884 c 4.8875,-3.2025 3.9611,-10.9086 -1.5905,-13.2282 -4.7438,-1.9821 -10.3124,1.7077 -10.3124,6.8328 0,4.1351 1.6584,6.3892 5.7023,7.7502 1.3533,0.4555 4.4806,-0.2278 6.2006,-1.3548 z m -12.643,-15.3453 2.7444,-2.482 -5.3465,-13.1733 c -2.9406,-7.245303 -6.597,-16.238306 -8.1256,-19.984406 l -2.7786,-6.811 -3.8063,-0.01 c -4.5476,-0.012 -8.218,-1.8059 -10.142,-4.9555 l -1.2671,-2.0745 -11.0878,0.3698 c -6.0983,0.2033 -16.6475,0.6364 -23.4427,0.9624 -6.7953,0.326 -19.8392,0.9315 -28.9867,1.3456 l -16.6316,0.7528 v 3.9538 c 0,3.6954 0.1049,3.9798 1.5938,4.3537 0.8766,0.22 6.9352,2.504 13.4638,5.0754 10.6898,4.2106 68.2613,26.602706 84.0988,32.709806 3.4847,1.3437 6.4784,2.4447 6.6526,2.4465 0.1743,0 1.5519,-1.1136 3.0615,-2.4787 z m -124.352,-25.908003 c 11.2752,-5.121303 14.4159,-19.199303 6.2345,-27.946003 -7.3395,-7.8465 -18.7687,-7.732 -26.0741,0.2612 -3.4776,3.8051 -4.5977,6.7747 -4.5888,12.1659 0.02,6.4542 3.6699,12.1776 9.8145,15.351503 3.4002,1.7563 10.9258,1.8425 14.6139,0.1673 z m 111.033,-22.261303 c 6.3586,-3.8768 3.5621,-13.9227 -3.8758,-13.9227 -3.454,0 -7.1728,2.8508 -7.7529,5.9433 -0.833,4.4402 3.138,9.2581 7.6305,9.2581 1.0454,0 2.8446,-0.5754 3.9982,-1.2787 z M 611.88476,195.57299 c -1.4091,-0.5686 -0.8506,-3.2233 2.0746,-9.8635 4.8438,-10.99459 6.026,-12.84279 8.2151,-12.84279 1.244,0 1.9576,0.3533 2.0886,1.0343 0.1089,0.5689 -1.6685,4.9097 -3.9512,9.64629 -2.2827,4.7365 -4.1504,8.9041 -4.1504,9.2614 0,0.7759 -2.3328,3.2051 -3.0095,3.1339 -0.2614,-0.027 -0.8316,-0.1938 -1.2672,-0.3696 z M 935.6107,178.6566 c -0.6788,-0.7452 -2.1857,-3.1498 -3.3487,-5.3438 -1.6569,-3.1251 -1.9677,-4.2227 -1.4349,-5.0687 0.9872,-1.5676 2.4777,-1.6492 3.8128,-0.2088 1.8596,2.0063 5.339,9.338 4.9333,10.3953 -0.6095,1.58809 -2.6175,1.70269 -3.9625,0.226 z M 631.49426,159.1178 c -1.3309,-1.331 -0.8416,-2.7105 2.5661,-7.2341 8.5873,-11.3991 10.7032,-13.501 12.7873,-12.7012 1.9448,0.7463 1.0132,3.2909 -2.9667,8.1033 -2.178,2.6335 -5.3138,6.5442 -6.9689,8.6903 -3.0418,3.9448 -4.0373,4.5221 -5.4178,3.1417 z M 918.602,152.7503 c -1.9999,-2.5264 -3.8037,-4.7361 -4.0084,-4.9103 -0.2047,-0.1743 -1.4513,-1.6531 -2.7704,-3.2865 -2.0362,-2.5214 -2.2926,-3.1669 -1.6986,-4.2767 0.7021,-1.3119 2.3201,-1.6909 3.5101,-0.8221 0.8684,0.634 6.5283,7.3694 9.3856,11.1691 2.474,3.2897 2.9802,5.702 1.3295,6.3354 -1.7611,0.6758 -2.0466,0.4667 -5.7478,-4.2089 z M 893.0392,126.221 c -3.3105,-2.8235 -6.6787,-5.6857 -7.4847,-6.3605 -1.8677,-1.5633 -1.6529,-3.9338 0.3825,-4.2225 0.9876,-0.14 2.9104,0.9149 6.0191,3.3025 5.8146,4.4658 10.5869,8.859 10.5869,9.7458 0,0.921 -1.803,2.682 -2.7381,2.6744 -0.4107,0 -3.4553,-2.3162 -6.7657,-5.1397 z m -233.96364,2.5289 c -1.9572,-1.0953 -1.1743,-2.9094 2.8121,-6.517 4.2104,-3.8103 6.3381,-4.4329 7.5308,-2.2042 0.6312,1.1796 0.3455,1.674 -2.4722,4.2767 -4.3355,4.0046 -6.4863,5.2192 -7.8707,4.4445 z M 866.8659,107.5522 c -4.42334,-2.5773 -4.92764,-3.0634 -4.75194,-4.582 0.2104,-1.8229 2.42284,-2.6777 3.87414,-1.497 0.4164,0.3388 2.1828,1.3905 3.9251,2.3372 3.0163,1.6389 4.7519,3.1691 4.7519,4.1894 0,0.5927 -1.8499,2.4623 -2.4213,2.4471 -0.2364,-0.01 -2.6565,-1.3089 -5.3779,-2.8947 z"
       id="path2932327"
       inkscape:label="infraestructure"
       inkscape:export-filename="infraestructure.svg"
       inkscape:export-xdpi="95.999992"
       inkscape:export-ydpi="95.999992" /></g></svg>
