<?xml version="1.0" encoding="UTF-8" standalone="no"?>
<!-- Created with Inkscape (http://www.inkscape.org/) -->

<svg
   width="50mm"
   height="50mm"
   viewBox="0 0 188.97638 188.97638"
   version="1.1"
   id="svg5"
   xml:space="preserve"
   inkscape:version="1.2.2 (732a01da63, 2022-12-09)"
   sodipodi:docname="social-icons.svg"
   xmlns:inkscape="http://www.inkscape.org/namespaces/inkscape"
   xmlns:sodipodi="http://sodipodi.sourceforge.net/DTD/sodipodi-0.dtd"
   xmlns="http://www.w3.org/2000/svg"
   xmlns:svg="http://www.w3.org/2000/svg"><sodipodi:namedview
     id="namedview7"
     pagecolor="#505050"
     bordercolor="#eeeeee"
     borderopacity="1"
     inkscape:showpageshadow="0"
     inkscape:pageopacity="0"
     inkscape:pagecheckerboard="0"
     inkscape:deskcolor="#505050"
     inkscape:document-units="mm"
     showgrid="false"
     inkscape:zoom="1.0779321"
     inkscape:cx="596.51253"
     inkscape:cy="302.43092"
     inkscape:window-width="2560"
     inkscape:window-height="1057"
     inkscape:window-x="1072"
     inkscape:window-y="496"
     inkscape:window-maximized="1"
     inkscape:current-layer="layer1" /><defs
     id="defs2" /><g
     inkscape:label="Capa 1"
     inkscape:groupmode="layer"
     id="layer1"
     transform="translate(-914.65246,-236.93493)"><path
       style="fill:#2daae1;fill-opacity:1;stroke-width:0.369336"
       d="m 1000.4788,425.66214 c -17.92127,-1.85359 -34.21317,-8.20351 -48.46357,-18.88909 -4.4049,-3.30297 -12.5163,-11.15556 -16.1519,-15.63649 -15.3107,-18.87062 -23.0315,-43.91347 -20.8461,-67.6149 1.7727,-19.22418 8.9751,-37.09602 20.8461,-51.72724 3.6356,-4.48093 11.747,-12.33351 16.1519,-15.63649 20.5944,-15.44254 45.9451,-21.92833 71.09817,-18.1899 15.4389,2.29463 30.3743,8.58691 43.1879,18.19507 4.3989,3.29842 12.5116,11.15301 16.1451,15.63132 8.06,9.93411 14.3754,22.20288 17.7312,34.44617 6.3486,23.16201 3.9041,46.90344 -7.049,68.46063 -4.6926,9.23559 -10.2922,16.74906 -18.311,24.56941 -7.7397,7.54812 -14.884,12.57101 -24.4473,17.188 -9.0738,4.38067 -17.6792,7.06942 -27.2569,8.51634 -5.6894,0.85954 -17.5011,1.21813 -22.6346,0.68717 z m -5.16867,-45.44144 c 10.48097,-1.19744 20.36787,-4.58001 28.91227,-9.89171 15.8967,-9.88222 27.79,-27.33672 31.6369,-46.42995 0.9989,-4.95709 1.8136,-13.70361 1.4676,-15.75397 -0.2133,-1.264 -0.1292,-1.40772 1.5523,-2.65459 3.0209,-2.24006 10.8496,-10.70004 10.3574,-11.19264 -0.057,-0.0571 -1.4888,0.38675 -3.1818,0.98629 -2.8767,1.01882 -6.2489,1.86645 -9.2743,2.33122 l -1.2922,0.1985 0.923,-0.60632 c 0.5076,-0.33347 2.2605,-1.94806 3.8952,-3.58796 2.1415,-2.14824 3.3778,-3.77548 4.4229,-5.82169 0.7979,-1.56201 1.3465,-2.94438 1.2191,-3.07192 -0.1275,-0.12755 -1.3702,0.33982 -2.7616,1.03858 -2.8805,1.44657 -6.8063,2.9112 -10.0751,3.75892 l -2.2347,0.57952 -2.4274,-2.00376 c -7.8143,-6.45065 -18.6005,-7.59986 -27.5917,-2.93975 -4.0309,2.0892 -8.5645,6.75382 -10.5315,10.83592 -2.3433,4.86281 -3.2759,11.07234 -2.2973,15.29447 l 0.3336,1.43898 -3.3182,-0.23573 c -10.16657,-0.7222 -22.68757,-5.12692 -31.88587,-11.21705 -4.8348,-3.20104 -8.4226,-6.20384 -12.5314,-10.48795 -4.1875,-4.36621 -3.9215,-4.39027 -5.5628,0.5031 -1.3543,4.03787 -1.6517,9.31465 -0.7529,13.3581 1.0399,4.67755 3.1371,8.38718 6.8573,12.12935 2.4965,2.51118 3.0397,3.2315 2.4332,3.22653 -1.5858,-0.013 -5.6441,-1.05536 -7.7599,-1.99302 -1.1987,-0.5313 -2.2657,-0.87979 -2.371,-0.77442 -0.3186,0.3189 0.6629,5.95086 1.4219,8.15866 1.1871,3.45288 2.9293,6.10757 6.0559,9.22699 3.0986,3.09164 6.1295,4.96238 10.1644,6.27383 1.9013,0.61796 1.9642,0.67644 1.1076,1.02876 -0.4996,0.20546 -2.9434,0.38832 -5.4309,0.40637 -2.4874,0.018 -4.5221,0.11594 -4.5214,0.21755 0.01,0.61635 2.7899,5.55738 4.07,7.21792 3.6974,4.79629 9.5739,8.16156 15.9925,9.15835 l 2.987,0.46389 -2.1544,1.54397 c -2.8725,2.05857 -8.5382,4.9316 -12.4049,6.29048 -5.4686,1.92186 -8.7631,2.44214 -15.597,2.46317 -3.4004,0.0105 -6.1832,0.0499 -6.1839,0.0879 -6e-4,0.0378 1.4772,0.90296 3.2842,1.92245 7.6622,4.32265 16.8501,7.34226 25.8806,8.50555 3.4812,0.44844 13.3064,0.45826 17.1673,0.0172 z"
       id="path344-1"
       inkscape:export-filename="..\..\path344-1.svg"
       inkscape:export-xdpi="96"
       inkscape:export-ydpi="96"
       inkscape:label="twitter" /></g></svg>
