<?xml version="1.0" encoding="UTF-8" standalone="no"?>
<!-- Created with Inkscape (http://www.inkscape.org/) -->

<svg
   width="24.000074"
   height="24.000105"
   viewBox="0 0 24.000075 24.000105"
   version="1.1"
   id="svg5"
   xml:space="preserve"
   xmlns="http://www.w3.org/2000/svg"
   xmlns:svg="http://www.w3.org/2000/svg"><defs
     id="defs2" /><g
     id="layer1"><path
       style="fill:#000000;stroke-width:0.0410894"
       d="M 8.74445 23.9693 C 8.68185 23.9323 8.67245 23.8585 8.67245 23.3988 L 8.67245 22.8706 L 8.52493 22.8216 C 8.3128 22.7516 8.11255 22.5599 8.03179 22.349 L 7.96179 22.1662 L 6.96934 22.1662 C 5.95328 22.1662 5.75026 22.1422 5.62707 22.0109 C 5.46045 21.8325 5.46314 21.9119 5.46314 17.1402 C 5.46314 12.1022 5.44964 12.3903 5.69416 12.1985 C 5.80258 12.1135 5.82492 12.1125 8.69719 12.1125 L 11.591 12.1125 L 11.7364 12.2575 L 11.8817 12.4025 L 11.8817 17.1146 L 11.8817 21.8266 L 11.7925 21.9397 C 11.6307 22.1449 11.513 22.1659 10.5285 22.1659 L 9.6253 22.1659 L 9.5975 22.2921 C 9.5591 22.4666 9.34431 22.698 9.13528 22.7902 L 8.96042 22.8672 L 8.96042 23.2756 L 8.96042 23.684 L 12.108 23.684 L 15.2556 23.684 L 15.2556 23.2799 L 15.2556 22.8758 L 15.089 22.8008 C 14.891 22.7118 14.7072 22.5143 14.6338 22.312 L 14.5808 22.1656 L 13.5961 22.1656 C 12.6682 22.1656 12.6035 22.1656 12.4719 22.0796 C 12.1919 21.907 12.2094 22.2408 12.2106 17.1147 C 12.2116 12.9016 12.2176 12.4621 12.2786 12.3595 C 12.4315 12.1012 12.2917 12.1122 15.4183 12.1122 C 18.501 12.1122 18.4116 12.1022 18.5617 12.3344 C 18.6237 12.4284 18.6295 12.838 18.6289 17.1067 C 18.6289 20.7307 18.6169 21.7979 18.5775 21.8745 C 18.5495 21.9285 18.4744 22.0118 18.4106 22.0591 C 18.3012 22.1401 18.2355 22.1461 17.2717 22.1571 L 16.2488 22.1691 L 16.2232 22.2854 C 16.1857 22.4555 15.9408 22.72 15.7504 22.796 L 15.5848 22.862 L 15.5848 23.365 C 15.5848 23.6416 15.5666 23.8957 15.5452 23.9295 C 15.5111 23.9835 15.0829 23.9925 12.1617 24.0005 C 9.92655 24.0105 8.7933 24.0005 8.74518 23.9675 Z M 9.0311 22.5085 C 9.24145 22.4085 9.33926 22.2325 9.31834 21.9903 C 9.27744 21.5171 8.70828 21.3223 8.40763 21.6786 C 8.20669 21.9168 8.2177 22.194 8.43633 22.4002 C 8.64337 22.5954 8.7907 22.6222 9.03113 22.5085 Z M 15.7431 22.4525 C 15.9506 22.2996 16.0082 22.0349 15.8887 21.7848 C 15.8015 21.6025 15.6376 21.5106 15.3995 21.5106 C 15.2353 21.5106 15.1856 21.5316 15.0688 21.6477 C 14.8465 21.8694 14.8286 22.1562 15.023 22.3815 C 15.2098 22.5981 15.5062 22.6273 15.7432 22.4525 Z M 8.0086 21.755 C 8.0326 21.686 8.0928 21.5734 8.14225 21.504 C 8.2441 21.3614 8.59226 21.1833 8.77054 21.1827 C 9.10971 21.1827 9.44034 21.3959 9.56305 21.6964 L 9.63935 21.8833 L 10.5531 21.8713 C 11.4112 21.8603 11.4707 21.8543 11.529 21.7773 C 11.5835 21.7053 11.5913 21.1342 11.5924 17.1126 C 11.5934 13.0002 11.5874 12.5233 11.529 12.4655 C 11.4715 12.4085 11.1573 12.4015 8.69 12.4015 C 5.97053 12.4015 5.91403 12.4015 5.83337 12.4835 C 5.75207 12.5645 5.75107 12.6202 5.75107 17.1025 C 5.75107 20.2343 5.76467 21.6648 5.79487 21.7212 C 5.81897 21.7662 5.87917 21.8192 5.92859 21.839 C 5.97799 21.859 6.4564 21.876 6.99164 21.878 L 7.96482 21.878 L 8.00852 21.7531 Z M 10.1281 21.2487 C 9.55274 20.989 9.72954 20.1154 10.3575 20.1154 C 10.9252 20.1154 11.1695 20.736 10.7582 21.1336 C 10.5964 21.2901 10.3283 21.339 10.1281 21.2487 Z M 10.5834 20.886 C 10.7207 20.6903 10.6381 20.4631 10.4135 20.4192 C 10.1534 20.3682 9.96722 20.7092 10.1537 20.8951 C 10.269 21.0101 10.4996 21.0052 10.5834 20.8851 Z M 6.45221 19.585 C 6.42891 19.542 6.42101 19.4767 6.43471 19.441 C 6.45711 19.383 6.69374 19.377 8.74896 19.387 L 11.0383 19.398 L 11.0522 19.496 C 11.0602 19.55 11.0413 19.6096 11.011 19.6287 C 10.9807 19.6477 9.95213 19.6637 8.72527 19.6637 C 6.56431 19.6644 6.49328 19.6637 6.45215 19.5857 Z M 6.43461 18.8609 C 6.42101 18.8249 6.42861 18.7606 6.45241 18.7169 C 6.49391 18.6399 6.55616 18.6379 8.7416 18.6479 C 10.7571 18.6579 10.9925 18.6649 11.0301 18.7249 C 11.0531 18.7619 11.0604 18.8219 11.0461 18.8583 C 11.0226 18.9193 10.8131 18.9253 8.73981 18.9253 C 6.70403 18.9253 6.45672 18.9153 6.43455 18.8613 Z M 6.31104 17.9167 C 6.26264 17.7911 6.28344 16.7696 6.33544 16.7178 C 6.37264 16.6808 6.94455 16.6688 8.65677 16.6688 C 9.90634 16.6688 10.958 16.6798 10.9938 16.6938 C 11.0488 16.7148 11.0589 16.8065 11.0589 17.2854 C 11.0589 17.5971 11.0477 17.8813 11.0339 17.917 C 11.0115 17.975 10.7651 17.982 8.67247 17.982 C 6.5799 17.982 6.33341 17.972 6.31106 17.917 Z M 10.7622 17.3354 L 10.7504 16.9763 L 8.67255 16.9763 L 6.59473 16.9763 L 6.58293 17.3354 L 6.57113 17.6944 L 8.67271 17.6944 L 10.7743 17.6944 Z M 6.35806 16.1318 C 6.29496 16.0948 6.28606 16.0196 6.28606 15.5205 C 6.28606 15.0575 6.29816 14.9389 6.35076 14.8865 C 6.40796 14.8295 6.67411 14.8225 8.65757 14.8225 C 10.1245 14.8225 10.9273 14.8375 10.9793 14.8645 C 11.0523 14.9035 11.0589 14.9555 11.0589 15.4923 C 11.0589 15.8929 11.0433 16.0932 11.0095 16.1269 C 10.945 16.1909 6.46852 16.1959 6.3581 16.1369 Z M 10.7708 15.4991 C 10.7708 15.2942 10.7538 15.1501 10.7297 15.1499 C 10.7071 15.1499 9.76746 15.1492 8.64163 15.149 L 6.59468 15.1483 L 6.58288 15.498 L 6.57108 15.8477 L 8.67108 15.8477 L 10.7711 15.8477 L 10.7711 15.4989 Z M 6.31104 14.2647 C 6.27854 14.1807 6.27854 13.1659 6.31104 13.0814 C 6.33334 13.0234 6.57634 13.0164 8.63235 13.0164 C 9.89534 13.0164 10.958 13.0274 10.9938 13.0414 C 11.0489 13.0624 11.0589 13.1555 11.0589 13.6487 C 11.0589 14.047 11.0433 14.2467 11.0095 14.2804 C 10.9723 14.3174 10.3915 14.3294 8.64806 14.3294 C 6.57772 14.3294 6.33339 14.3194 6.31104 14.2644 Z M 10.7708 13.6727 L 10.7708 13.303 L 8.68274 13.314 L 6.59464 13.325 L 6.58284 13.6841 L 6.57104 14.0431 L 8.67104 14.0431 L 10.771 14.0431 Z M 14.6344 21.7321 C 14.7214 21.492 14.966 21.2798 15.2212 21.2229 C 15.6261 21.1329 15.9879 21.3029 16.1608 21.6643 L 16.2637 21.8796 L 17.224 21.8696 C 18.178 21.8596 18.1848 21.8586 18.2629 21.7626 C 18.3392 21.6686 18.3415 21.5331 18.3415 17.1085 C 18.3415 12.9254 18.3365 12.545 18.2734 12.4761 C 18.2087 12.4051 18.066 12.4011 15.4162 12.4011 L 12.627 12.4011 L 12.563 12.4921 C 12.506 12.5731 12.4989 13.0825 12.4989 17.1431 C 12.4989 21.4346 12.5029 21.7066 12.5709 21.7655 C 12.69 21.869 12.7321 21.8732 13.6736 21.8766 L 14.5808 21.8766 L 14.6344 21.7288 Z M 16.8788 21.2499 C 16.7106 21.1739 16.5403 20.965 16.5084 20.7955 C 16.472 20.6018 16.6094 20.3058 16.7855 20.1987 C 16.9751 20.0835 17.2599 20.0881 17.4405 20.2097 C 17.6169 20.3281 17.7019 20.4974 17.6985 20.7234 C 17.6925 21.1192 17.237 21.412 16.8788 21.2503 Z M 17.3311 20.886 C 17.4294 20.746 17.4115 20.5856 17.2867 20.4877 C 17.2271 20.4407 17.1463 20.4027 17.1071 20.4027 C 16.9784 20.4027 16.8191 20.5632 16.8191 20.6929 C 16.8191 20.9497 17.1885 21.089 17.3311 20.886 Z M 13.1955 19.5991 C 13.1563 19.5521 13.1533 19.5151 13.1847 19.4657 C 13.2241 19.4037 13.4311 19.3967 15.4939 19.3867 C 17.7489 19.3757 17.7599 19.3767 17.7866 19.4607 C 17.8522 19.6667 17.8793 19.6643 15.482 19.6643 C 13.4954 19.6643 13.2437 19.6543 13.1956 19.5993 Z M 13.17 18.8583 C 13.1558 18.8213 13.163 18.7613 13.1861 18.7249 C 13.2238 18.6649 13.4524 18.6589 15.482 18.6589 C 17.5116 18.6589 17.7402 18.6689 17.7779 18.7249 C 17.8009 18.7619 17.8082 18.8219 17.794 18.8583 C 17.7705 18.9193 17.5606 18.9253 15.4821 18.9253 C 13.4035 18.9253 13.1936 18.9153 13.1701 18.8583 Z M 13.0613 17.9543 C 13.01 17.9033 13.0301 16.7708 13.0832 16.7178 C 13.1545 16.6468 17.686 16.6468 17.7572 16.7178 C 17.8093 16.7698 17.8301 17.7911 17.7817 17.9167 C 17.7593 17.9747 17.513 17.9817 15.4227 17.9817 C 14.139 17.9817 13.0763 17.9697 13.0613 17.9547 Z M 17.5186 17.3247 L 17.5186 16.955 L 15.4306 16.966 L 13.3425 16.977 L 13.3307 17.3361 L 13.3189 17.6951 L 15.4189 17.6951 L 17.5188 17.6951 Z M 13.1059 16.1318 C 13.0426 16.0948 13.0339 16.0184 13.0339 15.496 L 13.0339 14.9021 L 13.1411 14.8611 C 13.2872 14.8061 17.6254 14.8101 17.7297 14.8611 C 17.7994 14.8981 17.8067 14.9571 17.8067 15.4875 C 17.8067 15.8881 17.7911 16.0884 17.7573 16.1221 C 17.6928 16.1861 13.2163 16.1911 13.1058 16.1321 Z M 17.5186 15.4991 L 17.5186 15.1503 L 15.4614 15.1503 L 13.3733 15.1503 C 13.3563 15.1503 13.3371 15.3071 13.3306 15.4991 L 13.3188 15.8481 L 15.4188 15.8481 L 17.5188 15.8481 Z M 13.0842 14.2951 C 13.0445 14.2701 13.0344 14.1118 13.0431 13.6494 L 13.0545 13.037 L 15.338 13.026 C 16.5939 13.016 17.6632 13.026 17.7141 13.037 C 17.8047 13.059 17.8067 13.072 17.8067 13.6454 C 17.8067 14.0465 17.7911 14.247 17.7573 14.2807 C 17.6997 14.3377 13.1743 14.3527 13.0842 14.2957 Z M 17.5186 13.6731 L 17.5186 13.3037 L 15.4203 13.3037 L 13.3219 13.3037 L 13.3219 13.6731 L 13.3219 14.0424 L 15.4203 14.0424 L 17.5186 14.0424 Z M 19.3784 21.2562 C 19.295 21.1732 19.3216 21.1128 19.5245 20.9257 C 19.6319 20.8267 19.8624 20.613 20.0366 20.451 C 20.2108 20.289 20.3715 20.1565 20.3937 20.1565 C 20.4497 20.1565 20.5633 20.2752 20.5635 20.3338 C 20.5635 20.3888 20.029 20.9083 19.7265 21.1478 C 19.5138 21.3161 19.4564 21.334 19.3784 21.2562 Z M 4.15359 21.0353 C 3.89629 20.8031 3.84994 20.7001 3.96121 20.608 C 4.03581 20.546 4.14779 20.608 4.44385 20.8872 C 4.66137 21.0901 4.66859 21.1072 4.57566 21.1999 C 4.47514 21.3001 4.42571 21.2809 4.15359 21.0353 Z M 2.86359 19.7359 C 2.26082 19.0434 2.1293 18.7818 2.384 18.7818 C 2.4722 18.7818 2.54432 18.8468 2.7543 19.1149 C 2.89773 19.2981 3.08605 19.5327 3.17276 19.6362 C 3.28765 19.7733 3.3232 19.8472 3.30372 19.9084 C 3.25262 20.069 3.10227 20.01 2.86359 19.7359 Z M 21.0983 19.4328 C 21.0983 19.3648 21.1945 19.1942 21.3589 18.9712 C 21.5022 18.7768 21.6735 18.539 21.7395 18.4429 C 21.8334 18.306 21.8818 18.2704 21.9623 18.2787 C 22.1434 18.2977 22.1157 18.4577 21.8715 18.8055 C 21.4438 19.4144 21.3332 19.5373 21.2114 19.5392 C 21.1161 19.5392 21.0982 19.5242 21.0982 19.4328 Z M 1.61953 17.9586 C 1.51016 17.8495 1.0149 16.8242 1.02788 16.7336 C 1.03588 16.6756 1.07528 16.6436 1.1507 16.6356 C 1.2546 16.6236 1.27773 16.6556 1.53453 17.1687 C 1.68484 17.469 1.82758 17.7384 1.85176 17.7674 C 1.88296 17.8054 1.88236 17.8494 1.84976 17.9216 C 1.79666 18.0378 1.71266 18.0514 1.6199 17.9586 Z M 22.4371 17.4125 C 22.4203 17.3595 22.4826 17.174 22.6135 16.8869 C 22.7247 16.6427 22.8409 16.372 22.8718 16.2853 C 22.9316 16.1172 23.0286 16.0385 23.1288 16.0769 C 23.2441 16.1209 23.2364 16.22 23.0901 16.5777 C 22.8068 17.2697 22.6936 17.4674 22.5728 17.4814 C 22.4929 17.4914 22.4561 17.4714 22.4372 17.4124 Z M 0.61368 15.7109 C 0.54828 15.6319 0.27289 14.5368 0.28739 14.4129 C 0.30099 14.2963 0.44358 14.2488 0.5126 14.3379 C 0.5815 14.4269 0.87229 15.6206 0.84338 15.6957 C 0.81128 15.7787 0.67785 15.7877 0.61368 15.7107 Z M 23.3343 15.128 C 23.3209 15.093 23.3205 15.0054 23.3333 14.9331 C 23.386 14.6374 23.5745 13.7759 23.593 13.7461 C 23.6342 13.6801 23.8083 13.7141 23.8337 13.7941 C 23.8751 13.9242 23.6484 15.0267 23.557 15.1399 C 23.4993 15.2119 23.3635 15.2039 23.3342 15.1279 Z M 0.09913 13.3123 C 0.08813 13.2943 0.06903 13.1422 0.05693 12.9738 C -0.01877 11.9259 -0.01857 11.965 0.05193 11.8942 C 0.13493 11.8112 0.17326 11.8092 0.24838 11.8842 C 0.29118 11.9272 0.31338 12.1174 0.33268 12.6077 C 0.34708 12.9737 0.34898 13.2893 0.33668 13.3089 C 0.30908 13.3539 0.12562 13.3559 0.09845 13.3089 Z M 23.7197 12.7448 C 23.7036 12.7288 23.6904 12.407 23.6904 12.0299 C 23.6904 11.307 23.7107 11.2263 23.8839 11.2594 C 23.9445 11.2714 23.9632 11.3324 23.9874 11.5989 C 24.0037 11.7778 24.0037 12.11 23.9874 12.337 C 23.9585 12.7394 23.9552 12.7501 23.8534 12.7619 C 23.796 12.7719 23.7359 12.7609 23.7197 12.7449 Z M 9.92742 10.6857 C 9.7686 10.5847 9.67644 10.4799 9.62272 10.3389 L 9.57972 10.2262 L 8.86307 10.2262 C 8.24753 10.2262 8.1429 10.2162 8.12144 10.1612 C 8.10774 10.1252 8.09644 9.2477 8.09644 8.2105 L 8.09644 6.3248 L 7.48134 6.3348 C 7.14304 6.3348 6.8468 6.3248 6.82303 6.3138 C 6.76263 6.2768 6.76913 6.1468 6.83403 6.093 C 6.86623 6.066 7.12992 6.043 7.48206 6.037 L 8.07586 6.026 L 8.08656 4.1909 C 8.09696 2.4016 8.09926 2.3548 8.17976 2.3118 C 8.22916 2.2858 8.51388 2.2688 8.88908 2.2718 L 9.56284 2.2718 C 9.58864 2.2709 9.62124 2.2288 9.63514 2.1778 C 9.69624 1.9552 9.96243 1.7777 10.2352 1.7777 C 10.8514 1.7777 11.1527 2.4359 10.7434 2.8877 C 10.4276 3.2363 9.90275 3.1708 9.6466 2.7507 C 9.6024 2.6787 9.5642 2.6115 9.5616 2.6025 C 9.5586 2.5925 9.29775 2.5865 8.98093 2.5885 L 8.4049 2.5885 L 8.3942 4.3162 L 8.3834 6.0439 L 8.98147 6.0439 L 9.57953 6.0439 L 9.62243 5.931 C 9.71873 5.6775 9.97665 5.5036 10.2564 5.5036 C 10.9182 5.5036 11.1738 6.3675 10.6222 6.74 C 10.3029 6.9556 9.82942 6.829 9.66934 6.486 L 9.59814 6.3332 L 8.99126 6.3322 L 8.38437 6.3312 L 8.38437 8.1367 L 8.38437 9.9422 L 9.00154 9.9422 C 9.53916 9.9422 9.61871 9.9322 9.61871 9.8762 C 9.61871 9.7585 9.78009 9.5813 9.9712 9.489 C 10.3026 9.329 10.6903 9.463 10.8501 9.7921 C 10.9597 10.0177 10.9572 10.209 10.8421 10.4097 C 10.7065 10.6464 10.5644 10.734 10.2879 10.7517 C 10.106 10.7637 10.022 10.7517 9.92733 10.6887 Z M 10.4454 10.4022 C 10.6106 10.3052 10.6723 10.1058 10.5877 9.9427 C 10.3706 9.524 9.72973 9.7997 9.91016 10.2341 C 9.96146 10.3577 10.1199 10.4679 10.2502 10.4707 C 10.292 10.4717 10.3798 10.4407 10.4454 10.4017 Z M 10.4681 6.4732 C 10.5153 6.4402 10.5771 6.3571 10.6056 6.2885 C 10.7379 5.9702 10.3132 5.6508 10.0454 5.8672 C 9.83665 6.0358 9.81422 6.2419 9.98599 6.4131 C 10.1218 6.5485 10.3241 6.5737 10.4681 6.4731 Z M 10.4681 2.7263 C 10.6165 2.6063 10.6589 2.4851 10.607 2.3284 C 10.4976 1.9976 10.0846 1.963 9.92477 2.2714 C 9.74821 2.6119 10.1712 2.9662 10.4681 2.7265 Z M 2.35705 10.6714 C 1.37979 10.5467 0.55378 10.1917 0.36016 9.8132 C 0.28156 9.6595 0.27926 9.5543 0.27926 6.1481 L 0.27926 2.6412 L 0.41495 2.4636 C 0.68371 2.1118 1.18614 1.8904 2.17192 1.6892 C 2.52814 1.6162 3.75016 1.5902 4.2132 1.6462 C 4.71341 1.7062 5.40585 1.8719 5.70271 2.0029 C 6.04047 2.1518 6.3101 2.3679 6.40678 2.5671 C 6.49108 2.7407 6.49208 2.7858 6.49208 6.1681 L 6.49208 9.5934 L 6.39948 9.7761 C 6.18533 10.1989 5.39473 10.5465 4.35361 10.6755 C 3.94307 10.7265 2.76823 10.7235 2.357 10.6755 Z M 4.24834 10.3885 C 5.21916 10.2776 6.03081 9.9368 6.16551 9.5835 C 6.18671 9.5275 6.20411 9.1233 6.20411 8.6847 C 6.20411 8.0177 6.19411 7.8872 6.14481 7.8872 C 6.11221 7.8872 6.07451 7.9052 6.06091 7.9272 C 6.01411 8.0032 5.6176 8.1763 5.26353 8.2763 C 4.63601 8.4537 4.17967 8.5119 3.40623 8.5132 C 2.30205 8.5132 1.48382 8.3571 0.83468 8.0165 C 0.72152 7.9575 0.61506 7.9022 0.59809 7.8946 C 0.58109 7.8846 0.56719 8.2694 0.56719 8.7444 L 0.56719 9.6081 L 0.68941 9.7469 C 0.92548 10.0151 1.70528 10.3003 2.43928 10.387 C 2.85883 10.437 3.82215 10.438 4.24828 10.387 Z M 4.77786 8.0977 C 5.48159 7.9465 6.0081 7.6789 6.13852 7.4061 C 6.23112 7.2123 6.23672 5.6714 6.14452 5.6714 C 6.11192 5.6714 6.07352 5.6904 6.05932 5.7134 C 6.04502 5.7364 5.94676 5.7994 5.84088 5.8522 C 5.16112 6.1948 3.86428 6.3807 2.79274 6.2893 C 1.92342 6.2153 1.2885 6.0596 0.85286 5.814 C 0.71389 5.736 0.58809 5.6715 0.5733 5.6715 C 0.5361 5.6715 0.5813 7.4003 0.6203 7.4795 C 0.6782 7.596 1.09944 7.8388 1.44031 7.952 C 2.07722 8.1636 2.50637 8.2154 3.48828 8.1993 C 4.19412 8.1873 4.45469 8.1673 4.7776 8.0979 Z M 3.88373 5.9984 C 4.70118 5.9334 5.21496 5.8152 5.66921 5.5877 C 5.9514 5.4463 6.10423 5.3152 6.1605 5.166 C 6.2038 5.0512 6.2247 3.4555 6.1829 3.4555 C 6.1712 3.4555 6.06365 3.5105 5.9438 3.5782 C 5.47826 3.8402 4.83212 4.002 3.95063 4.0772 C 2.78201 4.1772 1.39942 3.9576 0.79787 3.5772 C 0.69209 3.5102 0.59693 3.4555 0.58639 3.4555 C 0.57589 3.4555 0.56729 3.8427 0.56729 4.3158 L 0.56729 5.1761 L 0.69521 5.3214 C 0.97256 5.6364 1.85915 5.9255 2.75792 5.9939 C 3.01268 6.0129 3.25085 6.0319 3.28717 6.0349 C 3.32347 6.0349 3.59195 6.0219 3.88377 5.9979 Z M 3.98223 3.7838 C 5.04849 3.6928 5.89359 3.3929 6.12213 3.0241 C 6.23156 2.8475 6.19973 2.7166 6.00622 2.5472 C 5.02159 1.685 1.63714 1.6997 0.71163 2.5702 C 0.42571 2.8392 0.54944 3.1163 1.06864 3.3698 C 1.79971 3.7267 2.86935 3.8787 3.98223 3.7838 Z M 14.0113 10.6738 C 13.9437 10.6348 13.9393 10.4392 13.9393 7.4804 C 13.9393 4.4912 13.9353 4.3233 13.8641 4.2304 C 13.7882 4.1314 13.2291 3.3156 12.6765 2.4971 C 12.5111 2.252 12.3757 2.0281 12.3757 1.9994 C 12.3757 1.9194 12.4868 1.8457 12.5692 1.8718 C 12.6099 1.8848 12.6924 1.9739 12.7525 2.0701 C 12.8126 2.1661 12.9708 2.402 13.1041 2.5938 C 13.2374 2.7856 13.5099 3.1826 13.7096 3.476 C 13.9094 3.7694 14.1014 4.0421 14.1363 4.0819 C 14.1949 4.1489 14.3003 4.1529 15.4766 4.1429 L 16.7532 4.1319 L 16.7552 3.7696 C 16.7582 3.334 16.7937 3.2907 17.1521 3.2907 C 17.3742 3.2907 17.3894 3.2807 17.4285 3.1722 C 17.4662 3.0645 17.4554 3.0397 17.3091 2.8972 C 17.0565 2.6512 17.0781 2.565 17.4951 2.1547 C 17.7074 1.9458 17.8753 1.8135 17.928 1.8135 C 17.9754 1.8135 18.0964 1.8895 18.197 1.9815 C 18.359 2.1304 18.3928 2.1452 18.4944 2.1116 C 18.6017 2.0766 18.6097 2.0576 18.6214 1.8131 C 18.6382 1.461 18.662 1.4471 19.2491 1.4454 C 19.8404 1.4454 19.8715 1.4614 19.8969 1.8112 C 19.9128 2.0297 19.9292 2.0724 20.0121 2.1101 C 20.0971 2.1491 20.1312 2.1331 20.294 1.9837 C 20.3959 1.8897 20.5189 1.8135 20.5674 1.8135 C 20.6223 1.8135 20.7858 1.9401 21.0004 2.149 C 21.4179 2.5555 21.4404 2.6478 21.1827 2.8987 C 21.0248 3.0524 21.022 3.0602 21.0809 3.1738 C 21.1363 3.2807 21.1608 3.2907 21.3667 3.2907 C 21.7028 3.2907 21.7565 3.3617 21.7565 3.8036 L 21.7565 4.1524 L 21.9524 4.1524 L 22.1483 4.1524 L 22.6621 3.3915 C 22.9448 2.9731 23.2825 2.4807 23.4126 2.2974 C 23.5427 2.1141 23.6492 1.9499 23.6492 1.9326 C 23.6492 1.8846 23.7934 1.8496 23.8697 1.8786 C 24.0209 1.9366 23.9668 2.0399 23.2172 3.1266 C 23.1005 3.2959 22.8629 3.6432 22.6893 3.8983 L 22.3737 4.3623 L 22.3737 7.4977 C 22.3737 10.5649 22.3717 10.634 22.2934 10.6759 C 22.184 10.7339 14.1126 10.7319 14.011 10.6759 Z M 22.086 7.4153 L 22.086 4.4403 L 18.1566 4.4403 L 14.2273 4.4403 L 14.2273 7.4153 L 14.2273 10.3903 L 18.1566 10.3903 L 22.086 10.3903 Z M 17.6917 9.5204 C 17.6645 9.4934 17.6423 9.3736 17.6423 9.2544 C 17.6423 9.0559 17.6333 9.0355 17.5365 9.0113 C 17.4531 8.9903 17.4025 9.0119 17.2979 9.1131 C 17.0943 9.3099 17.0061 9.2863 16.6641 8.9429 C 16.316 8.5934 16.2948 8.5064 16.5076 8.3006 C 16.6254 8.1868 16.6419 8.15 16.6082 8.0763 C 16.5748 8.0033 16.5401 7.9903 16.4051 8.0033 C 16.3011 8.0133 16.2053 7.9933 16.14 7.9523 C 16.041 7.8873 16.0376 7.8703 16.0376 7.4227 C 16.0376 7.1175 16.0544 6.9432 16.087 6.9107 C 16.1142 6.8837 16.2342 6.8617 16.3537 6.8617 C 16.5538 6.8617 16.5731 6.8517 16.598 6.7542 C 16.6198 6.6682 16.6 6.6234 16.496 6.5265 C 16.2916 6.336 16.3181 6.2355 16.6641 5.8881 C 17.0061 5.5447 17.1048 5.5172 17.2926 5.7127 C 17.4921 5.9204 17.6423 5.8564 17.6423 5.5638 C 17.6423 5.2934 17.7007 5.2613 18.1929 5.2613 C 18.703 5.2613 18.7669 5.2943 18.7775 5.5607 C 18.7815 5.6628 18.7974 5.7665 18.8126 5.7911 C 18.8621 5.8711 18.9821 5.8391 19.1029 5.7131 C 19.2852 5.5234 19.3778 5.5489 19.7245 5.8842 C 20.0751 6.2233 20.098 6.3081 19.9024 6.5448 C 19.726 6.7582 19.7625 6.8621 20.0136 6.8621 C 20.3416 6.8621 20.3579 6.8861 20.3579 7.3719 C 20.3579 7.8921 20.3128 7.9731 20.0035 8.0085 C 19.7509 8.0375 19.7178 8.1397 19.9036 8.3172 C 20.1031 8.5078 20.0757 8.6093 19.7324 8.9489 C 19.3897 9.2881 19.2941 9.3129 19.0918 9.1156 C 18.9056 8.9341 18.8212 8.9667 18.7885 9.2331 C 18.7482 9.561 18.7321 9.5703 18.201 9.5703 C 17.8981 9.5703 17.7242 9.5533 17.6917 9.5213 Z M 18.4652 9.1216 C 18.4652 8.8851 18.4989 8.8313 18.7009 8.7449 C 18.953 8.6372 19.0366 8.6459 19.1944 8.7989 L 19.331 8.9309 L 19.5194 8.743 L 19.7078 8.5551 L 19.5803 8.425 C 19.5099 8.353 19.4527 8.2511 19.4527 8.1971 C 19.4527 8.0611 19.6031 7.7245 19.6673 7.7169 C 19.6964 7.7169 19.7387 7.7069 19.7613 7.7009 C 19.7839 7.6909 19.8626 7.6889 19.9361 7.6869 L 20.0698 7.6869 L 20.0698 7.4202 L 20.0698 7.1535 L 19.9026 7.1535 C 19.6759 7.1535 19.5979 7.1035 19.5193 6.9076 C 19.4236 6.6691 19.4357 6.5798 19.5846 6.4266 L 19.7166 6.2909 L 19.5207 6.0982 L 19.3247 5.9056 L 19.2015 6.0371 C 19.0617 6.1863 18.9573 6.2002 18.7117 6.1021 C 18.5154 6.0241 18.4652 5.9459 18.4652 5.7199 L 18.4652 5.553 L 18.1978 5.553 L 17.9303 5.553 L 17.9303 5.7199 C 17.9303 5.9459 17.8801 6.0237 17.6838 6.1021 C 17.4452 6.1971 17.3552 6.1851 17.2034 6.0391 L 17.0692 5.9094 L 16.88 6.1063 L 16.6908 6.3032 L 16.8168 6.4329 C 16.9676 6.5881 16.9751 6.7033 16.8503 6.9501 C 16.7601 7.1284 16.7521 7.1335 16.5417 7.1456 L 16.3257 7.1576 L 16.3257 7.4221 L 16.3257 7.6867 L 16.493 7.6867 C 16.7197 7.6867 16.7977 7.7367 16.8762 7.9326 C 16.9734 8.1749 16.9599 8.2759 16.8107 8.4214 L 16.6785 8.5503 L 16.8716 8.7429 L 17.0647 8.9355 L 17.2012 8.8035 C 17.3622 8.648 17.4687 8.6402 17.7247 8.7655 C 17.9057 8.8545 17.9101 8.8615 17.9223 9.0715 L 17.9348 9.287 L 18.2001 9.287 L 18.4654 9.287 Z M 17.9643 8.3414 C 17.5971 8.2242 17.3614 7.9717 17.2718 7.5992 C 17.232 7.4336 17.2351 7.3602 17.2901 7.1715 C 17.4418 6.6513 17.9403 6.3646 18.4409 6.5097 C 18.8791 6.6367 19.1338 6.9721 19.1338 7.4217 C 19.1338 7.7738 18.9743 8.0599 18.6884 8.2203 C 18.4696 8.3429 18.1413 8.3979 17.9644 8.3414 Z M 18.5804 7.9341 C 18.7988 7.779 18.8962 7.4361 18.7962 7.1739 C 18.7746 7.1169 18.7 7.0165 18.6304 6.9502 C 18.1992 6.5392 17.5121 6.8832 17.5697 7.4809 C 17.6179 7.9814 18.1671 8.2276 18.5804 7.9341 Z M 18.1772 3.9732 C 18.1772 3.6679 18.2979 3.374 18.5107 3.1609 C 18.7296 2.9416 18.9433 2.8611 19.2881 2.8679 C 19.8505 2.8789 20.2637 3.2794 20.3139 3.8617 L 20.3373 4.1326 L 20.8494 4.1446 C 21.131 4.1546 21.3809 4.1446 21.4048 4.1446 C 21.4312 4.1346 21.4428 4.0216 21.4344 3.8561 L 21.4206 3.584 L 21.2081 3.5834 C 20.9454 3.5826 20.9174 3.5654 20.8135 3.3366 C 20.693 3.0718 20.705 2.9751 20.8808 2.7955 L 21.0334 2.6397 L 20.8102 2.4142 C 20.6874 2.2903 20.5771 2.1889 20.565 2.189 C 20.5529 2.189 20.4726 2.254 20.3864 2.3326 C 20.207 2.497 20.1454 2.5055 19.8978 2.3996 C 19.6597 2.2978 19.6245 2.2469 19.6094 1.9824 L 19.5967 1.758 L 19.2593 1.746 L 18.9219 1.734 L 18.9096 1.9921 L 18.8973 2.2502 L 18.671 2.3617 C 18.5465 2.4227 18.4083 2.4738 18.3639 2.4745 C 18.3195 2.4753 18.2078 2.4025 18.1157 2.3119 L 17.9481 2.1479 L 17.7026 2.3964 L 17.4572 2.6449 L 17.5715 2.7289 C 17.6344 2.7749 17.7135 2.8663 17.7475 2.9317 C 17.8042 3.041 17.8018 3.0682 17.7193 3.266 C 17.6034 3.5435 17.5487 3.5839 17.2887 3.5839 L 17.0743 3.5839 L 17.06 3.7788 C 17.0306 4.1809 16.9971 4.1584 17.6246 4.1584 L 18.1772 4.1584 Z M 20.0206 3.9622 C 20.0507 3.5509 19.6901 3.1682 19.2725 3.1682 C 19.0307 3.1682 18.7737 3.2837 18.6414 3.4519 C 18.5255 3.5991 18.444 3.8988 18.4804 4.0435 L 18.5084 4.1549 L 19.2583 4.1439 L 20.0081 4.1329 Z M 23.5904 10.2596 C 23.527 10.0631 23.3182 8.9365 23.3365 8.8892 C 23.3734 8.7932 23.5642 8.8172 23.6043 8.9232 C 23.6759 9.1118 23.8609 10.0592 23.848 10.1714 C 23.8373 10.2634 23.8113 10.2903 23.7212 10.3006 C 23.654 10.3106 23.6008 10.2906 23.5904 10.2596 Z M 6.80724 1.4174 C 6.69766 1.3081 6.90964 1.0892 7.16506 1.0479 C 7.32302 1.0219 7.37573 1.0729 7.33982 1.2156 C 7.30662 1.3476 6.894 1.5039 6.80724 1.4174 Z M 16.4993 1.2161 C 16.38 1.1621 16.1174 1.0598 15.9158 0.9896 C 15.5571 0.8646 15.4822 0.8066 15.5276 0.6888 C 15.5816 0.5484 15.6878 0.5696 16.4694 0.8768 C 16.9523 1.0665 17.0115 1.1111 16.9452 1.2348 C 16.8856 1.3457 16.7736 1.341 16.4993 1.2158 Z M 8.2632 0.8113 C 8.1342 0.6563 8.3574 0.5495 9.26906 0.3302 L 9.59822 0.2512 L 9.67132 0.3412 C 9.73792 0.4232 9.73862 0.4372 9.67932 0.5023 C 9.64372 0.5413 9.54511 0.5843 9.46011 0.5983 C 9.37511 0.6123 9.11212 0.6783 8.87569 0.7466 C 8.38577 0.8875 8.3307 0.8934 8.26283 0.8116 Z M 14.3865 0.5643 C 14.3762 0.5543 14.1185 0.5073 13.8139 0.4604 C 13.5093 0.4134 13.2277 0.3654 13.1881 0.3533 C 13.0949 0.3253 13.0926 0.1381 13.1851 0.1027 C 13.223 0.0887 13.5332 0.1187 13.8743 0.1697 C 14.5555 0.2724 14.6881 0.3319 14.6001 0.4959 C 14.5581 0.5739 14.4356 0.6132 14.3865 0.5639 Z M 10.6892 0.3171 C 10.6625 0.2851 10.6469 0.2261 10.6547 0.186 C 10.6719 0.097 10.8192 0.0698 11.496 0.0321 L 11.9948 0.0041 L 12.0168 0.1189 C 12.0289 0.1819 12.0308 0.2465 12.0208 0.2623 C 11.9969 0.3003 11.7475 0.3283 11.1964 0.3543 C 10.8304 0.3713 10.7278 0.3643 10.689 0.3173 Z"
       id="path2932323" /></g></svg>
