<?xml version="1.0" encoding="UTF-8" standalone="no"?>
<!-- Created with Inkscape (http://www.inkscape.org/) -->

<svg
   width="23.999891"
   height="24.000048"
   viewBox="0 0 23.999891 24.000048"
   version="1.1"
   id="svg5"
   xml:space="preserve"
   xmlns="http://www.w3.org/2000/svg"
   xmlns:svg="http://www.w3.org/2000/svg"><defs
     id="defs2" /><g
     id="layer1"><path
       style="fill:#000000;stroke-width:0.0385138"
       d="M 11.5783 23.9759 C 11.5553 23.9523 11.5364 23.8312 11.5364 23.7069 L 11.5364 23.4809 L 9.17 23.4708 L 6.80355 23.4608 L 6.78455 22.4463 L 6.76555 21.4318 L 6.59754 21.4195 C 6.31586 21.3988 6.28281 21.4223 6.14394 21.7408 C 5.85108 22.4127 5.23141 23.0379 4.54524 23.3538 C 3.99597 23.6066 3.21474 23.6996 2.64126 23.5803 C 1.80368 23.4061 1.13873 22.9876 0.65361 22.3293 C 0.38253 21.9614 0.20667 21.5906 0.08807 21.1366 C -0.03055 20.6825 -0.02974 19.9328 0.09007 19.4875 C 0.24035 18.928 0.49289 18.4613 0.87902 18.0295 C 1.23585 17.6304 1.89221 17.2317 2.40457 17.1029 L 2.67913 17.0338 L 2.68013 15.2139 C 2.68113 13.528 2.68613 13.3825 2.75113 13.2379 C 2.83233 13.0573 2.95725 12.929 3.10942 12.8698 C 3.18102 12.8419 4.00023 12.8282 5.58721 12.8282 C 7.69176 12.8282 7.96468 12.8213 8.0177 12.7669 C 8.0632 12.7202 8.0774 12.6215 8.0774 12.3534 C 8.0774 12.0916 8.094 11.9724 8.1423 11.8886 C 8.27126 11.6646 8.32068 11.6576 9.78813 11.6576 C 11.546 11.6576 11.4749 11.6238 11.5104 12.477 C 11.5216 12.7453 11.5321 12.9692 11.5337 12.9745 C 11.5357 12.9799 11.7551 12.9843 12.0219 12.9843 C 12.4915 12.9843 12.5103 12.9876 12.6134 13.0857 C 12.7672 13.232 12.7913 13.3295 12.7913 13.8062 L 12.7913 14.2329 L 13.239 14.2329 C 13.7099 14.2329 13.7824 14.255 13.94 14.4463 C 14.0005 14.5197 14.0053 14.7579 14.0065 17.6974 C 14.0075 20.7398 14.0045 20.8751 13.9354 21.014 C 13.8481 21.1887 13.7218 21.3147 13.5776 21.3707 C 13.5049 21.399 12.4418 21.4124 10.26 21.4124 L 7.04952 21.4124 L 7.05972 22.3 L 7.06992 23.1877 L 9.29381 23.1877 L 11.5177 23.1877 L 11.5367 22.9381 C 11.5496 22.7691 11.5751 22.676 11.6158 22.6498 C 11.661 22.6207 11.8376 22.6862 12.3286 22.9139 C 12.8936 23.176 12.9813 23.2284 12.9813 23.3047 C 12.9813 23.4234 12.9642 23.4345 12.354 23.7133 C 11.7144 24.0055 11.6339 24.0328 11.5786 23.9759 Z M 12.4481 23.3197 C 12.4481 23.3003 12.0578 23.1063 11.8501 23.0228 C 11.8145 23.0085 11.8026 23.0823 11.8026 23.3175 L 11.8026 23.6313 L 12.125 23.4875 C 12.3023 23.4084 12.4477 23.3329 12.4481 23.3197 Z M 3.68568 23.3037 C 4.6283 23.135 5.43169 22.5294 5.84564 21.6755 C 6.09868 21.1535 6.15569 20.9027 6.15388 20.3198 C 6.15188 19.6363 6.00828 19.1442 5.65707 18.6161 C 4.82469 17.3645 3.1806 16.9363 1.87722 17.6318 C 1.1574 18.0159 0.64437 18.6528 0.38976 19.4787 C 0.28218 19.8276 0.2578 20.4931 0.33746 20.9071 C 0.45734 21.5303 0.86009 22.2346 1.31101 22.6094 C 1.78561 23.0039 2.19255 23.1984 2.76769 23.3055 C 3.13564 23.374 3.29492 23.3737 3.68572 23.3038 Z M 2.83969 22.4397 C 2.76359 22.4083 2.67892 22.2095 2.67892 22.0622 C 2.67892 21.8746 2.59112 21.8527 2.41989 21.9975 C 2.1916 22.1907 2.09254 22.1644 1.77298 21.8262 C 1.62309 21.6675 1.50045 21.5083 1.50045 21.4724 C 1.50045 21.3893 1.56505 21.2603 1.66085 21.1522 C 1.71055 21.0961 1.72725 21.0405 1.71055 20.9864 C 1.69015 20.9205 1.65425 20.9051 1.5211 20.9051 C 1.41597 20.9051 1.32448 20.8782 1.26707 20.8305 C 1.18287 20.7605 1.17727 20.73 1.17727 20.3393 C 1.17727 19.9486 1.18327 19.9181 1.26707 19.8481 C 1.32447 19.8004 1.41597 19.7735 1.5211 19.7735 C 1.73553 19.7735 1.78477 19.6628 1.6399 19.5065 C 1.51914 19.3761 1.4807 19.2222 1.53941 19.1041 C 1.56441 19.0538 1.68561 18.9117 1.80878 18.7883 C 2.08043 18.5161 2.20593 18.4941 2.39768 18.6849 C 2.57298 18.8592 2.66364 18.8189 2.68829 18.5556 C 2.71629 18.2561 2.78689 18.2128 3.24673 18.2128 C 3.58362 18.2128 3.6233 18.2207 3.6987 18.3031 C 3.7562 18.3658 3.7814 18.4428 3.7814 18.5553 C 3.7814 18.6781 3.8001 18.7275 3.8585 18.7596 C 3.9225 18.7948 3.95942 18.7818 4.07625 18.6829 C 4.30143 18.4924 4.40317 18.516 4.69907 18.8273 C 4.83677 18.9722 4.96016 19.1224 4.97329 19.1612 C 5.00519 19.2555 4.91199 19.4758 4.80857 19.5501 C 4.73887 19.6002 4.73217 19.6233 4.76787 19.6918 C 4.80097 19.7552 4.84697 19.7735 4.97306 19.7735 C 5.08412 19.7735 5.16198 19.7987 5.21883 19.8531 C 5.29403 19.9249 5.30203 19.9714 5.30203 20.3335 C 5.30203 20.8204 5.25413 20.9051 4.97877 20.9051 C 4.84657 20.9051 4.80133 20.9227 4.76765 20.9873 C 4.73085 21.0578 4.74235 21.0881 4.84865 21.2007 C 5.05022 21.4141 5.02532 21.5258 4.70461 21.8466 C 4.38606 22.1653 4.26969 22.1926 4.07641 21.9942 C 3.97544 21.8906 3.94669 21.8796 3.87024 21.9154 C 3.79624 21.95 3.78144 21.9863 3.78144 22.1333 C 3.78144 22.4198 3.70734 22.4665 3.25874 22.4627 C 3.05488 22.461 2.86635 22.4507 2.83977 22.4397 Z M 3.51526 21.9589 C 3.53376 21.7499 3.53856 21.7424 3.70534 21.6588 C 3.94288 21.5397 4.05006 21.5457 4.18053 21.6854 C 4.24063 21.7498 4.30434 21.8025 4.32211 21.8025 C 4.33991 21.8025 4.42916 21.7236 4.52049 21.6271 L 4.68654 21.4518 L 4.55709 21.3189 C 4.40644 21.1642 4.39928 21.0978 4.50639 20.8492 C 4.59479 20.6441 4.60661 20.6361 4.84575 20.6201 L 5.01682 20.6087 L 5.02812 20.3472 L 5.03942 20.0857 L 4.90712 20.0857 C 4.68413 20.0857 4.59135 20.0263 4.50638 19.8291 C 4.40104 19.5847 4.40571 19.5463 4.56068 19.3834 L 4.69364 19.2437 L 4.50396 19.0519 L 4.31429 18.8602 L 4.18862 18.9852 C 4.04328 19.1298 3.96588 19.1384 3.73307 19.036 C 3.54326 18.9525 3.51534 18.904 3.51534 18.6583 L 3.51534 18.4859 L 3.24924 18.4859 L 2.98313 18.4859 L 2.98313 18.6712 C 2.98213 18.8982 2.96773 18.9223 2.76663 19.0269 C 2.55046 19.1394 2.4468 19.1318 2.30543 18.9932 C 2.23983 18.9288 2.17239 18.8761 2.15564 18.8761 C 2.13894 18.8761 2.05046 18.9543 1.95912 19.0498 L 1.79305 19.2235 L 1.9322 19.3815 C 2.0087 19.4685 2.07135 19.5477 2.07135 19.5576 C 2.07135 19.5675 2.03555 19.6738 1.99175 19.7939 C 1.90565 20.0302 1.82992 20.0857 1.59372 20.0857 L 1.46313 20.0857 L 1.46313 20.3553 L 1.46313 20.6249 L 1.63259 20.6223 C 1.72579 20.6208 1.83077 20.6441 1.86587 20.674 C 1.92667 20.7259 2.07138 21.028 2.07138 21.1033 C 2.07138 21.1229 2.00958 21.2092 1.93399 21.2951 L 1.79658 21.4512 L 1.9702 21.6268 C 2.0657 21.7235 2.15853 21.8025 2.17652 21.8025 C 2.19452 21.8025 2.25842 21.7498 2.31848 21.6855 C 2.44806 21.5466 2.55 21.539 2.76666 21.6517 C 2.9643 21.7545 2.98244 21.7821 2.98316 21.9814 C 2.98316 22.069 2.99316 22.1503 3.00446 22.162 C 3.01586 22.1737 3.13134 22.181 3.26106 22.1782 L 3.49692 22.1732 Z M 2.88688 21.1831 C 2.58548 21.0426 2.33636 20.6513 2.33719 20.3198 C 2.33719 20.2447 2.37799 20.0954 2.42749 19.9881 C 2.65521 19.4946 3.15538 19.2946 3.61025 19.5153 C 3.94999 19.6802 4.12826 19.9617 4.13157 20.3385 C 4.13757 20.988 3.45755 21.4492 2.88683 21.1831 Z M 3.58234 20.8516 C 3.7194 20.7598 3.8574 20.5077 3.8574 20.349 C 3.8574 20.0147 3.56936 19.728 3.23345 19.728 C 2.78416 19.728 2.5021 20.2313 2.72413 20.6367 C 2.90402 20.9653 3.27421 21.0579 3.58234 20.8516 Z M 13.4716 21.0898 C 13.5219 21.0633 13.5988 20.9921 13.6427 20.9315 C 13.7218 20.8221 13.7225 20.7994 13.7326 17.7439 L 13.7428 14.6664 L 13.6589 14.5862 C 13.5777 14.5086 13.5339 14.506 12.2981 14.506 C 11.2039 14.506 11.0091 14.5147 10.9367 14.5667 C 10.8598 14.622 10.8522 14.6598 10.8521 14.9862 C 10.8521 15.3838 10.7796 15.5773 10.6158 15.6179 C 10.5681 15.6297 9.45995 15.6434 8.15318 15.6482 C 6.01021 15.6562 5.76849 15.6634 5.68821 15.7217 C 5.47788 15.8746 5.47402 15.8953 5.46116 16.9379 L 5.44926 17.9067 L 5.61485 18.089 C 6.31694 18.862 6.60192 19.9548 6.38234 21.0319 L 6.36044 21.1392 L 9.87038 21.1386 C 12.5804 21.1379 13.4011 21.127 13.4717 21.0898 Z M 5.29854 15.7091 C 5.34894 15.6337 5.45031 15.5297 5.52382 15.4779 L 5.65749 15.3839 L 8.08538 15.3731 C 10.0284 15.3644 10.5171 15.3521 10.5322 15.3117 C 10.5425 15.284 10.5551 15.1008 10.5601 14.9046 C 10.5671 14.6145 10.5838 14.5277 10.6478 14.4392 C 10.7873 14.2463 10.8496 14.2341 11.698 14.2334 L 12.4868 14.2328 L 12.4868 13.7855 C 12.4868 13.3831 12.4798 13.3341 12.4133 13.2977 C 12.3667 13.2721 11.8596 13.2574 11.028 13.2574 L 9.71608 13.2574 L 9.65688 13.3441 C 9.61358 13.4076 9.59768 13.5287 9.59768 13.7967 C 9.59768 14.155 9.59568 14.1648 9.48048 14.2749 L 9.36329 14.3872 L 6.93418 14.3978 L 4.50506 14.4084 L 4.3808 14.5359 L 4.25654 14.6634 L 4.24564 15.9048 L 4.23464 17.1462 L 4.47373 17.2509 C 4.60523 17.3084 4.81545 17.4222 4.9409 17.5037 L 5.169 17.6519 L 5.188 16.7491 C 5.2064 15.8747 5.2099 15.8418 5.29861 15.709 Z M 3.97144 15.8284 C 3.97144 14.5358 3.97544 14.5043 4.16741 14.3252 C 4.39968 14.1084 4.30368 14.1158 6.87012 14.1158 C 8.66295 14.1158 9.25146 14.1044 9.28598 14.069 C 9.31458 14.0396 9.33158 13.8934 9.33158 13.6769 C 9.33158 13.3238 9.37458 13.1715 9.50587 13.0595 C 9.55627 13.0165 9.75853 12.9993 10.3922 12.9843 L 11.2133 12.9648 L 11.2241 12.5452 C 11.2301 12.2997 11.2181 12.0933 11.1943 12.0477 C 11.1548 11.9721 11.1142 11.9698 9.80821 11.9698 C 8.63572 11.9698 8.45504 11.9777 8.40298 12.0311 C 8.35768 12.0776 8.34328 12.1759 8.34328 12.439 C 8.34328 12.6296 8.32378 12.8294 8.29998 12.883 C 8.20238 13.1028 8.22088 13.1013 5.62512 13.1013 L 3.24161 13.1013 L 3.11236 13.234 L 2.98311 13.3667 L 2.98311 15.1849 L 2.98311 17.0032 L 3.27773 17.0061 C 3.43977 17.0077 3.64933 17.022 3.74341 17.0379 C 3.83751 17.0537 3.92731 17.0602 3.943 17.0522 C 3.9587 17.0442 3.9715 16.4935 3.9715 15.8284 Z M 13.933 23.5407 C 13.8357 23.4205 13.9211 23.3351 14.2035 23.2696 C 14.5499 23.1894 14.6876 23.1897 14.718 23.271 C 14.76 23.3834 14.6718 23.4592 14.422 23.5253 C 14.111 23.6076 13.9901 23.6114 13.933 23.5407 Z M 15.6977 23.0075 C 15.6628 22.8947 15.7543 22.8161 16.0793 22.6797 C 16.2256 22.6182 16.4982 22.4934 16.6849 22.4022 C 17.0501 22.224 17.1627 22.2241 17.1627 22.4029 C 17.1627 22.4783 17.102 22.5235 16.7921 22.6786 C 16.3353 22.9072 15.8922 23.0902 15.7957 23.0902 C 15.7554 23.0902 15.712 23.0537 15.6978 23.0076 Z M 18.0244 21.8155 C 17.953 21.7423 18.0079 21.6118 18.1509 21.5147 C 18.2344 21.458 18.4844 21.2615 18.7065 21.0782 C 19.1369 20.7228 19.2622 20.6772 19.2839 20.8683 C 19.2968 20.982 19.091 21.1831 18.534 21.6011 C 18.2408 21.8212 18.0912 21.8841 18.0244 21.8155 Z M 19.9774 20.029 C 19.9094 19.9449 19.9518 19.8576 20.1953 19.5817 C 20.3966 19.3535 20.4224 19.3363 20.4997 19.3787 C 20.6329 19.4519 20.6004 19.5669 20.3704 19.8358 C 20.1552 20.0874 20.0617 20.1333 19.9774 20.029 Z M 15.8132 18.4097 C 15.7714 18.3919 15.6944 18.3302 15.6421 18.2724 L 15.5471 18.1675 L 15.537 14.7753 C 15.528 11.7444 15.533 11.3703 15.587 11.2637 C 15.7008 11.0378 15.7394 11.0333 17.5784 11.0333 C 19.1931 11.0333 19.2523 11.0359 19.2903 11.1088 C 19.3126 11.1516 19.3297 11.4476 19.3297 11.7916 L 19.3297 12.399 L 19.4475 12.399 C 19.7484 12.399 19.9875 12.6555 19.9923 12.9835 C 19.9973 13.2974 19.7526 13.5695 19.4663 13.5695 L 19.3297 13.5695 L 19.3297 14.0573 L 19.3297 14.545 L 19.8048 14.545 L 20.28 14.545 L 20.28 14.3987 C 20.28 13.9904 20.7269 13.7439 21.1195 13.9352 C 21.2776 14.0122 21.4203 14.2439 21.4203 14.4235 L 21.4203 14.545 L 21.8778 14.545 C 22.3747 14.545 22.5446 14.5889 22.6509 14.7447 C 22.7059 14.8252 22.7129 15.024 22.7129 16.496 C 22.7129 17.9679 22.7059 18.1667 22.6509 18.2472 C 22.5119 18.4509 22.5812 18.4471 19.1121 18.4444 C 17.3395 18.443 15.8549 18.4274 15.8131 18.4097 Z M 19.0341 17.4812 L 19.0445 16.8276 L 19.2855 16.8079 C 19.4898 16.7913 19.5405 16.7716 19.6181 16.6789 C 19.7204 16.5569 19.7303 16.4915 19.6655 16.3666 C 19.5946 16.2299 19.5125 16.1864 19.3232 16.185 C 19.0128 16.1828 19.0255 16.2106 19.0255 15.5358 L 19.0255 14.9352 L 18.4267 14.9346 C 18.0974 14.934 17.8032 14.9179 17.7729 14.8982 C 17.7345 14.8733 17.7169 14.7853 17.715 14.6083 C 17.713 14.3961 17.6971 14.3378 17.6209 14.2545 C 17.5048 14.1277 17.356 14.1262 17.2253 14.2505 C 17.1369 14.3346 17.1247 14.3762 17.1247 14.5939 C 17.1247 14.7345 17.105 14.8618 17.0791 14.8884 C 17.0475 14.9209 16.8494 14.9352 16.4329 14.9352 L 15.8322 14.9352 L 15.8322 16.4733 C 15.8322 17.3192 15.8425 18.0391 15.8553 18.073 C 15.8758 18.1279 16.0521 18.1347 17.4511 18.1347 L 19.0237 18.1347 L 19.0342 17.4812 Z M 22.4012 18.0879 C 22.4667 18.0207 22.4667 14.9712 22.4012 14.904 C 22.37 14.8719 22.1813 14.857 21.8025 14.8566 C 21.4983 14.8559 21.2252 14.8403 21.1958 14.8212 C 21.1636 14.8002 21.1395 14.711 21.1355 14.5974 C 21.1255 14.3259 21.1247 14.3219 21.0331 14.2344 C 20.9198 14.126 20.7542 14.1328 20.6394 14.2506 C 20.5636 14.3284 20.5461 14.3855 20.5461 14.5549 C 20.5461 14.6697 20.5256 14.7846 20.5005 14.8103 C 20.469 14.8427 20.2747 14.8572 19.8722 14.8572 L 19.2894 14.8572 L 19.3 15.3742 L 19.3106 15.8912 L 19.4247 15.9018 C 19.6387 15.9219 19.6997 15.9486 19.8195 16.0743 C 19.9758 16.2384 20.0314 16.4466 19.9726 16.6481 C 19.8925 16.9224 19.6907 17.0812 19.4222 17.0812 L 19.2916 17.0812 L 19.2916 17.608 L 19.2916 18.1347 L 20.8237 18.1347 C 21.9645 18.1347 22.3673 18.1228 22.4013 18.0879 Z M 16.8349 14.4377 C 16.8819 14.0763 17.0891 13.8752 17.4146 13.8752 C 17.7359 13.8752 17.9991 14.1355 17.9991 14.4532 L 17.9991 14.6231 L 18.5123 14.6231 L 19.0255 14.6231 L 19.0255 14.0066 C 19.0255 13.5791 19.0395 13.3757 19.0711 13.3432 C 19.0962 13.3175 19.2049 13.2964 19.3126 13.2964 C 19.6257 13.2964 19.7791 13.1051 19.6675 12.8538 C 19.6122 12.7293 19.4827 12.6721 19.2558 12.6721 C 19.1229 12.6721 19.0652 12.6549 19.0485 12.6104 C 19.0358 12.5764 19.0254 12.278 19.0254 11.9471 L 19.0254 11.3455 L 17.4491 11.3455 C 15.9296 11.3455 15.8714 11.3482 15.8335 11.421 C 15.8082 11.4694 15.7941 12.0567 15.7941 13.0597 L 15.7941 14.6231 L 16.3024 14.6231 L 16.8107 14.6231 Z M 1.54677 15.3546 C 1.52527 15.3278 1.47767 15.1618 1.44097 14.9858 C 1.38637 14.7237 1.38307 14.6547 1.42297 14.6053 C 1.48597 14.5274 1.55401 14.5288 1.61934 14.6092 C 1.69294 14.6999 1.79639 15.2219 1.7605 15.3215 C 1.7279 15.412 1.60759 15.4306 1.54677 15.3546 Z M 1.29246 13.5557 C 1.22866 13.5078 1.22166 13.4372 1.21866 12.8092 C 1.21566 12.189 1.22266 12.1111 1.28186 12.0722 C 1.32686 12.0428 1.36776 12.0413 1.40811 12.0675 C 1.45781 12.0998 1.47031 12.2236 1.48251 12.8067 C 1.49901 13.5972 1.47451 13.6926 1.29243 13.5556 Z M 20.3017 13.3912 C 20.2517 13.3399 20.242 13.2129 20.242 12.6156 C 20.242 11.795 20.242 11.7944 20.5496 11.8088 C 20.714 11.8165 20.7527 11.8028 20.8512 11.7016 C 20.9737 11.576 20.9886 11.5043 20.92 11.3722 C 20.8477 11.2329 20.7662 11.1919 20.5583 11.1906 C 20.2458 11.1886 20.242 11.1791 20.242 10.3842 C 20.242 9.98824 20.2585 9.66986 20.2814 9.62609 C 20.3194 9.55327 20.378 9.55062 21.9445 9.55067 C 23.7335 9.55073 23.7313 9.55067 23.9078 9.79729 C 23.984 9.90383 23.9869 9.95954 23.9973 11.5127 C 24.0043 12.6364 23.9953 13.1498 23.9653 13.224 C 23.8905 13.4093 23.733 13.4525 23.1325 13.4525 C 22.834 13.4525 22.5613 13.4345 22.5205 13.4121 C 22.4619 13.3799 22.447 13.3294 22.447 13.1637 C 22.447 12.8931 22.3475 12.7501 22.1591 12.7501 C 21.969 12.7501 21.8768 12.862 21.8768 13.0926 C 21.8768 13.1982 21.8511 13.3167 21.8176 13.3658 C 21.7601 13.45 21.7386 13.4525 21.06 13.4525 C 20.4757 13.4525 20.3518 13.4425 20.3018 13.3912 Z M 21.5725 13.0258 C 21.5725 12.7425 21.7775 12.4971 22.049 12.4553 C 22.409 12.3999 22.713 12.6501 22.713 13.0018 L 22.713 13.1403 L 23.2064 13.1403 C 23.6917 13.1403 23.7003 13.1388 23.7222 13.0493 C 23.7344 12.9992 23.739 12.2987 23.7324 11.4926 C 23.7211 10.1157 23.716 10.022 23.648 9.94484 C 23.5767 9.86402 23.5522 9.86275 22.0608 9.86275 L 20.5461 9.86275 L 20.5461 10.37 L 20.5461 10.8772 L 20.6482 10.8772 C 20.8125 10.8772 21.0681 11.0266 21.1573 11.1748 C 21.2714 11.3642 21.2488 11.7272 21.1139 11.8754 C 20.9862 12.0157 20.8406 12.0868 20.681 12.0868 L 20.5461 12.0868 L 20.5461 12.6136 L 20.5461 13.1403 L 21.0593 13.1403 L 21.5725 13.1403 Z M 1.35283 11.0193 C 1.30643 10.9619 1.35783 10.615 1.50735 9.97982 C 1.59285 9.61597 1.62709 9.55061 1.73186 9.55061 C 1.85674 9.55061 1.87564 9.66725 1.80146 9.97982 C 1.76326 10.1408 1.70346 10.4305 1.66851 10.6236 C 1.63361 10.8168 1.58791 10.9967 1.5671 11.0236 C 1.5171 11.0879 1.40656 11.0857 1.35287 11.0194 Z M 12.9379 9.87427 C 12.8828 9.86557 12.7676 9.79677 12.6817 9.72138 C 12.531 9.58891 12.5069 9.58183 11.9646 9.51052 C 11.6559 9.46994 10.9929 9.38256 10.4911 9.31634 C 9.98925 9.25013 9.41862 9.17737 9.22299 9.15465 L 8.86728 9.11334 L 8.70978 9.26974 C 8.33076 9.6461 7.8946 9.82374 7.34959 9.82374 C 6.41588 9.82374 5.66135 9.15862 5.53521 8.22435 C 5.42258 7.39013 5.81794 6.61899 6.54931 6.24636 C 6.71007 6.16446 6.84412 6.09745 6.84723 6.09745 C 6.85023 6.09745 6.88913 5.71116 6.93343 5.23904 C 6.97773 4.76691 7.03033 4.21382 7.05038 4.00995 C 7.07038 3.80607 7.09778 3.47194 7.11138 3.26742 L 7.13598 2.89557 L 6.94965 2.84655 C 6.41829 2.70678 5.98423 2.05446 6.03493 1.47189 C 6.06913 1.07915 6.17064 0.85615 6.44252 0.57667 C 6.74897 0.261656 6.96652 0.169933 7.41191 0.16795 C 7.66709 0.16685 7.75274 0.18418 7.94412 0.275876 C 8.20477 0.400756 8.4669 0.643858 8.57718 0.862998 L 8.65278 1.01313 L 8.94473 0.990183 C 9.1053 0.977563 9.69 0.948773 10.2441 0.926233 C 10.7981 0.903683 11.5581 0.868403 11.933 0.847823 C 12.3078 0.827243 12.7547 0.810413 12.9261 0.810413 C 13.3721 0.810413 13.4754 0.783523 13.4754 0.667416 C 13.4754 0.396102 13.7981 0.055358 14.099 0.009053 C 14.7837 -0.096335 15.2332 0.741199 14.7762 1.27072 L 14.6988 1.36035 L 15.0428 2.22668 C 15.232 2.70316 15.4576 3.27696 15.544 3.5018 L 15.7012 3.91059 L 15.8589 3.93822 C 16.1973 3.99751 16.4149 4.20793 16.4741 4.53296 C 16.5588 4.99825 16.2843 5.38645 15.8318 5.44146 C 15.6536 5.46312 15.6272 5.47967 15.5387 5.62529 C 15.4852 5.7133 15.3858 5.87309 15.3179 5.9804 C 15.25 6.0877 14.86 6.71546 14.4512 7.37543 L 13.7079 8.57536 L 13.8002 8.74108 C 13.9671 9.04067 13.9052 9.45945 13.6591 9.69507 C 13.4789 9.86755 13.2522 9.92389 12.938 9.87427 Z M 13.381 9.52809 C 13.7283 9.35894 13.6687 8.79059 13.2913 8.67337 C 12.9687 8.57314 12.6117 8.93692 12.7156 9.26004 C 12.8083 9.54822 13.0991 9.66539 13.381 9.52809 Z M 7.70241 9.49431 C 8.0153 9.42624 8.22594 9.31808 8.43992 9.11565 C 8.81203 8.76358 8.97315 8.3404 8.94201 7.79692 C 8.90791 7.2023 8.6112 6.74515 8.08659 6.479 C 7.81168 6.33953 7.77633 6.33156 7.43283 6.33156 C 7.05199 6.33156 6.83678 6.38955 6.55648 6.56773 C 5.96361 6.94458 5.65708 7.77038 5.87053 8.41583 C 6.0562 8.97732 6.45164 9.35748 6.99366 9.49555 C 7.24743 9.56019 7.40077 9.55993 7.70241 9.49435 Z M 12.4113 9.11165 C 12.4113 9.01037 12.4461 8.88415 12.5 8.78737 L 12.5883 8.62893 L 12.338 8.31248 C 12.2003 8.13843 11.8509 7.69606 11.5616 7.32944 C 11.2723 6.96283 11.0217 6.67169 11.0047 6.68246 C 10.9692 6.70501 9.48881 7.23564 9.3029 7.29248 C 9.18188 7.32947 9.17981 7.33385 9.2079 7.49425 C 9.2613 7.7994 9.233 8.24405 9.1418 8.53521 C 9.0942 8.68728 9.0618 8.81767 9.0698 8.82497 C 9.0778 8.83227 9.82005 8.93521 10.7191 9.05371 C 11.6182 9.17222 12.3666 9.27104 12.3823 9.27333 C 12.398 9.27563 12.411 9.20286 12.4113 9.11165 Z M 14.1474 7.30708 C 14.52 6.70623 14.8932 6.10455 14.9769 5.97002 C 15.0605 5.8355 15.179 5.64408 15.2402 5.54466 L 15.3514 5.36389 L 15.2469 5.27164 C 15.1894 5.2209 15.1277 5.18871 15.1098 5.2001 C 15.0644 5.22889 11.508 6.50701 11.4713 6.50774 C 11.4549 6.50836 11.4178 6.52372 11.3889 6.54252 C 11.3477 6.56928 11.3766 6.62704 11.5219 6.80864 C 11.624 6.93621 11.9504 7.34679 12.2472 7.72105 L 12.7869 8.40151 L 13.1285 8.40053 L 13.4701 8.39954 L 14.1474 7.30707 Z M 9.86113 6.78028 C 10.2796 6.63005 10.6363 6.50715 10.6538 6.50715 C 10.6713 6.50715 10.7168 6.48371 10.755 6.45506 C 10.8191 6.40694 10.7759 6.34206 10.1908 5.6064 C 9.84228 5.16829 9.43368 4.65389 9.2828 4.4633 C 8.15838 3.04297 7.95204 2.79864 7.89237 2.81683 C 7.85807 2.82729 7.74445 2.8568 7.63991 2.88239 C 7.53537 2.90799 7.44538 2.93238 7.43993 2.9366 C 7.42943 2.9447 7.41163 3.13037 7.26 4.80984 C 7.2077 5.38926 7.1649 5.90285 7.1648 5.95114 C 7.1648 6.03403 7.1801 6.03898 7.44032 6.03989 C 7.7783 6.04109 7.98479 6.0877 8.2628 6.22565 C 8.50469 6.34569 8.90985 6.73915 8.98609 6.92804 C 9.01389 6.99699 9.05099 7.05341 9.06849 7.05341 C 9.08599 7.05341 9.44266 6.93051 9.86111 6.78028 Z M 12.7449 5.7426 C 13.617 5.4294 14.4803 5.11956 14.6632 5.05404 L 14.9959 4.93494 L 14.9959 4.75533 L 14.9959 4.57571 L 14.6824 4.45111 C 14.062 4.2045 12.7906 3.69686 11.7649 3.28619 C 11.1899 3.05598 10.5655 2.80714 10.3773 2.7332 C 10.1891 2.65926 9.73127 2.47732 9.35984 2.32889 C 8.9884 2.18045 8.67081 2.05901 8.65409 2.05901 C 8.63739 2.05901 8.59549 2.11969 8.56109 2.19385 C 8.52659 2.26802 8.43587 2.39977 8.35942 2.48663 C 8.26102 2.59843 8.23123 2.65877 8.25746 2.6932 C 8.30026 2.74933 8.99338 3.62747 9.51244 4.28307 C 9.9337 4.81516 10.4012 5.40108 10.5864 5.62907 C 10.6596 5.71915 10.8125 5.90967 10.9262 6.05245 C 11.0399 6.19523 11.139 6.31205 11.1463 6.31205 C 11.1533 6.31205 11.8732 6.0558 12.7453 5.7426 Z M 16.0142 5.07205 C 16.3074 4.87483 16.2518 4.40026 15.9188 4.25741 C 15.6341 4.13534 15.3 4.36257 15.3 4.6782 C 15.3 4.93285 15.3995 5.07167 15.6421 5.15548 C 15.7233 5.18353 15.911 5.14145 16.0142 5.07205 Z M 15.2556 4.12703 L 15.4202 3.97418 L 15.0994 3.16291 C 14.923 2.71672 14.7036 2.1629 14.6119 1.9322 L 14.4452 1.51275 L 14.2168 1.51213 C 13.944 1.51139 13.7237 1.40092 13.6083 1.20695 L 13.5323 1.0792 L 12.867 1.10197 C 12.5011 1.11449 11.8682 1.14116 11.4605 1.16124 C 11.0527 1.18132 10.2701 1.21861 9.72127 1.24411 L 8.72337 1.29047 L 8.72337 1.53396 C 8.72337 1.76153 8.72937 1.77905 8.81897 1.80208 C 8.87157 1.81563 9.23508 1.95628 9.6268 2.11464 C 10.2682 2.37394 13.7225 3.75294 14.6727 4.12903 C 14.8818 4.21178 15.0614 4.27959 15.0719 4.2797 C 15.0824 4.2797 15.165 4.21112 15.2556 4.12705 Z M 7.79446 2.53151 C 8.47097 2.21612 8.65941 1.34914 8.16853 0.810488 C 7.72816 0.327271 7.04241 0.334322 6.60408 0.826578 C 6.39543 1.06091 6.32822 1.24379 6.32875 1.5758 C 6.32975 1.97328 6.54895 2.32575 6.91762 2.52121 C 7.12164 2.62937 7.57317 2.63468 7.79446 2.53151 Z M 14.4564 1.16057 C 14.838 0.921826 14.6702 0.303161 14.2239 0.303161 C 14.0166 0.303161 13.7935 0.478724 13.7587 0.669172 C 13.7087 0.942617 13.947 1.23932 14.2165 1.23932 C 14.2792 1.23932 14.3872 1.20388 14.4564 1.16057 Z M 2.04217 8.62734 C 1.95757 8.59232 1.99117 8.42883 2.16664 8.0199 C 2.45727 7.34281 2.5282 7.22899 2.65955 7.22899 C 2.73415 7.22899 2.77701 7.25075 2.78487 7.29269 C 2.79187 7.32773 2.68476 7.59505 2.54779 7.88675 C 2.41083 8.17844 2.29877 8.4351 2.29877 8.4571 C 2.29877 8.50488 2.1588 8.65449 2.1182 8.6501 C 2.1025 8.6484 2.0683 8.63817 2.0422 8.62734 Z M 21.4657 7.58556 C 21.425 7.53967 21.3346 7.39158 21.2648 7.25647 C 21.1654 7.06401 21.1467 6.99642 21.1787 6.94432 C 21.2379 6.84778 21.3274 6.84275 21.4075 6.93146 C 21.5191 7.05501 21.7278 7.50653 21.7035 7.57164 C 21.6669 7.66944 21.5464 7.6765 21.4657 7.58556 Z M 3.21874 6.38228 C 3.13884 6.30031 3.16824 6.21536 3.3727 5.93678 C 3.88794 5.23478 4.0149 5.10534 4.13994 5.15459 C 4.25663 5.20055 4.20074 5.35726 3.96194 5.65362 C 3.83126 5.8158 3.64311 6.05664 3.54381 6.18881 C 3.3613 6.43174 3.30157 6.46729 3.21874 6.38228 Z M 20.4452 5.99015 C 20.3252 5.83456 20.217 5.69848 20.2047 5.68775 C 20.1924 5.67702 20.1176 5.58595 20.0385 5.48536 C 19.9163 5.33008 19.9009 5.29033 19.9366 5.22198 C 19.9787 5.14119 20.0758 5.11785 20.1472 5.17135 C 20.1993 5.21039 20.5389 5.62519 20.7103 5.85919 C 20.8587 6.06178 20.8891 6.21034 20.7901 6.24935 C 20.6844 6.29097 20.6673 6.27809 20.4452 5.99015 Z M 18.9114 4.35637 C 18.7128 4.18249 18.5107 4.00622 18.4623 3.96467 C 18.3503 3.8684 18.3631 3.72241 18.4853 3.70463 C 18.5446 3.69603 18.66 3.76097 18.8465 3.90801 C 19.1954 4.18303 19.4817 4.45358 19.4817 4.50819 C 19.4817 4.56491 19.3735 4.67336 19.3174 4.67289 C 19.2928 4.67289 19.1101 4.53025 18.9115 4.35637 Z M 4.87362 4.51211 C 4.75618 4.44466 4.80312 4.33294 5.04234 4.11077 C 5.29497 3.87612 5.42263 3.83777 5.49419 3.97503 C 5.53209 4.04768 5.51489 4.07812 5.34586 4.2384 C 5.08573 4.48502 4.95668 4.55982 4.87362 4.51211 Z M 17.341 3.20667 C 17.0756 3.04795 17.0454 3.01802 17.0559 2.9245 C 17.0685 2.81224 17.2013 2.75959 17.2884 2.83231 C 17.3134 2.85317 17.4193 2.91794 17.5239 2.97624 C 17.7048 3.07717 17.809 3.17141 17.809 3.23424 C 17.809 3.27074 17.698 3.38588 17.6637 3.38494 C 17.6495 3.38433 17.5043 3.30433 17.341 3.20668 Z"
       id="path2932327" /></g></svg>
